<svg width="229" height="206" viewBox="0 0 229 206" fill="none" xmlns="http://www.w3.org/2000/svg">
<g clip-path="url(#clip0_1_5093)">
<path fill-rule="evenodd" clip-rule="evenodd" d="M126.512 163.724C122.844 162.503 123.057 159.026 122.153 156.239C121.515 154.276 122.445 152.471 122.977 150.693C124.332 146.207 125.768 141.643 131.429 140.767C132.784 140.555 132.465 139.546 132.386 138.75C132.2 137.29 132.014 135.857 131.588 134.45C129.94 128.824 133.289 124.472 136.266 121.977C136.452 121.818 136.691 121.552 136.904 121.552C141.103 121.526 141.13 118.739 141.422 115.528C141.954 109.663 146.1 105.575 152.001 103.824C154.446 103.107 159.416 106.664 160.745 109.424C161.808 111.653 161.516 113.75 160.612 115.846C159.416 118.713 159.841 120.464 163.137 121.791C164.599 122.375 165.901 123.33 166.964 124.498C167.416 125.082 167.576 125.692 167.257 126.382C167.15 126.542 166.964 126.754 166.885 126.701C164.306 124.684 160.798 124.445 158.406 121.924C156.2 119.588 155.854 116.987 156.758 114.227C158.353 109.371 156.838 107.141 151.868 107.407C147.801 107.619 144.24 112.184 144.957 116.244C145.276 117.996 145.01 119.429 143.522 120.676C141.981 121.977 140.758 123.463 138.765 124.445C136.984 125.321 136.133 128.054 135.947 130.31C135.708 133.283 136.054 136.229 137.914 138.75C138.552 139.626 138.818 140.608 138.897 142.067C140.971 140.077 142.007 140.767 142.512 143.049C142.698 143.872 143.283 144.589 143.522 145.438C144.08 147.508 146.26 147.986 147.828 146.42C148.12 146.101 148.28 145.677 148.545 145.332C149.21 144.376 150.007 143.341 151.283 143.845C152.718 144.403 152.904 145.73 152.559 147.136C152.187 148.782 152.027 150.348 150.592 151.754C149.369 152.949 149.529 155.125 149.662 156.983C149.874 160.273 149.715 160.512 146.632 161.786C144.745 162.582 143.017 165.741 143.336 167.837C143.522 169.085 143.416 170.385 141.821 170.199C139.429 169.907 139.429 171.367 139.509 172.906C139.562 173.809 139.509 174.817 140.147 175.719C141.263 175.268 141.369 174.26 141.369 173.357C141.449 169.695 144.745 168.395 146.765 166.192C147.801 165.051 149.449 166.086 149.715 167.784C149.901 168.952 149.555 170.013 148.944 170.995C148.599 171.553 147.748 172.084 148.439 172.774C148.944 173.278 149.609 172.774 150.087 172.402C151.575 171.261 152.745 171.5 153.728 173.278C152.718 170.305 153.861 168.076 155.668 166.006C156.067 165.555 156.359 164.918 157.077 165.024C157.954 165.157 157.981 165.953 158.14 166.616C158.273 167.2 158.14 167.837 158.911 168.58C159.017 166.776 159.549 165.263 160.267 163.856C160.745 162.874 161.542 162.211 162.473 161.707C164.067 160.857 164.758 161.282 164.519 163.087C164.413 163.936 164.306 164.52 165.29 164.52C166.406 164.52 165.742 163.644 165.768 163.193C165.928 160.857 165.689 158.548 165.449 156.213C165.263 154.355 164.306 151.568 167.895 151.33C168.267 151.33 168.506 150.985 168.506 150.587C168.506 149.366 168.612 148.171 168.718 146.951C168.851 145.464 167.363 145.332 166.592 144.589C166.486 144.482 166.406 144.429 166.406 144.429C165.795 143.819 165.104 143.235 165.157 142.253C165.157 141.882 165.449 141.59 165.821 141.563C167.017 141.51 166.831 142.81 167.522 143.288C168.107 143.633 168.745 144.297 169.277 144.244C172.918 143.845 172.918 146.791 173.742 148.968C174.459 150.852 175.018 152.789 175.762 154.674C177.383 158.734 176.24 162.37 173.423 165.581C172.572 166.537 172.413 167.996 170.473 168.103C169.144 168.182 168.772 170.12 169.064 171.553C169.197 172.216 169.649 172.8 169.489 173.543C168.586 173.729 168.453 172.747 167.735 172.349C167.044 173.649 167.469 174.923 167.708 176.144C168.16 178.586 168.054 180.948 167.071 183.257C166.858 183.734 166.778 184.239 166.752 184.769C166.592 188.565 166.566 188.512 163.137 189.626C161.516 190.157 159.815 190.475 158.326 191.484C156.864 192.492 155.934 191.431 155.137 190.316C154.632 188.777 153.462 188.22 151.974 187.689C149.635 186.866 147.429 185.751 144.931 187.105C144.505 187.105 143.841 187.264 143.682 187.025C141.981 184.371 138.791 184.371 136.479 182.859C132.784 180.444 132.253 178.984 133.794 174.446C135.017 170.836 134.592 166.829 136.559 163.432C136.851 162.954 137.037 162.211 136.452 161.76C135.867 161.282 135.283 161.76 134.778 162.052C133.954 162.529 132.997 162.768 132.226 163.352C130.348 164.821 128.443 164.944 126.512 163.724Z" fill="#AEC574"/>
<path fill-rule="evenodd" clip-rule="evenodd" d="M191.311 78.1602C192.454 75.8778 194.527 74.5243 196.574 73.33C197.876 72.5604 198.328 71.6315 198.647 70.3842C199.338 67.624 200.428 65.0497 201.916 62.6081C203.936 59.2906 207.63 59.3702 210.607 60.3257C215.391 61.8915 216.986 65.607 216.933 70.3045C216.906 72.7727 216.375 75.4532 219.538 76.621C220.229 77.7887 221.398 78.3991 222.461 79.1422C223.976 80.1773 225.225 81.4777 226.102 83.1231C226.634 84.1051 226.714 84.9544 226.368 86.069C225.597 88.5638 225.73 91.2973 224.481 93.739C223.896 94.8536 224.587 96.1275 225.066 97.2422C226.182 99.7369 225.996 102.47 226.687 105.018C227.112 106.637 226.421 107.858 225.119 108.84C222.541 110.724 221.106 114.971 222.116 117.863C222.488 118.952 222.647 119.88 221.451 120.544C220.866 120.862 220.68 121.446 220.468 122.03C219.883 123.835 218.554 124.578 216.747 124.737C214.594 124.949 212.415 125.082 210.395 125.958C209.65 126.276 208.853 126.117 208.082 125.905C206.753 125.533 205.531 125.719 204.308 126.356C202.767 127.126 201.172 127.471 199.63 126.303C198.913 125.294 199.577 124.313 199.63 123.304C199.737 121.526 198.992 121.022 197.424 121.791C196.627 122.163 195.776 122.694 195.006 121.951C194.261 121.234 194.607 120.279 195.085 119.535C196.76 117.067 196.574 114.811 194.394 112.768C193.411 111.839 193.57 110.963 194.368 110.034C194.873 109.45 195.351 108.734 196.016 108.389C199.046 106.823 199.099 103.506 200.454 100.984C200.826 100.321 200.959 99.3388 200.109 98.5161C199.072 99.3653 199.497 100.321 199.577 101.223C199.71 102.975 198.833 104.036 197.291 104.594C196.202 104.992 195.218 104.594 194.527 103.665C193.916 102.869 193.889 101.993 194.634 101.329C195.776 100.321 195.431 99.3919 194.74 98.3568C193.916 97.083 193.783 95.7825 194.687 94.4555C195.085 93.8717 195.085 93.1551 195.165 92.4651C195.431 89.9703 196.574 89.3334 198.833 90.3684C199.391 90.6338 200.109 91.4831 200.428 90.2888C200.667 89.3334 200.986 88.0595 199.551 87.6879C198.647 87.4491 197.664 87.5818 196.707 87.4225C192.055 86.6794 190.647 84.8748 191.152 80.2569C191.232 79.5668 191.391 78.8768 191.311 78.1868V78.1602Z" fill="#AFC976"/>
<path fill-rule="evenodd" clip-rule="evenodd" d="M158.537 65.4204C157.447 66.7739 155.985 67.2782 154.311 67.2782C152.583 66.4024 151.175 67.4905 149.66 68.0213C148.198 68.5521 147.002 69.6933 145.328 69.6668C144.158 69.3217 144.823 67.4109 143.945 67.464C142.935 67.5436 141.314 65.3674 140.703 68.154C140.384 69.5871 138.656 69.4544 137.753 67.9151C136.052 65.0223 134.882 61.8907 135.201 58.4936C135.493 55.3354 134.51 52.4957 133.527 49.6559C132.942 47.9574 133.048 46.657 134.696 45.9935C136.317 45.3035 137.088 46.6039 137.567 47.8512C138.284 49.6029 140.065 51.3014 137.832 53.3184C139.374 51.9649 139.985 50.399 139.693 48.4882C139.48 47.0816 140.464 46.2854 141.341 45.4096C141.793 44.9584 142.138 44.4276 141.766 43.7907C141.394 43.1803 140.862 43.5253 140.384 43.6845C138.736 44.1888 137.088 43.0211 135.334 43.7907C134.643 44.1092 134.297 42.8618 134.457 42.2514C134.882 40.4202 134.005 38.4032 135.175 36.6781C135.653 35.9881 135.121 35.59 134.856 35.0592C133.128 31.7152 133.553 30.3086 136.982 28.902C138.603 28.2385 138.417 26.6461 139.161 25.5315C140.145 24.1249 141.872 26.2746 142.882 24.6557C143.706 23.3552 144.371 22.1079 144.264 20.5686C144.078 17.7554 145.806 16.0834 147.906 14.7034C148.676 14.1991 149.66 13.7745 150.351 14.3318C153.088 16.4815 156.304 15.4465 159.308 15.818C160.424 15.9507 161.54 16.0038 162.63 16.3488C165.341 17.5962 166.723 20.2501 168.637 22.3202C169.673 23.4083 170.471 24.9211 169.514 26.6196C169.248 27.0973 169.434 27.6281 169.647 28.1324C170.418 29.9636 170.019 31.7152 169.248 33.4137C168.796 34.4488 168.291 35.4838 168.318 36.6516C168.318 38.297 167.414 39.3055 166.032 39.7832C164.703 40.2079 164.597 40.9244 164.491 42.2249C164.145 46.1262 165.075 50.054 164.677 53.7696C164.384 56.5297 163.693 59.8471 161.594 62.2888C160.637 63.3769 159.255 64.0935 158.537 65.447V65.4204Z" fill="#B8CF7D"/>
<path fill-rule="evenodd" clip-rule="evenodd" d="M167.52 143.314C166.935 142.863 166.377 142.412 165.341 141.616C165.899 143.473 166.856 144.535 168.025 144.747C169.886 145.119 169.7 146.287 169.434 147.454C169.195 148.489 169.062 149.392 169.354 150.48C169.673 151.648 168.849 152.868 167.733 152.311C166.138 151.515 166.351 152.099 166.218 153.32C165.766 157.486 167.095 161.6 166.43 165.82C165.713 166.191 165.739 164.917 165.128 165.024C162.869 165.422 162.125 165.024 164.012 163.06C164.304 162.741 164.437 162.237 164.012 161.892C163.56 161.52 163.241 161.998 162.895 162.184C160.503 163.405 159.945 165.634 159.68 167.996C159.6 168.686 160.264 169.668 158.988 169.801C157.952 169.907 157.766 168.925 157.633 168.208C157.447 167.333 157.447 166.404 157.367 165.315C154.816 167.757 153.248 170.225 154.497 173.596C154.683 174.1 154.816 174.684 154.151 174.896C153.46 175.109 153.221 174.445 153.115 173.994C152.556 171.685 151.6 171.95 150.138 173.304C149.5 173.888 148.49 174.604 147.586 173.649C146.603 172.587 147.347 171.844 148.198 171.075C148.915 170.411 149.208 169.482 149.208 168.474C149.208 167.678 149.208 166.802 148.331 166.483C147.4 166.165 146.497 166.589 146.124 167.412C145.487 168.766 144.397 169.535 143.254 170.305C142.404 170.889 141.925 171.526 142.164 172.693C142.297 173.41 141.952 174.206 141.925 174.976C141.872 176.356 140.729 176.834 139.799 176.86C138.204 176.86 139.4 175.639 139.188 174.976C138.709 173.33 138.576 171.765 139.294 170.172C139.639 169.35 140.011 168.739 140.995 169.376C141.58 169.774 142.271 170.331 142.749 169.456C143.121 168.792 143.148 167.837 142.457 167.279C141.553 166.563 141.553 166.191 142.59 165.661C143.44 165.236 143.653 164.334 143.945 163.537C144.45 162.131 145.301 161.175 146.948 161.096C148.729 160.99 149.553 159.742 149.128 158.256C148.463 155.947 149.553 153.824 149.394 151.595C149.394 151.435 149.447 151.143 149.473 151.143C152.902 151.276 150.909 148.118 152.051 146.791C152.743 145.995 152.051 144.8 151.228 144.376C150.377 143.925 149.34 144.641 149.234 145.517C148.835 148.622 145.646 147.375 144.184 148.834C143.732 149.286 143.44 148.357 143.413 147.879C143.36 145.703 141.633 144.057 141.5 141.908C141.5 141.563 141.367 141.403 141.075 141.403C140.33 141.377 140.011 141.855 139.799 142.465C139.56 143.155 138.603 144.376 138.523 143.075C138.284 139.546 135.573 137.104 135.148 133.68C134.722 130.151 136.344 127.231 137.46 124.153C137.566 123.861 137.991 123.383 138.151 123.436C140.862 124.046 141.261 121.313 142.855 120.357C144.849 119.163 144.902 117.491 144.105 115.925C143.44 114.625 143.786 113.855 144.423 112.9C144.902 112.183 145.301 111.414 145.726 110.644C147.799 107.167 149.899 106.822 153.965 107.194C157.287 107.486 158.032 109.025 158.324 111.679C158.404 112.316 158.377 112.82 158.032 113.378C154.842 118.34 158.51 122.64 162.444 123.861C164.278 124.445 165.793 125.161 166.882 126.7C168.211 125.241 168.796 126.727 169.062 127.47C170.205 130.602 172.092 133.787 169.274 137.051C168.876 137.502 169.46 138.245 169.009 138.749C167.281 139.891 167.281 141.589 167.494 143.367L167.52 143.314Z" fill="#B2C77C"/>
<path fill-rule="evenodd" clip-rule="evenodd" d="M100.334 63.5109C101.344 65.8995 101.078 68.4473 100.972 70.9155C100.865 72.8794 101.849 73.8083 103.523 74.2329C108.254 75.4537 111.789 78.5854 113.171 82.8052C114.102 85.6449 115.271 89.2543 112.985 92.6779C112.055 94.0845 111.39 95.9157 110.593 97.5347C109.317 100.162 111.151 101.648 113.464 102.577C113.198 104.355 112.719 105.709 110.354 105.337C108.839 105.098 105.889 108.097 105.623 109.822C105.517 110.406 105.703 111.043 105.198 111.521C104.56 111.733 103.949 111.521 103.47 111.149C101.689 109.796 99.7757 110.061 98.0747 111.043C96.0547 112.238 94.9384 111.468 94.1411 109.743C93.4766 108.283 92.8387 108.018 91.4301 109C89.9417 110.035 88.3204 110.088 87.2041 108.204C86.7523 107.46 85.8752 107.089 85.1044 106.16C84.8386 107.487 84.9449 108.708 84.4399 109.769C83.8286 111.043 84.2007 112.158 85.2107 113.034C86.141 113.856 86.8586 114.812 87.5762 115.794C88.7722 117.439 89.4633 117.413 90.7656 115.794C92.759 113.273 93.1843 113.246 95.2042 115.741C96.0281 116.776 96.7192 117.386 97.9418 116.298C99.1644 115.21 100.759 115.635 102.194 115.396C103.603 115.157 103.762 116.431 103.311 117.333C102.38 119.191 102.779 120.81 103.683 122.508C104.161 123.358 103.975 124.34 103.975 125.322C103.975 128.347 101.875 130.815 101.796 133.814C101.796 134.61 101.078 135.168 100.228 135.407C99.9883 135.486 99.7226 135.566 99.4833 135.592C95.47 136.097 91.5364 137.026 87.6294 138.167C85.0778 138.91 82.8984 137.822 82.3137 135.354C81.5695 132.381 78.9648 129.939 79.3635 126.861C79.8685 123.119 78.0345 121.951 74.9514 121.288C73.1441 120.916 72.6125 118.74 70.9647 118.05C69.6092 115.953 69.5826 113.697 70.1673 111.362C70.5926 109.663 71.7354 108.708 73.4099 108.416C74.8185 108.15 75.1641 107.487 74.3933 106.266C74.2072 105.974 74.287 106.372 74.287 106.027C74.0212 102.126 72.7454 98.5432 70.9647 95.093C70.6457 94.4561 71.0444 93.7395 71.3368 93.1291C72.267 91.8021 72.586 90.1036 73.8086 88.9624C74.4464 88.352 74.8185 87.3169 75.9614 87.37C77.0511 89.1216 76.6525 90.8998 75.8551 92.5718C75.0843 94.1907 74.9249 95.7034 75.8019 97.2958C76.2272 98.0654 76.4132 98.9147 76.3601 99.8171C76.3335 100.481 76.0943 101.33 76.9714 101.595C77.6624 101.808 78.4332 101.542 78.8585 100.985C79.7356 99.8967 80.6126 99.3924 81.9681 100.136C82.5795 100.481 83.111 99.9232 83.5629 99.5251C84.5463 98.6228 85.5562 98.2512 86.8852 98.8882C88.0015 99.4455 88.2938 98.8351 88.0812 97.8C88.0015 97.455 88.0812 97.8797 88.0015 97.5612C86.9383 94.4295 88.0015 92.8283 91.1909 92.7575C91.244 91.5367 90.739 90.3955 90.6327 89.2012C90.553 88.2193 90.2075 87.5292 89.0646 87.5558C88.2141 87.5558 87.4965 86.7861 87.7357 86.2819C88.9051 83.9729 86.5396 83.336 85.8486 81.7967C83.7223 84.6895 81.3303 82.7787 78.9648 82.2744C78.8585 81.319 79.6824 81.2394 80.2671 80.9474C83.4034 79.3551 84.0944 77.975 82.8984 74.6576C82.0745 72.3752 83.111 70.3051 83.3236 68.1554C83.3768 67.7042 83.8021 67.4919 84.307 67.5715C84.8652 68.1023 84.9449 68.7923 84.9715 69.4823C84.9981 70.9951 85.2905 72.0567 87.2307 71.5524C87.842 71.3932 88.6393 71.8709 88.6393 72.4548C88.6659 74.4452 90.1277 75.6661 90.9251 77.2319C91.8819 79.1427 92.759 79.5408 94.5663 78.2139C96.0282 77.1257 97.4634 76.4092 99.4568 76.7011C98.5265 72.5344 99.1644 68.6596 99.191 64.8114C99.191 64.2541 98.7923 62.9536 100.281 63.5109H100.334Z" fill="#AEC870"/>
<path fill-rule="evenodd" clip-rule="evenodd" d="M162.658 16.7204C159.256 16.7735 155.88 15.7385 152.478 16.6408C152.239 16.6939 151.761 16.455 151.601 16.2162C150.884 15.1546 150.086 13.9869 148.704 14.9423C146.95 16.1366 144.824 17.1981 144.93 19.8256C145.01 21.7629 144.691 23.4615 143.442 25.1335C142.618 26.2216 141.82 26.5135 140.943 26.0093C139.561 25.2131 139.216 25.9297 139.216 26.9647C139.216 28.6101 138.392 29.4594 136.983 29.6452C135.76 29.8044 134.697 30.0167 134.538 31.4233C134.352 32.9361 134.538 34.5285 135.946 35.3247C137.249 36.0412 137.142 36.4659 136 36.9701C135.202 37.3151 134.804 37.7398 135.202 38.5094C136.053 40.1549 134.299 41.6941 135.202 43.3661C136.451 43.3661 137.754 41.1103 139.109 43.3661C139.375 43.7908 139.88 43.3661 140.199 43.0477C140.863 42.4107 141.687 41.8534 142.405 42.8088C143.176 43.8173 143.096 45.1178 142.033 45.8078C140.518 46.8163 140.093 47.7717 140.545 49.656C140.996 51.673 138.737 53.0265 138.285 54.9639C138.232 55.2028 137.674 55.017 137.435 54.7251C136.956 54.1147 136.824 53.1327 137.222 52.7877C139.986 50.4257 136.558 48.9394 136.451 46.9755C136.425 46.4447 135.521 45.8343 134.777 46.4447C134.166 46.949 133.129 47.4798 133.714 48.5414C135.893 52.4161 135.946 56.6625 136 60.8822C136.026 63.5097 137.408 65.6594 138.445 67.9152C138.737 68.5787 139.136 68.8441 139.88 68.446C140.89 67.8887 140.093 67.4906 139.774 67.066C139.508 66.7209 139.136 66.2963 139.535 65.9513C139.8 65.739 140.385 65.6594 140.731 65.7921C141.847 66.2167 142.91 66.4025 144.186 66.3759C146.392 66.3229 144.478 68.5522 145.435 69.3484C145.594 69.6138 145.568 69.8792 145.382 70.0915C143.229 71.9227 141.023 71.5246 138.923 70.0915C137.461 69.136 135.92 68.3929 134.299 67.7825C133.315 66.2698 132.172 64.9428 130.259 64.5978C129.408 63.0585 129.036 61.36 128.744 59.6349C128.584 58.6795 128.664 57.7506 129.169 56.8748C130.524 54.4597 130.498 54.3004 127.627 54.3535C125.182 54.4066 123.853 52.7346 122.365 51.4076C121.302 50.4522 121.754 48.9394 122.471 47.7717C123.561 45.9936 124.544 44.1623 125.953 42.5965C126.963 41.4553 127.043 40.4468 125.315 39.8895C123.96 39.4648 123.348 38.5625 123.667 37.1028C123.88 36.1474 123.747 35.1654 123.215 34.3427C121.78 32.0072 122.817 29.5921 122.976 27.2301C123.029 26.2747 123.96 25.9031 124.597 25.3192C126.564 23.5411 128.691 21.9487 130.205 19.6929C130.604 18.8171 131.455 18.5251 132.199 18.127C132.81 17.7024 132.996 16.747 133.926 16.7204C136.079 17.1185 136.797 19.0294 137.94 20.489C139.455 22.4264 140.066 22.4795 141.209 20.3298C142.644 17.6759 143.787 14.8627 145.78 12.5006C146.604 11.5187 146.711 9.89976 145.78 9.13012C143.176 7.06003 144.425 4.85725 145.169 2.62793C147.242 1.75212 147.588 4.40608 149.129 4.59185C149.475 5.04302 149.794 5.4942 150.139 5.94537C151.707 7.61736 151.787 9.89976 152.611 11.8637C152.664 12.2087 152.717 12.5537 152.744 12.8722C152.85 13.9869 153.648 14.1726 154.578 14.2257C156.385 14.3584 158.139 14.5442 159.973 14.2788C161.462 14.0665 163.056 14.2788 162.605 16.5347L162.658 16.7204Z" fill="#B0C978"/>
<path fill-rule="evenodd" clip-rule="evenodd" d="M71.233 117.704C71.7911 117.704 72.3492 117.863 72.5885 118.341C73.9705 120.995 76.6018 121.34 79.1002 121.871C80.1102 122.083 80.7215 122.401 80.2431 123.622C79.2331 126.223 79.7646 128.532 81.3328 130.868C82.1035 132.035 82.263 133.628 82.7148 135.034C83.3793 137.157 85.1601 138.219 87.2863 137.582C91.2465 136.414 95.2333 135.3 99.3795 134.928C100.23 134.848 101.213 134.689 101.187 133.84C101.107 130.469 103.526 127.789 103.499 124.472C103.499 124.206 103.526 123.914 103.419 123.702C102.144 121.181 100.815 118.659 103.233 115.74C101.107 116.987 98.6353 115.501 97.1204 117.837C96.5622 118.686 95.4459 117.332 94.8612 116.43C93.107 113.67 92.8678 113.67 91.1934 116.377C89.8645 118.527 88.4558 118.58 87.1003 116.403C86.4093 115.289 85.6916 114.333 84.6285 113.484C83.3793 112.476 82.6085 111.069 83.8577 109.397C84.5488 108.495 84.1501 107.38 84.2564 106.372C84.3361 105.655 84.9474 104.726 85.3461 105.549C85.984 106.955 87.7116 106.876 88.2963 108.548C88.8013 110.034 90.6086 108.972 91.4592 108.123C92.8944 106.717 93.5323 106.717 94.3031 108.734C94.8878 110.246 95.3928 112.237 98.1038 110.193C100.283 108.548 103.021 109.636 105.147 111.387C105.36 111.547 105.519 111.706 105.652 111.945C106.689 113.803 107.114 115.607 106.848 117.89C106.582 119.88 107.911 121.844 109.346 123.383C110.356 124.472 110.782 125.56 110.994 127.046C111.287 129.196 112.749 130.735 114.689 131.796C114.636 133.044 113.891 133.893 112.881 134.397C110.224 135.671 107.778 137.449 104.695 137.635C104.27 136.388 105.466 136.282 106.024 135.777C106.689 135.167 107.858 135.087 108.204 133.283C106.104 134.583 104.111 135.087 102.356 136.175C101.054 136.972 99.6985 137.502 98.2101 137.582C94.6486 137.794 91.2997 138.776 87.8711 139.652C85.3727 140.316 82.6085 139.281 80.2962 137.715C80.0038 137.502 79.8178 137.157 79.8444 136.812C80.1367 133.256 78.0636 130.151 78.0636 126.648C77.5852 124.817 76.7347 123.516 74.635 122.985C72.1366 122.375 70.7545 119.854 71.2595 117.651L71.233 117.704Z" fill="#A5C565"/>
<path fill-rule="evenodd" clip-rule="evenodd" d="M191.307 78.1585C192.264 79.3263 191.812 80.5736 191.6 81.8475C191.254 83.8911 192.663 85.4835 193.992 86.2531C195.427 87.0758 197.5 86.9166 199.308 86.8635C200.318 86.8104 201.168 86.6512 201.195 87.8455C201.195 89.2521 201.912 90.8445 200.53 91.9857C200.052 92.3837 199.6 91.8264 199.201 91.4814C198.457 90.8445 197.872 89.7298 196.57 90.4994C195.507 91.1364 195.666 92.0122 195.985 92.9942C196.092 93.3657 195.985 94.0027 195.773 94.215C193.7 96.0197 194.842 97.559 196.118 99.0983C196.703 99.8148 196.756 100.505 195.959 101.115C195.241 101.646 193.992 101.911 194.869 103.212C195.454 104.088 196.357 104.592 197.341 104.035C198.298 103.504 199.44 102.814 199.042 101.434C198.776 100.478 198.59 99.576 198.776 98.6205C198.935 97.8244 199.494 97.3732 200.318 97.5855C201.009 97.7713 201.62 97.9836 201.593 99.1513C201.514 101.328 200.45 103.132 199.52 104.91C198.882 106.105 198.962 106.927 200.052 108.361C196.676 106.927 195.906 109.634 194.444 110.961C193.593 111.731 194.789 112.05 195.214 112.474C197.102 114.305 197.553 116.588 196.49 118.552C195.959 119.534 194.55 120.33 195.507 121.683C195.826 122.135 197.447 120.993 198.377 119.666C201.46 121.259 200.238 123.753 199.759 126.116C195.879 126.142 193.248 123.7 192.158 120.224C190.988 116.508 189.208 113.005 190.324 108.918C190.404 108.599 190.324 108.042 189.819 107.856C185.699 104.38 184.53 97.267 189.952 93.4188C191.759 92.1449 191.812 90.871 190.244 89.1725C187.879 86.6247 188.49 81.7414 191.387 78.1055L191.307 78.1585Z" fill="#A4C469"/>
<path fill-rule="evenodd" clip-rule="evenodd" d="M100.331 63.5105C99.9585 63.5636 99.7458 63.7494 99.7724 64.174C100.091 68.6858 98.8953 73.2771 100.676 78.0808C98.1777 77.0723 96.3438 76.5945 95.0149 79.1158C94.6428 79.8058 93.0747 79.5404 91.9849 80.1243C90.8952 80.7082 90.7889 78.7442 90.4965 77.7623C90.2839 76.9926 90.0447 76.2495 89.1676 75.9841C88.2639 75.7187 87.9716 75.241 88.2374 74.2325C88.7158 72.3748 88.2374 71.4193 86.1377 72.4544C84.8885 73.0648 84.3835 72.534 84.3569 71.2601C84.3569 70.0658 84.3038 68.8715 84.2772 67.6773C83.2938 66.2972 84.5961 65.2356 84.8087 64.0148C85.6061 62.794 86.2971 61.4405 87.254 60.3523C91.7192 55.1506 94.563 56.9818 98.4967 60.7504C99.2409 61.467 100.118 62.3428 100.331 63.5105Z" fill="#B4CC75"/>
<path fill-rule="evenodd" clip-rule="evenodd" d="M189.767 107.91C189.767 107.91 189.767 107.725 189.82 107.645C189.9 107.539 190.033 107.433 190.139 107.327C190.591 108.654 191.628 109.821 190.83 111.387C189.927 113.165 190.166 114.89 191.468 116.43C192.292 117.385 192.85 118.526 192.85 119.721C192.85 122.613 194.498 123.94 196.943 124.816C197.9 125.161 198.804 125.692 199.734 126.143C201.674 126.647 203.482 126.382 205.13 125.188C205.449 124.949 206.007 124.657 206.272 124.79C210.153 126.435 213.714 123.542 217.515 124.02C218.286 124.126 218.844 123.595 219.269 123.011C220.146 121.817 219.535 119.588 221.927 119.402C222.14 119.402 221.688 118.314 221.396 117.81C220.572 116.27 220.067 114.758 221.635 113.351C222.22 112.847 222.246 112.077 222.246 111.414C222.246 109.848 223.043 108.972 224.452 108.388C226.286 107.618 226.844 106.292 225.808 104.434C225.249 103.452 224.558 102.47 225.728 101.435C226.233 100.984 226.153 100.373 225.622 100.161C223.097 99.0993 223.841 96.4188 223.867 94.9591C223.974 91.7744 225.223 88.6162 226.073 85.4314C226.206 84.9006 226.339 84.5025 225.967 83.9983C224.532 82.0609 223.362 79.9112 221.05 78.77C220.226 78.3719 219.349 77.8146 219.562 76.5938C221.661 77.443 223.416 78.9027 225.117 80.3093C228.04 82.6978 228.492 89.3858 226.127 92.2786C224.877 93.7914 224.957 95.0918 226.339 96.578C230.432 100.931 229.741 107.565 224.771 110.75C223.123 111.812 223.681 113.192 223.841 114.413C224 115.66 224.744 116.828 225.249 117.995C226.286 120.357 225.515 122.64 223.256 123.94C221.821 124.763 220.572 125.984 218.685 125.851C218.286 125.825 217.834 126.382 217.409 126.647C217.196 126.807 216.957 126.86 216.691 126.807C213.103 126.435 209.542 126.143 206.485 128.664C201.169 129.885 196.412 128.001 192.797 124.63C188.571 120.676 186.339 118.739 189.342 112.21C190.006 110.777 189.608 109.317 189.741 107.884L189.767 107.91Z" fill="#9BBD62"/>
<path fill-rule="evenodd" clip-rule="evenodd" d="M105.194 111.972C105.194 111.786 105.194 111.627 105.194 111.441C104.955 109.185 107.666 104.249 109.5 104.594C111.786 104.992 112.636 104.249 113.487 102.604C116.756 103.904 116.225 107.832 118.563 109.955C119.52 110.831 119.201 113.485 117.793 114.387C116.065 115.475 116.145 116.829 116.118 118.368C116.065 120.597 116.384 122.853 115.56 125.003C114.524 125.879 113.195 125.773 112.477 125.003C110.856 123.198 108.703 121.42 108.623 118.872C108.543 115.873 107.214 113.83 105.194 111.972Z" fill="#B9CC7A"/>
<path fill-rule="evenodd" clip-rule="evenodd" d="M130.256 19.8262C130.681 20.1181 130.894 20.5958 130.469 20.8878C128.263 22.4536 127.146 25.2402 124.435 26.2753C124.09 26.408 123.585 26.8857 123.612 27.1776C123.851 29.5131 122.15 31.9017 123.851 34.2106C124.223 34.7414 124.621 35.5907 124.462 36.1215C123.851 38.2977 124.382 39.2531 126.748 39.7839C128.688 40.2085 127.465 41.9336 126.801 42.6502C125.366 44.216 124.435 46.0472 123.293 47.7723C122.256 49.3912 121.831 50.3201 124.037 52.0452C126.03 53.5845 127.731 53.6641 129.778 53.7172C130.495 53.7172 131.213 53.7172 131.558 54.4868C131.824 55.0442 131.399 55.5219 131 55.8138C128.183 57.7247 129.379 60.2459 130.123 62.5548C130.362 63.3245 130.735 63.9084 130.256 64.678C125.153 63.3245 122.283 59.662 120.316 55.0707C118.136 49.9751 119.412 45.7819 123.558 42.2786C123.824 41.9336 124.994 41.6151 123.558 41.217C123.372 40.6863 123.213 40.1555 123.027 39.6512C123.053 37.82 122.495 36.0418 122.07 34.3168C121.273 31.1851 122.256 28.3984 122.947 25.5056C125.233 23.409 127.279 21.047 130.256 19.8527V19.8262Z" fill="#AAC76C"/>
<path fill-rule="evenodd" clip-rule="evenodd" d="M162.658 16.7202C162.02 14.9952 161.036 14.4909 159.069 14.9421C157.315 15.3667 155.348 15.0748 153.515 14.8625C152.903 14.7829 151.734 14.1459 152.797 13.0312C154.445 14.3317 156.358 14.1725 158.272 14.0398C163.216 13.7213 166.511 15.7383 169.515 19.8254C172.013 23.249 171.614 26.6726 171.535 30.0962C171.402 34.7406 170.604 39.3054 166.086 42.2778C164.385 43.3925 164.943 45.8076 165.741 47.2673C167.707 50.8767 166.91 54.3003 165.687 57.7239C164.438 61.2271 161.993 63.8014 158.564 65.3938C158.405 63.6953 159.814 63.0583 160.797 62.1294C161.302 61.6517 162.392 61.0148 162.312 60.829C160.956 57.3523 165.156 55.0699 164.066 51.3544C163.295 48.78 163.083 45.6218 164.013 42.7556C164.199 42.1717 163.96 41.7736 163.8 41.2693C163.402 40.1281 163.136 39.385 165.023 39.3585C166.432 39.3585 168.026 38.7746 167.654 36.4657C167.495 35.5103 168.08 34.3691 168.611 33.3075C169.462 31.6355 170.232 29.8042 168.797 27.9465C168.638 27.7607 168.452 27.4157 168.531 27.2565C169.94 24.284 168.505 22.8243 166.272 20.8073C165.103 19.7458 163.827 18.1268 162.684 16.6937L162.658 16.7202Z" fill="#A7C46C"/>
<path fill-rule="evenodd" clip-rule="evenodd" d="M216.851 126.673C217.037 126.673 217.223 126.673 217.409 126.673C215.894 130.469 216.213 134.37 216.984 138.245C217.356 140.076 217.09 141.562 215.469 142.491C214.087 143.287 212.997 144.402 211.987 145.57C210.871 146.844 210.207 146.472 209.33 145.384C208.373 144.163 208.506 142.783 208.426 141.403C208.213 137.979 208.957 134.503 208.054 131.079C207.815 130.203 207.389 129.54 206.938 128.823C209.888 126.461 213.343 126.488 216.851 126.673Z" fill="#B5915D"/>
<path fill-rule="evenodd" clip-rule="evenodd" d="M71.23 117.703C71.7084 120.304 72.7184 122.162 75.8281 122.587C77.5291 122.826 78.353 124.736 78.5391 126.568C78.3264 127.098 77.9543 127.337 77.3696 127.205C76.1204 125.373 73.9942 124.922 72.1602 124.02C70.2466 123.197 67.004 118.287 66.9509 116.27C66.9243 114.811 66.8977 113.351 66.7117 111.865C66.499 109.954 67.7216 108.362 69.1303 107.273C71.6818 105.309 72.7981 102.178 71.4958 99.4442C68.6519 93.4463 70.7516 83.6267 75.1902 80.6808C75.7218 80.3092 76.2002 80.0969 76.7849 80.0704C78.2999 79.7253 78.5656 80.3888 77.6886 81.4504C77.157 82.0874 76.4394 82.5651 76.0407 83.3347C75.9078 83.547 75.7749 83.7594 75.642 83.9451C74.3131 86.9972 72.24 89.7573 71.7084 93.1544C70.6718 95.9675 73.1436 97.6926 73.9676 99.8954C74.2865 100.718 74.4991 101.302 74.3928 102.178C74.2068 103.691 74.0739 105.177 75.3231 106.557C76.466 107.831 75.5623 108.866 74.1536 109.131C71.2832 109.662 69.3961 111.997 70.3795 114.651C70.7516 115.66 70.4858 116.801 71.1503 117.677L71.23 117.703Z" fill="#9EBD5F"/>
<path fill-rule="evenodd" clip-rule="evenodd" d="M126.516 163.723C128.642 164.573 130.609 165.395 132.017 162.396C132.283 161.812 134.33 161.255 135.552 160.724C136.988 160.114 138.316 160.937 137.546 162.449C135.818 165.926 136.057 169.854 134.649 173.357C133.878 175.268 134.117 177.285 133.745 179.222C133.479 180.496 138.024 183.787 139.38 183.336C141.214 182.726 142.011 183.469 142.436 185.035C142.808 186.388 143.712 186.786 144.988 186.627C145.28 187.184 144.934 187.423 144.509 187.609C141.001 186.919 137.227 187.29 134.277 184.69C131.725 182.46 130.556 179.541 130.343 176.276C130.183 173.623 130.423 170.916 130.449 168.262C130.449 167.067 129.997 166.218 128.748 165.687C127.871 165.316 126.835 164.864 126.542 163.75L126.516 163.723Z" fill="#A1BC69"/>
<path fill-rule="evenodd" clip-rule="evenodd" d="M153.968 193.421C153.649 196.844 154.208 200.347 153.384 203.745C153.118 204.833 153.118 206.213 151.497 205.947C149.849 205.682 147.377 206.929 146.872 204.09C146.393 201.515 145.756 198.914 145.995 196.234C146.234 193.553 145.038 190.952 145.383 188.245C145.437 188.192 145.49 188.086 145.57 188.06C147.324 187.635 153.33 190.13 154.42 191.696C154.5 192.306 154.208 192.837 153.995 193.394L153.968 193.421Z" fill="#AB884F"/>
<path fill-rule="evenodd" clip-rule="evenodd" d="M104.454 138.59C104.401 138.829 104.401 139.28 104.321 139.306C100.467 139.89 101.158 142.889 101.079 145.411C100.999 147.879 101.052 150.347 101.079 152.815C101.079 153.903 100.521 154.779 100.042 155.708C99.7232 156.318 99.1385 156.478 98.8195 156.026C97.278 153.93 93.8228 153.16 94.3809 149.577C94.7265 147.374 93.9291 145.145 94.6201 142.889C95.2049 141.005 93.7962 140.341 92.2812 139.97C92.7065 138.59 93.9823 138.245 95.0986 138.086C98.2614 137.581 101.398 137.9 104.507 138.616L104.454 138.59Z" fill="#B4945E"/>
<path fill-rule="evenodd" clip-rule="evenodd" d="M104.449 138.59C102.934 138.908 101.472 138.882 99.9036 138.643C97.2723 138.245 94.6145 138.378 92.249 139.943C90.0961 139.997 88.5812 141.669 86.3486 141.934C82.7871 142.359 80.0495 141.085 78.0561 138.696C77.0993 137.581 77.6043 135.246 77.4448 133.441C77.1259 132.061 76.7538 130.681 76.7538 129.248C76.7538 128.425 76.5411 127.523 77.5245 127.072C77.8701 126.886 78.2156 126.727 78.5611 126.541C79.4116 129.168 79.0395 132.167 80.8734 134.503C81.0063 134.662 81.0329 135.06 80.9266 135.219C79.1724 137.555 81.8568 138.245 82.6542 138.192C84.807 138.086 86.5612 140.076 89.3254 138.378C91.0795 137.29 94.2424 136.679 96.9534 136.918C98.9733 137.104 100.807 136.573 102.455 135.219C103.864 134.052 106.203 134.529 107.319 132.459C107.611 131.902 108.701 132.804 109.1 133.468C109.578 134.317 109.179 134.954 108.329 135.326C107 135.909 105.645 136.467 104.714 137.635C104.635 137.953 104.555 138.245 104.449 138.563V138.59Z" fill="#95B758"/>
<path fill-rule="evenodd" clip-rule="evenodd" d="M152.851 67.8623C152.851 72.6128 152.851 77.39 152.905 82.1405C152.905 83.8921 152.639 85.1926 150.38 85.113C148.253 85.0599 146.765 84.6087 146.393 82.1405C146.021 79.7254 146.021 77.3369 146.074 74.9218C146.1 73.8867 146.127 72.8517 145.383 72.0024C145.463 71.8963 145.542 71.7901 145.622 71.6839C147.11 70.9408 148.094 69.5873 149.29 68.5257C150.3 67.6234 151.39 66.6149 152.825 67.8357L152.851 67.8623Z" fill="#BB9862"/>
<path fill-rule="evenodd" clip-rule="evenodd" d="M155.48 190.263C156.544 191.165 157.288 191.802 158.856 190.502C160.185 189.387 162.311 189.122 164.145 188.777C165.421 188.538 166.404 187.635 166.165 186.839C165.607 184.716 166.537 183.044 167.069 181.213C167.627 179.249 167.414 177.259 166.883 175.374C166.378 173.623 166.723 172.243 167.813 170.836C168.849 171.499 168.477 172.986 169.514 173.623C170.55 174.817 170.258 176.197 170.391 177.63C170.657 180.417 169.275 182.726 168.876 185.3C168.557 187.529 166.67 189.838 164.65 190.608C161.966 191.643 159.122 193.129 155.959 192.333C155.294 192.121 154.603 191.988 154.258 191.271C154.311 190.528 154.816 190.316 155.48 190.289V190.263Z" fill="#A1BA69"/>
<path fill-rule="evenodd" clip-rule="evenodd" d="M105.195 111.971C106.976 112.05 108.172 112.767 107.986 114.731C107.906 115.5 108.438 115.5 108.89 115.713C109.873 116.164 110.165 116.934 109.448 117.783C108.704 118.659 108.916 119.588 109.554 120.092C111.548 121.737 111.574 125.824 115.534 125.028C115.534 125.904 115.534 126.753 115.534 127.629C115.003 128.505 113.621 129.354 115.534 130.256C115.667 131 116.252 131.955 114.71 131.849C113.541 132.539 112.425 133.07 112.478 130.893C112.478 130.336 112.265 129.911 111.68 129.726C110.059 129.248 109.926 128.133 110.378 126.7C110.591 126.037 110.511 125.161 109.847 124.816C107.667 123.648 107.587 121.074 106.152 119.402C105.94 119.163 105.7 118.632 105.807 118.499C107.454 116.137 105.727 114.147 105.195 112.024V111.971Z" fill="#AEC870"/>
<path fill-rule="evenodd" clip-rule="evenodd" d="M133.956 17.2249C133.398 17.5699 132.813 17.915 132.255 18.2334C132.308 16.0837 132.255 13.9606 131.909 11.7843C131.245 7.85647 133.079 4.48595 136.029 2.25663C139.139 -0.131933 142.913 -0.821962 146.74 1.11543C148.255 1.88507 149.212 2.94665 149.185 4.7248C148.255 5.17598 147.378 5.41483 147.059 4.06132C146.847 3.18551 146.102 2.97319 145.438 2.62818C145.305 2.73434 145.145 2.92011 145.013 2.89358C140.973 1.77891 138.846 4.69827 136.587 7.06029C134.567 9.18345 134.408 12.0232 134.275 14.7833C134.222 15.606 134.647 16.5084 133.929 17.2515L133.956 17.2249Z" fill="#A6C46D"/>
<path fill-rule="evenodd" clip-rule="evenodd" d="M75.4297 83.3079C75.8815 82.379 76.3599 81.6359 77.3965 81.0521C78.4596 80.4947 77.3433 80.2824 76.8649 80.0966C77.1839 79.8047 77.4231 79.3801 77.7952 79.2474C79.8151 78.5043 80.3467 77.1773 80.8251 75.001C81.649 71.2324 82.4198 67.278 84.8119 64.0137C85.689 65.3937 83.5893 66.3226 84.2803 67.6761C82.6324 69.6401 82.7388 72.1348 83.483 74.1252C84.9979 78.2919 84.2272 80.4417 79.9214 81.7952C79.6025 81.9013 79.3367 82.1136 79.0709 82.2994C78.0078 83.1487 76.9447 84.051 75.4297 83.3345V83.3079Z" fill="#A9C369"/>
<path fill-rule="evenodd" clip-rule="evenodd" d="M155.482 190.263C155.136 190.608 154.791 190.98 154.445 191.325C154.578 191.776 154.365 191.909 153.967 191.882C153.913 191.723 153.887 191.431 153.807 191.404C150.777 190.98 148.545 188.405 145.408 188.246C145.116 188.034 144.824 187.821 144.531 187.583C144.691 187.264 144.85 186.919 145.01 186.601C147.03 185.486 148.97 184.849 150.937 186.813C151.282 187.158 152.08 187.025 152.691 187.158C154.365 187.503 155.614 188.273 155.508 190.237L155.482 190.263Z" fill="#A2A34C"/>
<path fill-rule="evenodd" clip-rule="evenodd" d="M169.037 138.722C168.798 137.661 168.718 136.811 169.462 135.697C170.552 134.051 170.685 131.981 169.33 130.256C168.851 129.646 168.798 129.194 168.798 128.478C168.798 127.522 168.771 126.01 166.938 126.647C166.938 125.93 166.938 125.213 166.938 124.523C173.316 128.186 173.343 132.432 169.728 137.422C169.436 137.82 169.595 138.457 169.037 138.722Z" fill="#A2BC6C"/>
<path fill-rule="evenodd" clip-rule="evenodd" d="M134.352 67.8613C136.026 67.6755 137.355 67.994 138.764 69.2679C140.624 70.9664 143.069 71.1257 145.435 69.9049C146.046 70.5418 146.046 71.2318 145.541 71.9484L145.408 72.0546C144.132 72.0546 142.857 72.1607 141.581 72.3465C138.099 72.8242 136.159 70.3826 134.378 67.8879L134.352 67.8613Z" fill="#A9C36E"/>
<path fill-rule="evenodd" clip-rule="evenodd" d="M122.949 25.4785C122.816 27.3097 122.922 29.1144 122.364 30.9987C121.859 32.7769 122.816 34.9531 123.215 36.9436C123.401 37.8725 123.799 38.7748 123.029 39.6241C120.796 35.9086 120.504 31.9011 121.354 27.7609C121.54 26.8055 122.125 26.0624 122.922 25.4785H122.949Z" fill="#A2BE66"/>
<path fill-rule="evenodd" clip-rule="evenodd" d="M145.513 71.9227C145.486 71.2326 145.459 70.5691 145.406 69.8791C145.406 69.7199 145.406 69.5341 145.433 69.3749C147.559 68.3929 149.632 67.3579 151.812 66.4821C152.689 66.137 153.911 65.6328 154.283 67.2517C153.805 67.464 153.3 67.6498 152.822 67.8621C150.35 67.3313 149.366 69.4014 148.064 70.7284C147.293 71.498 146.682 72.2146 145.513 71.9227Z" fill="#A8AA5A"/>
<path fill-rule="evenodd" clip-rule="evenodd" d="M77.5032 127.098C76.6261 129.221 77.6892 131.344 77.4235 133.468C75.6161 132.034 76.6261 129.646 75.563 127.868C75.058 127.019 75.2174 125.983 73.7822 126.01C72.4799 126.037 72.6393 124.736 72.1875 124.02C74.5796 124.02 76.7324 124.338 77.5032 127.098Z" fill="#ACC276"/>
<path fill-rule="evenodd" clip-rule="evenodd" d="M216.853 126.674C213.584 127.496 210.155 127.629 206.939 128.823C206.78 128.797 206.62 128.744 206.461 128.691C206.461 127.921 206.886 127.337 207.497 127.019C210.182 125.665 213.159 126.09 216.003 125.798C216.242 125.771 216.561 126.355 216.827 126.674H216.853Z" fill="#989F4B"/>
<path fill-rule="evenodd" clip-rule="evenodd" d="M152.667 12.0238C150.594 10.5641 151.338 7.9367 150.195 6.10547C152.348 7.5386 153.438 9.39637 152.667 12.0238Z" fill="#A7C46C"/>
<path fill-rule="evenodd" clip-rule="evenodd" d="M115.533 130.231C114.869 130.496 113.912 131.266 113.699 130.072C113.487 128.93 113.912 127.683 115.56 127.604C115.56 128.479 115.56 129.355 115.56 130.231H115.533Z" fill="#A5C565"/>
<path fill-rule="evenodd" clip-rule="evenodd" d="M123.589 41.2176C124.546 40.6072 125.29 40.7665 125.901 41.775C125.237 42.6242 124.333 42.12 123.562 42.2792C123.562 41.9342 123.562 41.5892 123.562 41.2176H123.589Z" fill="#A2BE66"/>
<path fill-rule="evenodd" clip-rule="evenodd" d="M153.938 191.882C154.097 191.696 154.256 191.51 154.416 191.324C155.134 191.324 155.639 191.669 155.957 192.306C155.293 192.678 154.629 193.049 153.964 193.421C153.964 192.917 153.964 192.386 153.964 191.882H153.938Z" fill="#AEC574"/>
<path fill-rule="evenodd" clip-rule="evenodd" d="M214.699 66.694C213.928 68.1006 213.476 69.693 212.094 70.7546C211.057 71.5508 210.978 72.6654 211.376 73.8332C212.067 75.7971 210.871 76.4606 209.436 75.9563C207.576 75.2929 205.928 75.7706 204.174 76.036C202.792 76.2483 201.914 76.6729 201.436 78.2653C200.798 80.3884 195.881 81.3439 194.366 79.8842C193.25 78.7961 192.134 77.8141 194.818 77.3895C195.243 77.3364 195.748 77.0975 195.748 76.381C195.775 74.6559 196.865 73.6739 198.459 74.0986C199.708 74.417 200.426 72.1612 201.782 73.5678C201.782 73.5678 202.101 73.0104 201.914 72.692C200.4 70.1707 202.712 68.1006 202.765 65.7652C202.765 64.9424 203.376 64.6505 204.174 64.5178C204.838 64.4116 205.875 64.2524 206.061 63.8012C206.911 61.8373 207.974 61.0942 209.596 62.9254C210.552 64.0401 213.317 62.7927 212.971 65.5794C212.812 66.8267 214.3 65.9244 214.752 66.641L214.699 66.694Z" fill="#B4CC7F"/>
<path fill-rule="evenodd" clip-rule="evenodd" d="M156.789 146.792C158.251 145.226 158.304 143.342 159.58 142.094C160.244 141.484 160.856 140.9 161.759 141.829C162.45 142.572 162.822 143.05 161.812 143.872C160.483 144.987 161.228 146.314 161.972 147.349C162.822 148.543 162.238 149.26 161.493 150.03C160.537 151.038 159.766 150.109 158.942 149.738C158.437 149.499 158.038 149.154 158.57 148.57C160.802 146.128 158.57 146.659 156.789 146.765V146.792Z" fill="#AEC574"/>
<path fill-rule="evenodd" clip-rule="evenodd" d="M151.206 157.805C151.392 157.036 151.605 156.186 151.764 155.337C151.924 154.488 151.472 153.134 153.04 153.347C154.316 153.532 154.024 154.886 154.156 155.682C154.343 156.717 153.519 157.619 152.96 158.469C152.695 158.893 152.323 159.398 151.711 159.185C151.047 158.973 151.366 158.309 151.18 157.752L151.206 157.805Z" fill="#AEC574"/>
<path fill-rule="evenodd" clip-rule="evenodd" d="M158.484 154.142C159.84 153.107 160.717 152.948 161.514 153.744C161.807 154.036 161.86 154.726 161.461 154.912C160.425 155.442 159.92 154.142 158.484 154.142Z" fill="#AEC574"/>
<path fill-rule="evenodd" clip-rule="evenodd" d="M154.87 165.05C154.764 165.607 154.524 166.085 153.913 166.085C153.302 166.085 152.903 165.66 153.009 165.103C153.142 164.546 153.541 163.935 154.259 164.041C154.737 164.095 154.843 164.599 154.87 165.05Z" fill="#AEC574"/>
<path fill-rule="evenodd" clip-rule="evenodd" d="M163.113 158.335C163.113 158.945 162.768 159.264 162.236 159.397C161.891 159.476 161.465 159.423 161.412 159.025C161.306 158.308 161.837 157.91 162.422 157.751C162.768 157.645 163.033 157.963 163.113 158.335Z" fill="#AEC574"/>
<path fill-rule="evenodd" clip-rule="evenodd" d="M155.002 159.955C154.577 159.849 154.125 159.663 154.258 159.133C154.364 158.628 154.816 158.522 155.268 158.549C155.667 158.575 155.906 158.867 155.879 159.239C155.853 159.743 155.534 159.982 155.002 159.929V159.955Z" fill="#AEC574"/>
<path fill-rule="evenodd" clip-rule="evenodd" d="M75.4267 83.3081C76.729 83.2284 77.7125 82.0607 79.068 82.273C80.1842 82.3261 81.4334 82.1138 82.4168 82.4853C83.985 83.0957 84.9152 83.2284 84.8355 81.1318C84.8355 80.8133 84.9418 80.3887 85.3936 80.4152C86.0847 80.4683 86.6428 80.9726 86.6694 81.5299C86.8554 83.7327 88.1844 83.4408 89.5664 82.91C90.1512 83.8123 89.3804 84.1042 89.0615 84.5289C88.6362 85.1128 87.7857 85.4843 88.2375 86.4928C88.7691 87.6871 89.3007 86.6786 89.8588 86.6255C90.7625 86.5193 91.0283 87.289 91.2143 87.9259C91.3738 88.4833 91.3472 89.0937 91.3738 89.6776C91.4801 91.5088 94.2443 95.012 88.8488 93.4196C87.4667 92.995 86.6428 94.322 87.706 95.9143C88.1578 96.6044 89.0349 97.0821 88.9817 98.0906C88.9286 98.8602 89.1412 99.7095 88.3173 100.187C87.5996 100.585 87.201 99.9749 86.7757 99.5768C85.4202 98.2764 84.6494 99.4176 83.7458 100.24C83.0547 100.851 82.47 102.178 81.3537 100.559C80.8221 99.7891 79.945 100.028 79.759 100.824C79.3603 102.682 77.4201 102.708 76.6227 102.576C75.4533 102.39 75.1609 100.851 75.7988 99.5503C75.8254 99.4706 75.8785 99.3379 75.8254 99.3114C72.6094 95.3305 76.5962 91.4026 75.9051 87.4482C74.842 86.3601 75.3736 85.0331 75.4001 83.8123C75.4001 83.6265 75.4001 83.4673 75.4001 83.2815L75.4267 83.3081Z" fill="#B4CC75"/>
<path fill-rule="evenodd" clip-rule="evenodd" d="M109.345 79.646C109.398 81.2915 110.329 82.6716 110.701 84.2639C111.711 88.4306 108.946 92.5443 105.73 94.7205C105.119 95.1451 104.853 94.9063 104.428 94.5347C102.887 93.2078 100.734 92.5443 100.202 90.2353C100.122 89.8903 99.5377 89.3595 99.2985 89.4126C96.9064 89.9168 97.3582 88.2449 97.3316 86.9444C96.2419 83.6535 97.9695 80.8934 101.504 80.5749C103.259 80.4157 104.907 80.3095 106.342 79.1153C107.431 78.2129 108.441 78.8233 109.345 79.646Z" fill="#BACE82"/>
<path fill-rule="evenodd" clip-rule="evenodd" d="M109.338 79.6454C107.982 79.1676 106.653 78.8226 105.776 80.4681C105.218 81.4766 104.341 81.0254 103.491 80.9989C98.9457 80.9458 97.4308 82.432 97.351 86.9437C96.0221 85.6964 96.4474 81.1581 98.0687 80.8927C99.5836 80.6539 100.753 79.1676 102.454 79.8046C103.305 80.1231 103.597 79.2738 104.075 78.7961C106.042 76.7791 107.796 77.071 109.364 79.6719L109.338 79.6454Z" fill="#B4CC75"/>
<path fill-rule="evenodd" clip-rule="evenodd" d="M75.4288 83.8117C76.4122 84.8998 75.7478 86.2533 75.9338 87.4476C74.0733 89.04 73.2494 91.3489 71.761 93.1802C71.1231 89.3319 73.781 86.7576 75.4023 83.7852L75.4288 83.8117Z" fill="#A9C369"/>
<path fill-rule="evenodd" clip-rule="evenodd" d="M33.9698 109.927C34.9798 112.316 34.714 114.863 34.6077 117.332C34.5014 119.295 35.4848 120.224 37.1592 120.649C41.8636 121.843 45.4251 125.001 46.8072 129.221C47.7375 132.034 48.9069 135.67 46.6212 139.094C45.6643 140.501 45.0265 142.332 44.2291 143.951C42.9533 146.578 44.7872 148.064 47.0996 148.993C46.8338 150.771 46.3554 152.125 43.9899 151.753C42.4483 151.515 39.5513 154.513 39.2589 156.239C39.1526 156.822 39.3387 157.459 38.8337 157.937C38.1958 158.149 37.5845 157.937 37.1061 157.566C35.3253 156.212 33.4117 156.477 31.7106 157.459C29.6907 158.654 28.5744 157.884 27.777 156.159C27.1126 154.699 26.4747 154.434 25.066 155.416C23.5511 156.451 21.9564 156.504 20.8401 154.62C20.3882 153.85 19.5111 153.505 18.7404 152.603C18.4746 153.93 18.5809 155.15 18.0759 156.212C17.4646 157.486 17.8367 158.601 18.8467 159.476C19.7769 160.299 20.4945 161.255 21.2122 162.236C22.4082 163.882 23.0992 163.855 24.4016 162.236C26.395 159.715 26.8468 159.689 28.8402 162.183C29.6641 163.218 30.3551 163.829 31.5778 162.741C32.8004 161.653 34.3951 162.077 35.8303 161.838C37.2655 161.6 37.3984 162.873 36.9466 163.776C36.0164 165.634 36.3885 167.252 37.3187 168.951C37.7971 169.8 37.6111 170.782 37.6111 171.764C37.6111 174.79 35.5114 177.258 35.4316 180.257C35.4316 181.053 34.714 181.61 33.8635 181.849C33.6243 181.929 33.3585 182.008 33.0927 182.035C29.0794 182.539 25.1458 183.468 21.2387 184.609C18.6872 185.352 16.5078 184.264 15.923 181.796C15.1788 178.824 12.5742 176.382 12.9728 173.303C13.4778 169.561 11.6439 168.394 8.56081 167.73C6.75347 167.359 6.2219 165.209 4.57404 164.492C3.21854 162.396 3.19196 160.14 3.77669 157.804C4.20194 156.106 5.34482 155.15 7.01926 154.858C8.42792 154.593 8.77344 153.93 8.00266 152.709C7.81661 152.417 7.89635 152.815 7.89635 152.496C7.63056 148.595 6.3548 145.012 4.57404 141.562C4.2551 140.925 4.6272 140.209 4.94614 139.598C5.87638 138.271 6.19533 136.573 7.39136 135.432C8.05582 134.821 8.40134 133.786 9.54421 133.839C10.6339 135.591 10.2353 137.369 9.4379 139.041C8.66712 140.66 8.50765 142.173 9.38474 143.765C9.81 144.535 9.99605 145.384 9.94289 146.286C9.88973 146.95 9.6771 147.799 10.5542 148.064C11.2452 148.277 12.016 147.985 12.4678 147.454C13.3449 146.366 14.222 145.888 15.5775 146.605C16.1888 146.923 16.7204 146.392 17.1722 145.994C18.1556 145.092 19.1922 144.72 20.4945 145.357C21.6108 145.888 21.9032 145.304 21.6906 144.269C21.6108 143.924 21.6906 144.349 21.6108 144.03C20.5477 140.899 21.6108 139.297 24.8002 139.227C24.8534 138.006 24.3484 136.865 24.2421 135.67C24.1624 134.688 23.8168 133.998 22.674 134.025C21.8235 134.025 21.1058 133.229 21.345 132.751C22.5145 130.442 20.149 129.805 19.458 128.266C17.3317 131.159 14.9131 129.274 12.6007 128.744C12.4944 127.788 13.3184 127.709 13.9031 127.417C17.0393 125.824 17.7304 124.444 16.5343 121.127C15.7104 118.818 16.747 116.774 16.9596 114.625C17.0128 114.173 17.438 113.935 17.943 114.041C18.5012 114.571 18.6075 115.261 18.6075 115.952C18.634 117.464 18.9264 118.526 20.8666 118.022C21.4779 117.862 22.2753 118.34 22.2753 118.897C22.3019 120.888 23.7637 122.109 24.561 123.675C25.5179 125.585 26.395 125.983 28.2023 124.656C29.6641 123.568 31.0993 122.852 33.1193 123.144C32.1891 118.977 32.8269 115.102 32.8535 111.227C32.8535 110.697 32.4548 109.37 33.9698 109.927Z" fill="#AEC870"/>
<path fill-rule="evenodd" clip-rule="evenodd" d="M4.88791 164.122C5.41948 164.122 6.00421 164.281 6.24341 164.759C7.62549 167.413 10.2568 167.758 12.7551 168.288C13.7651 168.501 14.3764 168.846 13.898 170.04C12.888 172.641 13.4196 174.95 14.9877 177.285C15.7585 178.453 15.918 180.045 16.3698 181.452C17.0343 183.575 18.815 184.637 20.9413 184C24.9015 182.806 28.8883 181.691 33.0345 181.346C33.885 181.266 34.8684 181.107 34.8418 180.231C34.7621 176.887 37.1807 174.18 37.1542 170.863C37.1542 170.624 37.1807 170.305 37.0744 170.093C35.7987 167.572 34.4697 165.051 36.8884 162.131C34.7621 163.379 32.2903 161.892 30.7753 164.228C30.2172 165.077 29.0743 163.724 28.5162 162.821C26.762 160.061 26.5228 160.061 24.8483 162.768C23.5194 164.918 22.1108 164.971 20.7553 162.795C20.0642 161.68 19.3466 160.725 18.2835 159.875C17.0343 158.867 16.2635 157.46 17.5127 155.788C18.2037 154.886 17.805 153.771 17.9114 152.763C17.9911 152.02 18.6024 151.117 19.0011 151.94C19.639 153.347 21.3666 153.267 21.9513 154.939C22.4829 156.425 24.2636 155.364 25.1141 154.514C26.5494 153.108 27.1872 153.108 27.958 155.125C28.5427 156.638 29.0477 158.628 31.7587 156.584C33.9382 154.939 36.6757 156.027 38.802 157.805C39.0147 157.938 39.1741 158.124 39.307 158.336C40.3436 160.194 40.7688 162.025 40.503 164.281C40.2373 166.271 41.5662 168.262 43.0014 169.775C44.0114 170.863 44.4367 171.951 44.6493 173.437C44.9416 175.587 46.4035 177.126 48.3437 178.161C48.2905 179.408 47.5463 180.258 46.5364 180.762C43.8785 182.036 41.4333 183.814 38.3502 184C37.9249 182.752 39.121 182.646 39.6791 182.142C40.3436 181.532 41.513 181.452 41.8585 179.647C39.7589 180.948 37.7655 181.452 36.0113 182.54C34.7089 183.336 33.3534 183.867 31.865 183.947C28.3035 184.159 24.9546 185.114 21.526 186.017C19.0277 186.68 16.2635 185.645 13.9512 184.079C13.6588 183.867 13.4728 183.522 13.4993 183.177C13.7917 179.621 11.7186 176.516 11.7186 173.012C11.2136 171.181 10.3897 169.881 8.28995 169.35C5.81816 168.74 4.4095 166.218 4.91449 164.016L4.88791 164.122Z" fill="#A5C565"/>
<path fill-rule="evenodd" clip-rule="evenodd" d="M33.9639 109.929C33.5918 109.982 33.3792 110.167 33.4057 110.592C33.7247 115.13 32.5287 119.695 34.3094 124.499C31.811 123.49 29.9771 123.013 28.6482 125.534C28.2761 126.224 26.708 125.958 25.6183 126.542C24.5285 127.126 24.4222 125.162 24.1299 124.18C23.9172 123.411 23.7046 122.667 22.8009 122.402C21.8973 122.137 21.6049 121.659 21.8707 120.65C22.3491 118.793 21.8707 117.837 19.771 118.872C18.5218 119.483 18.0168 118.952 17.9902 117.678C17.9902 116.484 17.9371 115.29 17.9105 114.095C16.9271 112.715 18.2294 111.654 18.4155 110.433C19.2128 109.212 19.9039 107.885 20.8607 106.77C25.3259 101.569 28.1698 103.4 32.1034 107.168C32.8476 107.885 33.7247 108.734 33.9373 109.929H33.9639Z" fill="#B4CC75"/>
<path fill-rule="evenodd" clip-rule="evenodd" d="M38.8273 158.388C38.8273 158.202 38.8273 158.043 38.8273 157.884C38.5881 155.628 41.2991 150.692 43.133 151.01C45.4188 151.408 46.2693 150.665 47.1198 149.02C50.3889 150.32 49.8574 154.248 52.1963 156.371C53.1531 157.247 52.8342 159.901 51.4255 160.803C49.6979 161.891 49.7776 163.245 49.7511 164.784C49.6979 167.013 50.0168 169.269 49.1929 171.419C48.1564 172.295 46.8274 172.189 46.1098 171.419C44.4885 169.614 42.3357 167.836 42.2559 165.288C42.1762 162.316 40.8473 160.246 38.8273 158.388Z" fill="#B9CC7A"/>
<path fill-rule="evenodd" clip-rule="evenodd" d="M4.89092 164.121C5.36933 166.722 6.37931 168.58 9.48899 169.005C11.19 169.244 12.0139 171.154 12.2 172.986C11.9874 173.516 11.6153 173.755 11.0305 173.623C9.75478 171.791 7.65508 171.34 5.82117 170.438C3.90752 169.615 0.664944 164.705 0.611787 162.688C0.585208 161.229 0.55863 159.769 0.399159 158.283C0.186532 156.372 1.40914 154.779 2.8178 153.691C5.36933 151.727 6.48563 148.622 5.18328 145.862C2.33939 139.891 4.43909 130.045 8.87769 127.099C9.40926 126.727 9.88767 126.515 10.4724 126.488C12.0139 126.143 12.2532 126.807 11.3761 127.868C10.8445 128.505 10.1003 128.983 9.7282 129.753C9.62188 129.965 9.46241 130.177 9.32952 130.363C7.97402 133.415 5.92748 136.175 5.39591 139.572C4.35935 142.386 6.83115 144.111 7.65508 146.313C7.97402 147.136 8.18665 147.72 8.08033 148.596C7.89428 150.109 7.76139 151.595 9.01058 152.975C10.18 154.249 9.24979 155.284 7.84113 155.549C4.97065 156.08 3.08358 158.415 4.06699 161.043C4.43909 162.051 4.1733 163.193 4.83776 164.068L4.89092 164.121Z" fill="#9EBD5F"/>
<path fill-rule="evenodd" clip-rule="evenodd" d="M38.1136 185.007C38.0604 185.246 38.0604 185.697 37.9807 185.697C34.1268 186.281 34.8178 189.28 34.7381 191.801C34.6584 194.269 34.7115 196.737 34.7381 199.206C34.7381 200.294 34.18 201.17 33.7016 202.098C33.3826 202.709 32.7979 202.868 32.4524 202.417C30.9108 200.32 27.4556 199.551 28.0138 195.968C28.3593 193.765 27.5619 191.536 28.253 189.28C28.8377 187.396 27.429 186.732 25.9141 186.361C26.3393 184.98 27.6151 184.635 28.7314 184.476C31.8942 183.972 35.0305 184.29 38.1402 185.007H38.1136Z" fill="#B4945E"/>
<path fill-rule="evenodd" clip-rule="evenodd" d="M38.1126 185.008C36.5976 185.326 35.1358 185.3 33.5677 185.061C30.9364 184.663 28.252 184.796 25.9131 186.361C23.7602 186.415 22.2452 188.087 20.0126 188.352C16.4511 188.777 13.7135 187.476 11.7202 185.114C10.7633 183.999 11.2683 181.664 11.1089 179.859C10.7899 178.479 10.4178 177.099 10.4178 175.666C10.4178 174.843 10.2052 173.941 11.1886 173.49C11.5341 173.304 11.8796 173.145 12.2252 172.959C13.0757 175.586 12.7036 178.585 14.5375 180.921C14.6704 181.08 14.6969 181.478 14.5906 181.637C12.8365 183.973 15.5209 184.636 16.2917 184.61C18.4445 184.504 20.2253 186.494 22.9628 184.796C24.717 183.707 27.8799 183.097 30.5909 183.336C32.6108 183.522 34.4713 182.991 36.1192 181.637C37.5278 180.47 39.8667 180.947 40.983 178.877C41.2754 178.32 42.3651 179.222 42.7638 179.886C43.2422 180.735 42.8435 181.372 41.993 181.744C40.6641 182.327 39.3086 182.858 38.3784 184.053C38.2986 184.371 38.2189 184.663 38.1126 184.981V185.008Z" fill="#95B758"/>
<path fill-rule="evenodd" clip-rule="evenodd" d="M38.8281 158.389C40.5823 158.468 41.8049 159.185 41.6189 161.175C41.5391 161.945 42.0707 161.945 42.5225 162.157C43.5059 162.608 43.7983 163.378 43.0807 164.227C42.3365 165.103 42.5491 166.032 43.187 166.536C45.1804 168.182 45.207 172.242 49.1671 171.473V174.074C48.6622 174.949 47.2535 175.799 49.1671 176.701C49.3 177.444 49.8848 178.399 48.3432 178.293C47.1738 178.983 46.0575 179.541 46.1106 177.338C46.1106 176.781 45.898 176.356 45.3133 176.17C43.692 175.692 43.5325 174.578 44.0109 173.145C44.2236 172.481 44.1438 171.605 43.4794 171.26C41.2999 170.093 41.1936 167.518 39.785 165.846C39.5723 165.607 39.3331 165.077 39.4394 164.944C41.0873 162.582 39.3597 160.591 38.8281 158.468V158.389Z" fill="#AEC870"/>
<path fill-rule="evenodd" clip-rule="evenodd" d="M9.0625 129.726C9.51433 128.797 9.99275 128.054 11.0293 127.47C12.0924 126.913 10.9761 126.7 10.4977 126.515C10.8167 126.223 11.0559 125.798 11.428 125.665C13.4479 124.922 13.9795 123.595 14.4579 121.419C15.2819 117.65 16.0526 113.696 18.4447 110.432C19.3218 111.785 17.2487 112.741 17.9397 114.094C16.2918 116.058 16.3982 118.553 17.1158 120.543C18.6307 124.71 17.86 126.86 13.5543 128.213C13.2353 128.319 12.9961 128.532 12.7037 128.717C11.6406 129.567 10.5775 130.469 9.0625 129.752V129.726Z" fill="#A9C369"/>
<path fill-rule="evenodd" clip-rule="evenodd" d="M11.1594 173.516C10.2824 175.639 11.3455 177.762 11.0797 179.886C9.24579 178.452 10.2824 176.064 9.21921 174.286C8.71422 173.436 8.87369 172.401 7.43846 172.428C6.13611 172.455 6.29558 171.154 5.84375 170.438C8.20923 170.438 10.3887 170.756 11.1594 173.516Z" fill="#ACC276"/>
<path fill-rule="evenodd" clip-rule="evenodd" d="M49.166 176.647C48.5015 176.912 47.5447 177.682 47.3321 176.488C47.1194 175.347 47.5447 174.099 49.166 174.02C49.166 174.895 49.166 175.771 49.166 176.647Z" fill="#A5C565"/>
<path fill-rule="evenodd" clip-rule="evenodd" d="M9.06245 129.726C10.3648 129.646 11.3482 128.479 12.7037 128.691C13.82 128.744 15.0426 128.532 16.0526 128.903C17.6207 129.514 18.551 129.646 18.4712 127.55C18.4712 127.231 18.5775 126.807 19.0294 126.833C19.7204 126.886 20.252 127.391 20.3051 127.948C20.4912 130.124 21.8201 129.859 23.2022 129.328C23.7869 130.257 23.0161 130.522 22.6972 130.947C22.2719 131.531 21.4214 131.902 21.8733 132.911C22.3783 134.105 22.9364 133.097 23.4946 133.043C24.3982 132.937 24.664 133.707 24.8501 134.344C25.0095 134.901 24.983 135.512 25.0095 136.096C25.1158 137.953 27.88 141.43 22.4846 139.838C21.1025 139.413 20.2786 140.74 21.3417 142.332C21.7935 143.022 22.6706 143.474 22.6175 144.509C22.5643 145.278 22.7769 146.127 21.953 146.605C21.2354 147.003 20.8367 146.393 20.4115 145.995C19.056 144.694 18.2852 145.836 17.3815 146.658C16.6905 147.269 16.1057 148.569 14.9894 146.977C14.4579 146.207 13.5808 146.446 13.3947 147.242C12.9961 149.1 11.0558 149.126 10.2585 148.994C9.08903 148.808 8.79667 147.269 9.43455 145.968C9.46113 145.889 9.51429 145.756 9.46113 145.729C6.24514 141.748 10.2585 137.821 9.54087 133.866C8.47773 132.778 9.0093 131.451 9.03588 130.23C9.03588 130.044 9.03588 129.885 9.03588 129.699L9.06245 129.726Z" fill="#B4CC75"/>
<path fill-rule="evenodd" clip-rule="evenodd" d="M43.0014 126.091C43.0545 127.736 43.9848 129.143 44.3569 130.709C45.3668 134.875 42.6027 138.989 39.3867 141.165C38.7754 141.59 38.5096 141.351 38.0843 140.98C36.5428 139.653 34.3899 138.989 33.8584 136.68C33.7786 136.335 33.1939 135.804 32.9547 135.857C30.5626 136.362 31.0145 134.69 30.9879 133.389C29.8982 130.098 31.6258 127.338 35.1607 127.02C36.9149 126.86 38.5628 126.754 39.998 125.56C41.0611 124.684 42.0977 125.295 43.0014 126.091Z" fill="#BACE82"/>
<path fill-rule="evenodd" clip-rule="evenodd" d="M43.002 126.09C41.6465 125.612 40.3176 125.267 39.4405 126.913C38.8823 127.921 38.0052 127.47 37.1547 127.443C32.6098 127.364 31.0948 128.877 31.0151 133.362C29.6862 132.114 30.1114 127.576 31.7327 127.311C33.2477 127.072 34.4171 125.586 36.1182 126.223C36.9421 126.541 37.261 125.692 37.7394 125.214C39.7062 123.197 41.4604 123.489 43.0286 126.09H43.002Z" fill="#B4CC75"/>
<path fill-rule="evenodd" clip-rule="evenodd" d="M9.06166 130.23C10.0451 131.344 9.3806 132.671 9.56665 133.866C7.70615 135.458 6.88222 137.767 5.39383 139.598C4.75595 135.75 7.41379 133.176 9.03508 130.203L9.06166 130.23Z" fill="#A9C369"/>
<path fill-rule="evenodd" clip-rule="evenodd" d="M133.957 17.2254C132.389 10.9356 135.419 6.47691 139.964 2.73483C141.638 1.35478 143.605 2.23058 145.439 2.65521C145.359 3.50448 145.519 4.48644 145.146 5.17647C144.349 6.63615 144.668 7.32617 145.997 8.30814C147.698 9.58204 147.671 11.8379 146.422 13.1383C144.376 15.288 143.445 17.9685 142.037 20.4102C141.744 20.9144 141.638 21.4983 141.186 21.976C139.937 23.3295 139.087 23.7276 137.97 21.7637C136.987 20.0121 135.897 18.2074 133.957 17.2254Z" fill="#B8CF7D"/>
<path fill-rule="evenodd" clip-rule="evenodd" d="M129.198 23.7544C129.145 23.3032 129.757 22.7193 130.687 22.2416C131.431 21.8701 132.388 22.0824 133.026 21.3127C133.531 20.7023 134.275 20.7554 134.886 21.2066C135.684 21.7905 135.232 22.4009 134.807 22.9582C134.355 23.5686 134.434 24.2586 134.461 24.9487C134.514 26.4349 133.929 27.4434 132.388 27.0718C131.032 26.7268 129.278 26.5145 129.172 23.7544H129.198Z" fill="#B8CF7D"/>
<path fill-rule="evenodd" clip-rule="evenodd" d="M39.2292 70.8884C38.1395 72.2419 36.6776 72.7462 35.0032 72.7462C33.2756 71.8703 31.8669 72.9585 30.3785 73.4893C28.9167 73.9935 27.7207 75.1613 26.0463 75.1347C24.8768 74.7897 25.5413 72.8788 24.6642 72.9319C23.6542 73.0115 22.0329 70.8353 21.4216 73.622C21.1027 75.0551 19.3751 74.9224 18.4714 73.3831C16.7704 70.4903 15.6009 67.3586 15.9199 63.9616C16.2122 60.8034 15.2288 57.9636 14.2454 55.1239C13.6607 53.4254 13.767 52.1515 15.4149 51.4614C17.0362 50.7714 17.7804 52.0718 18.2853 53.3192C19.003 55.0708 20.7837 56.7693 18.5511 58.7863C20.0927 57.4328 20.704 55.867 20.4116 53.9562C20.1724 52.5496 21.1824 51.7534 22.0595 50.8776C22.5113 50.4529 22.8568 49.8691 22.4847 49.2586C22.1126 48.6482 21.5811 48.9933 21.1027 49.126C19.4548 49.6302 17.8069 48.4625 16.0528 49.2321C15.3617 49.5506 15.0162 48.3032 15.1491 47.6928C15.5743 45.8616 14.6973 43.8446 15.8667 42.1195C16.3451 41.4295 15.787 41.0314 15.5478 40.5006C13.8202 37.1566 14.2454 35.75 17.674 34.3434C19.2953 33.6799 19.1093 32.0876 19.8535 30.9729C20.8369 29.5663 22.5645 31.716 23.5745 30.0971C24.3984 28.7967 25.0629 27.5493 24.9565 26.01C24.7705 23.1968 26.4981 21.5248 28.5978 20.1448C29.342 19.6405 30.352 19.2159 31.043 19.7732C33.7806 21.9229 37.0232 20.8879 39.9999 21.2594C41.1162 21.3921 42.2325 21.4452 43.3223 21.7902C46.0333 23.0376 47.4153 25.6915 49.329 27.7616C50.3655 28.8497 51.1629 30.3625 50.2061 32.061C49.9403 32.5387 50.1263 33.0695 50.339 33.5738C51.1097 35.405 50.7111 37.1566 49.9669 38.8551C49.515 39.8902 49.01 40.9252 49.0366 42.093C49.0366 43.7384 48.1595 44.7469 46.7509 45.2246C45.422 45.6493 45.3156 46.3658 45.2093 47.6663C44.8638 51.5676 45.7941 55.4954 45.3954 59.211C45.103 61.9711 44.412 65.3151 42.3123 67.7302C41.3554 68.8183 39.9734 69.5349 39.2558 70.8884H39.2292Z" fill="#B8CF7D"/>
<path fill-rule="evenodd" clip-rule="evenodd" d="M43.3778 22.1885C39.9758 22.2416 36.6003 21.2065 33.1983 22.1089C32.9591 22.1619 32.4807 21.9231 32.3212 21.6842C31.6036 20.6227 30.8062 19.4549 29.4241 20.4103C27.67 21.6046 25.5437 22.6662 25.65 25.2936C25.7297 27.231 25.4108 28.9295 24.1616 30.6015C23.3377 31.6896 22.5403 31.9816 21.6632 31.4773C20.2812 30.6811 19.9356 31.3977 19.9356 32.4328C19.9356 34.0517 19.1383 34.9275 17.703 35.1132C16.4804 35.2725 15.4173 35.4848 15.2578 36.8914C15.0718 38.4042 15.2578 39.9965 16.6665 40.7927C17.9688 41.5093 17.8625 41.9605 16.7196 42.4382C15.9223 42.7832 15.5236 43.2078 15.9223 43.9775C16.7728 45.6229 15.0186 47.1622 15.9223 48.8342C17.1715 48.8342 18.4738 46.5783 19.8293 48.8342C20.0685 49.2588 20.6001 48.8342 20.919 48.5157C21.6101 47.8788 22.4074 47.3214 23.1251 48.2769C23.8958 49.2854 23.8161 50.5858 22.753 51.2758C21.238 52.2843 20.8127 53.2398 21.2646 55.1241C21.743 57.1411 19.4572 58.4946 19.0054 60.432C18.9522 60.6708 18.3941 60.4851 18.1549 60.1931C17.6765 59.5827 17.5436 58.6008 17.9423 58.2557C20.7064 55.8937 17.2778 54.4075 17.1715 52.4436C17.1715 51.8862 16.2412 51.3289 15.497 51.9393C14.8857 52.4436 13.8492 52.9744 14.4339 54.0359C16.6133 57.9107 16.6931 62.1305 16.7196 66.3768C16.7196 69.0043 18.1283 71.154 19.1649 73.4098C19.4572 74.0733 19.8559 74.3387 20.6001 73.9672C21.6101 73.4098 20.8127 73.0117 20.4938 72.5871C20.228 72.2421 19.8559 71.8174 20.2546 71.4724C20.5204 71.2336 21.1051 71.1805 21.4506 71.3132C22.5669 71.7378 23.63 71.9236 24.9058 71.8971C27.1118 71.844 25.1982 74.0733 26.155 74.8695C26.3145 75.1349 26.2879 75.4003 26.1018 75.6126C23.9756 77.4438 21.743 77.0457 19.6699 75.6126C18.208 74.6572 16.6665 73.9141 15.0452 73.3037C14.0352 71.7909 12.9189 70.4639 11.0053 70.1189C10.1548 68.5796 9.78267 66.8811 9.49031 65.1826C9.33083 64.2271 9.41057 63.2983 9.91556 62.4224C11.2711 60.0073 11.2445 59.8216 8.37401 59.9012C5.92879 59.9543 4.59987 58.2823 3.11148 56.9553C2.07492 55.9999 2.50017 54.4871 3.21779 53.3194C4.30751 51.5412 5.29091 49.71 6.69957 48.1442C7.70955 47.003 7.78928 45.9945 6.06168 45.4371C4.70618 45.0125 4.09488 44.1102 4.41382 42.6505C4.62645 41.6685 4.49356 40.7131 3.96199 39.8904C2.52675 37.5549 3.56331 35.1663 3.72278 32.7778C3.80252 31.8223 4.70618 31.4508 5.34407 30.8669C7.31087 29.0888 9.43715 27.4964 10.9521 25.2405C11.3508 24.3647 12.2013 24.0728 12.9455 23.6747C13.5568 23.2501 13.7429 22.2946 14.6731 22.2681C16.826 22.6397 17.5436 24.577 18.6865 26.0367C20.2014 27.9741 20.7861 28.0272 21.9556 25.904C23.3908 23.2501 24.5337 20.4369 26.5271 18.0749C27.351 17.0929 27.4573 15.474 26.5271 14.7043C23.9224 12.6342 25.1716 10.4315 25.9158 8.20214C27.9889 7.32634 28.3344 9.98029 29.876 10.1661C30.2215 10.6172 30.567 11.0684 30.886 11.5196C32.4541 13.1916 32.5338 15.474 33.3578 17.4379C33.4109 17.7829 33.4641 18.1279 33.4907 18.4464C33.597 19.5611 34.3943 19.7468 35.3246 19.7999C37.1319 19.9326 38.8861 20.1184 40.72 19.853C42.2084 19.6407 43.8031 19.853 43.3513 22.1089L43.3778 22.1885Z" fill="#B0C978"/>
<path fill-rule="evenodd" clip-rule="evenodd" d="M10.9492 25.293C11.3745 25.5849 11.5871 26.0626 11.1618 26.3546C8.95582 27.9204 7.83953 30.707 5.12852 31.7421C4.783 31.8748 4.30459 32.3525 4.33117 32.6444C4.5438 34.9799 2.86936 37.3685 4.57038 39.6774C4.94248 40.2082 5.34115 41.0575 5.18168 41.5883C4.57038 43.7645 5.07537 44.7199 7.46743 45.2507C9.40766 45.6753 8.18505 47.4004 7.52059 48.117C6.11193 49.6828 5.1551 51.514 4.01223 53.2391C2.97567 54.858 2.55041 55.7869 4.75643 57.512C6.74981 59.0513 8.45083 59.1309 10.4974 59.184C11.215 59.184 11.9326 59.184 12.2781 59.9536C12.5439 60.511 12.1187 60.9887 11.72 61.2806C8.90267 63.1914 10.0987 65.7127 10.8429 68.0216C11.0821 68.7913 11.4542 69.3752 10.9758 70.1448C5.87272 68.7913 3.00225 65.1288 1.03544 60.5375C-1.14399 55.4419 0.131775 51.2221 4.25144 47.7454C4.51722 47.4004 5.68667 47.0819 4.25144 46.6838C4.06539 46.1531 3.87934 45.6223 3.71987 45.118C3.74644 43.2868 3.1883 41.5086 2.73646 39.7836C1.93911 36.6519 2.94909 33.8652 3.61355 30.9724C5.8993 28.8758 7.94584 26.5138 10.9226 25.3195L10.9492 25.293Z" fill="#AAC76C"/>
<path fill-rule="evenodd" clip-rule="evenodd" d="M43.3763 22.189C42.7384 20.4639 41.755 19.9597 39.7882 20.4108C38.034 20.8355 36.0672 20.5435 34.2333 20.3312C33.622 20.2516 32.4525 19.6147 33.5157 18.5C35.1635 19.8004 37.0772 19.6412 38.9908 19.5085C43.9344 19.19 47.2301 21.207 50.2335 25.2941C52.7319 28.7177 52.3332 32.1413 52.2535 35.5649C52.1206 40.2094 51.3232 44.7742 46.8049 47.7466C45.1039 48.8612 45.662 51.2763 46.4594 52.736C48.4262 56.3454 47.6288 59.769 46.4062 63.1926C45.157 66.6958 42.7118 69.2702 39.2832 70.8625C39.0971 69.164 40.5324 68.5271 41.5158 67.5982C42.0208 67.1205 43.1105 66.4835 43.0307 66.2977C41.6487 62.821 45.8746 60.5386 44.7849 56.8231C44.0141 54.2488 43.8015 51.0906 44.7318 48.2243C44.9178 47.6404 44.6786 47.2423 44.5191 46.7381C44.1205 45.5969 43.8547 44.8538 45.7417 44.8272C47.1504 44.8272 48.7451 44.2434 48.373 41.9344C48.2401 40.979 48.7983 39.8378 49.3298 38.7762C50.1803 37.1308 50.9511 35.273 49.5159 33.4152C49.3564 33.2295 49.1704 32.8844 49.2501 32.7252C50.6588 29.7528 49.2235 28.2931 46.9909 26.3026C45.8215 25.241 44.5457 23.6221 43.4028 22.189H43.3763Z" fill="#A7C46C"/>
<path fill-rule="evenodd" clip-rule="evenodd" d="M33.5389 73.3564C33.5389 78.107 33.5389 82.8841 33.592 87.6347C33.592 89.3863 33.3262 90.6867 31.0671 90.6071C28.9408 90.554 27.4258 90.1029 27.0803 87.6347C26.7348 85.2196 26.7082 82.831 26.7614 80.4159C26.7879 79.3809 26.8145 78.3458 26.0703 77.4966C26.15 77.3904 26.2298 77.2842 26.3095 77.1781C27.7979 76.435 28.7813 75.0815 29.9773 74.0199C31.0139 73.1175 32.077 72.109 33.5389 73.3299V73.3564Z" fill="#BB9862"/>
<path fill-rule="evenodd" clip-rule="evenodd" d="M14.6449 22.7191C14.0867 23.0641 13.502 23.3826 12.9438 23.7276C12.997 21.5779 12.9438 19.4547 12.5983 17.2785C11.9339 13.3506 13.7412 9.98009 16.6914 7.75077C19.8011 5.36221 23.5752 4.67218 27.4025 6.60957C28.9175 7.37921 29.8743 8.44079 29.8477 10.2189C28.9175 10.6701 28.0404 10.909 27.7215 9.582C27.5088 8.70619 26.7646 8.49387 26.1268 8.14886C25.9939 8.28156 25.8344 8.4408 25.7015 8.41426C21.6616 7.29959 19.5353 10.2189 17.2761 12.5544C15.2296 14.6776 15.0967 17.5173 14.9638 20.2774C14.9372 21.1002 15.3359 22.0025 14.6449 22.7456V22.7191Z" fill="#A6C46D"/>
<path fill-rule="evenodd" clip-rule="evenodd" d="M15.0469 73.3301C16.7213 73.1443 18.0502 73.4628 19.4589 74.7367C21.3194 76.4352 23.7646 76.5944 26.1301 75.3736C26.7414 76.0106 26.7414 76.7006 26.2364 77.3906L26.1035 77.4968C24.8277 77.4968 23.552 77.6029 22.2762 77.7887C18.7944 78.2664 16.8542 75.8248 15.0735 73.3301H15.0469Z" fill="#A9C36E"/>
<path fill-rule="evenodd" clip-rule="evenodd" d="M3.66754 30.9453C3.53465 32.7765 3.64096 34.5812 3.08281 36.4655C2.57782 38.2437 3.53465 40.4199 3.93333 42.4104C4.11937 43.3393 4.51805 44.2416 3.74728 45.0909C1.51469 41.3754 1.22232 37.3679 2.07283 33.2277C2.28546 32.2723 2.84361 31.5292 3.64096 30.9453H3.66754Z" fill="#A2BE66"/>
<path fill-rule="evenodd" clip-rule="evenodd" d="M26.2313 77.3896C26.2047 76.7261 26.1782 76.0361 26.125 75.3726C26.125 75.2133 26.125 75.0276 26.125 74.8683C28.2513 73.8864 30.3244 72.8513 32.5038 71.9755C33.3809 71.6305 34.6035 71.1262 34.9756 72.7717C34.4972 72.984 33.9922 73.1698 33.5138 73.3821C31.042 72.8513 30.0586 74.9214 28.7563 76.2484C27.9855 77.018 27.3742 77.7346 26.1782 77.4427L26.2313 77.3896Z" fill="#A8AA5A"/>
<path fill-rule="evenodd" clip-rule="evenodd" d="M33.378 17.4906C31.3049 16.0309 32.0491 13.4035 30.9062 11.5723C33.0591 13.0054 34.1222 14.8632 33.378 17.4906Z" fill="#A7C46C"/>
<path fill-rule="evenodd" clip-rule="evenodd" d="M4.30783 46.6844C5.26465 46.074 6.00885 46.2333 6.62015 47.2418C5.95569 48.091 5.05203 47.5868 4.28125 47.746C4.28125 47.401 4.28125 47.056 4.28125 46.6844H4.30783Z" fill="#A2BE66"/>
<path fill-rule="evenodd" clip-rule="evenodd" d="M14.6444 22.7188C13.0763 16.4289 16.1062 11.9437 20.6512 8.20163C22.3256 6.82157 24.2924 7.69738 26.1263 8.12201C26.0466 8.97128 26.2061 9.95324 25.834 10.6433C25.0366 12.1029 25.3555 12.793 26.6845 13.7749C28.3855 15.0488 28.3323 17.3047 27.1097 18.6051C25.0632 20.7548 24.1329 23.4353 22.7509 25.877C22.4585 26.3812 22.3522 26.9651 21.9003 27.4428C20.6777 28.7963 19.8007 29.1944 18.6844 27.2039C17.701 25.4523 16.6112 23.6476 14.671 22.6922L14.6444 22.7188Z" fill="#B8CF7D"/>
<path fill-rule="evenodd" clip-rule="evenodd" d="M9.88595 29.2212C9.8328 28.77 10.4441 28.1861 11.3743 27.7084C12.1185 27.3369 13.0754 27.5492 13.7133 26.7795C14.2182 26.1691 14.9624 26.2222 15.5737 26.6734C16.3711 27.2573 15.9193 27.8677 15.494 28.425C15.0422 29.0354 15.1219 29.7254 15.1485 30.4155C15.2016 31.9017 14.6169 32.9102 13.0754 32.5386C11.7199 32.1936 9.96569 31.9813 9.85938 29.2212H9.88595Z" fill="#B8CF7D"/>
</g>
<defs>
<clipPath id="clip0_1_5093">
<rect width="229" height="206" fill="white"/>
</clipPath>
</defs>
</svg>
