<svg width="184" height="228" viewBox="0 0 184 228" fill="none" xmlns="http://www.w3.org/2000/svg">
<g clip-path="url(#clip0_1_3665)">
<path fill-rule="evenodd" clip-rule="evenodd" d="M105.887 122.963C106.361 123.561 106.261 124.284 106.386 124.957C106.561 125.979 106.585 127.176 107.134 127.974C108.532 130.068 108.507 132.362 108.606 134.68C108.856 139.218 109.006 143.781 108.532 148.293C108.232 151.235 107.658 154.252 105.837 156.82C105.313 156.595 104.689 155.698 104.39 157.044C103.841 159.637 101.621 160.684 99.6995 162.006C98.6517 162.729 97.5789 163.103 96.5559 162.006C95.6827 161.058 95.4582 159.986 96.057 158.764C96.6308 157.593 97.5539 156.67 98.3523 155.698C99.7744 154.003 100.997 152.581 99.7744 149.814C98.9511 147.944 101.296 145.426 100.448 143.082C98.2525 147.022 95.1089 149.839 90.2937 150.587C88.2728 150.886 86.5264 150.687 85.2041 149.041C81.8359 144.853 76.6216 143.033 72.8542 139.368C71.4321 137.996 69.2117 138.769 67.4652 138.071C66.4174 135.753 67.6648 133.584 68.0141 131.39C68.2636 129.719 69.9601 130.716 71.033 130.442C71.4072 130.567 71.2076 129.669 71.1078 130.143C71.1078 130.243 71.033 130.268 70.9581 130.218C68.8374 129.345 67.8395 125.356 69.9352 123.337C71.7814 121.566 71.7315 119.547 72.4052 117.602C73.453 114.536 73.952 111.27 76.1974 108.702C76.7713 108.053 77.2453 107.131 77.0208 106.109C77.9439 104.937 78.867 103.765 79.7901 102.593C80.7382 102.145 81.6613 101.746 82.4846 101.048C83.3079 100.35 84.281 100.549 85.0045 101.297C85.8777 102.219 85.2041 102.992 84.6552 103.765C83.8069 104.962 82.3848 105.161 80.6633 105.66C83.2331 106.782 85.1292 107.904 87.2 105.785C87.9235 105.037 89.1959 105.211 90.2438 105.486C97.7784 107.555 102.893 112.043 104.49 119.971C104.714 121.093 104.689 122.289 105.887 122.938V122.963Z" fill="#8EB160"/>
<path fill-rule="evenodd" clip-rule="evenodd" d="M144.578 81.4769C144.952 79.4076 145.925 77.4879 145.95 75.3437C147.722 71.3796 148.52 67.0914 150.092 63.0774C150.267 62.6535 150.391 62.1549 150.716 61.8557C151.938 60.7089 152.213 59.2628 152.188 57.6921C152.188 56.645 152.637 55.8721 153.635 55.5231C154.483 55.2239 155.032 54.7253 155.256 53.8527C155.73 51.908 157.202 50.9107 158.974 50.5367C160.047 50.3124 160.945 49.9882 161.818 49.34C162.816 48.5921 163.939 48.6419 165.161 48.7417C168.23 48.991 170.775 50.1378 172.846 52.4315C173.819 53.5036 174.667 54.5757 174.841 56.0466C174.941 57.0688 175.44 57.742 176.313 58.2656C177.386 58.8888 178.06 59.9609 178.16 61.1327C178.384 63.5511 179.557 65.5705 180.655 67.59C182.875 71.7037 183.973 75.992 183.998 80.6542C183.998 84.0698 184.098 87.4107 183.399 90.7764C183.15 91.9981 182.177 92.8707 182.077 93.9428C181.902 95.6381 181.154 97.0343 180.58 98.5551C180.43 98.9789 180.355 99.5524 180.031 99.8017C178.509 100.973 177.636 102.644 176.363 104.015C175.64 104.813 174.816 105.461 173.644 105.361C172.771 105.287 172.072 105.735 171.398 106.209C170.6 105.81 170.4 104.987 169.926 104.339C169.727 104.065 169.552 103.791 169.403 103.517C169.328 103.367 169.253 103.217 169.178 103.068C169.028 102.619 168.904 102.12 169.278 101.746C170.991 99.9347 170.908 98.1479 169.028 96.3861C168.779 96.1367 168.554 95.8625 168.28 95.6381C166.434 94.1173 163.689 92.9953 166.259 89.3803C164.562 91.2252 163.49 93.12 161.07 91.7488C159.922 91.1005 158.949 89.7542 159.997 88.9315C163.14 86.4882 161.718 83.8454 160.895 81.103C160.795 80.7788 160.945 80.4049 160.795 79.9062C158.325 80.6043 155.531 82.0753 155.032 77.5627C154.907 76.4407 149.768 77.6125 148.795 79.2081C147.797 80.8536 146.674 82.0005 144.578 81.3772V81.4769Z" fill="#A1C66B"/>
<path fill-rule="evenodd" clip-rule="evenodd" d="M123.548 3.26683C124.645 3.44135 125.344 4.26409 126.142 4.93725C133.153 12.0428 136.122 20.9932 137.394 30.567C137.769 33.4341 138.143 36.7251 134.176 38.1462C136.347 40.3651 136.147 42.5591 134.301 44.7531C132.804 45.4761 132.43 44.1547 132.055 43.332C131.207 41.4372 129.935 41.6865 128.113 41.6367C125.469 41.5619 122.824 44.6783 120.03 41.6367C119.531 41.1131 118.283 42.8583 117.56 43.7309C116.362 45.1769 115.29 45.7504 113.992 43.9054C113.393 43.0578 112.495 42.8583 111.547 42.7336C110.474 42.584 109.501 42.2599 109.676 40.8139C109.501 41.6117 109.826 42.1851 110.225 42.7586C110.824 43.6312 111.572 44.6035 110.599 45.5509C109.776 46.3737 108.853 45.6506 108.004 45.3016C107.356 45.0274 106.532 44.5287 106.008 44.9775C102.615 47.9942 100.844 45.3515 99.7712 43.9553C103.314 45.9498 101.493 50.6868 102.166 54.5762C102.541 56.8699 100.22 54.9502 99.2971 55.5236C99.0476 55.2992 98.6734 55.1247 98.5486 54.8255C97.0267 51.5345 95.7294 48.1687 95.7294 44.4789C95.7294 41.4372 95.8292 38.3955 95.7294 35.3788C95.6296 32.038 96.2284 28.8467 97.6754 25.8798C98.8979 23.3617 99.9957 20.8187 100.919 18.176C101.468 17.7272 102.216 16.8795 102.615 17.1039C105.584 18.6746 106.208 15.9072 107.63 14.5858C107.88 14.3365 108.154 13.9874 108.453 13.9625C112.246 13.5387 114.267 11.4943 115.14 7.67973C115.589 5.6852 117.236 6.18383 119.281 9.20056C119.88 7.80439 120.105 6.33342 120.429 4.88738C120.828 3.11724 121.876 2.64354 123.523 3.2419L123.548 3.26683Z" fill="#9FC56A"/>
<path fill-rule="evenodd" clip-rule="evenodd" d="M48.477 85.7146C47.5788 84.9417 46.4062 84.7672 45.4083 84.2436C42.6888 82.7976 39.7698 81.6258 38.1231 78.7587C39.0462 77.0134 38.5972 75.6173 37.0503 74.4704C36.5014 74.0466 36.0523 73.4731 35.6531 72.8997C34.8548 71.7529 34.6552 70.4813 35.4536 69.3096C36.0024 68.4868 36.9505 68.2126 37.9485 68.3123C39.5452 68.4868 39.9943 69.5838 39.9444 70.2819C37.7239 65.121 36.3018 59.4117 43.9363 55.8215C42.8136 54.7993 40.4184 55.8215 40.5681 53.5777C40.6929 51.8075 42.7886 51.6081 43.4123 50.187C46.1068 47.0207 49.3502 45.7741 53.392 47.3946C53.9409 47.619 54.6145 47.8933 55.0885 47.5692C58.2072 45.45 60.4526 47.5692 62.5733 49.2396C65.168 51.3338 66.7148 54.3506 67.4883 57.5169C68.0371 59.7857 65.9165 61.3813 64.4445 63.1016C67.4134 63.0517 69.0351 64.2484 68.4363 66.8662C67.8126 69.6835 67.3386 72.5507 66.1909 75.3181C64.8187 78.6589 61.6252 79.4318 59.4796 81.6009C58.4317 82.648 56.835 82.2989 55.4877 81.7255C54.1405 81.1521 52.7932 81.0274 51.2464 81.6258C53.1425 82.9472 55.8121 82.9222 56.8849 85.2907C56.8849 86.8864 55.9368 87.6343 54.4898 87.5097C52.3691 87.3351 50.1486 87.3102 48.4521 85.6647L48.477 85.7146Z" fill="#739E4C"/>
<path fill-rule="evenodd" clip-rule="evenodd" d="M15.9452 205.787C15.8454 205.338 15.7206 204.889 15.6707 204.416C15.5959 203.767 15.2965 203.393 14.6727 203.144C13.5999 202.72 12.3525 202.72 11.4294 201.898C11.604 201.449 12.577 201.125 11.8036 200.526C10.3316 199.379 8.95939 198.008 7.86163 196.662C5.16712 193.346 2.42271 189.257 2.94664 185.168C3.57037 180.382 1.07546 176.592 0.850913 172.229C0.751117 169.835 0.476676 167.417 1.39979 165.098C1.54949 165.173 1.67424 165.248 1.82393 165.323C2.22312 165.896 2.42271 166.52 2.02352 167.691C3.04644 165.323 2.69715 163.179 3.34583 161.209C3.49552 160.91 3.72007 160.661 3.99451 160.486C7.83668 159.264 8.08617 159.414 8.88454 163.303C9.20888 162.032 9.85756 160.91 10.2567 159.663C10.6559 158.417 11.4294 157.519 12.7766 157.669C15.1218 157.943 17.0928 156.971 19.1137 156.048C19.5378 155.849 18.9889 156.048 19.4131 155.899C21.1346 155.25 22.9808 154.777 24.1035 156.672C25.2262 158.541 22.6814 158.691 22.2323 159.888C20.2863 163.229 18.1906 166.37 13.9991 166.794C14.8723 166.993 15.8953 167.417 15.9452 168.714C15.9951 169.811 15.2216 170.459 14.2985 170.733C12.9762 171.107 12.2028 171.481 13.076 173.126C13.9492 174.772 13.2007 175.844 11.4793 176.667C7.63708 178.487 7.2379 180.656 9.90746 183.947C11.0302 185.343 11.6788 187.013 12.103 188.684C12.6269 190.878 12.9762 192.748 15.6707 193.645C17.6916 194.318 16.2944 195.565 15.2466 196.462C19.5628 194.992 23.4299 192.673 26.4487 189.282C27.796 187.761 28.27 185.418 26.6234 183.797C24.3031 181.528 24.1784 179.758 27.0725 178.188C26.6483 176.991 25.8001 176.966 24.9767 176.866C23.6544 176.717 21.8831 177.789 21.1346 176.143C20.4111 174.572 20.3612 172.528 21.0847 171.032C21.9828 169.088 22.407 167.691 20.3861 166.27C19.3632 165.547 19.5129 164.425 20.3861 163.503C21.1096 162.73 21.7084 161.882 22.1325 160.885C23.2553 159.115 24.1534 157.295 26.5236 159.888C27.322 160.785 29.5674 159.24 30.74 161.209C32.2369 163.702 31.9875 166.096 31.0394 168.589C30.715 169.437 29.8917 170.135 30.6153 171.132C30.7649 171.431 30.8897 171.73 30.9645 172.029C30.4406 176.368 34.0333 178.636 35.9793 181.703C36.8775 183.124 37.0521 183.897 36.1789 185.368C34.657 187.936 33.4844 190.678 31.9376 193.271C29.5923 197.161 26.6733 199.679 21.908 199.379C22.2074 199.903 23.0557 200.177 22.8311 201.025C20.2364 201.549 17.6167 203.468 16.2445 205.812C16.2196 205.862 16.02 205.812 15.9202 205.812L15.9452 205.787Z" fill="#9FBF6A"/>
<path fill-rule="evenodd" clip-rule="evenodd" d="M99.3433 55.547C99.5179 55.0733 99.4431 54.2755 100.366 54.6494C100.765 54.824 101.04 55.3226 101.614 55.1481C100.815 52.8045 100.491 51.6327 101.015 49.8626C101.713 47.519 100.366 46.1976 99.0439 44.7765C98.7445 44.4524 98.2455 44.3028 97.8962 44.0036C97.2226 43.4053 97.1976 42.3581 97.8463 41.4606C98.0459 41.1863 98.47 40.937 98.7445 41.2362C99.493 42.1088 100.516 42.782 100.89 43.9039C101.189 44.8014 102.038 45.0508 102.612 45.5743C103.16 46.048 103.684 45.9732 104.109 45.4247C104.333 45.1505 104.433 44.8014 104.657 44.5272C105.481 43.5549 106.055 43.4053 107.102 43.8291C107.527 44.0036 107.951 44.228 108.35 44.4524C108.949 44.7765 109.547 45.7239 110.146 45.2751C111.144 44.5023 109.872 43.9288 109.622 43.2557C109.123 41.9094 108.649 40.588 109.797 39.3165C110.246 38.8428 110.72 38.6433 111.344 38.9674C111.843 39.2417 111.843 39.7902 111.269 40.3885C111.019 40.6379 110.67 40.8124 110.496 41.0866C110.296 41.4107 110.421 41.7598 110.795 41.9094C110.995 42.0091 111.269 42.0839 111.469 42.0091C113.464 41.3609 114.587 42.1836 115.086 44.1034C115.136 44.2779 115.411 44.4025 115.585 44.5521C116.633 44.4524 116.234 43.131 117.082 42.8069C117.856 42.4828 118.255 41.7348 118.729 41.0368C118.978 40.6628 119.377 40.3636 119.777 40.1392C120.8 39.5907 121.623 40.2389 121.598 41.5105C121.598 41.8595 121.473 42.2833 121.847 42.408C122.122 42.5077 122.546 42.408 122.795 42.2335C123.195 41.9842 123.494 41.6351 123.868 41.311C124.342 40.9121 124.866 40.7126 125.49 40.9869C126.663 41.4855 127.661 41.3359 128.783 40.6628C130.355 39.7154 131.702 40.1642 132.426 41.8595C132.875 42.9316 133 44.1283 133.973 44.9261C135.395 48.1921 134.871 51.3086 133.349 54.4251C132.65 55.8711 131.029 56.7188 130.829 58.464C128.409 60.284 126.438 62.6026 124.043 64.4725C123.793 64.5473 123.544 64.5972 123.294 64.672C122.746 64.1733 122.421 63.4503 121.797 63.0514C118.829 62.3783 115.909 61.5555 112.891 62.9766C111.868 63.4503 110.595 63.5251 109.622 62.5278C107.477 61.2314 104.907 60.7328 102.961 59.0374C102.786 58.7382 102.587 58.4391 102.163 58.464H102.138C102.113 58.0152 101.863 57.7908 101.464 57.741C101.414 57.3171 101.189 57.0927 100.79 57.018C100.715 56.619 100.466 56.3947 100.092 56.27C99.9919 55.921 99.7424 55.6716 99.3682 55.547H99.3433Z" fill="#82AB5A"/>
<path fill-rule="evenodd" clip-rule="evenodd" d="M67.7855 137.772C70.8293 137.274 73.5737 137.697 75.42 140.465C76.0686 141.437 76.7922 141.936 77.9648 142.06C79.0376 142.16 79.7611 142.908 80.6094 143.606C82.8798 145.451 84.9007 147.57 87.0213 149.565C87.3706 149.889 87.7698 150.113 88.2688 150.014C91.0381 149.565 93.9572 149.316 96.0529 147.221C97.7994 145.476 99.945 143.88 100.219 141.088C100.244 140.739 100.394 140.34 100.818 140.515C101.093 140.614 101.392 140.988 101.442 141.263C101.542 141.961 101.617 142.684 101.492 143.357C101.367 144.055 101.192 144.728 101.492 145.401C102.265 147.097 101.691 148.293 100.145 148.842C99.8701 149.515 100.269 149.615 100.569 149.764C102.365 150.712 102.34 150.712 101.567 152.282C101.267 152.906 101.043 153.554 100.743 154.202C100.419 154.95 100.095 155.723 99.3213 156.147C98.1237 156.795 97.5249 157.942 96.8513 159.039C96.2525 160.011 96.2775 160.56 97.0259 161.557C97.4002 162.031 97.9491 162.455 98.4979 161.906C99.1716 161.233 99.9949 160.809 100.793 160.335C102.64 159.288 103.937 157.917 103.712 155.598C103.662 155.025 103.787 154.327 104.536 154.327C105.159 154.327 105.559 154.85 105.683 155.474C105.783 155.922 105.808 156.396 105.858 156.87C105.334 157.169 105.484 157.842 105.134 158.266C104.062 159.762 102.465 160.834 101.592 162.479C101.292 162.629 101.093 162.903 100.843 163.128C100.269 164.1 99.3462 164.424 98.2984 164.723C96.2276 165.297 94.1568 165.995 92.086 166.643C89.9903 167.092 88.1191 165.92 86.0982 165.746C80.5345 162.679 74.7214 160.086 69.8314 155.848C68.0101 154.277 67.0371 152.931 67.3614 150.637C67.561 149.814 67.4113 149.016 67.2366 148.219C67.1868 147.894 67.1868 147.57 67.2117 147.246C67.7356 144.13 67.8354 140.988 67.7606 137.847L67.7855 137.772Z" fill="#7D9F55"/>
<path fill-rule="evenodd" clip-rule="evenodd" d="M144.584 81.4762C145.132 81.2518 145.631 80.9277 146.205 80.803C147.403 80.5288 147.852 79.7808 148.151 78.634C148.625 76.6644 148.875 76.4649 150.746 76.9137C151.968 77.2129 152.767 76.6644 153.665 76.1657C154.164 75.8666 154.588 75.343 155.212 75.7419C155.91 76.1907 156.459 76.8389 156.434 77.7614C156.434 77.886 156.409 77.9857 156.384 78.1104C156.26 78.6589 155.786 79.2573 156.285 79.731C156.958 80.3543 157.906 80.2795 158.605 79.9553C159.428 79.6063 160.102 78.8833 160.875 78.3597C161.299 78.0605 161.773 78.1353 162.148 78.5093C162.397 78.7836 162.597 79.1326 162.297 79.4318C161.075 80.7532 161.549 81.9997 162.347 83.2713C162.647 83.7699 163.071 84.2187 163.295 84.7422C163.769 85.7395 163.47 86.8116 162.572 87.5346C162.297 87.759 161.948 87.8836 161.674 88.0831C160.975 88.6814 159.977 89.1551 160.326 90.2771C160.651 91.3491 161.823 91.2743 162.672 91.5486C163.345 91.748 163.794 91.4488 164.044 90.8256C164.119 90.6261 164.169 90.3768 164.194 90.1524C164.293 89.4792 164.019 88.5817 164.717 88.2327C165.541 87.8088 166.289 88.482 166.938 88.9307C167.836 89.554 167.861 90.4017 167.038 91.2743C166.713 91.6234 166.314 91.8727 166.04 92.2467C165.815 92.5458 165.815 93.0195 166.165 93.1442C167.786 93.7176 168.959 94.7897 169.857 96.2108C170.281 96.8839 171.055 96.859 171.628 97.233C172.327 97.6568 173.026 98.1555 173.125 99.053C173.225 99.9505 172.202 101.372 171.229 101.771C170.93 101.895 170.531 101.845 170.181 101.92C169.258 102.169 169.707 102.743 169.857 103.266C168.56 107.006 164.343 106.134 161.973 108.203C161.399 107.779 160.8 107.53 160.077 107.43C158.58 107.231 156.933 107.256 155.661 106.582C152.692 105.012 149.698 103.217 147.977 100.25C147.153 98.8535 146.604 97.3576 145.382 96.2357C145.058 95.9365 144.808 95.4379 144.783 95.0141C144.608 92.845 143.511 90.7508 144.334 88.482C144.584 87.759 144.409 86.8614 144.334 86.0636C144.234 84.5428 144.085 83.0469 144.534 81.551L144.584 81.4762Z" fill="#8BB05A"/>
<path fill-rule="evenodd" clip-rule="evenodd" d="M170.503 149.74C170.628 149.915 170.702 150.114 170.677 150.338C171.376 151.959 170.378 153.779 171.301 155.375C171.7 155.773 171.601 156.372 171.9 156.796C172.025 156.995 172.075 157.195 172.075 157.419C172.399 157.918 172.424 158.416 172.025 158.915C171.027 159.787 172.224 161.084 171.426 162.006C170.827 162.829 170.902 163.752 171.027 164.699C172.075 172.528 170.528 179.434 164.315 184.968C162.344 186.739 160.872 189.032 158.253 190.055C157.454 190.379 158.103 191.052 158.128 191.575C157.579 192.772 156.581 192.697 155.558 192.473C153.862 191.476 154.51 189.855 154.585 188.359C153.088 188.21 152.639 189.631 151.616 190.055C150.718 190.229 149.97 189.905 149.371 189.257C149.096 186.589 149.047 184.071 150.294 181.478C151.741 178.411 150.893 175.096 150.294 171.879C149.945 170.009 149.87 168.663 152.514 168.189C155.708 167.641 154.959 163.826 156.656 161.907C157.055 161.458 157.005 160.585 157.305 159.937C157.978 158.092 158.353 156.172 159.326 154.377C160.698 151.834 162.07 149.79 165.513 150.737C167.334 151.261 166.86 149.89 166.81 148.842C166.76 147.147 166.611 145.153 169.33 146.823C169.48 147.097 169.605 147.372 169.754 147.646C169.904 147.82 169.979 148.045 170.004 148.269C170.328 148.693 170.203 149.316 170.553 149.74H170.503Z" fill="#769F51"/>
<path fill-rule="evenodd" clip-rule="evenodd" d="M139.54 139.768C140.338 137.175 141.71 134.856 142.958 132.488C143.656 131.166 144.654 129.995 144.58 128.324C144.555 127.551 145.303 127.127 146.102 127.252C147.249 127.402 148.397 127.701 149.544 127.776C150.717 127.85 151.89 128 153.012 127.526C154.459 126.928 155.907 127.352 157.079 127.975C159 128.997 161.046 129.994 162.094 132.139C162.842 134.831 164.04 137.349 165.262 139.843C166.036 141.413 167.907 143.133 165.911 145.153C163.741 145.377 161.545 146.001 159.449 144.904C159.15 144.729 158.875 144.555 158.626 144.33C155.233 141.962 155.258 141.962 153.711 145.926C152.963 147.846 151.915 149.591 152.389 151.884C152.713 153.38 151.441 154.527 149.969 154.851C148.272 155.225 148.372 153.655 147.898 152.657C146.825 150.289 144.106 149.516 141.81 150.862C141.112 151.286 140.488 151.81 139.715 152.084C138.916 152.358 138.068 152.483 137.469 151.735C136.845 150.962 137.145 150.04 137.768 149.541C140.164 147.571 139.839 144.779 140.139 142.161C140.139 141.313 140.737 140.291 139.565 139.718L139.54 139.768Z" fill="#D4E29E"/>
<path fill-rule="evenodd" clip-rule="evenodd" d="M159.355 144.08C160.353 144.753 161.525 145.052 162.623 144.678C163.721 144.329 164.644 144.753 165.667 144.803C166.715 146.473 166.016 147.62 164.32 147.745C161.825 147.944 160.627 149.291 159.829 151.435C159.23 153.055 157.957 154.053 155.887 154.427C157.034 155.598 158.282 156.621 158.157 158.241C158.057 159.513 156.835 160.061 156.011 160.859C154.764 161.682 153.616 162.479 152.593 163.701C150.198 166.568 146.306 167.167 143.088 167.291C140.518 167.391 142.24 164.898 143.138 163.477C140.518 163.477 138.946 166.843 136.127 165.671C134.755 165.122 134.031 163.876 134.031 162.305C134.63 158.565 135.927 154.925 135.354 151.061C135.428 148.667 136.501 146.548 137.2 144.329C137.225 144.254 137.399 144.205 137.499 144.155C139.445 144.603 139.071 141.562 140.942 141.861C141.017 142.783 141.092 143.731 140.718 144.628C140.468 145.202 140.468 145.75 140.718 146.299C141.092 147.171 140.892 147.82 140.069 148.393C139.32 148.942 138.672 149.615 138.048 150.288C137.724 150.637 137.549 151.161 138.048 151.485C138.298 151.659 138.821 151.734 139.021 151.584C140.144 150.762 141.566 150.363 142.364 149.116C142.863 148.343 143.487 148.393 144.111 148.917C144.685 149.39 145.333 149.49 146.032 149.69C148.227 150.288 148.627 150.911 148.851 153.579C148.851 153.778 149.001 154.102 149.15 154.152C149.45 154.227 149.849 154.252 150.099 154.102C150.573 153.778 150.972 153.33 151.396 152.931C151.87 152.482 152.02 151.958 151.695 151.36C151.471 150.961 151.296 150.512 151.121 150.088C150.822 149.39 150.822 148.642 151.396 148.144C152.643 147.072 152.943 145.601 153.267 144.13C153.392 143.556 153.566 143.008 153.816 142.459C154.29 141.337 155.438 140.864 156.361 141.587C157.359 142.36 158.756 142.659 159.33 143.955L159.355 144.08Z" fill="#C0D688"/>
<path fill-rule="evenodd" clip-rule="evenodd" d="M56.4078 84.9914C54.2372 84.2434 52.366 82.6977 49.921 82.6229C49.6715 82.6229 49.3721 82.224 49.1975 81.9497C48.9979 81.6505 49.0478 81.1519 49.3971 81.0771C50.8441 80.7031 52.3161 80.379 53.8131 80.1297C54.5615 80.0051 55.0855 80.6283 55.7092 80.9275C57.9796 82.0494 59.4017 81.6256 60.5992 79.3568C61.0483 78.5092 61.2729 78.0853 62.3706 78.3346C63.3935 78.559 64.6161 77.7861 64.4664 77.0382C64.0672 74.9439 65.7138 74.2458 66.7617 73.2735C66.8615 72.4508 66.3375 72.0519 66.0881 71.5532C65.5641 70.5061 65.5641 70.157 66.612 69.5836C67.4603 69.1099 67.7846 68.5365 67.7596 67.639C67.7596 66.2428 67.9093 64.8217 66.612 63.7745C65.9633 63.251 65.4394 63.2759 64.9903 64.1485C64.641 64.8217 64.6161 66.0683 63.4434 65.3452C62.4704 64.7469 63.194 63.8244 63.5931 63.1762C64.4664 61.8049 65.4643 60.5085 66.4623 59.2121C67.111 58.3394 67.086 57.4918 66.587 56.5942C65.5641 54.7493 64.5412 52.9043 63.4684 51.1093C63.194 50.6356 62.7199 50.2367 62.2459 49.9125C61.7719 49.5635 61.198 49.389 60.699 49.0898C59.8258 48.5164 59.0773 47.6188 58.1293 47.3197C56.9816 46.9706 56.4577 48.4166 55.5346 48.8654C55.0855 49.0898 54.5366 49.1895 54.1873 48.9402C50.1705 46.0481 46.9521 47.8432 43.8584 50.5857C43.7586 50.486 43.6588 50.3613 43.534 50.2616C43.4093 49.9873 43.3594 49.6882 43.3594 49.389C43.3843 49.0898 43.4592 48.7906 43.534 48.5164C43.8334 47.3695 44.0829 46.1728 45.1557 45.4498C45.3803 45.2503 45.6048 45.0509 45.8293 44.8514C46.6527 44.1783 47.1516 43.2059 47.95 42.5078C48.3492 42.2585 48.7733 42.1089 49.2224 42.0092C49.946 41.8596 50.6695 41.71 51.418 41.8098C52.1415 42.1089 52.8151 41.7599 53.4887 41.5604C54.9607 41.3859 56.5325 41.6352 57.3808 42.7322C58.9775 44.7517 60.3248 46.447 62.6201 43.5799C62.8447 43.3057 63.2688 43.4303 63.5931 43.5799C65.4144 44.3279 68.4832 50.4361 67.8844 52.3558C67.111 54.7493 68.1588 56.8685 69.3314 58.5888C71.0779 61.1069 71.9012 63.4754 70.6787 66.3425C71.7765 62.9518 71.7016 59.5362 69.3314 56.7937C67.3106 54.4501 68.059 52.2312 68.6079 49.8876C68.9073 48.5662 69.9552 48.4416 71.0779 49.1397C71.2525 49.2643 71.3523 49.4638 71.3523 49.6882C71.1278 52.306 71.1278 54.8739 73.2485 56.8685C73.3732 57.0679 73.4231 57.2674 73.3982 57.4918C73.3982 59.8852 74.97 62.154 74.0718 64.6472C73.473 65.3203 73.498 66.0184 74.0468 66.7165C74.0468 67.1902 74.0468 67.6639 74.0468 68.1376C73.2235 69.2346 74.0468 70.5809 73.473 71.7028C72.475 74.0713 71.2026 76.3152 70.7785 78.8831C70.2047 82.4484 67.7846 84.2933 64.6909 85.5149C63.8177 85.8391 62.8946 86.0136 61.9964 86.2629C60.6491 85.4651 59.3767 84.2684 57.6552 85.3654C57.1563 85.4651 56.7072 85.3654 56.3329 84.9914H56.4078Z" fill="#97C060"/>
<path fill-rule="evenodd" clip-rule="evenodd" d="M49.4536 42.7571C49.0046 42.7571 48.5305 42.7571 48.0814 42.782C47.4078 43.7544 46.5845 44.6021 45.9608 45.5744C43.7403 45.8486 44.4638 47.8681 43.8401 49.0898C43.2663 49.6632 43.6654 50.5109 43.2413 51.1342C42.3681 52.1314 40.9959 52.2311 39.8981 52.8544C34.4842 55.7964 35.2576 60.8824 35.1827 65.6444C35.1827 67.24 35.8813 68.8606 34.584 70.2817C32.9623 67.24 33.1618 63.9989 33.561 60.7578C33.7107 59.586 33.8604 58.4391 33.8355 57.2923C33.7606 54.4251 34.7835 51.7325 35.9312 49.2643C37.004 46.9955 37.9022 44.5273 39.5987 42.5577C40.0977 41.9842 40.2474 41.0867 40.5717 40.3387C41.8192 37.5464 43.2164 34.8288 45.6115 32.8592C47.4827 31.3384 48.281 29.0946 49.6782 27.2746C50.6013 26.1028 51.3248 25.0556 52.9964 25.1554C54.169 25.2302 54.8427 24.2578 55.666 23.6345C56.1899 23.2356 56.7139 23.2107 57.1629 23.8091C56.8136 25.0806 56.4394 26.2274 58.2607 26.8258C59.5082 27.2247 60.7307 28.222 60.1568 29.7179C59.608 31.114 58.136 30.391 57.0132 30.391C56.4394 30.391 55.8406 30.3412 55.2668 30.4409C54.0443 30.6653 52.8966 31.1639 52.6721 32.4354C52.4226 33.8565 53.72 34.7291 54.7429 34.8288C57.3875 35.0283 59.1589 36.8234 61.3793 37.8206C62.527 38.3442 63.6497 38.8179 62.8513 40.3387C62.2526 41.4607 60.9802 42.4081 59.9822 41.5604C55.8905 37.9952 52.8717 41.8596 49.4287 42.782L49.4536 42.7571Z" fill="#BDD582"/>
<path fill-rule="evenodd" clip-rule="evenodd" d="M49.4529 42.7581C50.2013 41.362 51.5735 40.9381 52.9457 40.6888C53.9437 40.5143 54.2182 39.9658 54.4427 39.0683C54.7171 38.0211 55.0664 37.8965 55.9147 38.2705C57.2869 38.8937 58.6841 39.517 59.7569 40.6888C60.181 41.1625 60.7548 41.362 61.3287 40.9631C61.9025 40.5891 62.5262 40.1653 62.5512 39.3674C62.5512 39.1929 62.3266 38.8439 62.2268 38.8439C60.6301 39.0932 59.6072 38.0959 58.6092 37.1485C57.5114 36.1014 56.4137 35.4532 54.8419 36.1263C54.3679 36.3258 53.9936 36.0515 53.6443 35.6526C52.8959 34.78 52.0975 33.9573 51.2243 33.0348C51.4488 32.5362 51.6733 32.0126 51.8979 31.489C52.4717 30.1427 53.5695 29.5444 54.9417 29.4446C56.2141 29.3449 57.5114 29.2701 58.7589 29.7937C59.0832 29.9433 59.5074 29.8435 59.5822 29.4696C59.6321 29.1953 59.5074 28.7964 59.3078 28.5222C58.8088 27.849 58.1601 27.3753 57.262 27.3005C56.6881 27.2507 56.0893 27.1509 55.6403 26.7022C55.3159 26.3531 55.0664 25.9293 55.3409 25.4556C55.7401 24.7076 56.3638 24.1841 57.0873 23.7852H57.1372C58.2849 25.2063 59.6072 26.4279 61.2289 27.3005C62.0023 28.7466 62.7757 30.1677 63.5242 31.6137C64.0481 32.6359 64.4723 33.708 65.3954 34.5307C66.6927 35.7274 66.5181 37.5474 66.8923 39.0932C67.2167 40.3647 67.5161 41.5116 68.3893 42.5338C69.3124 43.6058 69.9611 44.9272 69.7615 46.3982C69.6118 47.6697 70.6098 48.2431 71.0838 49.1157C70.1108 49.1157 69.1627 49.1157 69.0879 50.462C69.0879 50.9357 69.1627 51.4593 68.9631 51.8333C68.015 53.6284 68.7136 54.8999 70.0858 56.0966C71.3582 57.2434 71.9321 58.7393 71.9071 60.4846C71.9071 61.1826 71.8073 61.9805 72.0817 62.5539C72.93 64.349 72.3811 65.9446 71.6327 67.5901C70.6347 67.0665 69.3623 68.5126 68.7386 67.3906C68.2895 66.5679 69.5369 65.8449 69.9361 64.9972C70.7345 63.227 70.9091 61.5815 69.3373 60.2103C67.2915 58.4402 67.566 55.7475 66.543 53.5785C66.2935 53.03 66.8424 52.5314 67.0919 52.0078C67.9651 50.2376 67.8903 49.6144 66.543 48.293C65.9692 47.7195 65.2956 47.2708 64.622 46.7971C64.123 46.448 63.6489 46.099 63.6489 45.4508C63.6489 44.8025 64.123 43.905 63.0252 43.8801C62.4015 43.8801 62.1769 44.5782 62.0522 45.1516C61.9274 45.7499 61.678 46.2486 61.1291 46.5727C60.4804 46.9217 58.1352 46.2486 58.0603 45.5256C57.736 42.1847 55.1413 42.434 52.8959 42.0102C52.4717 42.434 51.9977 42.434 51.5236 42.0601C50.8001 42.2595 50.0766 42.4839 49.3281 42.6834L49.4529 42.7581Z" fill="#AACA6F"/>
<path fill-rule="evenodd" clip-rule="evenodd" d="M86.0266 165.072C86.4757 165.096 86.9497 165.196 87.3988 165.171C89.1452 165.047 90.7669 165.346 92.1391 166.567C91.6152 168.188 91.74 169.834 91.9645 171.429C92.6132 175.518 92.5633 179.582 91.9645 183.671C91.7649 184.942 91.715 186.239 91.6152 187.51C91.5653 188.083 91.5404 188.682 91.0414 189.106C89.7191 188.108 89.8189 186.737 90.0434 185.366C90.1682 184.892 89.3947 185.366 89.8438 185.291C89.9187 185.291 89.9436 185.366 89.9187 185.516C89.7191 186.637 89.9187 187.834 89.3947 188.906C88.6213 190.502 87.7481 192.147 85.5775 191.773C83.5566 191.449 82.7084 190.028 82.6585 188.059C82.6086 186.687 83.1325 184.817 80.5627 185.565C80.5627 182.848 79.964 180.105 80.8871 177.388C81.0118 177.014 80.8122 176.49 80.7374 176.066C80.7374 175.967 80.6126 175.867 80.5627 175.767C78.5918 172.85 78.966 170.133 81.2863 167.59C81.8102 167.016 81.411 166.543 81.2863 165.994C82.6585 164.573 84.355 164.822 86.0266 165.047V165.072Z" fill="#A28147"/>
<path fill-rule="evenodd" clip-rule="evenodd" d="M109.601 62.5043C110.524 62.4295 111.472 62.3796 112.395 62.3048C114.116 62.1552 115.613 60.2604 117.285 61.133C118.882 61.9807 120.503 61.507 122.05 61.9807C122.25 62.0306 122.449 62.23 122.624 62.3547C120.653 65.3963 120.079 68.4131 120.678 72.2276C121.327 76.4909 120.429 81.0285 119.256 85.3167C118.782 87.037 117.584 88.2587 115.713 88.134C113.667 87.9844 113.343 86.1644 112.969 84.5688C112.644 83.0978 113.243 81.6518 112.894 80.0811C112.395 77.8372 111.547 77.0145 109.376 77.9868C110.898 73.6487 110.823 72.1279 108.852 67.4407C108.478 66.5432 108.403 65.6955 108.777 64.773C109.102 64.05 109.326 63.2771 109.601 62.5043Z" fill="#A48345"/>
<path fill-rule="evenodd" clip-rule="evenodd" d="M155.058 191.849C156.031 191.899 157.054 192.223 157.827 191.275C158.077 191.051 158.326 191.026 158.551 191.275C159.175 194.94 158.576 198.63 158.676 202.32C158.75 205.087 158.476 207.855 158.376 210.622C158.376 211.196 158.376 211.794 157.902 212.218C156.256 210.971 156.555 209.126 156.48 207.406C156.555 209.5 155.457 211.246 154.883 213.165C154.634 214.038 153.835 214.362 152.937 214.337C151.865 214.312 151.191 213.714 150.891 212.717C150.293 210.697 149.819 208.678 149.594 206.783C149.27 209.151 150.617 211.994 148.671 214.412C148.122 213.863 148.197 213.14 148.172 212.442C148.072 210.099 147.997 207.78 147.898 205.461C147.823 203.716 147.598 202.046 146.974 200.35C146.326 198.53 146.301 196.486 146.026 194.541C145.902 193.644 146.426 193.021 146.974 192.372C147.449 191.799 147.024 191.3 146.875 190.752C148.397 189.605 149.295 190.752 150.293 191.624C151.715 194.89 153.461 192.173 155.058 191.874V191.849Z" fill="#A48346"/>
<path fill-rule="evenodd" clip-rule="evenodd" d="M105.883 122.964C105.184 122.714 104.561 122.615 104.012 123.288C103.937 123.388 103.513 123.363 103.413 123.263C103.288 123.138 103.213 122.764 103.313 122.64C104.96 120.146 103.737 117.952 102.44 115.908C101.592 114.562 99.97 113.689 100.02 111.794C98.7974 110.722 97.5999 109.625 96.3773 108.578C96.3025 108.503 96.1528 108.453 96.053 108.478C94.0321 109.301 92.7597 107.805 91.4125 106.858C90.3396 106.085 89.2169 106.16 88.0693 106.185C87.72 106.185 87.3457 106.26 87.2709 106.683C86.8468 108.753 85.1502 108.578 84.0026 108.055C82.7052 107.481 81.4827 107.157 80.1105 106.958C79.2872 106.833 79.0876 105.985 79.6365 105.337C80.0855 104.813 80.6095 103.991 81.3081 104.29C83.0046 105.038 83.6034 103.916 84.4018 102.869C84.7011 102.47 85.0504 102.171 84.6512 101.722C84.3269 101.323 83.8279 101.198 83.3788 101.348C82.1813 101.747 81.2831 102.894 79.8361 102.644C81.5825 101.298 83.1543 99.7523 84.5265 98.0321C85.774 96.4863 87.3208 96.0625 89.2169 96.4614C90.3646 96.7107 91.5372 96.7855 92.635 97.1595C94.3066 97.7329 95.9283 98.4559 96.2276 100.55C96.3025 101.074 96.6767 101.647 97.0759 102.021C99.2465 104.14 100.195 106.833 101.018 109.625C101.118 109.974 101.143 110.348 101.342 110.623C103.737 113.789 104.261 117.678 105.409 121.318C105.584 121.867 105.733 122.415 105.883 122.989V122.964Z" fill="#A5C56E"/>
<path fill-rule="evenodd" clip-rule="evenodd" d="M56.4117 84.9917C56.8608 84.9917 57.3348 85.0167 57.7839 85.0416C58.8567 85.5402 59.8048 86.2383 60.6032 87.1358C60.5533 87.8339 60.5283 88.5071 60.4535 89.2052C60.3537 89.8783 59.9795 90.6013 60.1042 91.2246C60.9026 94.9644 59.3058 98.5047 59.231 102.145C59.231 102.618 59.0314 103.042 58.6572 103.341C57.8089 103.74 57.1602 104.314 56.5614 105.087C54.7401 107.455 53.2681 107.33 52.0456 104.638C50.3241 100.873 48.7024 97.0337 47.954 92.8951C47.8791 92.4463 48.1286 90.8756 46.6566 91.823C45.484 89.9033 45.7335 87.9586 47.3801 86.4876C47.7045 86.1884 48.1037 85.9641 48.4779 85.6898C50.4489 85.6399 52.3201 86.3879 54.2412 86.6621C55.8379 86.8865 55.8379 86.9364 56.4117 84.9668V84.9917Z" fill="#B89551"/>
<path fill-rule="evenodd" clip-rule="evenodd" d="M162.017 108.179C162.341 106.882 163.165 105.935 164.038 105.037C164.312 105.112 164.562 105.137 164.761 105.237C166.882 106.433 167.431 106.384 168.055 104.289C168.404 103.043 169.202 103.417 169.901 103.242C170.101 103.516 170.325 103.741 170.6 103.915C171.373 104.514 171.298 105.411 171.398 106.259C171.348 106.483 171.273 106.683 171.148 106.857C171.074 111.594 171.248 116.281 172.695 120.844C172.695 121.093 172.67 121.368 172.645 121.617C171.947 122.714 171.897 124.06 171.323 125.182C170.699 126.429 169.751 127.202 168.304 127.127C166.832 127.052 165.984 126.154 165.635 124.783C165.285 123.312 164.986 121.841 163.763 120.595C163.689 120.295 163.24 120.944 163.639 120.694C163.788 120.595 163.813 120.694 163.913 120.919C164.412 121.991 164.362 122.913 163.414 123.711C162.766 122.365 162.666 120.894 162.566 119.448C162.466 118.151 162.092 117.004 161.343 115.982C160.994 115.533 161.044 115.035 161.144 114.536C161.393 114.112 161.618 113.689 161.867 113.265C161.867 113.015 161.743 112.791 161.593 112.567C161.244 111.694 161.368 110.871 161.768 110.049L161.867 109.749C161.892 109.226 161.942 108.727 161.967 108.204L162.017 108.179Z" fill="#9A7A3F"/>
<path fill-rule="evenodd" clip-rule="evenodd" d="M67.7854 137.772C67.8104 138.445 67.6607 139.293 68.3842 139.642C69.4071 140.116 70.0059 140.515 68.9331 141.587C68.2844 142.21 68.484 143.108 68.484 143.905C68.484 145.177 68.484 146.448 67.7854 147.595C66.6877 148.443 66.2635 149.515 66.4382 150.936C66.5629 152.058 66.6877 153.28 65.5899 154.102C64.7666 153.679 64.4672 152.881 64.3424 152.083C63.7187 147.944 63.095 143.88 63.9183 139.567C64.8414 134.88 65.8893 130.218 66.5629 125.506C66.6378 124.932 66.7126 124.284 67.0369 123.835C69.4321 120.569 70.2803 116.655 71.902 113.065C72.5008 111.818 72.5757 110.273 74.0227 109.549H74.0477C75.4448 108.826 75.7941 107.206 76.9168 106.234L77.0415 106.084C78.1892 106.707 78.5884 107.306 78.0146 107.754C76.7172 108.752 77.0665 110.971 75.1704 111.444C74.846 112.566 74.4718 113.663 74.1973 114.785C74.0227 115.458 74.2223 116.356 73.8481 116.83C72.2763 118.749 72.6754 120.719 73.2992 122.788C73.3241 122.863 73.1994 122.988 73.1495 123.087C70.8043 122.439 70.7544 122.464 70.1556 124.683C69.7564 126.179 69.8063 127.7 70.0558 129.196C70.0558 129.37 70.3552 129.57 70.5298 129.595C70.7045 129.619 70.9789 129.495 71.1037 129.345C71.3032 129.071 71.403 128.722 71.6026 128.423C71.902 127.949 72.401 127.924 72.8251 128.149C73.399 128.448 73.2243 128.996 72.9249 129.345C72.0268 130.367 71.2533 131.689 69.482 131.016C68.958 130.816 68.6087 131.29 68.5838 131.813C68.5339 132.861 68.3592 133.958 68.5588 134.955C68.7584 136.077 67.0369 136.575 67.8104 137.747L67.7854 137.772Z" fill="#7FA144"/>
<path fill-rule="evenodd" clip-rule="evenodd" d="M123.549 3.26548C122.302 3.34027 121.379 3.58959 121.204 5.21014C121.004 7.05509 120.381 8.82524 119.932 10.6452C119.857 10.9694 119.782 11.4431 119.308 11.2685C119.009 11.1688 118.709 10.8696 118.584 10.5954C118.36 10.0718 118.185 9.49839 118.135 8.94989C118.06 8.12715 117.512 7.70331 116.913 7.35427C116.464 7.10495 115.965 7.17975 115.79 7.75317C115.491 8.8751 115.216 9.99702 114.967 11.1439C114.817 11.7921 115.091 12.7894 114.318 12.9888C113.096 13.3379 112.322 14.759 110.85 14.3601C109.378 13.9612 108.505 14.5595 107.781 15.8809C107.083 17.1524 105.586 17.9502 105.536 19.6206C105.336 19.6206 105.087 19.6705 104.937 19.5708C104.763 19.4461 104.638 19.2217 104.538 19.0223C103.956 17.9918 103.099 17.6427 101.968 17.9752C101.644 18.0749 101.295 18.1497 100.945 18.2245C101.943 16.5291 103.39 15.108 103.864 13.1135C103.964 12.6896 104.313 12.2907 104.638 11.9666C105.985 10.6203 107.033 9.09948 107.332 7.15481C107.432 6.53152 107.756 5.98303 108.305 5.78357C110.9 4.96083 112.397 2.74191 114.268 1.04656C115.391 0.0492923 116.264 -0.200024 117.686 0.198882C119.857 0.847105 121.728 1.96903 123.524 3.26548H123.549Z" fill="#BFD682"/>
<path fill-rule="evenodd" clip-rule="evenodd" d="M1.42339 165.073C1.59803 161.657 2.52115 158.416 3.46922 155.175C3.84345 153.854 4.51708 152.582 5.16576 151.36C5.73959 150.313 6.13878 149.241 6.41322 148.119C6.8124 146.374 7.96006 143.956 9.15762 142.759C10.5298 141.338 11.927 139.967 13.5237 138.745C15.345 137.349 16.817 135.479 18.4886 133.858C20.5095 131.889 22.6052 131.59 25.15 132.861C26.8466 133.709 28.3435 134.881 29.4662 136.377C32.4102 140.241 35.0548 144.355 37.3751 148.643C38.0238 149.865 38.4978 151.211 39.0467 152.482C39.5706 153.38 38.8471 154.527 39.6455 155.374C40.0197 155.773 39.895 156.422 40.3191 156.796C40.7183 157.244 40.6684 157.743 40.5437 158.242C40.2942 158.865 40.1694 159.588 39.371 159.787C37.2254 158.092 37.4749 155.275 36.2524 153.156C36.1027 152.707 36.0029 152.233 35.9031 151.784C35.8033 151.51 35.6786 151.211 35.5538 150.962C35.454 150.837 35.4041 150.712 35.3043 150.588C34.4062 149.491 33.9321 148.169 33.2086 146.973C31.7117 143.931 30.0401 141.014 27.7697 138.446C26.148 136.626 24.3517 135.479 21.9565 136.177C19.9357 136.775 17.8898 137.598 18.1144 140.391C18.1643 141.014 17.8399 141.562 17.1913 141.712C11.6026 142.859 9.43207 146.673 9.08278 151.959C6.33837 154.377 6.48806 158.441 3.89335 160.934L3.64386 161.159C2.596 162.405 3.76861 164.599 1.77267 165.422C1.64793 165.322 1.52318 165.222 1.39844 165.148L1.42339 165.073Z" fill="#9FBF6A"/>
<path fill-rule="evenodd" clip-rule="evenodd" d="M15.9434 205.786C16.617 205.113 16.5172 204.215 16.2677 203.517C15.8436 202.37 16.2677 201.572 16.8915 200.675C17.8645 199.304 17.7896 199.353 19.7107 200.151C20.6338 200.55 21.5819 201.099 22.6797 200.974C22.9791 200.75 23.3283 200.675 23.7026 200.725C24.0768 200.824 24.3014 201.074 24.3762 201.473C24.7255 206.235 25.0997 210.997 25.1247 215.758C25.1247 218.252 24.975 220.67 23.9022 222.939C23.3034 224.21 22.4052 225.058 20.8833 224.834C19.3614 224.609 18.6878 223.587 18.5631 222.166C18.2637 218.551 16.7168 215.135 16.8915 211.47C16.9414 210.423 16.3176 209.725 15.644 209.077C15.3197 208.603 15.3197 208.104 15.4444 207.581C15.6191 206.983 15.7687 206.384 15.9434 205.786Z" fill="#95773F"/>
<path fill-rule="evenodd" clip-rule="evenodd" d="M109.35 77.9857C110.573 77.7114 110.698 76.4648 111.346 75.692C111.546 75.4676 111.945 75.318 112.244 75.3429C112.743 75.3678 113.267 75.7917 113.193 76.2155C112.843 78.1602 113.292 79.8555 114.34 81.4761C114.44 81.6257 114.365 81.9747 114.24 82.0994C112.694 83.8695 114.141 85.3904 114.615 86.986C114.814 87.6841 115.638 87.8337 116.386 87.4846C117.484 86.9611 118.257 86.263 118.482 84.8917C118.706 83.3958 119.18 81.9498 119.155 80.404C119.155 79.7059 119.155 78.9829 119.405 78.3347C119.804 77.1879 119.704 76.0659 119.754 74.9191C119.829 73.498 119.979 72.2763 119.28 70.8303C118.706 69.6834 118.931 68.0878 119.43 66.7166C119.779 65.7193 120.178 64.747 120.403 63.7248C120.677 62.4782 121.625 62.4532 122.548 62.3535C123.447 62.9269 123.372 63.7746 123.197 64.6722C122.474 65.2705 121.75 65.8439 121.775 66.9409C121.775 67.8634 121.7 68.8108 121.75 69.7333C122 73.9467 122.124 78.1103 121.151 82.2988C120.752 84.0939 120.503 85.9638 120.528 87.8586C120.553 89.0304 120.378 90.4016 119.205 90.9252C117.858 91.5236 116.411 92.5458 114.889 91.8975C113.816 91.4238 112.469 91.7978 111.646 90.8753C110.822 89.9279 111.222 88.6315 111.047 87.5096C110.598 84.5427 110.648 81.4512 109.151 78.6838C109.051 78.5342 109.201 78.235 109.251 78.0106L109.35 77.9857Z" fill="#684326"/>
<path fill-rule="evenodd" clip-rule="evenodd" d="M15.7398 209.027C16.0392 208.878 16.5881 208.553 16.638 208.628C17.2617 209.376 18.3595 209.95 17.9852 211.196C17.1869 213.839 18.4593 216.257 18.9832 218.701C19.2576 219.947 19.7566 221.069 19.3574 222.391C19.1828 222.989 19.557 223.512 20.0311 223.911C20.9292 224.634 22.2016 224.41 22.7256 223.413C23.3992 222.066 24.0728 220.62 23.998 219.1C23.9481 217.753 24.996 216.382 23.8233 215.061C23.6487 214.836 23.6238 214.363 23.7235 214.063C24.5718 210.673 24.2225 207.307 23.2994 204.066C22.8753 202.62 23.524 201.947 24.1227 201.024C23.9231 200.725 23.9481 200.426 24.1976 200.152C25.0459 199.578 26.0688 199.653 27.0168 199.478C27.3162 199.404 27.6406 199.329 27.94 199.254C28.2393 199.154 28.5387 199.079 28.8631 199.03C31.0336 199.005 32.0815 196.561 34.2271 196.462C34.5515 196.362 34.8758 196.312 35.2251 196.287C36.0235 196.437 37.0464 196.287 36.772 197.633C34.302 199.379 31.8819 201.199 28.8631 201.922C28.3142 202.046 27.7903 202.37 27.2663 202.595C26.1436 203.069 25.7444 203.916 25.8193 205.113C26.0438 208.603 26.1935 212.094 26.443 215.584C26.6177 218.077 25.9939 220.446 25.7444 222.889C25.5947 224.31 24.8712 225.557 23.8982 226.579C23.0749 227.452 22.1518 228.1 20.8544 228C19.4822 227.9 18.3345 227.502 17.7358 226.13C17.4613 225.881 17.4863 225.457 17.2617 225.183C17.137 224.884 17.0372 224.585 16.9374 224.285C16.7877 223.862 16.8126 223.388 16.5132 223.039C16.4384 222.316 16.3635 221.568 16.3136 220.845C15.5402 218.077 16.7877 215.16 15.6151 212.418V212.468C15.2907 211.645 15.141 210.822 15.3905 209.925C15.3905 209.551 15.5153 209.252 15.7897 209.027H15.7398Z" fill="#5E4024"/>
<path fill-rule="evenodd" clip-rule="evenodd" d="M34.5795 70.3066C34.7042 69.0351 34.7541 67.7885 34.33 66.5419C33.856 65.0959 33.856 63.5252 34.1803 62.0792C34.5795 60.2342 34.7292 58.4391 34.6294 56.5942C34.5546 55.2728 35.1034 54.3005 36.5006 54.126C37.3988 54.0013 38.0225 53.7021 38.272 52.7797C38.5215 51.9569 39.3697 52.0816 39.9436 51.7076C40.9166 51.0594 42.3137 51.6079 43.1121 50.5358C43.2868 50.2366 43.5113 50.2117 43.7608 50.4859L43.8606 50.5607C43.7608 51.4084 43.4614 52.1314 42.5882 52.4805C42.164 52.655 41.69 52.8046 41.3906 53.1038C41.191 53.2783 41.191 53.752 41.2409 54.0512C41.3158 54.4002 41.6152 54.6994 41.9894 54.6246C42.9125 54.4999 43.7857 54.2506 44.7089 54.1509C44.9833 54.126 45.3575 54.3753 45.5571 54.5997C45.8066 54.8988 45.607 55.2728 45.3825 55.5471C44.7089 56.3449 44.0851 57.2673 42.9624 57.4917C41.4405 57.7909 40.717 59.0624 39.6941 59.9849C39.3198 60.3339 39.1452 60.7827 39.4695 61.2065C39.9436 61.8548 39.9685 62.3783 39.4695 63.0764C38.5963 64.3479 38.5714 65.7441 39.5444 66.9658C40.4925 68.1376 40.2679 69.6335 40.8417 70.905C41.1162 71.5033 40.717 72.002 40.1681 72.351C39.4446 72.7998 38.8458 72.6751 38.3219 72.0768C37.9975 71.7028 37.773 71.254 38.3967 71.0047C38.9706 70.7803 39.5444 70.531 39.2699 69.808C38.9706 69.085 38.2969 68.7608 37.5485 68.9603C36.6503 69.2096 35.7022 69.4839 35.4777 70.5809C35.2781 71.6031 35.6523 72.4258 36.5754 72.9244C37.1992 73.2735 37.773 73.6474 38.0973 74.3206C38.5215 75.2431 39.2949 75.642 40.218 75.991C40.9665 76.2653 40.9166 77.1379 40.218 77.5867C39.5444 78.0105 38.5714 77.9357 38.1472 78.7584C36.0266 76.3401 34.8789 73.4979 34.6044 70.2817L34.5795 70.3066Z" fill="#99C05D"/>
<path fill-rule="evenodd" clip-rule="evenodd" d="M65.5951 154.102C65.7448 152.581 65.7198 151.11 65.2957 149.614C64.8715 148.118 65.146 147.844 66.7427 147.62C67.092 147.57 67.4413 147.62 67.7906 147.62C67.8155 147.869 67.8654 148.143 67.8904 148.393C68.3644 149.016 67.8904 149.889 68.4642 150.487C67.591 151.758 68.2896 152.93 68.7387 154.077C68.8385 154.326 69.2626 154.576 69.537 154.601C70.6598 154.725 71.3084 155.349 72.1567 156.072C74.3273 157.917 76.2234 160.16 78.9678 161.208C80.5646 161.831 82.1863 162.379 83.7331 163.077C84.7311 163.551 85.5045 164.15 86.0035 165.097C84.6063 166.343 82.8349 165.795 81.2382 166.044C79.6165 165.396 77.9699 164.798 76.3482 164.125C72.5559 162.579 69.8115 159.712 67.0172 156.869C66.2937 156.146 65.7947 155.174 65.5452 154.127L65.5951 154.102Z" fill="#55773E"/>
<path fill-rule="evenodd" clip-rule="evenodd" d="M155.834 160.285C156.108 159.313 157.206 159.063 157.73 158.116C157.056 156.72 156.283 155.349 154.387 155.149C154.237 155.149 154.062 154.8 154.062 154.626C154.062 154.426 154.212 154.152 154.362 154.077C154.861 153.828 155.435 153.404 155.934 153.454C158.029 153.653 159.002 152.282 159.227 150.686C159.526 148.418 161.373 147.819 162.795 146.747C163.119 146.498 163.443 146.747 163.768 146.822C165.215 147.221 165.29 147.171 165.614 145.875C165.689 145.55 165.639 145.176 165.664 144.827C166.063 144.528 166.337 144.055 166.088 143.631C165.14 142.06 164.94 140.165 163.518 138.769C162.42 137.697 162.919 135.877 161.971 134.63C161.697 134.281 161.622 133.783 161.522 133.334C161.422 132.835 161.722 132.461 162.096 132.162C162.321 132.386 162.545 132.636 162.745 132.86L162.795 132.91C163.044 133.11 163.244 133.309 163.418 133.583C165.29 136.774 167.236 139.916 168.084 143.581C168.333 144.703 168.857 145.75 169.257 146.847C167.36 146.548 167.036 146.847 167.435 148.442C167.66 149.34 167.984 150.213 168.184 151.135C168.308 151.758 167.435 152.531 166.812 152.332C166.163 152.107 165.539 151.758 164.89 151.509C163.044 150.811 161.622 151.26 160.849 153.08C159.901 155.274 158.179 157.218 158.329 159.811C158.329 159.961 158.054 160.16 157.905 160.335C157.181 160.784 156.483 160.958 155.784 160.335L155.834 160.285Z" fill="#A4C06D"/>
<path fill-rule="evenodd" clip-rule="evenodd" d="M0.875828 172.204C1.10037 172.129 1.32491 172.079 1.54945 172.004C2.27298 171.78 2.72206 172.104 2.77196 172.777C2.82186 173.201 2.52247 173.65 2.47257 174.099C2.27298 175.594 2.02349 177.09 3.42064 178.287C3.89468 178.711 3.94457 179.559 4.31881 180.157C4.718 180.755 4.6681 181.154 4.16912 181.653C3.79488 182.027 3.86973 182.5 4.09427 182.949C4.29386 183.373 4.46851 183.847 4.24396 184.296C3.86973 184.969 3.02145 185.343 3.34579 186.39C3.84478 187.985 4.64315 189.357 5.81576 190.528C6.1401 190.853 6.56423 191.077 6.88857 191.426C7.21291 191.8 7.23786 192.299 7.06322 192.747C6.86362 193.321 5.91556 193.67 6.61413 194.518C7.18796 195.216 7.4624 196.238 8.65996 196.188C9.134 196.188 9.70783 196.288 9.85752 196.736C10.5561 198.606 12.1279 199.604 13.55 200.8C13.6997 200.925 13.7745 201.249 13.6997 201.424C13.6498 201.598 13.3754 201.748 13.1758 201.773C12.6019 201.847 12.0031 201.847 11.4293 201.872L11.3046 201.798C11.1549 201.498 10.9303 201.324 10.606 201.249C8.63501 200.177 7.11312 198.556 5.51637 197.011C4.6681 196.188 4.14417 195.141 3.74498 194.019C2.89671 191.601 1.94864 189.207 1.27501 186.714C0.351896 183.348 -0.446477 179.908 0.22715 176.367C1.00057 175.071 0.0525057 173.525 0.850879 172.204H0.875828Z" fill="#749740"/>
<path fill-rule="evenodd" clip-rule="evenodd" d="M46.6593 91.8226C46.6593 91.2492 46.6094 90.6758 46.6094 90.0774C46.6094 89.6037 46.7092 89.0552 47.1832 88.9305C47.782 88.7809 47.9067 89.3544 48.0065 89.7782C48.2311 90.6757 48.4806 91.5733 48.6802 92.4708C49.0793 94.1662 49.3787 95.8615 49.8528 97.507C50.3268 99.1525 51.6242 100.399 51.9235 102.219C52.0982 103.216 53.1211 104.089 53.2209 105.311C53.2708 105.984 54.0193 106.034 54.6181 106.009C55.0921 105.984 55.4913 105.734 55.641 105.236C55.6909 105.011 55.7158 104.787 55.7657 104.563C56.2148 102.219 56.3146 102.194 58.6349 103.316C58.6349 104.039 58.6099 104.762 58.585 105.51C57.8614 106.507 58.4602 107.654 58.1858 108.701C57.587 110.771 55.5162 111.17 54.0692 112.242C53.67 112.541 53.1211 112.267 52.8467 111.868C52.3726 111.195 51.8736 110.546 51.5493 109.798C50.4515 107.33 49.4785 104.837 48.4057 102.369C48.0315 101.471 48.0814 100.549 48.1562 99.6013C48.3309 96.8837 47.9317 94.241 46.6593 91.7727V91.8226Z" fill="#643F25"/>
<path fill-rule="evenodd" clip-rule="evenodd" d="M130.356 58.8133C130.48 57.6166 130.954 56.6443 131.778 55.7467C133.499 53.8769 134.297 51.6829 134.023 49.09C133.873 47.7187 133.973 46.3226 133.948 44.9264C133.973 44.4527 133.998 43.979 134.073 43.5302C134.198 42.6077 135.52 42.1091 135.096 41.062C134.796 40.314 134.248 39.6658 133.823 38.9927C133.624 38.6935 133.399 38.4192 133.225 38.12C132.801 37.397 133.2 36.6989 134.023 36.6989C134.248 36.6989 134.497 36.7737 134.697 36.8485C135.57 37.1976 136.044 36.7488 136.293 36.0009C136.518 35.3526 136.817 34.6545 136.817 33.9814C136.817 31.3137 136.942 28.6211 136.144 25.9783C135.769 24.7816 135.221 23.5849 135.295 22.2386C135.295 21.715 134.946 21.1416 134.722 20.618C134.023 19.0723 132.85 17.701 133.075 15.8062C133.125 15.4073 132.776 14.9336 132.501 14.5596C130.53 11.8171 129.183 8.62589 126.738 6.20752C126.439 5.90834 126.339 5.38478 126.164 4.96094C128.709 6.033 130.056 8.40151 131.304 10.5207C132.401 12.3906 133.424 14.3851 134.347 16.3796C136.418 20.8175 136.917 25.5794 138.015 30.2167C138.414 31.7874 138.289 33.4578 137.89 35.0784C137.266 37.6713 136.568 40.2891 136.867 43.0316C136.917 43.605 136.967 44.3031 136.718 44.7519C135.42 46.9459 135.495 49.4639 134.896 51.8325C134.597 53.1289 134.148 54.2758 133.399 55.3229C132.426 56.744 131.428 58.1651 130.455 59.5613C130.181 59.4117 130.106 59.2621 130.156 59.0876C130.231 58.913 130.306 58.8133 130.38 58.8133H130.356Z" fill="#CADD9C"/>
<path fill-rule="evenodd" clip-rule="evenodd" d="M158.554 191.276C158.304 191.276 158.08 191.276 157.83 191.276C157.706 191.276 157.606 191.276 157.481 191.276C156.783 191.227 156.009 191.326 155.909 190.354C155.81 189.431 156.408 189.207 157.182 189.107C159.652 188.833 161.573 187.811 162.421 185.293C162.621 184.694 163.17 184.445 163.669 184.121C165.465 182.949 166.787 181.379 167.885 179.559C168.134 179.16 168.459 178.786 168.559 178.362C169.581 173.874 171.577 169.511 170.08 164.749C169.831 164.001 169.881 163.153 169.881 162.331C169.881 161.109 170.629 161.483 171.278 161.707C172.85 162.705 171.902 164.55 172.7 165.821C172.7 167.791 172.7 169.76 172.65 171.73C172.076 172.229 172.575 173.026 172.101 173.55C172.051 173.874 172.002 174.173 171.952 174.497C171.278 175.22 172.002 176.292 171.353 177.015C170.904 178.212 170.48 179.384 170.006 180.556C169.357 182.201 168.334 183.573 166.837 184.57C166.363 184.894 165.839 185.193 165.49 185.642C163.818 187.786 161.698 189.307 159.327 190.578C159.028 190.728 158.828 191.027 158.579 191.276H158.554Z" fill="#364E2E"/>
<path fill-rule="evenodd" clip-rule="evenodd" d="M39.4722 159.638C39.572 159.064 39.6967 158.516 40.2706 158.217C40.6947 158.217 40.7945 158.666 41.0689 158.865C41.4182 159.264 41.2935 159.887 41.6927 160.261C42.9152 162.829 42.7156 165.696 43.2645 168.414C44.0628 172.353 42.99 176.242 42.9152 180.157C42.8653 183.074 42.4162 185.941 41.8923 188.783C41.5679 190.553 40.8693 192.074 39.6967 193.42C39.3973 193.595 39.1229 193.794 38.9732 194.118C38.574 194.542 38.0002 195.116 37.5511 194.617C36.603 193.57 37.3765 192.448 37.8505 191.426C40.4701 185.866 40.0211 179.907 40.2456 174.023C40.3953 170.433 39.9462 166.868 39.2726 163.328C39.048 162.106 38.6239 160.81 39.4722 159.638Z" fill="#839857"/>
<path fill-rule="evenodd" clip-rule="evenodd" d="M150.27 191.898C149.097 191.624 148.149 190.726 146.877 190.726C145.38 190.502 144.007 189.854 142.511 189.505C140.814 189.106 139.317 188.059 138.244 186.588C136.997 184.892 135.874 183.097 135.225 181.078C134.302 178.186 133.205 175.343 133.18 172.252C132.805 171.728 132.93 171.13 132.905 170.581C133.13 169.883 133.229 169.185 132.905 168.487C132.88 167.889 132.855 167.266 132.955 166.667C133.254 165.894 133.254 165.022 133.878 164.398C134.252 164.324 134.577 164.398 134.851 164.673C135.625 165.695 135.724 166.917 135.525 168.038C134.726 172.576 136.947 176.54 138.269 180.529C139.342 183.745 141.912 186.513 145.679 187.435C147.026 187.784 148.448 187.984 149.446 189.156C150.145 189.38 150.844 189.604 151.542 189.829C152.74 189.829 153.388 190.377 152.815 191.499C152.241 192.596 151.268 192.796 150.245 191.923L150.27 191.898Z" fill="#506939"/>
<path fill-rule="evenodd" clip-rule="evenodd" d="M80.5329 185.567C81.5558 185.043 81.2814 182.949 82.7285 183.348C83.7514 183.622 82.953 185.292 83.6017 186.165C83.9759 186.689 83.8512 187.262 83.6017 187.811C83.0029 189.157 83.7514 190.029 84.7244 190.777C85.8221 191.6 86.895 191.426 87.6684 190.179C88.8909 188.184 89.7891 186.115 89.1903 183.672C89.0406 183.098 89.5895 182.899 90.0885 182.924C90.5126 182.949 90.787 183.298 90.6872 183.622C89.9887 185.517 90.7371 187.287 91.0365 189.082V189.157C90.3379 189.606 90.9617 190.528 90.313 191.002C89.8639 191.8 89.4647 192.647 88.9408 193.42C88.3919 194.218 87.5187 194.692 86.5956 194.742C85.0986 194.791 83.6017 194.692 82.0798 194.592C81.4311 194.542 81.0319 194.068 80.8822 193.495C80.6826 192.722 80.4581 191.924 80.4581 191.126C80.4331 189.282 80.508 187.437 80.5579 185.567H80.5329Z" fill="#513320"/>
<path fill-rule="evenodd" clip-rule="evenodd" d="M148.673 214.387C149.023 212.293 148.723 210.199 148.723 208.104C148.723 206.932 148.723 205.761 148.748 204.614C148.773 203.816 149.247 203.367 149.771 203.567C150.395 203.766 150.894 204.315 150.719 204.863C149.921 207.506 151.468 209.849 151.518 212.368C151.518 212.592 151.592 212.841 151.717 213.016C152.042 213.589 152.59 213.789 153.189 213.714C153.663 213.664 154.087 213.39 154.162 212.866C154.387 211.52 154.162 210.049 155.509 209.077C155.709 208.927 155.709 208.428 155.734 208.104C155.834 207.331 155.335 206.484 156.108 205.835C156.507 205.536 157.006 206.633 157.181 208.079C157.356 209.451 157.63 210.822 157.855 212.193L157.755 212.417C157.555 212.542 157.455 212.742 157.406 212.966C157.206 213.265 156.981 213.564 156.782 213.863C156.707 213.963 156.657 214.063 156.582 214.163C155.759 215.584 154.811 216.83 152.915 216.855C152.391 216.855 151.867 217.304 151.343 217.553C150.769 217.628 150.17 217.553 149.596 217.628C149.397 217.504 149.247 217.329 149.147 217.105C149.098 216.706 149.147 216.282 148.773 216.008C148.723 215.459 148.698 214.911 148.648 214.362L148.673 214.387Z" fill="#4E2A1B"/>
<path fill-rule="evenodd" clip-rule="evenodd" d="M163.439 123.736C163.564 122.514 163.688 121.293 163.838 119.797C165.285 120.794 166.408 121.667 166.333 123.412C166.333 123.636 166.333 123.886 166.333 124.11C166.508 125.706 167.131 126.454 168.279 126.528C169.402 126.603 170.325 125.905 170.774 124.534C170.899 124.11 170.899 123.636 170.899 123.188C170.949 121.742 170.924 121.742 172.62 121.617C173.319 123.163 172.97 124.783 172.82 126.379C172.72 126.728 172.62 127.052 172.496 127.401C172.296 127.476 172.196 127.65 172.196 127.875C172.096 128.049 171.947 128.149 171.772 128.149C171.223 128.348 170.574 128.149 170.051 128.498C169.452 129.022 168.828 129.52 168.229 130.044C166.982 131.091 165.136 130.642 164.662 129.071C164.138 127.326 163.813 125.531 163.414 123.736H163.439Z" fill="#4E2A1C"/>
<path fill-rule="evenodd" clip-rule="evenodd" d="M135.375 151.085C135.575 150.96 135.775 150.861 135.949 150.686C136.199 150.462 136.448 150.213 136.723 150.586C136.847 150.761 136.847 151.035 136.823 151.26C136.348 154.451 135.899 157.617 135.4 160.808C135.301 161.357 134.926 161.856 134.677 162.379C134.502 162.604 134.278 162.753 134.003 162.778C133.729 162.728 133.479 162.604 133.305 162.379C133.305 161.457 133.33 160.509 133.33 159.587C134.477 157.867 134.153 155.797 134.652 153.902C134.702 152.905 134.951 151.958 135.425 151.085H135.375Z" fill="#8FAD54"/>
<path fill-rule="evenodd" clip-rule="evenodd" d="M172.726 120.844C170.655 117.453 170.655 117.453 170.655 114.237C170.655 112.392 170.606 110.547 170.581 108.727C170.581 108.029 170.506 107.331 171.179 106.857C171.504 108.902 171.653 110.996 172.202 112.966C172.926 115.584 172.776 118.226 172.726 120.844Z" fill="#CDB476"/>
<path fill-rule="evenodd" clip-rule="evenodd" d="M38.2491 191.973C38.1493 192.397 38.0495 192.821 37.9247 193.244C37.6004 194.341 37.6004 194.341 38.9976 194.117C38.6483 195.538 38.0495 196.785 36.802 197.632C36.4028 196.585 35.6045 196.76 34.7812 196.984C34.4568 195.388 31.5378 194.965 32.4609 193.095C33.3092 191.35 35.6793 192.322 37.2511 191.724C37.5755 191.599 37.9247 191.773 38.2241 191.973H38.2491Z" fill="#9FBF6A"/>
<path fill-rule="evenodd" clip-rule="evenodd" d="M140.965 141.912C139.917 142.909 139.618 144.305 138.894 145.502C138.719 145.801 138.495 146.125 138.071 146.001C137.522 145.851 137.497 145.377 137.522 144.904C137.522 144.679 137.522 144.43 137.522 144.206C138.196 142.735 138.869 141.264 139.543 139.768C141.09 139.593 141.09 139.618 141.065 140.94C141.065 141.264 140.99 141.588 140.965 141.912Z" fill="#7A9146"/>
<path fill-rule="evenodd" clip-rule="evenodd" d="M60.6005 87.1367C59.0287 87.3112 58.0058 86.7129 57.7812 85.0425C57.9808 84.494 58.1056 83.7709 58.8042 83.8208C60.351 83.9704 61.8729 84.2696 62.0725 86.2392C61.5735 86.5384 61.0745 86.8126 60.5756 87.1118L60.6005 87.1367Z" fill="#676432"/>
<path fill-rule="evenodd" clip-rule="evenodd" d="M130.362 58.8145C130.362 59.0638 130.412 59.2882 130.437 59.5375C129.364 60.5597 128.266 61.5819 127.193 62.6041C126.27 63.4767 125.322 64.2745 124 64.4739C124.125 63.7759 124.424 63.1276 125.048 62.7786C125.996 62.255 126.62 61.5071 127.169 60.6095C127.867 59.4627 128.99 58.9142 130.337 58.8394L130.362 58.8145Z" fill="#C1D89B"/>
<path fill-rule="evenodd" clip-rule="evenodd" d="M73.3548 56.8444C72.3069 56.2709 71.7081 55.3235 71.0595 54.3512C70.4607 53.4786 70.3359 52.9052 71.0595 51.9827C71.4836 51.4342 71.3339 50.4619 71.4586 49.6641C71.5335 49.7638 71.6333 49.8386 71.6582 49.9383C71.8578 52.3318 72.6562 54.5756 73.3548 56.8444Z" fill="#AACA6F"/>
<path fill-rule="evenodd" clip-rule="evenodd" d="M172.675 165.796C171.627 164.624 171.752 163.054 171.253 161.683C171.203 161.358 171.228 160.984 171.103 160.685C170.679 159.713 171.103 159.164 172.001 158.865C172.675 161.134 172.899 163.428 172.675 165.796Z" fill="#A4C06D"/>
<path fill-rule="evenodd" clip-rule="evenodd" d="M74.1512 64.6476C74.0764 62.2541 73.0535 59.9355 73.4776 57.4922C74.6003 59.7859 75.249 62.1295 74.1512 64.6476Z" fill="#AACA6F"/>
<path fill-rule="evenodd" clip-rule="evenodd" d="M15.5703 212.393C16.1441 212.642 16.4685 213.091 16.4685 213.714C16.4685 216.082 16.693 218.476 16.2689 220.844C15.5703 219.224 16.0443 217.479 15.7949 215.808C15.6202 214.686 15.6452 213.539 15.5703 212.417V212.393Z" fill="#95773F"/>
<path fill-rule="evenodd" clip-rule="evenodd" d="M133.352 170.183C133.277 170.856 133.227 171.554 133.177 172.228C132.354 169.809 132.304 167.067 133.052 164.324C133.402 164.349 133.551 164.549 133.576 164.898C133.576 165.496 133.676 166.119 133.352 166.668V168.662C133.651 169.161 133.651 169.685 133.352 170.183Z" fill="#C0D688"/>
<path fill-rule="evenodd" clip-rule="evenodd" d="M101.617 162.455C101.892 160.286 103.538 159.264 105.16 158.217C104.736 160.261 102.989 161.184 101.617 162.455Z" fill="#8EB160"/>
<path fill-rule="evenodd" clip-rule="evenodd" d="M61.326 27.3251C59.2553 26.976 57.8831 25.8043 57.2344 23.8347C57.3591 23.8347 57.5338 23.7848 57.5837 23.8347C58.7812 25.0563 60.4528 25.7544 61.326 27.3002V27.3251Z" fill="#BDD582"/>
<path fill-rule="evenodd" clip-rule="evenodd" d="M134.627 153.902C134.627 155.897 134.951 157.966 133.305 159.587C133.529 157.642 133.554 155.648 134.627 153.902Z" fill="#C0D688"/>
<path fill-rule="evenodd" clip-rule="evenodd" d="M76.9458 106.258C76.821 107.604 75.7981 108.427 75.0496 109.374C74.8999 109.574 74.4259 109.499 74.1016 109.549C74.6504 108.078 75.6235 107.031 76.9707 106.258H76.9458Z" fill="#8EB160"/>
<path fill-rule="evenodd" clip-rule="evenodd" d="M74.0504 109.574C73.252 110.696 73.0025 112.142 71.9297 113.09C72.0295 112.441 72.1043 111.793 72.2291 111.17C72.4287 110.222 73.0275 109.649 74.0504 109.574Z" fill="#8EB160"/>
<path fill-rule="evenodd" clip-rule="evenodd" d="M172.871 126.379C172.797 124.784 172.747 123.188 172.672 121.617C173.695 123.163 173.695 124.759 172.871 126.379Z" fill="#9A7A3F"/>
<path fill-rule="evenodd" clip-rule="evenodd" d="M171.303 155.374C170.779 154.975 170.68 154.427 170.68 153.828C170.68 152.657 170.68 151.51 170.68 150.338C171.728 151.909 171.403 153.654 171.303 155.374Z" fill="#A4C06D"/>
<path fill-rule="evenodd" clip-rule="evenodd" d="M0.875883 172.229C0.776087 173.625 1.15032 175.096 0.252155 176.392C0.00266316 174.946 -0.19693 173.5 0.875883 172.229Z" fill="#9FBF6A"/>
<path fill-rule="evenodd" clip-rule="evenodd" d="M73.5468 71.7039C73.5468 70.4822 73.0229 69.1858 74.1207 68.1387C74.3452 69.3853 74.1955 70.6069 73.5468 71.7039Z" fill="#AACA6F"/>
<path fill-rule="evenodd" clip-rule="evenodd" d="M58.2082 108.728C57.9836 107.606 57.6842 106.484 58.6074 105.512C58.782 106.609 58.7571 107.706 58.2082 108.728Z" fill="#B89551"/>
<path fill-rule="evenodd" clip-rule="evenodd" d="M171.328 176.991C171.229 176.068 171.229 175.196 171.927 174.473C172.127 175.42 172.177 176.318 171.328 176.991Z" fill="#A4C06D"/>
<path fill-rule="evenodd" clip-rule="evenodd" d="M15.6669 209.375C15.6419 210.397 15.617 211.419 15.5671 212.442C15.118 212.367 14.8934 212.068 14.7438 211.669C14.619 211.22 14.5941 210.796 14.7438 210.347C14.8685 210.023 14.9932 209.724 15.1429 209.4C15.3176 209.4 15.4673 209.4 15.6419 209.4L15.6669 209.375Z" fill="#95773F"/>
<path fill-rule="evenodd" clip-rule="evenodd" d="M39.6488 155.349C38.5261 154.576 39.0749 153.454 39.05 152.457C39.8983 153.28 39.5989 154.352 39.6488 155.349Z" fill="#B8D282"/>
<path fill-rule="evenodd" clip-rule="evenodd" d="M149.617 217.63C150.191 217.38 150.79 217.355 151.364 217.555C150.79 218.253 150.216 218.403 149.617 217.63Z" fill="#A48346"/>
<path fill-rule="evenodd" clip-rule="evenodd" d="M74.1502 66.6919C73.2271 65.6199 73.2271 65.6199 74.1751 64.5977C74.1751 65.2957 74.1751 65.9938 74.1502 66.6919Z" fill="#AACA6F"/>
<path fill-rule="evenodd" clip-rule="evenodd" d="M170.102 128.497C170.551 127.749 171.199 127.924 171.823 128.148C171.349 128.796 170.725 128.597 170.102 128.497Z" fill="#9A7A3F"/>
<path fill-rule="evenodd" clip-rule="evenodd" d="M15.6702 209.375L15.4207 209.45L15.1712 209.4C14.9965 208.752 14.8219 208.104 15.4456 207.58C15.5454 208.054 15.6452 208.527 15.745 209.001C15.745 209.126 15.6951 209.251 15.6702 209.375Z" fill="#9FBF6A"/>
<path fill-rule="evenodd" clip-rule="evenodd" d="M90.3144 191.027C90.2396 190.304 90.2895 189.605 91.038 189.182C91.2375 189.955 91.0629 190.603 90.3144 191.027Z" fill="#A28147"/>
<path fill-rule="evenodd" clip-rule="evenodd" d="M41.0406 158.839C40.7911 158.614 40.5166 158.415 40.2422 158.191C40.2422 157.717 40.2671 157.243 40.2921 156.77C41.0406 157.268 41.0156 158.066 41.0156 158.839H41.0406Z" fill="#B8D282"/>
<path fill-rule="evenodd" clip-rule="evenodd" d="M133.254 162.38C133.479 162.38 133.703 162.38 133.928 162.38C134.452 163.078 134.477 163.776 133.978 164.499C133.778 164.798 133.554 164.773 133.304 164.499L133.055 164.275C133.13 163.627 133.179 162.978 133.254 162.33V162.38Z" fill="#C0D688"/>
<path fill-rule="evenodd" clip-rule="evenodd" d="M172.077 173.523C171.852 172.8 171.952 172.152 172.626 171.703C172.825 172.426 172.626 173.049 172.077 173.523Z" fill="#A4C06D"/>
<path fill-rule="evenodd" clip-rule="evenodd" d="M41.6663 160.261C41.1174 159.937 41.0176 159.439 41.0425 158.865C41.5415 159.189 41.7162 159.688 41.6663 160.261Z" fill="#B8D282"/>
<path fill-rule="evenodd" clip-rule="evenodd" d="M14.793 210.348C14.793 210.796 14.793 211.22 14.793 211.669C14.2192 211.22 14.1693 210.771 14.793 210.348Z" fill="#9FBF6A"/>
<path fill-rule="evenodd" clip-rule="evenodd" d="M172 158.89C172 158.392 172.025 157.893 172.05 157.395C172.524 157.893 172.674 158.417 172 158.89Z" fill="#A4C06D"/>
<path fill-rule="evenodd" clip-rule="evenodd" d="M105.161 158.216C105.111 157.593 105.186 157.044 105.884 156.795C105.934 157.418 105.685 157.892 105.161 158.216Z" fill="#8EB160"/>
<path fill-rule="evenodd" clip-rule="evenodd" d="M171.875 156.771C171.351 156.422 171.201 155.923 171.276 155.35C171.8 155.699 171.999 156.172 171.875 156.771Z" fill="#A4C06D"/>
<path fill-rule="evenodd" clip-rule="evenodd" d="M40.3164 156.771C39.7176 156.472 39.5929 155.948 39.6428 155.35C40.2665 155.649 40.3663 156.172 40.3164 156.771Z" fill="#B8D282"/>
<path fill-rule="evenodd" clip-rule="evenodd" d="M17.2425 225.184C17.7415 225.333 17.8413 225.682 17.7165 226.131C17.2674 225.956 17.0679 225.657 17.2425 225.184Z" fill="#95773F"/>
<path fill-rule="evenodd" clip-rule="evenodd" d="M16.4689 223.014C16.9929 223.313 17.0677 223.762 16.8931 224.26C16.419 223.961 16.2694 223.537 16.4689 223.014Z" fill="#95773F"/>
<path fill-rule="evenodd" clip-rule="evenodd" d="M148.798 216.008C149.297 216.257 149.421 216.606 149.172 217.105C148.573 216.905 148.548 216.506 148.798 216.008Z" fill="#A48346"/>
<path fill-rule="evenodd" clip-rule="evenodd" d="M161.171 114.512C161.246 114.985 161.296 115.484 161.371 115.958C160.722 115.559 160.598 115.085 161.171 114.512Z" fill="#8BB05A"/>
<path fill-rule="evenodd" clip-rule="evenodd" d="M170.505 149.74C169.956 149.391 169.856 148.868 169.956 148.27C170.405 148.668 170.605 149.142 170.505 149.74Z" fill="#A4C06D"/>
<path fill-rule="evenodd" clip-rule="evenodd" d="M100.891 163.077C101.14 162.853 101.39 162.629 101.639 162.404C101.564 162.828 101.29 163.003 100.891 163.077Z" fill="#8EB160"/>
<path fill-rule="evenodd" clip-rule="evenodd" d="M10.625 201.273C11.0242 201.273 11.2487 201.448 11.3236 201.822C10.9244 201.847 10.6998 201.647 10.625 201.273Z" fill="#9FBF6A"/>
<path fill-rule="evenodd" clip-rule="evenodd" d="M156.603 214.187L156.578 213.938L156.803 213.863L156.878 214.138L156.603 214.187Z" fill="#A48346"/>
<path fill-rule="evenodd" clip-rule="evenodd" d="M157.456 212.966C157.307 212.617 157.456 212.443 157.806 212.418C157.98 212.792 157.855 212.966 157.456 212.966Z" fill="#A48346"/>
<path fill-rule="evenodd" clip-rule="evenodd" d="M38.9688 194.118C39.0436 193.719 39.2931 193.495 39.6923 193.42C39.5925 193.794 39.343 194.043 38.9688 194.118Z" fill="#9FBF6A"/>
<path fill-rule="evenodd" clip-rule="evenodd" d="M102.164 58.4395C102.563 58.4395 102.813 58.6638 102.962 59.0129C102.588 59.0129 102.314 58.8134 102.164 58.4395Z" fill="#9FC56A"/>
<path fill-rule="evenodd" clip-rule="evenodd" d="M101.445 57.7168C101.869 57.7667 102.069 57.991 102.119 58.4149C101.745 58.3152 101.52 58.0908 101.445 57.7168Z" fill="#9FC56A"/>
<path fill-rule="evenodd" clip-rule="evenodd" d="M100.742 56.9941C101.166 57.044 101.366 57.2933 101.416 57.6922C101.042 57.5925 100.817 57.3681 100.742 56.9941Z" fill="#9FC56A"/>
<path fill-rule="evenodd" clip-rule="evenodd" d="M100.047 56.2461C100.471 56.3209 100.696 56.5702 100.745 56.994C100.371 56.8943 100.122 56.645 100.047 56.2461Z" fill="#9FC56A"/>
<path fill-rule="evenodd" clip-rule="evenodd" d="M99.375 55.5234C99.7991 55.5982 100.024 55.8475 100.099 56.2714C99.6993 56.1717 99.4748 55.9223 99.375 55.5234Z" fill="#9FC56A"/>
<path fill-rule="evenodd" clip-rule="evenodd" d="M163.444 133.56C163.244 133.335 163.02 133.111 162.82 132.887C163.195 132.962 163.394 133.186 163.444 133.56Z" fill="#D4E29E"/>
<path fill-rule="evenodd" clip-rule="evenodd" d="M162.766 132.86C162.417 132.76 162.192 132.561 162.117 132.162C162.516 132.212 162.716 132.461 162.766 132.86Z" fill="#D4E29E"/>
<path fill-rule="evenodd" clip-rule="evenodd" d="M169.708 147.645C169.384 147.471 169.259 147.197 169.284 146.848C169.634 146.997 169.783 147.271 169.708 147.645Z" fill="#A4C06D"/>
<path fill-rule="evenodd" clip-rule="evenodd" d="M161.649 112.566C161.924 112.716 162.024 112.965 161.924 113.264C161.674 113.09 161.574 112.866 161.649 112.566Z" fill="#8BB05A"/>
<path fill-rule="evenodd" clip-rule="evenodd" d="M161.918 109.725C161.993 109.874 161.968 109.974 161.819 110.049L161.719 109.849L161.918 109.725Z" fill="#8BB05A"/>
<path fill-rule="evenodd" clip-rule="evenodd" d="M172.247 127.874C172.097 127.55 172.197 127.4 172.546 127.4C172.696 127.725 172.646 127.899 172.247 127.874Z" fill="#9A7A3F"/>
<path fill-rule="evenodd" clip-rule="evenodd" d="M94.9798 143.383C95.0297 144.031 94.6305 144.38 94.0317 144.53C93.882 144.579 93.5327 144.43 93.4828 144.28C93.2583 143.632 93.6076 143.208 94.1814 142.984C94.5058 142.859 94.8051 142.984 94.9798 143.383Z" fill="#7D9F55"/>
<path fill-rule="evenodd" clip-rule="evenodd" d="M98.9477 139.792C98.6732 140.241 98.324 140.49 97.8499 140.191C97.7252 140.116 97.6503 139.742 97.7252 139.593C97.8998 139.244 98.299 139.194 98.6483 139.293C98.798 139.343 98.8479 139.618 98.9477 139.792Z" fill="#7D9F55"/>
<path fill-rule="evenodd" clip-rule="evenodd" d="M93.5826 146.749C93.5078 146.948 93.4579 147.247 93.3082 147.297C93.1585 147.347 92.934 147.148 92.7344 147.073C92.8092 146.873 92.8591 146.574 93.0088 146.524C93.1585 146.475 93.3831 146.649 93.5826 146.749Z" fill="#7D9F55"/>
<path fill-rule="evenodd" clip-rule="evenodd" d="M167.932 86.8613C167.732 86.7866 167.433 86.7367 167.383 86.5871C167.333 86.4375 167.533 86.2131 167.607 86.0137C167.807 86.0885 168.106 86.1383 168.156 86.2879C168.206 86.4375 168.007 86.6619 167.932 86.8613Z" fill="#8BB05A"/>
<path fill-rule="evenodd" clip-rule="evenodd" d="M170.605 103.916C170.38 103.691 170.131 103.492 169.906 103.268C170.131 103.467 170.355 103.691 170.605 103.916Z" fill="#8BB05A"/>
<path fill-rule="evenodd" clip-rule="evenodd" d="M38.2519 191.974C36.6801 192.523 35.1832 193.495 33.3619 192.922C32.9627 192.797 32.6633 193.52 32.9627 193.944C33.4367 194.592 33.8858 195.116 34.8838 195.091C36.0065 195.066 36.0314 195.265 35.3578 196.163C35.1582 196.437 34.9586 196.711 34.784 196.985C33.6363 197.509 31.7402 196.237 31.341 198.681C31.1165 200.027 29.1455 198.681 28.4469 199.803H28.4968C28.1475 199.828 27.923 200.127 27.6735 200.351C26.5508 200.426 25.4031 200.476 24.2554 200.551C24.0059 200.675 23.7565 200.8 23.507 200.875C23.2325 200.9 22.983 200.95 22.7086 200.974C22.4341 200.426 22.035 200.027 21.4861 199.778C21.037 199.578 20.2137 199.753 20.3883 198.88C20.3883 198.805 21.2366 198.955 21.6857 198.88C22.9331 198.656 24.1307 198.132 25.453 198.232C25.8771 198.257 26.4011 198.033 26.7254 197.758C27.898 196.786 29.0207 195.764 30.1434 194.742C30.6674 194.268 31.1663 193.719 31.1663 192.971C31.1913 191.625 31.9398 190.852 33.0375 190.254C33.6862 189.88 33.9856 189.232 33.9856 188.484C34.0106 186.614 34.7091 185.118 36.256 183.996C36.7799 183.622 36.4805 183.074 36.0314 182.924C34.8339 182.575 34.4097 181.628 34.1103 180.605C33.8858 179.783 33.5116 179.134 32.788 178.636C30.4927 177.065 29.869 174.871 30.4927 172.253C30.5426 172.029 30.4927 171.78 30.4927 171.555L30.5925 171.48L30.5177 171.58C29.9438 171.48 29.37 171.331 29.2203 170.633C29.1205 170.034 29.0956 169.336 29.5946 169.037C31.84 167.616 30.4428 165.272 31.1165 163.452C30.4927 162.505 29.9189 161.508 29.2203 160.61C29.0956 160.436 28.4718 160.436 28.2722 160.61C27.8232 160.959 27.4988 161.458 27.0747 161.857C26.426 162.455 25.8522 162.206 25.6276 161.258C25.6027 161.159 25.6276 161.034 25.6027 160.909C25.5029 160.261 25.7025 159.364 24.7794 159.239C24.1806 159.164 23.8063 159.762 23.507 160.261C23.3323 160.535 23.0329 160.76 22.8084 161.009C22.1597 160.81 21.7605 160.436 22.01 159.688C22.0599 158.765 21.9352 157.718 23.4321 157.942C23.5569 157.942 23.9061 157.643 23.8812 157.519C23.8313 157.195 23.7066 156.821 23.4571 156.646C22.4092 155.873 21.1617 155.848 20.1887 156.496C19.091 157.219 17.8435 157.469 16.7208 158.117C15.5482 158.79 14.4504 158.99 13.0782 158.441C11.9555 157.992 11.1571 158.541 11.3068 159.713C11.5064 161.184 10.0843 161.607 9.83482 162.779C10.234 163.004 10.6581 163.178 10.9825 163.452C11.2819 163.727 11.1821 164.126 10.8577 164.3C10.2091 164.649 9.51049 164.574 8.81191 164.45C7.88879 164.275 7.43971 163.652 7.56445 162.704C7.5894 162.355 7.78899 162.031 7.83889 161.707C7.93869 160.835 7.43971 160.311 6.64133 160.485C5.74316 160.66 4.89489 161.209 3.92188 160.909C4.5955 158.89 5.24418 156.845 5.94276 154.851C6.41679 153.48 7.51455 152.657 8.63726 151.884C9.13625 152.283 9.13625 152.856 9.31089 153.405C9.56038 154.302 7.6892 155.374 9.41069 156.048C10.708 156.571 12.3048 156.995 13.3028 155.649C15.3735 152.881 18.9163 153.654 21.511 152.084C22.4591 151.51 23.9311 151.809 25.1287 152.632C30.1434 156.122 30.842 156.073 35.4826 152.757C35.8817 152.482 36.3308 152.383 36.8049 152.557C38.3018 154.701 38.5264 157.319 39.5243 159.663C39.8736 161.483 40.4973 163.278 40.4474 165.173C40.4474 165.721 40.6969 166.32 40.9215 166.818C41.4454 167.915 41.6949 168.962 41.2209 170.184C40.9963 170.807 41.0213 171.58 41.146 172.253C41.4703 174.323 41.146 176.417 41.2209 178.461C41.3207 181.777 40.3726 184.919 40.3975 188.185C40.3975 189.78 39.7489 191.151 38.3018 191.974H38.2519Z" fill="#B8D282"/>
<path fill-rule="evenodd" clip-rule="evenodd" d="M21.9591 159.637C22.2336 160.085 22.4831 160.509 22.7575 160.958C22.7575 162.18 22.4332 163.152 21.2606 163.9C20.0131 164.648 20.1379 165.396 21.3604 166.219C21.56 166.343 21.7596 166.493 21.9841 166.543C22.6827 166.742 23.3314 166.992 23.3812 167.864C23.4311 168.687 23.5559 169.535 22.7076 170.083C21.6847 170.731 21.2107 171.529 21.8344 172.726C21.9342 172.925 21.8843 173.2 21.9841 173.399C22.4332 174.371 20.7366 175.468 22.0589 176.266C22.9322 176.79 23.8054 175.842 24.7535 175.792C26.0259 175.718 26.9989 176.241 27.9469 176.989C28.421 177.363 28.9699 177.662 28.895 178.335C28.8451 179.058 28.2713 179.258 27.6476 179.308C26.6246 179.358 25.9011 179.881 25.3772 180.629C25.2524 181.651 26.2005 181.701 26.6496 182.15C27.5727 183.097 28.2962 184.02 28.4459 185.441C28.5707 186.513 28.9699 187.46 27.922 188.258C27.6226 190.851 25.7015 191.898 23.6058 192.721C22.9072 192.995 22.4082 193.369 22.1338 194.092C21.9092 194.716 22.2336 195.688 21.3354 195.837C20.8614 195.912 20.3125 195.414 19.7636 195.289C19.065 195.09 18.616 195.638 18.3415 196.087C17.3186 197.907 15.7219 197.782 14.0752 197.433C13.4764 197.308 13.0772 196.76 13.1271 196.137C13.177 195.513 13.6012 195.04 14.2748 195.04C14.5991 195.04 14.9484 195.214 15.2977 195.264C15.4973 195.264 15.7219 195.189 15.9215 195.114C15.9963 195.09 16.0462 194.94 16.0462 194.84C16.0462 194.74 16.0462 194.541 15.9963 194.516C14.9484 194.042 13.9754 193.419 12.6781 193.693C12.0294 193.818 11.5803 193.245 11.6801 192.571C12.0044 190.527 11.6551 188.682 10.4576 186.987C10.2081 186.638 10.1332 186.114 10.0584 185.665C9.9586 185.042 9.73406 184.543 9.08538 184.344C8.26206 184.095 7.48864 183.696 7.36389 182.773C7.18925 181.402 6.88986 179.931 7.71318 178.66C8.6363 177.214 9.38477 175.593 11.6551 175.718C12.7779 175.792 13.2269 174.272 12.4535 173.349C11.8048 172.601 10.4326 172.202 11.0564 170.856C11.5553 169.784 12.728 170.332 13.5762 170.158C13.9255 170.083 14.2998 170.058 14.5991 169.909C15.173 169.634 15.5722 169.186 15.4225 168.537C15.2728 167.939 14.7987 167.615 14.175 167.465C13.3267 167.266 12.6531 168.188 11.8048 167.764C11.6052 167.665 11.4306 167.49 11.3308 167.316C11.1063 166.942 11.3308 166.618 11.6052 166.418C12.4286 165.795 13.4265 165.92 14.3247 166.094C15.173 166.269 15.647 166.144 15.8217 165.246C15.9215 164.773 16.2458 164.249 16.7198 164.299C19.4143 164.523 20.0131 162.803 20.3375 160.659C20.4622 159.836 21.2606 159.712 22.009 159.687L21.9591 159.637Z" fill="#84A954"/>
<path fill-rule="evenodd" clip-rule="evenodd" d="M1.79345 165.347C2.44213 164.624 2.36728 163.702 2.44213 162.854C2.54193 162.031 2.74152 161.333 3.63969 161.084C3.78939 161.508 4.08878 161.982 4.03888 162.38C3.71454 164.774 3.2904 167.192 2.89122 169.586C2.89122 169.71 2.54193 169.86 2.36728 169.86C2.19264 169.86 1.9182 169.685 1.8683 169.511C1.36932 168.14 1.8184 166.743 1.8184 165.372L1.79345 165.347Z" fill="#50703C"/>
<path fill-rule="evenodd" clip-rule="evenodd" d="M103.736 51.7583C103.561 51.6586 103.312 51.6087 103.237 51.4591C103.162 51.3345 103.337 51.1101 103.412 50.9355C103.586 51.0353 103.786 51.1101 103.911 51.2597C104.085 51.4591 104.01 51.6586 103.736 51.7583Z" fill="#9FC56A"/>
<path fill-rule="evenodd" clip-rule="evenodd" d="M73.1265 144.205C73.2762 144.305 73.6005 144.429 73.7502 144.654C73.9748 145.003 73.4758 145.427 72.9519 145.377C72.5776 145.377 72.3281 145.152 72.3281 144.779C72.3281 144.405 72.6026 144.23 73.1015 144.205H73.1265Z" fill="#8EB160"/>
<path fill-rule="evenodd" clip-rule="evenodd" d="M68.4616 150.438C67.6882 149.914 67.788 149.142 67.8878 148.344C68.6113 148.892 68.4616 149.69 68.4616 150.438Z" fill="#7FA144"/>
<path fill-rule="evenodd" clip-rule="evenodd" d="M72.2795 138.994C72.2795 138.994 72.529 139.044 72.529 139.094C72.529 139.194 72.4791 139.293 72.4292 139.393C72.3294 139.368 72.1797 139.343 72.1797 139.293C72.1797 139.194 72.2296 139.094 72.2795 138.994Z" fill="#7FA144"/>
<path fill-rule="evenodd" clip-rule="evenodd" d="M134.003 164.549C134.003 163.851 133.978 163.128 133.953 162.43C134.178 162.43 134.427 162.43 134.652 162.43C134.776 164.025 135.999 164.773 137.221 165.87C138.419 164 140.839 164.15 141.912 162.28C142.186 161.806 142.735 161.906 143.159 162.18C143.933 162.704 144.656 163.252 145.48 163.851C145.056 164.948 144.082 164.374 143.409 164.624C142.76 164.873 142.536 165.322 142.511 165.945C142.486 166.668 143.06 167.192 143.559 166.793C144.906 165.721 146.577 165.671 148.124 165.222C149.022 164.973 149.921 164.723 150.819 164.474C151.418 164.3 152.016 163.951 152.116 163.402C152.391 161.532 153.813 161.083 155.26 160.61C155.484 160.535 155.684 160.41 155.908 160.311C156.607 160.311 157.33 160.311 158.029 160.311C157.829 160.834 157.256 161.333 157.48 161.931C158.054 163.352 157.63 164.15 156.183 164.549C155.858 164.649 155.409 164.898 155.709 165.247C156.856 166.668 155.908 167.217 154.786 167.74C154.611 167.815 154.511 168.114 154.461 168.339C154.312 168.912 154.162 169.585 153.538 169.685C153.164 169.735 152.715 169.336 152.316 169.136C152.116 169.037 151.892 168.987 151.667 168.962C151.118 168.887 150.469 169.66 150.769 170.084C151.467 171.031 151.592 171.954 151.068 173.001C150.993 173.175 151.018 173.574 151.143 173.674C152.515 174.721 152.066 176.017 151.941 177.439C151.742 179.757 151.318 182.25 150.295 183.846C149.746 184.694 149.372 185.367 150.17 186.314C151.043 187.361 149.821 188.209 149.596 189.156C147.351 189.107 145.305 188.209 143.209 187.561C142.586 187.361 141.962 186.863 141.488 186.364C140.165 184.918 138.943 183.372 137.646 181.901C136.972 181.128 136.972 180.206 136.947 179.259C136.922 177.837 136.822 176.466 135.575 175.444C134.776 174.771 134.851 173.799 134.851 172.851C134.801 170.533 134.727 168.189 134.602 165.845C134.602 165.422 134.277 164.998 134.103 164.599L134.003 164.549Z" fill="#9BBD63"/>
<path fill-rule="evenodd" clip-rule="evenodd" d="M150.27 191.899C150.594 191.899 150.918 191.899 151.268 191.849C151.841 191.799 152.415 191.575 152.54 191.002C152.665 190.378 152.041 190.104 151.592 189.805C151.717 189.356 151.742 188.833 152.016 188.508C152.889 187.536 154.112 187.112 155.334 186.688C155.484 186.639 155.783 186.813 155.908 186.963C156.033 187.112 156.158 187.486 156.083 187.561C154.86 188.783 155.135 190.328 155.11 191.824C155.035 192.273 155.06 192.772 154.636 193.021C153.962 193.42 153.214 193.669 152.59 194.118C151.767 194.716 151.168 194.517 150.494 193.919C149.696 193.245 149.846 192.572 150.32 191.849L150.27 191.899Z" fill="#9BBD63"/>
<path fill-rule="evenodd" clip-rule="evenodd" d="M163.391 140.616C163.291 141.289 162.892 141.663 162.293 141.738C161.545 141.862 160.796 141.039 160.846 140.192C160.896 139.693 161.195 139.344 161.719 139.319C162.617 139.269 163.416 139.893 163.391 140.616Z" fill="#A4C06D"/>
<path fill-rule="evenodd" clip-rule="evenodd" d="M149.374 143.208C149.324 143.557 149.125 143.831 148.751 143.781C148.401 143.756 148.202 143.432 148.326 143.133C148.426 142.883 148.726 142.559 148.975 142.534C149.324 142.509 149.399 142.883 149.374 143.208Z" fill="#C0D688"/>
<path fill-rule="evenodd" clip-rule="evenodd" d="M159.35 144.08C159.25 144.404 159.2 144.728 159.051 145.002C158.976 145.127 158.626 145.251 158.502 145.177C158.128 144.977 158.128 144.628 158.427 144.379C158.676 144.179 159.026 144.154 159.35 144.055V144.08Z" fill="#A4C06D"/>
<path fill-rule="evenodd" clip-rule="evenodd" d="M43.8392 49.1145C43.8392 48.6657 43.8143 48.217 43.8392 47.7682C43.939 45.9233 43.939 45.9233 45.9599 45.5742C45.2613 46.397 44.3881 47.095 44.413 48.3416C44.413 48.5909 44.0388 48.8403 43.8392 49.0896V49.1145Z" fill="#AACA6F"/>
<path fill-rule="evenodd" clip-rule="evenodd" d="M45.9531 45.6009C46.003 44.1798 46.9261 43.407 48.0738 42.8086C47.999 44.2297 47.1008 45.0275 45.9531 45.6009Z" fill="#AACA6F"/>
<path fill-rule="evenodd" clip-rule="evenodd" d="M51.6484 42.1338C52.0975 42.1338 52.5466 42.1089 53.0206 42.084C52.9208 42.5826 52.9458 43.2807 52.1724 43.181C51.6983 43.1062 51.6734 42.5577 51.6484 42.1338Z" fill="#739E4C"/>
<path fill-rule="evenodd" clip-rule="evenodd" d="M43.7893 50.4615C43.5897 50.4865 43.3652 50.5114 43.1406 50.5114C43.1406 49.938 43.2903 49.4144 43.8392 49.1152C43.8392 49.564 43.8142 50.0128 43.7893 50.4615Z" fill="#AACA6F"/>
<path fill-rule="evenodd" clip-rule="evenodd" d="M118.509 1.57031C118.633 1.7199 118.858 1.84456 118.858 1.99415C118.858 2.39306 118.559 2.54265 118.234 2.39306C118.11 2.34319 117.985 2.01908 118.035 1.86949C118.06 1.74483 118.359 1.67004 118.509 1.59524V1.57031Z" fill="#9FC56A"/>
<path fill-rule="evenodd" clip-rule="evenodd" d="M115.612 1.77047C115.363 1.67074 115.288 1.47129 115.462 1.27184C115.587 1.12225 115.812 1.07238 115.986 0.972656C116.036 1.14718 116.186 1.37156 116.111 1.49622C116.036 1.64581 115.787 1.67074 115.612 1.74554V1.77047Z" fill="#9FC56A"/>
<path fill-rule="evenodd" clip-rule="evenodd" d="M119.008 5.23564C119.008 5.23564 119.058 4.98633 119.108 4.98633C119.207 4.98633 119.307 5.03619 119.407 5.08605C119.407 5.16085 119.357 5.33537 119.307 5.33537C119.207 5.33537 119.108 5.28551 119.008 5.23564Z" fill="#9FC56A"/>
<path fill-rule="evenodd" clip-rule="evenodd" d="M36.7514 152.533C35.6536 153.106 35.1047 154.103 34.4311 155.076C33.2086 156.846 32.2356 157.095 30.2397 156.272C29.1668 155.824 28.094 154.951 27.0462 154.976C25.6989 155.001 24.8007 155.051 24.7009 153.455C24.676 152.932 24.1521 152.732 23.678 152.657C22.6302 152.483 21.6572 153.131 20.5594 152.832C20.1103 152.707 19.7111 153.156 19.4866 153.58C19.2121 154.078 19.0125 154.627 18.7631 155.175C18.3389 155.101 17.9896 155.076 17.6653 154.951C15.5446 154.153 15.4698 154.103 14.2722 156.098C13.5487 157.295 12.5757 157.644 11.3282 157.469C9.956 157.245 8.60875 156.921 7.23654 156.621C6.81241 156.522 6.63776 155.724 7.03695 155.475C8.3842 154.602 8.80834 153.38 8.5838 151.884C8.5838 150.713 8.5838 149.541 8.5838 148.369C8.5838 147.023 8.88319 146.025 10.2304 145.253C11.2783 144.629 11.8771 143.333 12.8002 142.435C13.898 141.363 15.1454 140.59 16.842 141.114C17.3908 141.288 17.7152 140.69 17.2911 140.216C16.6174 139.493 16.4677 138.945 17.1663 138.147C18.2641 136.876 19.6113 135.928 21.0584 135.23C23.0543 134.308 26.3975 135.28 27.7697 137.025C30.1898 140.117 32.7096 143.158 33.982 146.973C34.1567 147.297 34.0319 147.596 33.9571 147.945C33.7076 148.967 31.562 149.167 32.535 150.613C33.508 152.059 34.8054 150.189 35.978 150.613H36.0279C36.2774 150.787 36.4769 151.012 36.6266 151.286C36.6266 151.735 36.6765 152.184 36.6765 152.632L36.7514 152.533Z" fill="#CCDE99"/>
<path fill-rule="evenodd" clip-rule="evenodd" d="M36.0301 150.514C34.0841 152.782 33.4604 152.857 31.3646 150.937C30.4665 150.14 30.5413 149.491 31.664 148.818C32.5373 148.27 33.5851 147.946 34.0591 146.898C34.7078 148.095 35.3815 149.317 36.0551 150.514H36.0301Z" fill="#B8D282"/>
<path fill-rule="evenodd" clip-rule="evenodd" d="M36.6769 151.185C36.4773 150.96 36.2777 150.736 36.0781 150.512C36.4274 150.611 36.627 150.836 36.6769 151.185Z" fill="#B8D282"/>
<path fill-rule="evenodd" clip-rule="evenodd" d="M23.4766 200.875C23.7261 200.775 23.9755 200.651 24.225 200.551C24.225 200.7 24.225 200.85 24.1502 201C23.9256 201 23.7011 200.975 23.4766 200.875Z" fill="#9FBF6A"/>
<path fill-rule="evenodd" clip-rule="evenodd" d="M28.4156 199.803C28.6651 199.204 29.1391 198.98 29.7628 198.955C30.5363 198.905 30.8855 198.481 31.2099 197.783C31.9584 196.238 32.0332 196.287 33.7547 196.761C34.079 196.836 34.4283 196.886 34.7527 196.961C34.4034 197.534 33.8545 197.584 33.2557 197.634C32.9314 197.659 32.3825 197.783 32.3326 197.958C31.7588 200.177 29.8876 199.603 28.3906 199.803H28.4156Z" fill="#9FBF6A"/>
<path fill-rule="evenodd" clip-rule="evenodd" d="M27.6406 200.351C27.8153 200.002 28.0648 199.802 28.4639 199.777C28.3392 200.176 28.0648 200.376 27.6406 200.351Z" fill="#9FBF6A"/>
<path fill-rule="evenodd" clip-rule="evenodd" d="M133.328 164.548C133.553 164.473 133.777 164.473 134.002 164.548C134.052 165.321 134.027 166.119 133.378 166.692C133.378 165.994 133.353 165.296 133.353 164.573L133.328 164.548Z" fill="#9BBD63"/>
<path fill-rule="evenodd" clip-rule="evenodd" d="M133.352 170.183C133.352 169.659 133.352 169.161 133.352 168.662C133.95 169.161 133.9 169.684 133.352 170.183Z" fill="#9BBD63"/>
<path fill-rule="evenodd" clip-rule="evenodd" d="M30.46 171.555C30.46 170.907 30.2854 170.159 30.9091 169.71C31.2584 169.461 31.7823 169.386 32.1066 169.81C32.2563 170.01 32.2813 170.458 32.1565 170.708C31.8073 171.381 31.1336 171.506 30.46 171.555Z" fill="#9FBF6A"/>
<path fill-rule="evenodd" clip-rule="evenodd" d="M154.983 162.828C154.933 163.202 154.759 163.526 154.36 163.476C153.96 163.426 153.836 163.077 153.96 162.728C154.085 162.404 154.36 162.13 154.709 162.23C154.834 162.28 154.884 162.604 154.958 162.803L154.983 162.828Z" fill="#C0D688"/>
</g>
<defs>
<clipPath id="clip0_1_3665">
<rect width="184" height="228" fill="white"/>
</clipPath>
</defs>
</svg>
