<svg width="176" height="163" viewBox="0 0 176 163" fill="none" xmlns="http://www.w3.org/2000/svg">
<path fill-rule="evenodd" clip-rule="evenodd" d="M57.4011 45.9171C57.4011 44.6431 57.492 43.4373 57.9009 42.1861C58.4917 40.4116 58.8098 38.546 59.3323 36.726C59.6959 35.4975 60.1503 34.3373 60.5366 33.1315C61.4 30.5152 63.3994 29.0137 65.6715 27.7852C66.3531 27.4212 66.8757 27.5577 67.2165 28.3084C67.58 29.0592 67.8527 29.8555 68.1708 30.629C68.3071 31.1295 68.1026 31.4935 67.6255 31.5162C66.5349 31.5617 65.2398 30.1967 64.3991 32.0167C63.3085 34.3827 61.4908 36.5213 61.718 39.2968C61.8771 41.1396 63.5584 40.7073 64.7172 40.5708C66.6712 40.3206 68.5116 40.1386 69.6249 42.2771C72.2605 49.7846 73.6011 57.588 75.0779 65.3685C75.3506 66.8246 75.9413 68.1896 76.7366 69.4636C79.1677 73.3311 79.4176 77.7446 79.2131 82.0672C79.0768 84.9337 76.1913 85.2295 73.9646 85.7755C72.0561 86.2305 69.8749 85.8892 68.4889 87.7775C65.6033 90.2345 62.8768 88.2325 60.1049 87.459C59.2187 86.1622 57.9009 86.4125 56.6513 86.458C50.1985 86.7537 49.1307 85.8437 49.0625 77.9949C49.0625 76.6299 49.5169 75.2876 49.8577 73.9454C50.8347 70.3736 51.6981 66.8245 52.1525 63.1163C52.6297 59.3852 55.0154 56.1092 55.8106 52.3782C56.2877 50.2169 58.0145 48.3286 57.3329 45.9171H57.4011Z" fill="#376039"/>
<path fill-rule="evenodd" clip-rule="evenodd" d="M15.2841 54.3573C14.0571 55.017 12.6712 55.1763 11.3534 55.472C11.0353 55.5403 10.7853 55.3128 10.6945 54.9715C10.9898 54.7668 11.2398 54.5393 10.7626 54.2663C10.8081 53.47 10.7399 52.7193 10.3536 51.9685C10.1492 51.559 10.2173 51.013 10.1719 50.5352C11.6487 50.4442 12.2622 49.9892 12.1032 48.192C11.6033 43.1642 12.5121 38.3184 14.8751 33.8366C16.5565 30.6743 14.9433 27.421 15.2614 24.236C15.1478 23.3487 15.5795 22.6207 15.9657 21.87C17.1018 19.6177 18.4423 17.4792 18.8513 14.9084C18.8967 14.5672 19.3511 14.2941 19.6238 13.9756C20.4644 13.0429 19.6238 11.7916 20.2145 10.8134V10.7679C21.6232 10.0171 22.5093 10.4266 22.6002 12.0191C22.6684 13.2476 22.9865 14.5672 22.0776 15.7957C23.8271 14.2486 25.5994 13.3386 27.6897 15.1359C28.7803 16.0687 29.5528 17.0242 28.644 18.3664C27.8715 19.5039 28.5758 20.2547 28.9166 21.051C27.7124 18.0479 30.5071 18.5257 31.8703 17.7749V17.8432C32.302 18.4119 31.8022 19.2764 32.4838 19.7769C33.7562 22.7117 34.8013 25.7148 35.0285 28.8998C35.233 31.9256 36.0737 34.7011 37.5506 37.3401C37.9595 38.0909 38.3231 38.8644 38.7548 39.5924C39.5273 40.9119 39.8454 42.3224 39.7999 43.8467C39.7545 45.0979 39.6636 46.3264 40.0499 47.6005C40.3907 48.6697 40.1862 49.921 40.1635 51.0812C40.1635 51.7637 39.7545 52.2643 39.2546 52.6965L39.1183 52.833C38.4367 53.0605 37.7778 52.9922 37.1416 52.7192C36.7553 52.5827 36.3691 52.651 35.9828 52.7875C35.3239 52.9922 34.6423 52.9923 33.9834 52.833C33.8016 52.742 33.6199 52.6738 33.4381 52.6055C33.2336 52.5828 33.0518 52.4917 32.9155 52.3552C32.4384 51.923 31.8703 52.1505 31.325 52.0822C30.7343 52.0822 30.1663 52.0822 29.5983 52.287C28.4849 52.56 27.5988 51.8775 26.6218 51.5817C23.759 50.6945 20.8961 50.2395 18.5332 52.7875C16.8973 53.4927 14.966 53.2425 13.9208 53.8568C14.1253 53.6748 14.7615 53.6748 15.375 54.3573H15.2841Z" fill="#365E38"/>
<path fill-rule="evenodd" clip-rule="evenodd" d="M6.74179 104.02C7.01445 103.11 7.24165 102.2 7.55975 101.313C8.62763 98.3554 9.85456 95.4206 10.8088 92.4176C11.5132 90.1198 11.9222 87.7083 12.3766 85.3423C12.5129 84.5915 12.672 83.909 13.24 83.363C14.3306 82.362 15.3757 81.3383 16.4663 80.3372C17.7842 79.1542 19.2837 78.5172 21.0787 78.6765C21.8739 78.7447 22.5101 79.0177 22.8509 79.7685C23.3962 81.0425 22.601 81.816 21.6013 81.7023C17.0344 81.2245 15.921 84.2048 15.2621 87.7538C15.1485 88.3453 14.6487 88.8686 14.9213 89.5511C15.762 89.9378 16.2846 89.1188 16.9662 89.0051C18.852 88.6866 19.5564 89.5056 18.9202 91.3028C18.7384 91.8033 18.3976 92.2356 18.2159 92.7361C17.3297 95.0794 17.5115 95.9211 19.1474 97.8094C19.4201 98.1052 19.4428 98.5374 19.4655 98.6739C19.7382 96.2851 21.9421 94.4879 22.5101 91.9626C22.6464 91.3938 23.3962 91.0071 24.0778 91.1209C25.123 91.2801 25.5547 92.2129 25.4865 92.9864C25.123 96.3762 27.486 98.9014 28.1676 102.018C28.8947 101.472 28.6902 99.0607 30.4397 100.881C30.5533 101.04 30.7351 101.199 30.7805 101.381C31.144 103.065 31.4849 104.771 31.8257 106.454C32.121 109.321 31.9393 112.256 33.0526 114.986C33.0526 115.327 33.098 115.691 33.098 116.032C33.2798 116.51 33.1889 117.079 33.6206 117.488V117.557C34.1887 118.08 33.6888 118.944 34.2568 119.468C34.3704 119.604 34.4159 119.763 34.3477 119.923C34.6658 120.833 34.6885 121.72 34.325 122.698C32.4164 122.266 33.0299 120.105 31.7348 119.331C30.6896 119.445 30.3715 120.878 29.2355 120.901C28.5539 120.992 28.0086 120.651 27.5087 120.241C25.1684 118.285 22.4419 118.831 21.056 121.538C20.5561 122.539 20.238 123.585 21.3286 124.404C22.3738 125.201 23.1008 126.065 22.1693 127.316C21.2605 128.522 20.1244 128.204 19.0792 127.43C16.9435 125.838 16.8526 127.544 17.148 128.818C17.6705 131.161 17.5342 132.981 15.6484 134.847C14.1261 136.348 14.5351 138.373 16.4436 139.738C15.194 141.08 13.6944 140.785 12.1948 140.421C11.3996 140.034 10.468 140.375 9.67279 140.011C8.85484 139.829 8.05961 139.556 7.24165 139.511C5.81024 139.442 4.60603 139.01 3.62903 137.964C3.42454 137.736 3.2655 137.44 2.92468 137.418C2.31122 136.758 1.58415 136.189 1.03885 135.438C0.311778 134.255 1.33422 132.754 0.37994 131.616C0.220894 131.32 0.0845686 130.979 0.198173 130.706C0.561708 129.91 0.175452 128.477 1.44782 128.477C2.44754 128.477 2.4021 129.728 2.60659 130.501C2.90196 131.525 3.10645 132.549 2.97012 133.686C4.12889 129.728 4.58331 129.5 8.17321 131.138C8.85484 129.682 8.71851 128.295 8.51402 126.657C8.15049 123.654 9.03661 120.605 10.5589 117.875C10.9452 117.17 11.5586 116.92 10.2181 116.214C8.62763 115.373 8.90028 111.619 10.5816 110.254C11.8313 109.23 12.6038 108.411 12.3766 106.659C12.2175 105.476 13.7398 104.862 14.217 103.793C12.1721 104.179 10.0363 104.43 9.83184 107.273C9.7864 108.024 9.17293 108.707 8.30954 108.616C7.49158 108.525 7.01444 107.842 6.87812 107.091C6.71907 106.068 6.35554 105.021 6.74179 103.975V104.02Z" fill="#4B7B4A"/>
<path fill-rule="evenodd" clip-rule="evenodd" d="M115.956 24.9648C117.297 27.3308 117.751 29.9471 118.297 32.5633C117.865 33.7463 118.728 34.4971 119.183 35.4298C121.205 39.4339 121.478 43.8929 122.159 48.1927C122.614 51.082 120.66 52.7428 117.592 53.175C114.798 53.5618 111.958 53.5845 109.231 54.358C106.186 52.7655 102.415 52.2423 100.733 48.6705C100.006 47.1235 99.1203 47.9197 98.1433 48.1927C96.212 48.716 95.4849 48.0107 96.212 46.0542C96.4846 45.3717 96.78 44.6892 96.939 43.9612C97.0754 43.2332 97.7343 42.3459 95.9848 42.7782C94.8487 43.0512 94.6897 41.3677 94.0989 40.5486C94.1898 39.2746 90.8953 38.4556 93.5991 36.8404C95.1214 36.9086 96.3937 35.8621 98.0524 35.9986C97.6434 33.9738 97.3935 32.1311 95.5304 30.7888C94.5306 30.0608 94.4625 27.9905 95.4395 27.7403C98.3023 27.0123 98.9612 24.1685 100.438 22.485C102.392 20.2555 104.142 19.482 106.8 18.9132C108.459 18.572 109.867 17.0932 111.73 18.2534C113.116 20.5057 113.366 23.486 115.956 24.9648Z" fill="#3E693C"/>
<path fill-rule="evenodd" clip-rule="evenodd" d="M114.121 75.9697C113.939 74.9232 114.576 74.1725 115.03 73.3307C115.621 72.2615 116.348 71.306 117.597 71.2149C118.461 71.1467 119.074 71.9657 119.779 72.4207C120.438 72.853 120.847 73.4217 120.824 74.2635C120.824 74.9232 121.096 75.4692 121.483 76.0152C123.05 78.2675 124.073 80.8383 125.323 83.2725C125.754 84.1143 126.027 85.0926 126.595 85.8206C128.185 87.8453 129.117 90.1886 129.98 92.5774C129.39 93.6239 129.98 94.4429 130.617 95.1482C132.116 96.8544 131.503 98.9929 131.934 100.904C132.162 101.95 131.116 102.292 130.344 102.587C128.299 103.384 126.754 104.771 125.277 106.523C126.118 106.569 127.186 105.955 127.617 107.115C127.958 108.048 127.345 108.753 126.731 109.344C124.027 112.006 120.483 112.507 117.302 111.437C114.621 110.527 114.326 107.433 113.803 104.612C113.235 101.7 113.008 98.9702 113.212 96.0354C113.303 94.5794 113.28 93.3964 114.576 92.3499C112.94 92.8731 111.372 93.7149 110.531 91.5081C110.963 88.8236 112.122 86.3666 113.053 83.8413C113.985 81.2933 114.621 78.7225 114.167 75.9697H114.121Z" fill="#52854E"/>
<path fill-rule="evenodd" clip-rule="evenodd" d="M110.872 91.349C111.099 91.5765 111.349 91.7813 111.53 92.0315C111.826 92.4183 112.189 92.5775 112.621 92.3045C112.985 92.077 113.257 91.7585 113.598 91.5083C114.666 90.712 115.098 90.7575 115.984 91.7813C116.529 92.4183 116.415 92.987 115.688 93.2373C115.189 93.3965 114.643 93.442 114.189 93.6923C113.712 93.9653 113.439 94.4658 113.734 95.0345C113.871 95.3075 114.075 95.5806 114.257 95.8308C114.734 96.5361 114.734 97.2413 114.212 97.8783C112.78 99.5846 113.575 101.268 114.234 102.952C114.325 103.202 114.689 103.361 114.961 103.498C115.416 103.725 115.734 104.066 115.234 104.408C114.166 105.09 114.166 105.659 114.825 106.728C115.507 107.866 115.847 109.208 116.597 110.345C117.029 110.982 117.461 111.255 118.142 111.028C118.756 110.823 119.346 110.505 119.983 110.755C120.891 111.096 121.846 111.551 122.709 110.937C124.072 109.981 125.958 109.799 126.867 108.184C127.003 107.934 127.162 107.593 127.094 107.32C127.026 106.978 126.617 106.933 126.322 107.047C125.617 107.297 124.936 107.615 124.118 107.138C125.64 104.044 128.208 102.269 131.525 101.427C131.07 100.335 130.366 99.5163 130.911 98.3333C131.366 97.3323 130.593 96.5361 130.048 95.7626C129.571 95.0801 128.844 94.5796 128.707 93.6468C128.571 92.8733 128.867 92.5775 129.98 92.623L130.048 92.7368C130.207 92.9188 130.343 93.1008 130.457 93.3055C131.207 94.5796 132.525 95.6715 132.57 97.1503C132.638 99.0613 133.524 100.563 134.342 102.133C135.524 104.362 136.046 106.887 137.364 109.049C137.478 109.208 137.432 109.458 137.5 109.663C138.659 114.145 137.932 115.896 133.911 118.354C133.365 118.695 132.797 118.968 132.252 119.264L132.161 119.309C131.957 119.446 131.729 119.582 131.525 119.719L131.411 119.855C131.275 120.037 131.116 120.242 130.98 120.424L130.866 120.538C130.48 120.72 130.093 120.924 129.684 121.106H129.594C129.162 121.311 128.753 121.493 128.321 121.675C128.094 121.743 127.867 121.834 127.64 121.925C127.503 121.971 127.344 122.062 127.231 122.153C126.913 122.449 126.526 122.631 126.117 122.722C125.072 122.858 124.277 122.38 123.482 121.812C122.959 121.516 122.437 121.22 121.8 121.175C121.55 121.197 121.323 121.243 121.096 121.311C120.846 121.402 120.596 121.493 120.346 121.561C119.256 121.903 118.188 122.267 117.029 122.039C115.529 121.652 114.075 121.22 113.189 119.787C112.28 117.899 111.485 116.147 111.985 113.781C112.371 111.938 111.735 109.868 110.19 108.23C108.486 106.455 108.599 106.319 110.372 104.544C110.531 104.385 110.713 104.43 110.553 104.362C107.713 103.065 110.417 100.108 108.781 98.4698C109.372 96.1038 107.827 93.0553 110.917 91.44L110.872 91.349Z" fill="#44723F"/>
<path fill-rule="evenodd" clip-rule="evenodd" d="M163.827 42.1176C164.668 44.9159 165.486 47.7142 166.917 50.3077C167.394 51.1949 167.394 52.3552 167.667 53.3562C168.076 54.8805 168.621 56.3137 169.485 57.6787C170.416 59.1575 171.302 60.75 171.484 62.57C170.666 63.207 170.462 61.478 169.644 62.0923C165.804 58.3158 164.441 53.4245 163.577 48.3057C163.214 51.4907 163.918 54.5392 163.895 57.6105C162.759 58.3158 161.896 57.5195 160.987 57.0417C157.806 55.472 155.579 56.928 155.602 60.386C155.602 63.5256 154.807 66.6651 155.602 69.8274C155.852 70.8511 155.92 71.8749 156.715 72.7166C158.374 74.5139 157.034 76.0609 156.125 77.5169C155.557 78.4042 154.625 78.0629 153.943 77.4259C152.876 76.4477 151.876 75.4239 151.74 73.6721C150.967 74.7641 151.331 76.0154 150.444 76.7662C147.445 75.0371 148.445 72.0796 148.74 69.7136C149.036 67.5068 149.218 66.0053 147.127 64.5948C145.537 63.5255 145.196 61.66 147.082 60.386C147.991 59.7718 147.991 59.4988 147.332 58.8163C147.127 58.5888 147.082 58.111 147.332 57.929C151.103 55.2445 149.263 51.2859 149.672 47.8507C149.786 46.9861 149.876 46.1444 150.763 45.6894C151.421 45.4846 152.285 45.5074 152.489 46.0989C153.194 48.1009 154.761 47.9417 156.306 47.8962C155.125 47.5094 153.216 48.2374 152.989 46.1671C152.762 44.1651 152.739 42.0721 154.012 40.4113C154.92 39.2511 156.102 39.8426 157.124 40.5933C157.806 41.0938 158.624 42.2996 159.374 40.7753C160.669 38.1363 161.737 38.9553 162.896 40.8436C163.168 41.2986 163.486 41.7308 163.873 42.0949L163.827 42.1176Z" fill="#4E7E4C"/>
<path fill-rule="evenodd" clip-rule="evenodd" d="M111.527 18.5475C111.527 18.5475 111.39 18.775 111.322 18.775C108.391 18.8205 107.96 18.9798 105.688 21.0956C105.619 21.1638 105.551 21.2548 105.46 21.3003C105.165 21.4596 104.847 21.4823 104.665 21.1411C104.392 20.5951 104.347 19.8898 103.711 19.5485C103.529 19.4575 103.279 19.412 103.12 19.4803C102.961 19.5485 102.825 19.7533 102.711 19.9125C102.666 20.0036 102.666 20.1173 102.666 20.2311C102.666 21.0273 103.643 21.8918 102.825 22.5971C102.211 23.1203 101.325 23.3251 100.53 23.5753C99.3257 23.9166 98.7122 24.4171 99.0984 25.8504C99.3029 26.6239 98.0306 27.8751 97.1444 27.8751C96.531 27.8751 95.8266 27.4201 95.6449 28.3984C95.4858 29.2401 95.4858 30.0591 96.3038 30.6962C96.9627 31.2422 98.0533 31.0602 98.4395 31.8792C98.7576 32.5617 97.9397 33.2897 98.2805 34.0404C98.5986 34.7229 98.9621 35.3599 99.3029 36.0197C99.462 36.2927 99.6892 36.6112 99.3938 36.8387C99.1893 37.0207 98.7804 37.089 98.5077 37.0435C97.4853 36.8615 96.5764 36.5202 95.6221 37.4757C95.145 37.9535 94.2135 37.8397 93.6454 37.1117C93.6227 36.9752 93.6 36.8615 93.5545 36.725C93.2819 36.1107 93.0774 35.4737 93.0547 34.8139C93.2819 33.1304 93.5773 31.4924 93.6682 29.7861C93.9408 24.0531 94.9632 18.4338 96.8718 12.9965C96.9854 12.7007 96.8264 12.3822 96.7128 12.0637C96.7128 10.6987 96.94 9.40196 97.9624 8.3782C99.1666 8.9697 99.6665 8.37819 99.9391 7.26343C100.212 6.12592 100.689 5.05667 101.575 4.23766C103.347 2.59965 106.278 2.7589 106.846 4.96567C107.846 8.85595 110.754 11.9272 111.254 15.954C111.277 16.227 111.3 16.4773 111.345 16.7503C111.39 16.864 111.413 17.0005 111.459 17.1143C111.572 17.3418 111.663 17.592 111.731 17.8423C111.777 18.1153 111.709 18.3655 111.504 18.5703L111.527 18.5475Z" fill="#588951"/>
<path fill-rule="evenodd" clip-rule="evenodd" d="M165.106 82.5685C164.992 83.1373 163.902 83.2055 164.356 84.07C164.81 84.9801 164.424 85.6853 163.765 86.3223C163.243 86.8228 163.197 87.4371 163.538 88.0513C164.788 90.2126 164.56 92.5104 164.038 94.8081C163.652 96.4462 163.356 98.0387 163.674 99.7904C163.97 101.406 163.992 103.135 163.22 104.704C161.72 103.954 160.334 103.112 158.494 103.089C156.245 103.044 153.791 98.1752 154.245 94.7854C154.586 92.2374 154.631 89.7121 154.54 87.1641C153.904 89.3708 155.018 91.9871 152.973 93.8526C152.178 92.8516 152.586 91.6459 152.496 90.5539C152.337 88.7794 152.064 87.0731 151.019 85.5716C151.36 85.0938 152.132 85.0028 152.178 84.2521C151.337 84.3658 151.609 85.3213 151.041 85.6171C149.019 85.4806 148.838 85.2303 149.451 83.4558C149.542 83.16 149.656 82.8643 149.769 82.5685C149.815 82.4775 149.86 82.341 149.928 82.2955C151.064 81.886 151.973 80.9305 152.041 80.0433C153.518 79.4063 154.972 79.6565 156.358 80.2253C158.471 81.0898 160.743 80.703 162.902 81.1353C163.765 81.4083 164.651 81.6585 165.106 82.5458V82.5685Z" fill="#9E874C"/>
<path fill-rule="evenodd" clip-rule="evenodd" d="M30.4554 100.905C29.8874 100.859 29.1604 100.381 29.1376 101.519C29.1149 102.429 29.3194 103.384 28.9559 104.249C28.456 104.294 28.1834 104.067 28.1152 103.771C27.7744 102.201 26.6611 100.927 26.5474 99.2893C26.4793 98.4703 25.8431 98.038 25.1615 97.674C24.5253 97.3328 24.2299 96.7868 24.6162 96.1043C25.1842 95.1033 25.0933 94.1023 24.7752 93.0558C24.5935 92.487 24.7752 91.6452 23.8664 91.6452C23.2984 91.6452 23.0257 92.1912 22.7758 92.6917C22.4577 93.3742 22.2759 93.9885 22.5031 94.8075C22.8212 95.9678 22.7303 96.0815 21.3671 96.5138C20.5037 96.7868 20.1629 97.2645 20.1629 98.1063C20.1629 98.9481 20.1629 99.8126 20.0947 100.654C20.072 100.882 19.7539 101.246 19.5267 101.291C19.095 101.36 18.6633 101.064 18.5951 100.632C18.527 100.245 18.6406 99.8126 18.7542 99.4258C18.8678 98.9935 18.9359 98.6068 18.7542 98.1973C18.5724 97.8106 18.277 97.492 17.8226 97.4465C17.4364 97.401 17.2773 97.674 17.141 97.9698C17.0047 98.2428 16.8456 98.5158 16.6639 98.7661C16.6184 98.8116 16.4366 98.8343 16.3912 98.7888C16.2322 98.6978 15.9822 98.5158 15.9822 98.4021C16.0731 97.8788 16.2549 97.401 16.3912 96.8778C16.5957 96.0588 16.9592 95.2398 16.9592 94.4208C16.9592 93.0785 17.2319 91.9182 18.2998 91.0082C18.6406 90.7125 18.7769 90.303 18.5724 89.8707C18.3679 89.4612 17.2773 89.393 16.8229 89.757C16.6639 89.8935 16.5048 90.0755 16.4594 90.2575C16.1867 91.2357 15.7096 91.4632 14.8462 90.849C14.5281 90.6215 14.0737 90.5305 13.7101 90.3712C13.3693 90.212 13.3012 89.8025 13.5056 89.6205C14.7326 88.4602 14.369 86.5719 15.4824 85.3662C15.5733 85.2524 15.3915 84.7974 15.2324 84.5244C15.0961 84.2514 14.7326 84.0467 15.0052 83.7054C16.0049 82.4997 16.9138 81.1119 18.7996 81.2029C19.7539 81.2484 20.7082 81.1574 21.6625 81.1119C22.435 81.0664 22.6849 80.4521 22.8667 79.8379C24.4571 81.6352 25.3887 83.8874 26.9791 85.6847C27.7971 86.6402 28.0698 87.9825 28.0925 89.2565C28.1152 90.849 28.5242 92.3505 29.0468 93.852C29.8647 96.127 30.3873 98.4931 30.4554 100.95V100.905Z" fill="#6B9C68"/>
<path fill-rule="evenodd" clip-rule="evenodd" d="M6.73748 104.02C7.03285 105.135 7.30551 106.272 7.60088 107.41C7.71448 107.842 7.98713 108.252 8.44155 108.206C9.07774 108.161 9.39583 107.592 9.30494 107.069C9.10046 106.068 9.16862 105.249 9.87297 104.452C10.3274 103.929 10.7364 103.497 11.4407 103.565C12.804 103.702 13.8946 103.133 14.9625 102.405C15.2124 102.246 15.6214 102.2 15.8258 102.496C16.0303 102.792 15.8031 103.065 15.6214 103.315C15.2578 103.815 14.7807 104.293 14.5762 104.885C14.349 105.544 13.9855 105.931 13.3265 106.159C12.6676 106.386 12.6904 106.887 13.0312 107.433C13.2584 107.797 13.531 108.138 13.6446 108.525C13.8037 109.139 13.1902 110.094 12.5086 110.072C11.4407 110.026 11.0317 110.618 10.5773 111.391C9.82753 112.688 9.96385 114.053 10.1456 115.418C10.2138 115.85 10.6 116.123 11.0772 115.827C11.2589 115.714 11.3725 115.532 11.5543 115.395C12.0315 115.008 12.5768 114.963 12.9403 115.463C13.1902 115.827 12.8721 116.26 12.5995 116.601C12.1451 117.192 11.7134 117.784 11.2589 118.353C10.4183 119.376 9.91841 120.491 10.0547 121.856C10.1456 122.835 9.82753 123.676 9.28222 124.518C8.44155 125.86 8.55516 126.02 9.91841 127.43C10.6909 128.226 10.7136 128.454 10.0775 129.318C9.82753 129.66 9.48671 129.933 9.23678 130.274C8.98685 130.638 8.89597 131.047 9.23678 131.434C9.55487 131.821 10.1683 132.23 9.44127 132.685C8.96413 133.004 8.41883 132.731 8.00985 132.367C7.30551 131.73 6.62388 131.047 5.6696 130.774C5.19246 130.638 4.76076 130.82 4.60172 131.207C4.1473 132.367 3.62472 133.55 4.1473 134.869C4.30635 135.256 4.12458 135.711 3.57928 135.802C3.0567 135.893 2.80677 135.484 2.625 135.12C2.46595 134.847 2.37507 134.505 2.39779 134.21C2.53412 132.412 1.71616 130.797 1.26174 129.023C0.989093 129.91 0.716442 130.774 0.42107 131.662C-0.283278 129.91 0.034815 128.135 0.375629 126.361C0.761884 124.291 1.28446 122.22 1.73888 120.173C2.39779 117.192 3.01125 114.212 3.67016 111.232C3.80649 110.618 4.01097 110.003 4.28362 109.435C5.10158 107.637 5.94225 105.84 6.78292 104.043L6.73748 104.02Z" fill="#659761"/>
<path fill-rule="evenodd" clip-rule="evenodd" d="M163.831 42.1178C162.832 41.8221 162.309 41.0258 161.809 40.2068C161.559 39.7973 161.196 39.6381 160.741 39.7518C160.219 39.8656 160.06 40.2523 160.241 40.7073C160.537 41.5036 160.514 42.1861 159.673 42.5956C158.833 43.0278 158.128 42.8686 157.424 42.1178C157.06 41.7311 156.765 41.2761 156.379 40.9121C155.993 40.5253 155.515 40.2523 154.947 40.4343C154.243 40.6391 154.039 41.2988 153.834 41.8903C153.743 42.1633 153.811 42.5273 153.925 42.8003C154.22 43.5511 153.993 44.1198 153.63 44.8478C152.971 46.1901 153.88 47.3731 155.379 47.3049C156.311 47.2594 157.242 47.0091 158.174 46.9181C158.492 46.8954 158.787 47.1456 158.81 47.4869C158.81 47.6461 158.674 47.8964 158.537 47.9874C158.174 48.2149 157.788 48.3969 157.401 48.5334C157.106 48.6244 156.765 48.6016 156.447 48.5789C155.425 48.5789 152.63 47.1229 151.903 46.3266C151.721 46.1219 151.335 46.0991 151.017 46.0081C150.63 45.3939 150.949 44.7568 150.971 44.1426C150.653 43.0051 150.04 43.9833 149.585 43.9606C148.995 44.1198 148.427 44.0971 147.904 43.8013C147.54 43.5056 147.381 43.1188 147.336 42.6638C147.336 42.3681 147.381 42.0951 147.495 41.8221C148.018 41.5491 148.063 41.2306 147.563 40.8666C147.404 40.4571 147.404 40.0476 147.586 39.6381C147.79 39.2513 147.949 38.8645 148.177 38.5005C149.358 35.9753 151.38 33.7912 151.176 30.72C152.107 28.9227 153.902 28.991 155.515 28.7407C156.083 28.6497 156.492 29.082 156.742 29.5825C157.56 31.266 158.787 32.4945 160.628 33.0632C160.991 33.177 161.514 33.5637 161.537 33.8595C161.65 35.6568 163.49 36.8853 163.195 38.819C163.013 40.0021 163.536 41.0713 163.831 42.1861V42.1178Z" fill="#64975E"/>
<path fill-rule="evenodd" clip-rule="evenodd" d="M103.846 73.4452C103.119 73.3087 102.71 72.8082 102.619 72.1712C102.12 68.2127 101.12 64.3224 101.211 60.2728C101.256 58.5893 101.143 56.7921 100.711 55.1085C100.893 54.79 101.12 54.5853 101.461 54.4488C101.938 54.2668 102.438 54.1985 102.938 54.1758C105.687 54.2895 108.436 54.5625 111.185 54.6308C110.14 58.2481 112.98 61.7744 111.367 65.4371C111.14 65.9831 111.844 66.5519 112.094 67.1434C112.071 67.5757 112.049 67.9852 112.003 68.4174C111.776 68.6222 111.503 68.7132 111.208 68.6904C109.595 68.1899 108.686 69.0544 107.891 70.3057C106.936 71.83 105.755 73.1722 103.824 73.4907L103.846 73.4452Z" fill="#B79F5B"/>
<path fill-rule="evenodd" clip-rule="evenodd" d="M113.364 119.446C114.454 120.47 115.908 120.788 117.181 121.448C117.408 121.607 117.499 121.812 117.431 122.085C117.272 122.449 116.999 122.722 116.681 122.904C116.431 122.995 116.204 122.972 115.954 122.858L115.886 122.699C115.318 122.062 114.432 122.54 113.818 122.085C113.409 122.039 112.977 122.017 112.568 121.948C110.455 121.562 108.297 121.198 106.911 119.378C105.366 117.353 104.071 115.237 103.73 112.552C103.412 109.868 103.457 107.297 104.275 104.704C104.798 102.997 105.048 101.177 105.411 99.4256C105.502 99.0161 105.48 98.5383 105.684 98.1971C107.274 95.2623 107.502 91.8953 108.683 88.824C109.865 85.7527 110.955 82.6359 112.091 79.5419C112.568 78.2451 112.909 76.8801 114.113 76.0156C114.409 76.1066 114.772 76.1066 115.022 76.2886C116.045 77.0621 116.113 77.7219 115.204 78.5864C114.613 79.1551 114.045 79.5647 114.772 80.3837C115.113 80.7704 115 81.1572 114.841 81.5667C114.477 82.4539 114.159 83.3412 113.75 84.2057C113.568 84.5925 113.046 84.911 113.068 85.2522C113.182 87.6182 111.705 89.37 110.864 91.372C110.705 91.8725 110.637 92.4185 110.387 92.8508C109.751 93.8745 108.865 94.6708 110.001 96.0813C110.728 96.9686 109.456 97.6966 108.933 98.4246C110.092 101.155 108.183 103.339 107.434 105.636C105.502 111.551 105.866 113.758 110.41 117.853C110.773 118.013 111.137 118.149 111.501 118.263C111.75 118.331 111.978 118.422 112.205 118.536C112.432 118.627 112.637 118.763 112.841 118.923C113.023 119.105 113.182 119.287 113.364 119.469V119.446Z" fill="#2C452A"/>
<path fill-rule="evenodd" clip-rule="evenodd" d="M60.4451 87.4361C61.0358 87.3679 61.2857 86.1621 62.1946 87.0266C64.035 88.7784 66.0571 88.5054 68.0793 87.2541C68.6927 86.9811 69.3062 86.8446 69.9651 87.0494C70.2832 87.1859 70.4877 87.4134 70.6013 87.7319C71.7601 89.8022 71.5556 92.0772 71.2375 94.2384C70.9648 96.013 70.6695 97.7647 70.5104 99.562C70.5104 99.835 70.1923 100.063 70.0105 100.336C68.3974 99.198 68.67 97.6282 68.9881 96.0357C69.238 94.8072 69.8515 93.6242 69.5561 91.7132C68.9427 95.7627 68.1247 99.198 69.1926 102.747C69.5107 103.816 69.2608 104.886 68.1702 105.5C67.1704 106.069 66.3298 105.568 65.58 104.931C64.5348 104.044 63.6033 103.043 62.24 102.588C61.3766 102.315 61.1948 101.541 61.3993 100.768C62.1037 97.9695 61.263 95.3077 60.5814 92.0544C60.6723 95.8082 60.3314 99.016 61.3766 102.133C61.5584 102.656 61.4448 103.179 60.8767 103.475C59.468 101.814 58.9227 99.926 59.0591 97.7192C59.2181 94.8072 58.6047 91.8724 59.309 88.9604C59.3772 88.6646 59.1727 88.3689 58.8091 88.3234C58.1957 88.2324 57.5822 88.1414 56.9688 88.0504C57.764 85.8664 59.15 86.8446 60.4451 87.3906V87.4361Z" fill="#AB9258"/>
<path fill-rule="evenodd" clip-rule="evenodd" d="M147.899 39.6381C147.899 40.0704 147.876 40.5026 147.854 40.9349C147.99 41.0714 148.035 41.2079 147.99 41.3444C147.945 41.4809 147.899 41.5491 147.831 41.5491C147.831 41.7539 147.808 41.9814 147.785 42.1861C147.217 42.8686 147.695 43.6194 147.695 44.3246C147.672 45.1664 147.149 45.9626 147.581 46.8044C148.058 47.7144 149.853 48.0784 148.853 49.6254C148.172 50.6492 146.831 50.0804 145.695 50.8312C147.831 53.6522 146.786 56.2913 145.809 59.4308C144.718 63.0026 142.991 66.5516 142.855 70.3281C142.787 72.3074 143.877 74.4231 144.605 76.2659C145.195 77.7674 147.695 78.6092 149.603 79.2917C150.376 79.5647 151.33 79.5192 151.625 80.543C151.875 81.271 152.602 81.5667 153.488 82.272C151.966 82.4085 150.853 82.4995 149.762 82.6132C148.694 82.181 147.626 81.7032 146.513 81.362C145.059 80.8842 143.809 80.179 142.764 79.0642C142.537 78.8367 142.173 78.6319 142.128 78.3817C141.696 76.3342 140.106 74.6052 140.242 72.4894C140.31 71.3291 139.152 70.5556 139.606 69.4864C139.992 68.6219 140.787 67.9394 141.037 67.0521C141.469 65.6416 141.787 64.1628 141.833 62.7068C141.878 61.0915 142.173 59.5445 142.469 57.9975C142.81 56.132 143.378 54.2665 142.651 52.3555C142.446 51.855 142.582 51.3089 142.9 50.8539C144.65 48.3742 145.195 45.4166 146.104 42.5956C147.445 38.4778 148.74 34.3373 151.194 30.6973C151.375 30.7883 151.716 30.8565 151.739 30.9703C151.853 32.1988 151.898 33.4273 151.262 34.5193C150.398 36.0436 149.421 37.5451 148.513 39.0466C148.308 39.2286 148.104 39.4333 147.945 39.6608L147.899 39.6381Z" fill="#406138"/>
<path fill-rule="evenodd" clip-rule="evenodd" d="M69.9952 87.4359C69.3363 87.7089 68.7001 87.7089 68.1094 87.2539C68.223 86.5486 68.8364 86.2301 69.2454 85.7751C69.6317 85.3428 70.0179 85.2518 70.6314 85.2518C73.5851 85.2518 75.63 84.7286 77.8794 83.5456C78.4928 83.2271 78.97 82.7266 78.72 82.0213C78.3565 80.9748 78.2883 79.9283 78.3792 78.8818C78.6519 76.0152 77.6067 73.4672 76.6752 70.8737C76.5616 70.578 76.4707 70.2367 76.2435 70.0092C74.4712 68.2347 74.3803 65.8232 73.8805 63.6164C73.3125 61.1594 73.0398 58.6113 72.54 56.1316C72.1083 53.9703 71.2221 51.9 71.2221 49.6023C71.2221 48.5103 70.4724 47.441 70.0634 46.349C69.7226 45.4617 69.3136 44.5972 68.9728 43.71C68.7683 43.1412 69.1773 42.709 69.3817 42.2312C70.0634 41.7307 70.2906 42.3222 70.6314 42.709C71.6766 45.3025 72.7217 47.9188 73.7896 50.5123C75.4028 57.9743 77.1069 65.4592 79.8788 72.5572C81.1512 75.7878 81.8555 78.9273 81.9918 82.3171C82.1055 84.7286 80.9921 86.0481 78.8564 86.7533C77.4022 86.7761 75.9708 86.8216 74.5167 86.8443C73.108 87.6179 71.4721 86.7306 70.0407 87.3904L69.9952 87.4359Z" fill="#1F2F1C"/>
<path fill-rule="evenodd" clip-rule="evenodd" d="M115.96 122.857C116.165 122.72 116.369 122.584 116.573 122.47C116.823 122.425 116.982 122.288 117.073 122.038C117.164 121.856 117.21 121.651 117.187 121.446C117.8 121.333 118.437 121.287 119.05 121.105C119.664 120.923 120.277 120.764 120.913 120.991C119.823 125.109 120.05 129.341 119.845 133.549C119.777 134.983 119.618 136.188 121.708 136.461C124.049 136.78 124.003 135.301 124.299 133.845C124.617 132.275 124.639 130.706 124.73 129.113C124.798 128.021 124.594 126.429 126.184 126.383C127.502 126.36 127.23 127.998 127.639 128.886C127.911 129.477 127.888 130.342 127.457 131.024C127.207 132.321 128.207 133.595 127.48 134.869C126.525 136.029 127.57 137.531 126.821 138.714C126.775 139.487 126.343 140.101 125.98 140.738C125.662 141.33 125.162 141.671 124.458 141.694C123.503 141.739 122.526 141.648 121.618 141.899C120.209 142.285 119.141 141.762 118.073 141.057C117.732 140.829 117.278 140.511 117.232 140.17C116.937 138.418 115.619 136.985 115.801 135.051C115.915 133.595 115.596 132.116 115.392 130.637C114.983 127.998 115.097 125.405 115.96 122.857Z" fill="#96773A"/>
<path fill-rule="evenodd" clip-rule="evenodd" d="M29.8724 52.47C30.145 53.6985 30.4177 54.927 30.7131 56.1328C31.0312 57.475 31.1902 58.7945 30.4631 60.0686C29.5316 59.5908 29.3271 58.6808 28.8954 57.202C29.5543 60.3416 28.8272 62.8213 28.4183 65.3011C28.1229 67.0984 27.0323 68.3496 24.942 68.3496C22.9198 68.3496 22.2154 66.9846 21.7383 65.3921C21.0567 63.1626 21.3748 60.7511 20.4659 58.294C19.08 60.0913 20.625 62.5028 18.8073 63.8906C18.1711 63.3218 18.2393 62.5711 18.262 61.8431C18.3074 59.6591 18.3302 57.4523 18.4892 55.2683C18.5574 54.2445 17.7394 54.472 17.3077 54.1535C17.1714 52.834 18.3529 53.2207 18.9664 52.9022C22.4199 51.7647 25.919 51.5372 29.5089 52.1287C29.6225 52.2425 29.7361 52.3562 29.8724 52.4472V52.47Z" fill="#A18E54"/>
<path fill-rule="evenodd" clip-rule="evenodd" d="M60.4522 87.4362C59.7933 87.8002 59.0662 87.6865 58.3619 87.6865C57.862 87.6865 57.3394 87.5955 56.9759 88.096C55.3854 88.0277 53.795 87.9822 52.2045 87.8912C51.2502 87.8457 50.1142 88.0505 49.4325 87.5727C48.501 86.9357 48.501 85.5252 48.1147 84.4559C47.115 81.6804 47.0468 78.8821 47.9784 76.0383C48.7282 73.7406 49.1599 71.3291 49.9551 69.0085C50.6822 66.9383 50.7958 64.6633 51.2502 62.502C51.432 61.683 51.6592 60.8412 52.0227 60.0905C53.6359 56.6324 54.8174 53.0151 55.9762 49.3751C56.2261 48.5561 56.4306 47.7371 56.6578 46.9181C56.7714 46.4858 57.0441 46.1673 57.4303 45.9626C57.9302 45.8033 58.4073 45.5758 58.9299 45.5076C59.3616 45.4393 59.7706 46.0081 59.5888 46.3493C59.2934 46.8953 59.0208 47.5096 58.5664 47.9418C57.7484 48.7154 57.3167 49.6254 57.2713 50.7401C57.2713 51.1496 57.2713 51.6501 57.0668 51.9914C55.7944 54.2209 55.4763 56.7689 54.6356 59.1349C54.4539 59.6127 54.2948 60.2042 53.9313 60.5227C52.8634 61.501 52.7498 62.7067 52.7952 64.0262C52.818 64.9818 52.8407 65.9373 52.7952 66.8928C52.7952 67.416 52.8407 68.0075 52.6362 68.4625C51.1821 71.4428 50.7276 74.6961 49.9778 77.8584C49.8415 78.4954 49.5916 79.0869 49.8415 79.7239C50.2959 80.7476 50.1823 81.7941 50.2732 82.8634C50.4095 84.7062 51.2729 85.6162 53.0679 85.6389C55.0673 85.6389 57.0895 85.9119 59.0889 85.4342C60.1341 85.1839 60.2704 85.3432 60.4295 86.5489C60.4749 86.8675 60.4295 87.1859 60.4295 87.5045L60.4522 87.4362Z" fill="#212F1C"/>
<path fill-rule="evenodd" clip-rule="evenodd" d="M31.7983 17.7987C31.5938 18.0262 31.3439 18.2537 31.2076 18.504C30.5941 19.596 30.5941 19.596 29.0945 19.4367C28.7537 20.1875 29.708 20.4832 29.6853 21.052C29.6853 21.8255 30.7986 22.8265 29.8216 23.2133C29.0718 23.5318 28.5947 22.2122 28.2311 21.5297C27.5268 20.233 27.0042 18.8452 28.322 17.4802C28.6401 17.1389 28.4356 16.6839 27.8903 16.2517C25.391 14.3634 25.4365 14.3179 22.9145 16.1152C22.5736 16.3654 22.1874 16.5474 21.8239 16.7522C21.1649 17.0934 20.6196 16.8204 20.3924 16.0469C20.2107 15.4099 20.4152 15.0459 21.1649 15.1142C21.6648 15.1597 22.0283 14.9777 21.9147 14.4089C21.8011 13.7947 21.5966 13.2259 21.6648 12.5662C21.8466 11.0874 21.7784 11.0646 20.1652 10.7689C20.1652 10.4731 20.1198 9.92713 20.2334 9.88163C21.8693 9.35838 22.6872 7.97061 23.5506 6.6966C24.1641 5.80934 24.8685 5.05859 25.8 4.48984C26.5044 4.05758 27.3223 4.19408 27.754 4.87659C28.1857 5.60459 28.6174 6.35535 28.9128 7.12886C29.7307 9.31288 30.5032 11.4969 31.2076 13.7037C31.6393 15.0004 31.9347 16.3654 31.8211 17.7532L31.7983 17.7987Z" fill="#4F7B47"/>
<path fill-rule="evenodd" clip-rule="evenodd" d="M127.449 131.001C127.404 130.478 127.449 129.909 127.29 129.431C126.972 128.544 127.359 127.27 126.018 126.883C125.177 127.657 125.564 128.658 125.586 129.545C125.632 132.002 124.882 134.368 124.723 136.803C124.678 137.462 123.95 137.872 123.337 137.826C122.292 137.713 121.406 136.348 120.133 137.44C119.906 137.644 118.566 135.847 118.747 135.278C119.225 133.595 119.27 131.957 118.657 130.296C118.566 130.068 118.679 129.613 118.861 129.431C120.133 128.135 119.952 126.861 118.997 125.45C118.248 124.313 118.316 123.949 119.406 123.016C120.088 122.447 120.633 121.856 120.906 121.037C121.019 120.9 121.179 120.786 121.338 120.718L121.519 120.536C122.337 120.24 122.905 120.9 123.61 121.082C123.405 122.265 122.633 123.494 123.996 124.654C124.723 123.926 124.291 122.151 125.973 122.333C126.382 122.242 126.791 122.174 127.2 122.106C126.722 123.198 126.541 124.29 127.154 125.405C127.768 126.542 127.722 127.816 127.995 129.022C128.154 129.727 128.108 130.478 127.472 131.047L127.449 131.001Z" fill="#C8AC6C"/>
<path fill-rule="evenodd" clip-rule="evenodd" d="M111.277 55.1537C110.868 55.1082 110.413 54.9717 110.05 55.0627C107.55 55.6769 105.097 55.0627 102.643 54.8579C101.052 53.1289 98.8938 52.5146 96.7808 51.9004C92.4411 50.6264 91.2141 48.7609 91.9639 44.1881C92.123 43.2326 92.123 42.2771 92.4183 41.3671C92.6001 40.8893 92.8728 40.5025 93.3045 40.2295C93.6226 40.0703 93.9179 40.093 94.2133 40.275C95.622 40.275 95.3493 41.5263 95.7129 42.3226C96.5763 42.0951 96.6217 40.8893 97.5987 40.821C97.8487 40.7755 97.985 40.912 98.0304 41.1623C98.3031 43.3463 97.7578 45.2801 96.5536 47.1001C96.4854 47.2139 96.5536 47.5324 96.6672 47.6461C96.7808 47.7826 97.0307 47.8736 97.2125 47.8736C97.8941 47.8736 98.3258 47.3504 98.8256 46.9864C100.166 46.0081 101.28 46.5541 101.461 48.3286C101.575 49.4889 101.984 50.2624 103.188 50.6491C104.074 50.9449 104.892 51.4454 105.778 51.8094C107.073 52.3554 108.118 53.1517 108.891 54.3347C111.254 53.5157 113.64 53.1744 115.98 54.4029C114.753 55.0854 113.367 54.9034 112.072 55.2219C111.822 55.4039 111.572 55.3812 111.322 55.2219L111.277 55.1537Z" fill="#55834E"/>
<path fill-rule="evenodd" clip-rule="evenodd" d="M94.2186 40.2511C94.0368 40.2738 93.8551 40.2966 93.6506 40.3194C93.3779 40.4786 93.1734 40.7061 92.9917 40.9564C92.8781 42.5261 92.8554 44.0731 92.4237 45.6201C91.7875 47.9179 93.4234 49.2602 94.8548 50.6479C94.9911 50.7845 95.2411 50.9209 95.4001 50.8755C97.445 50.4204 98.8764 52.0812 100.694 52.377C102.148 52.6272 102.534 53.5827 102.603 54.834C102.171 54.834 101.717 54.834 101.285 54.8112C100.649 54.4927 99.8761 54.743 99.2399 54.4245C98.6265 53.4917 97.445 54.4017 96.7634 53.6965H96.7406C96.1953 53.0822 95.3319 53.56 94.7412 53.1277C94.5367 53.1732 94.3549 53.1277 94.2186 52.9685C93.9914 52.7865 93.7642 52.6272 93.4915 52.5362H93.4688C93.128 52.013 92.6736 51.6035 92.2192 51.194C90.3106 49.6242 90.1743 47.5994 90.8105 45.4154C90.9695 44.9149 91.1967 44.3916 91.1967 43.8684C91.0377 37.6803 93.1507 31.7198 93.0598 25.509C93.0144 23.0292 93.9914 20.5039 94.4913 18.0242C94.6049 17.5009 94.923 16.7956 94.6957 16.4999C93.3325 14.5661 94.5821 13.8609 96.0817 13.2011C96.6725 13.0419 96.4453 12.4276 96.6952 12.0863C97.0814 12.0863 97.604 11.9271 97.854 12.1318C98.2175 12.4276 97.9676 12.9281 97.7403 13.2921C97.5131 13.6561 97.2632 13.9974 96.9451 14.2931C96.2862 14.9301 96.1272 15.7036 96.1499 16.5909C96.1953 17.8421 96.2408 19.1162 95.6727 20.3219C95.3774 20.9589 95.6273 21.5504 96.1045 22.0509C96.8997 22.9382 96.6043 23.2794 95.5137 23.3022C95.3092 23.3022 94.9911 23.6662 94.9002 23.9392C94.5594 24.9402 94.0596 25.873 94.1505 26.9877C94.2186 27.7157 94.1504 28.4665 94.1732 29.2173C94.2413 31.424 93.9914 33.608 93.6506 35.7921C93.9232 36.2471 93.9232 36.6793 93.6051 37.1116C92.8326 38.3173 92.8326 38.3628 93.696 38.5903C94.3625 38.7723 94.567 39.2349 94.3095 39.9781C94.3095 39.9781 94.2186 40.1601 94.1732 40.2739L94.2186 40.2511Z" fill="#2D452A"/>
<path fill-rule="evenodd" clip-rule="evenodd" d="M163.809 57.4965C163.604 56.905 163.468 56.268 163.172 55.722C162.468 54.448 162.218 53.0603 162.673 51.718C163.127 50.4212 162.695 49.4885 162.059 48.4647C161.559 47.6685 161.627 47.1224 162.15 46.9177C162.945 46.5992 163.718 46.8267 164.104 47.4865C164.149 47.5775 164.218 47.6685 164.24 47.7595C164.831 49.7842 165.899 51.6952 165.672 53.902C165.535 55.267 165.944 56.4045 167.035 57.2918C168.603 58.5203 169.284 60.3176 170.011 62.0693C171.034 62.8201 170.602 63.9121 170.648 64.8676C170.738 66.4601 171.556 66.4601 172.692 65.9369C173.738 66.7331 173.669 67.9844 173.965 69.0764C174.192 69.1902 174.26 69.3722 174.169 69.5997C174.078 69.8044 173.919 69.9182 173.692 69.9409C173.283 70.2139 173.942 70.2822 173.806 70.5097C173.715 71.9657 173.533 73.3989 173.647 74.855C173.329 75.6512 173.374 76.7887 172.056 76.6977C170.261 73.3534 167.308 70.5552 167.103 66.4146C166.989 64.1396 166.353 62.0693 164.717 60.3858C163.945 59.6123 163.536 58.634 163.786 57.4965H163.809Z" fill="#659761"/>
<path fill-rule="evenodd" clip-rule="evenodd" d="M60.9002 103.498C61.0366 102.861 61.1502 102.156 60.6957 101.678C59.8096 100.723 59.7642 99.6082 59.7642 98.4252C59.7642 96.4004 59.7188 94.3984 59.7188 92.3736C59.7188 91.6456 59.8551 90.9176 59.9914 90.1896C60.0141 90.0531 60.2868 89.8938 60.4458 89.8711C60.6049 89.8711 60.923 90.0076 60.9457 90.1213C61.4001 92.0779 61.8545 94.0116 62.2635 95.9909C62.3771 96.5142 62.2408 97.1057 62.4453 97.5607C62.9906 98.7437 62.7179 99.7674 62.1044 100.837C61.65 101.633 61.9454 102.065 62.8315 101.883C63.5813 101.724 63.9676 101.838 64.422 102.452C65.1263 103.362 65.9216 104.226 66.7622 105.045C67.3303 105.614 68.1937 105.296 68.5345 104.477C68.898 103.612 68.8071 102.793 68.1937 102.111C67.4893 101.292 67.353 100.45 67.8301 99.4717C68.2164 98.6754 68.0573 97.8109 68.08 96.9692C68.1028 96.1274 68.0346 95.2401 68.2618 94.4439C68.5345 93.5111 68.8298 92.6466 68.3527 91.6911C68.2618 91.5319 68.3073 91.2589 68.3754 91.0769C68.5799 90.5536 68.9662 90.2123 69.5569 90.1896C70.1704 90.1896 70.6021 90.4854 70.6021 91.0996C70.6021 92.4646 70.8293 93.8524 70.1704 95.1491C69.307 96.8554 69.2615 98.5844 70.034 100.336C70.0113 101.587 69.9204 102.861 69.9659 104.113C70.0113 105.66 69.3524 106.615 67.8983 107.252C66.3987 107.912 66.3987 108.071 65.2627 106.911C64.7174 106.365 64.1039 106.046 63.4223 105.751C62.3544 105.273 61.4455 104.568 60.9002 103.476V103.498Z" fill="#7B5B2D"/>
<path fill-rule="evenodd" clip-rule="evenodd" d="M70.5817 42.7541C70.1727 42.5948 69.741 42.4356 69.3321 42.2763C69.0367 42.1626 68.6504 42.1171 68.4687 41.9123C67.7643 41.1161 67.06 40.7976 65.9694 41.2526C64.6743 41.7986 63.2656 41.5711 61.9023 41.4573C60.9481 41.3891 60.2437 40.5246 60.5618 39.7283C61.0389 38.5225 60.6527 37.0438 61.357 36.0655C62.6067 34.3365 62.8793 32.1297 64.288 30.5145C64.4243 30.3552 64.5152 30.1505 64.6516 30.014C65.0378 29.6272 65.4695 29.3542 66.0603 29.4907C66.5374 29.5817 66.6964 29.9685 66.81 30.4007C66.8782 30.6055 66.9464 30.8557 67.1054 30.9467C67.5371 31.2197 67.8779 30.9467 68.1733 30.651C69.1957 32.198 69.1503 33.9953 69.4229 35.7243C69.2866 35.7925 69.173 35.8608 69.0367 35.929C68.1506 35.656 68.0824 34.8143 67.8779 33.7905C67.2417 35.5423 67.787 36.4295 69.1957 36.8618C69.2866 36.9755 69.3775 37.0665 69.4684 37.1803C69.8546 39.0231 70.8316 40.7748 70.559 42.7541H70.5817Z" fill="#61925A"/>
<path fill-rule="evenodd" clip-rule="evenodd" d="M110.184 16.6373C110.32 16.0458 110.979 15.4543 110.479 14.8628C109.639 13.839 109.412 12.565 108.957 11.382C108.798 10.9497 108.662 10.6085 108.116 10.6767C107.435 10.7677 107.185 10.4947 107.162 9.81223C107.162 8.87948 107.049 7.92396 106.935 6.9912C106.867 6.46795 106.708 5.9447 106.503 5.46695C105.64 3.51043 103.231 3.19192 101.845 4.87544C101.028 5.87644 100.528 7.01396 100.55 8.37897C100.55 9.19798 99.3689 9.99423 98.4828 9.74398C97.8693 9.58473 98.1874 8.78848 97.9375 8.35622L98.0511 8.15147C98.4374 7.92397 98.3692 7.46896 98.551 7.12771C98.6418 6.83196 98.7555 6.5362 98.8463 6.2632C99.0281 6.14945 99.119 5.99019 99.119 5.76269C99.9597 4.69343 100.778 3.57867 101.641 2.55491C102.186 1.91791 102.845 1.37191 103.64 1.03065C104.572 0.6439 105.594 0.803147 106.231 1.57665C106.685 2.14541 107.071 2.80517 107.344 3.46493C109.571 8.69747 111.82 13.93 113.956 19.1853C114.456 20.4366 115.501 21.5058 115.433 22.9846C115.569 23.3714 115.569 23.8036 115.773 24.1904C115.819 24.4634 115.887 24.7136 115.955 24.9866C115.228 24.9411 114.501 24.9866 113.956 24.2814C112.774 22.7344 111.343 21.3011 111.865 19.0488C111.888 18.9351 111.638 18.7303 111.502 18.5711C111.479 18.3663 111.434 18.1388 111.434 17.9341C111.229 17.7066 111.047 17.4791 110.798 17.3198C110.616 17.0695 110.434 16.842 110.184 16.66V16.6373Z" fill="#2D4228"/>
<path fill-rule="evenodd" clip-rule="evenodd" d="M24.8397 140.035C27.6798 142.651 27.9297 146.064 27.7252 149.567C27.6116 151.66 27.3844 153.753 27.1345 155.824C27.0209 156.757 26.771 157.689 26.4529 158.554C26.0666 159.578 25.2714 159.964 24.1808 159.669C24.4762 157.826 23.59 156.415 22.5222 155.073C21.9996 149.931 21.3634 144.79 23.9081 139.921C24.2262 139.717 24.5443 139.739 24.8397 140.012V140.035Z" fill="#C6B076"/>
<path fill-rule="evenodd" clip-rule="evenodd" d="M23.3691 155.39C23.7553 155.731 24.1188 156.05 24.5051 156.368C25.7547 157.437 25.7775 157.938 24.5733 159.258C24.4369 159.394 24.3233 159.553 24.187 159.712L24.0052 159.804C22.8919 160.463 21.5514 160.395 20.4153 160.987C20.2563 161.009 20.12 161.055 19.9836 161.123C19.7564 161.214 19.5292 161.351 19.3247 161.487C18.8703 161.487 18.4159 161.487 17.9615 161.487C17.7797 161.373 17.5979 161.282 17.4162 161.191C16.5755 160.327 15.5303 159.872 14.3716 159.644C12.1222 157.688 12.8038 154.935 12.6448 152.501C12.4176 148.929 12.5085 145.334 12.2812 141.74C13.2355 139.738 14.3034 139.761 15.3031 141.672C16.0075 143.014 15.962 144.515 15.9848 145.994C15.9848 147.791 15.9848 149.589 15.9848 151.363C15.9848 155.845 18.325 157.21 22.3012 155.071C22.7329 154.844 23.0964 154.958 23.3691 155.367V155.39Z" fill="#4D331D"/>
<path fill-rule="evenodd" clip-rule="evenodd" d="M15.192 24.2578C15.8509 24.6673 16.6006 25.2361 16.3053 25.9868C15.6464 27.6931 16.487 29.2856 16.5098 30.9464C16.5098 31.9246 16.6006 32.7436 15.9645 33.5626C14.7375 35.1779 14.0332 37.0207 13.7151 39.0454C13.4197 40.911 12.8744 42.731 12.6472 44.5965C12.4882 45.9388 12.3746 47.3265 12.8971 48.6688C13.1244 49.2375 13.1698 49.8973 13.1925 50.5116C13.2152 51.5126 12.3973 51.9448 11.443 51.4216C10.9886 51.1713 10.5796 50.8301 10.1479 50.5343C9.87526 49.7835 10.1479 49.0783 10.2842 48.373C10.5569 46.917 10.9204 45.461 11.0113 44.005C11.0795 42.8902 10.5569 41.6845 10.7387 40.6152C10.9204 39.5232 12.1474 38.7952 12.3746 37.6122C12.5336 36.7932 12.7608 35.9742 12.9199 35.1552C13.1925 33.8129 13.3743 32.4479 14.0559 31.2194C14.3286 30.2184 14.3513 29.2174 14.0332 28.1936C13.6015 27.3746 13.806 26.6238 14.374 25.9641L14.4649 25.7366C14.6239 25.3953 14.7603 25.0768 14.9193 24.7356C14.9875 24.6218 15.0556 24.5081 15.1465 24.4171L15.2374 24.2578H15.192Z" fill="#2B4127"/>
<path fill-rule="evenodd" clip-rule="evenodd" d="M18.804 63.9117C18.8494 62.4329 18.8721 60.9542 18.9176 59.4754C18.9403 58.5199 19.1448 57.5871 19.6674 56.7681C19.8719 56.4496 20.2808 56.3586 20.4626 56.5861C21.1669 57.4507 21.8486 58.1559 21.8486 59.5664C21.8486 61.8414 21.9395 64.1847 22.8256 66.3687C23.4163 67.8247 25.7793 68.2342 26.8017 67.0285C27.4152 66.3005 27.9378 65.4815 27.9378 64.4805C27.9378 63.0927 28.0968 61.7504 28.3922 60.4082C28.5285 59.8167 28.3695 59.1569 28.2786 58.5199C28.2104 58.1104 27.9605 57.7237 27.9151 57.3141C27.8696 56.6089 27.6197 55.8126 28.4376 55.3349C29.0057 55.0164 29.6191 55.7671 29.8463 57.0184C30.0508 58.0421 30.2553 59.0887 30.4598 60.1124C30.4598 60.3172 30.4371 60.5447 30.4144 60.7494C29.6418 62.1827 30.5052 63.7979 29.8918 65.2312V65.2995C29.3692 65.5497 29.5282 66.164 29.1874 66.5052C28.7785 66.8465 28.8466 67.3925 28.6421 67.8247L28.5967 67.893C28.324 68.0068 28.1195 68.1887 28.0287 68.4845L27.9605 68.5527C27.6651 68.6437 27.4834 68.8257 27.3925 69.1215L27.3243 69.1898C26.6654 69.5993 26.0065 69.4855 25.3703 69.1442C25.1431 69.1442 24.8932 69.167 24.666 69.1898C24.2797 69.3718 23.8707 69.3718 23.4845 69.167L23.2573 69.0305C23.1664 68.803 22.9846 68.6437 22.7574 68.5755C22.1212 68.2797 21.485 67.9612 20.8489 67.6655C19.8946 66.6645 19.6901 65.2312 18.8721 64.1392L18.7812 63.9572L18.804 63.9117Z" fill="#634626"/>
<path fill-rule="evenodd" clip-rule="evenodd" d="M152.953 93.8743C153.271 91.895 153.839 89.9613 153.226 87.9138C152.976 87.072 153.612 86.5715 154.271 86.0938C155.18 86.1165 155.225 87.072 155.702 87.5498C155.884 87.7318 156.043 88.2323 155.93 88.4143C154.68 90.53 155.93 92.9643 154.953 95.1711C154.498 96.1721 154.816 97.5143 155.589 98.4699C156.339 99.4026 156.838 100.381 156.975 101.609C157.066 102.337 157.656 102.633 158.406 102.383C159.565 102.019 160.678 102.178 161.769 102.747C162.61 103.179 162.996 103.862 163.223 104.703L163.132 104.908C162.928 104.976 162.791 105.136 162.723 105.34C162.632 105.477 162.519 105.545 162.36 105.545C161.837 105.795 161.314 105.773 160.792 105.545C160.633 105.545 160.496 105.5 160.406 105.363C160.36 105.136 160.224 104.999 159.974 104.976C159.156 104.794 158.338 104.567 157.52 104.43C155.202 104.089 153.998 102.61 153.635 100.426C153.362 98.7656 153.203 97.0821 153.021 95.3986C152.976 94.8753 152.976 94.3521 152.976 93.8061L152.953 93.8743Z" fill="#5A3C22"/>
<path fill-rule="evenodd" clip-rule="evenodd" d="M78.8089 86.8212C78.8089 86.8212 78.8998 86.6392 78.968 86.5482C79.5133 85.7291 81.081 85.8884 81.1492 84.9101C81.2628 83.1811 82.2398 81.4294 81.2401 79.6548C81.0356 79.2908 80.7857 78.7676 80.922 78.4718C81.6491 76.7201 80.5585 75.5143 79.945 74.0583C79.0816 72.0563 77.8547 70.1453 77.4911 67.9385C77.2412 66.4142 75.7871 65.5042 75.6053 63.98C75.4463 62.5012 75.6507 60.9542 75.1963 59.5892C74.242 56.6316 73.8785 53.6286 73.7422 50.5801C74.2875 50.8303 74.4693 51.2853 74.5374 51.8313C74.8101 54.2656 75.7189 56.4496 76.8777 58.6336C78.15 61.0452 78.6045 63.8207 78.8998 66.5507C79.0134 67.711 79.0589 68.8485 79.6723 69.895C80.0586 70.5548 80.1722 71.26 80.2631 72.0108C80.3312 72.625 80.4676 73.262 80.7629 73.808C81.49 75.1958 82.6488 76.4243 81.899 78.1988C81.8536 78.2671 81.899 78.4263 81.9444 78.4946C83.3304 80.1326 82.5806 81.8616 82.2398 83.6134C81.7399 86.1159 81.7172 86.1841 78.8317 86.8439L78.8089 86.8212Z" fill="#C1D4BE"/>
<path fill-rule="evenodd" clip-rule="evenodd" d="M115.933 54.3572C113.57 54.3572 111.207 54.3117 108.844 54.2889C108.889 53.9704 108.889 53.6519 108.98 53.3562C109.094 52.9239 109.344 52.5144 109.843 52.6737C111.525 53.2424 113.138 53.0149 114.797 52.5599C115.592 52.3324 116.478 52.4689 117.319 52.4007C120.409 52.1732 122.635 49.2384 121.408 46.4401C120.5 44.3471 120.363 42.1631 119.909 40.0246C119.477 38.0453 119.023 36.157 117.887 34.4963C117.705 34.246 117.569 33.9275 117.5 33.6318C117.319 32.9265 117.819 32.7445 118.341 32.5625C118.432 32.79 118.546 33.0175 118.636 33.245C118.841 33.609 118.773 34.1095 119.159 34.3825L119.295 34.5645C119.386 34.7465 119.5 34.9058 119.636 35.0423C121.204 36.885 121.681 39.1373 121.863 41.4578C121.931 42.5271 121.976 43.5281 122.522 44.4836C123.635 46.5311 123.294 48.7834 123.249 50.9674C123.249 51.7409 122.704 52.3097 121.886 52.5144C121.545 52.5599 121.295 52.7874 121.045 52.9922C120.931 53.1287 120.795 53.1969 120.613 53.1514C120.113 53.3562 119.523 53.2879 119.114 53.6974L118.932 53.8112H118.727C117.887 54.2662 116.796 53.6292 116.001 54.3572H115.933Z" fill="#243822"/>
<path fill-rule="evenodd" clip-rule="evenodd" d="M35.5448 126.476C36.8853 128.978 36.5672 131.617 36.0901 134.256C35.9083 135.257 35.2949 135.985 34.2043 136.167C33.5681 136.281 32.9546 136.463 32.5002 136.941C30.6825 138.852 28.4104 139.011 26.002 138.67C25.275 139.079 24.5252 139.33 23.6845 139.057C23.3664 138.92 23.1846 138.67 23.0938 138.329C23.1392 136.554 24.8433 136.736 25.7748 136.031C27.7743 135.189 29.501 133.665 31.8413 133.642C33.0909 133.642 33.3182 132.664 33.3636 131.663C33.4318 130.412 33.3636 129.16 33.25 127.909C33.1818 126.885 32.8637 125.702 34.4769 125.543C35.0222 125.634 35.204 126.112 35.4994 126.453L35.5448 126.476Z" fill="#243A23"/>
<path fill-rule="evenodd" clip-rule="evenodd" d="M12.6972 141.309C13.0835 144.221 13.3334 147.156 13.0607 150.113C12.9471 151.387 12.9244 152.661 13.3561 153.867C13.7424 154.982 13.9241 156.119 13.6742 157.28C13.4697 158.212 14.015 158.895 14.3785 159.646C12.7654 159.441 11.9928 158.485 11.9701 156.893C11.9474 154.868 11.9701 152.866 11.9701 150.841C11.9701 149.476 11.9928 148.089 11.5839 146.746C11.3567 146.018 11.3794 145.29 11.5839 144.562C11.9474 143.311 11.8792 142.037 11.7656 140.763C11.8565 140.627 11.9247 140.49 12.0156 140.354C12.5609 140.445 12.8562 140.718 12.6745 141.309H12.6972Z" fill="#CEC499"/>
<path fill-rule="evenodd" clip-rule="evenodd" d="M111.269 55.1523C111.519 55.1523 111.769 55.1523 112.042 55.1523C112.11 56.6994 112.178 58.2464 112.496 59.7934C112.928 61.9319 112.769 64.1387 112.587 66.3227C112.587 66.5957 112.269 66.8232 112.11 67.0962C110.247 66.7094 109.974 66.4137 110.315 64.9804C110.36 64.7757 110.474 64.5937 110.542 64.3889C111.451 62.0002 111.633 59.7024 109.656 57.6776C109.452 57.4729 109.361 57.1089 109.247 56.8359C108.975 56.2216 109.247 55.8121 109.815 55.6529C110.315 55.5163 110.883 55.6074 111.269 55.1751V55.1523Z" fill="#D5C68E"/>
<path fill-rule="evenodd" clip-rule="evenodd" d="M35.5494 126.476C35.2767 126.271 35.0041 126.067 34.7541 125.862C32.0503 125.862 31.4596 123.086 29.5738 121.994C29.392 121.744 29.2784 121.494 29.1875 121.198C29.1875 121.062 29.1875 120.902 29.1875 120.743C29.6646 120.083 30.5053 119.674 30.5053 118.673C30.5053 118.081 30.8461 117.672 31.4823 117.672C32.0503 117.672 32.5048 118.013 32.732 118.514C33.0046 119.082 33.1182 119.719 33.3909 120.288C33.6635 120.857 33.3909 121.585 33.9589 122.063C34.5269 121.448 34.0498 120.629 34.3451 119.97C34.5042 120.22 34.7996 120.447 34.8223 120.72C35.0949 122.631 35.2994 124.542 35.5266 126.453L35.5494 126.476Z" fill="#688E65"/>
<path fill-rule="evenodd" clip-rule="evenodd" d="M103.844 73.4451C104.321 72.2848 105.82 72.3531 106.434 71.3293C107.002 70.351 107.615 69.3728 108.252 68.44C109.047 67.2798 109.092 67.2798 110.546 67.7575C110.91 67.8713 111.228 68.167 111.569 68.3718C111.819 68.7813 111.796 69.168 111.546 69.5548L111.433 69.8278C111.092 70.0325 111.137 70.4648 110.91 70.7378C109.842 71.9663 108.229 72.3076 106.866 73.0583C105.82 72.8991 104.98 74.2868 103.866 73.4678H103.844V73.4451Z" fill="#5B3B22"/>
<path fill-rule="evenodd" clip-rule="evenodd" d="M165.109 82.567C164.427 82.294 163.496 82.5215 163.109 81.6342C164.223 79.5867 166.427 79.7914 168.199 79.3137C169.721 78.9042 171.153 78.4264 172.425 77.4937C173.516 77.0842 174.493 76.8339 174.038 78.6312C173.765 78.7904 173.493 78.9724 173.493 79.3364C172.948 79.4729 173.129 80.1782 172.675 80.383C172.22 80.9972 171.607 81.2475 170.834 81.3612C168.903 81.657 166.949 81.8617 165.109 82.567Z" fill="#406D3E"/>
<path fill-rule="evenodd" clip-rule="evenodd" d="M172.72 65.9375C172.697 66.256 172.674 66.5518 172.629 66.8703C172.584 67.2115 172.379 67.5528 172.084 67.4845C171.379 67.348 170.698 67.1205 170.016 66.8475C169.698 66.711 169.743 66.3698 169.766 66.0285C169.88 64.709 169.948 63.3667 170.039 62.0472C170.334 61.6605 170.584 61.6832 170.879 62.0472C171.039 62.252 171.288 62.3885 171.493 62.5477C171.902 63.6625 172.311 64.8 172.72 65.9148V65.9375Z" fill="#406D3E"/>
<path fill-rule="evenodd" clip-rule="evenodd" d="M18.8881 53.5841C18.3428 53.7661 17.6611 53.5386 17.3203 54.1756C16.6387 54.2439 15.9571 54.3121 15.2754 54.3804C14.5938 54.0846 13.3442 54.8126 13.2078 53.7661C13.1169 52.9698 14.3666 53.1291 15.0028 52.8106C16.0934 52.2873 17.2976 52.4694 18.4336 52.3556C18.8199 52.1508 19.2516 51.9916 19.5242 52.4693C19.9105 53.1291 19.3879 53.3794 18.8881 53.5841Z" fill="#2B4127"/>
<path fill-rule="evenodd" clip-rule="evenodd" d="M174.058 78.6317C173.861 77.9491 173.414 77.7217 172.717 77.9492C172.285 77.8127 172.035 77.4942 171.922 77.0619C171.967 76.9254 172.013 76.7889 172.058 76.6751C172.899 76.3339 172.535 75.1964 173.331 74.8096C174.626 74.6276 174.285 75.4466 174.149 76.1291L174.671 72.1934C175.489 74.1271 175.512 76.0609 174.671 77.9947C174.557 78.2449 174.262 78.4269 174.035 78.6544L174.058 78.6317Z" fill="#729F6F"/>
<path fill-rule="evenodd" clip-rule="evenodd" d="M174.663 72.1691C174.322 72.6924 174.049 73.2611 174.276 73.8754C174.526 74.5806 174.572 75.2632 174.481 76.0822C174.049 75.5817 173.686 75.1721 173.345 74.7626C172.754 73.7161 172.618 72.6469 173.05 71.4866C173.254 70.9179 173.254 70.2581 173.345 69.6666L173.39 69.6211C173.549 69.6211 173.686 69.6666 173.845 69.7121C174.754 70.0533 173.981 71.0771 174.595 71.5549C174.708 71.7596 174.731 71.9416 174.685 72.1691H174.663Z" fill="#406D3E"/>
<path fill-rule="evenodd" clip-rule="evenodd" d="M20.4375 160.988C21.0964 159.009 22.6641 159.668 24.0274 159.805C23.8684 160.624 23.0958 160.92 22.596 161.42C21.6644 162.33 21.619 162.285 20.4375 161.011V160.988Z" fill="#C6B076"/>
<path fill-rule="evenodd" clip-rule="evenodd" d="M33.0446 115.031C32.0676 113.826 31.9313 112.324 31.7722 110.914C31.6132 109.458 31.7722 107.979 31.8177 106.5C31.8631 106.591 31.9767 106.659 31.9767 106.773C32.3403 109.526 32.6811 112.279 33.0446 115.054V115.031Z" fill="#688E65"/>
<path fill-rule="evenodd" clip-rule="evenodd" d="M18.8906 64.0938C20.0494 64.981 20.4356 66.3233 20.8673 67.62C19.345 66.9375 19.1406 65.5043 18.8906 64.0938Z" fill="#A18E54"/>
<path fill-rule="evenodd" clip-rule="evenodd" d="M127.484 134.849C127.325 133.916 127.188 132.983 127.029 132.073C126.938 131.618 127.052 131.254 127.461 131.004C128.029 132.278 128.37 133.552 127.484 134.849Z" fill="#C8AC6C"/>
<path fill-rule="evenodd" clip-rule="evenodd" d="M29.892 65.2084C29.9602 63.7068 29.4376 62.1371 30.4146 60.7266C30.5282 62.2508 30.8917 63.8206 29.892 65.2084Z" fill="#A18E54"/>
<path fill-rule="evenodd" clip-rule="evenodd" d="M69.9922 87.4366C70.3784 87.0499 70.8556 86.8906 71.3782 86.8906C72.4006 86.8906 73.4458 86.8906 74.4682 86.8906C73.9002 87.4594 73.1731 87.4594 72.446 87.5276C71.8326 87.5731 71.2191 87.6869 70.6057 87.7551C70.4012 87.6641 70.1967 87.5504 69.9922 87.4594V87.4366Z" fill="#376039"/>
<path fill-rule="evenodd" clip-rule="evenodd" d="M126.819 138.692C126.819 137.851 126.773 137.009 126.773 136.167C126.773 135.621 126.978 135.143 127.478 134.848C127.341 136.144 127.909 137.555 126.819 138.692Z" fill="#C8AC6C"/>
<path fill-rule="evenodd" clip-rule="evenodd" d="M103.874 73.4677C104.374 73.3312 104.919 73.2629 105.374 73.0582C105.896 72.8307 106.374 72.8079 106.873 73.0582C106.26 73.3994 105.669 73.7862 105.033 74.0364C104.533 74.2412 104.033 74.1047 103.852 73.4677H103.874Z" fill="#B79F5B"/>
<path fill-rule="evenodd" clip-rule="evenodd" d="M0.373305 131.662C0.73684 131.89 0.98677 132.231 0.98677 132.686C0.98677 133.619 1.00949 134.574 1.03221 135.507C0.100655 134.347 0.0552128 133.05 0.373305 131.685V131.662Z" fill="#659761"/>
<path fill-rule="evenodd" clip-rule="evenodd" d="M13.9897 28.2168C14.7395 29.2178 14.6713 30.2188 14.0124 31.2426C13.7171 30.2416 13.9897 29.2406 13.9897 28.2168Z" fill="#365E38"/>
<path fill-rule="evenodd" clip-rule="evenodd" d="M20.1454 10.8359C20.1454 11.5639 20.1909 12.2919 20.2136 13.02C20.2136 13.475 19.9637 13.7935 19.5547 13.9982C19.6001 12.9062 19.4411 11.7914 20.1454 10.8359Z" fill="#4F7B47"/>
<path fill-rule="evenodd" clip-rule="evenodd" d="M1.03125 135.484C1.98553 135.848 2.68988 136.44 2.91709 137.486C1.89464 137.191 1.21302 136.576 1.03125 135.484Z" fill="#659761"/>
<path fill-rule="evenodd" clip-rule="evenodd" d="M25.3672 69.1211C26.0261 69.1211 26.6623 69.1439 27.3212 69.1666C26.7532 70.3269 26.685 70.3724 25.9352 69.8036C25.708 69.6216 25.549 69.3486 25.3672 69.1438V69.1211Z" fill="#A18E54"/>
<path fill-rule="evenodd" clip-rule="evenodd" d="M115.953 54.333C116.703 53.4003 117.703 53.6278 118.68 53.7643C117.884 54.4695 116.93 54.4923 115.953 54.333Z" fill="#55834E"/>
<path fill-rule="evenodd" clip-rule="evenodd" d="M96.8047 53.6981C97.7135 53.6754 98.6905 53.4024 99.2813 54.4261C98.3724 54.4716 97.509 54.3124 96.8047 53.6981Z" fill="#55834E"/>
<path fill-rule="evenodd" clip-rule="evenodd" d="M23.6404 138.783C24.4356 138.737 25.2535 138.692 26.0488 138.646C25.7761 138.828 25.5262 139.033 25.2535 139.215C25.0718 139.443 24.8446 139.579 24.5492 139.579C24.0493 139.534 23.3223 139.738 23.6404 138.76V138.783Z" fill="#4B7B4A"/>
<path fill-rule="evenodd" clip-rule="evenodd" d="M9.67116 140.035C10.4664 139.739 11.2616 139.898 12.0341 140.058C12.0341 140.194 12.0341 140.331 12.0341 140.467C11.9432 140.558 11.8524 140.626 11.7615 140.74C11.1026 140.353 10.171 140.808 9.64844 140.035H9.67116Z" fill="#CEC499"/>
<path fill-rule="evenodd" clip-rule="evenodd" d="M174.578 71.5787C173.874 71.1464 174.078 70.3502 173.828 69.7359C173.874 69.5084 173.942 69.3037 173.987 69.0762C174.782 69.7814 174.873 70.6232 174.578 71.5787Z" fill="#729F6F"/>
<path fill-rule="evenodd" clip-rule="evenodd" d="M32.4134 19.801C31.5728 19.346 31.5955 18.6407 31.8227 17.8672C32.368 18.4132 32.527 19.073 32.4134 19.801Z" fill="#4F7B47"/>
<path fill-rule="evenodd" clip-rule="evenodd" d="M34.2568 119.513C33.5297 119.035 33.507 118.352 33.6433 117.602C34.2568 118.102 34.3704 118.762 34.2568 119.513Z" fill="#688E65"/>
<path fill-rule="evenodd" clip-rule="evenodd" d="M10.7326 54.2656C11.028 54.3339 11.3688 54.2884 11.5052 54.6524C11.2325 54.7661 10.9371 54.8571 10.6645 54.9709C10.3615 54.7282 10.3843 54.4931 10.7326 54.2656Z" fill="#2B4127"/>
<path fill-rule="evenodd" clip-rule="evenodd" d="M99.2578 54.4264C100.008 54.2444 100.689 54.2672 101.303 54.8132C101.098 54.9042 100.894 54.9952 100.689 55.0862C100.167 54.9497 99.5759 54.9724 99.2578 54.4264Z" fill="#55834E"/>
<path fill-rule="evenodd" clip-rule="evenodd" d="M113.82 122.084C114.593 121.971 115.388 121.857 115.888 122.699C115.115 122.79 114.456 122.471 113.82 122.084Z" fill="#44723F"/>
<path fill-rule="evenodd" clip-rule="evenodd" d="M35.9141 52.788C36.3912 52.3103 36.5957 52.3103 37.0728 52.7425C36.6866 53.1066 36.323 53.0838 35.9141 52.788Z" fill="#A18E54"/>
<path fill-rule="evenodd" clip-rule="evenodd" d="M92.2109 51.2188C92.8926 51.4008 93.3243 51.833 93.4606 52.5383C92.6881 52.4473 92.2791 51.9923 92.2109 51.2188Z" fill="#55834E"/>
<path fill-rule="evenodd" clip-rule="evenodd" d="M160.766 105.569C161.288 105.342 161.811 105.342 162.333 105.569C161.811 106.115 161.288 106.115 160.766 105.569Z" fill="#9E874C"/>
<path fill-rule="evenodd" clip-rule="evenodd" d="M94.7812 53.1288C95.5538 52.9468 96.2808 52.9241 96.7807 53.6976C96.0309 53.7886 95.3493 53.6748 94.7812 53.1288Z" fill="#55834E"/>
<path fill-rule="evenodd" clip-rule="evenodd" d="M29.8167 51.8548C30.4529 51.8548 31.0891 51.9003 31.7253 51.9003L31.6117 52.1733C31.0437 52.2643 30.4756 52.3553 29.8849 52.4463L29.7031 52.2188C29.7486 52.0823 29.794 51.9458 29.8394 51.832L29.8167 51.8548Z" fill="#A18E54"/>
<path fill-rule="evenodd" clip-rule="evenodd" d="M96.6916 12.0859C96.8279 12.6547 96.7598 13.0869 96.0781 13.2007C96.0781 12.7002 96.2145 12.3134 96.6916 12.0859Z" fill="#588951"/>
<path fill-rule="evenodd" clip-rule="evenodd" d="M29.1868 66.4831C29.0505 65.8688 29.2777 65.4821 29.8684 65.2773C29.9593 65.8688 29.7094 66.2556 29.1868 66.4831Z" fill="#A18E54"/>
<path fill-rule="evenodd" clip-rule="evenodd" d="M23.5 69.1211C23.8863 69.1211 24.2725 69.1211 24.6815 69.1438C24.2725 69.6671 23.8863 69.7126 23.5 69.1211Z" fill="#A18E54"/>
<path fill-rule="evenodd" clip-rule="evenodd" d="M115.797 24.1667C115.342 23.8709 115.32 23.4387 115.456 22.9609C115.865 23.2794 115.933 23.6889 115.797 24.1667Z" fill="#3E693C"/>
<path fill-rule="evenodd" clip-rule="evenodd" d="M110.914 70.7381C110.845 70.2831 111.005 69.9874 111.436 69.8281C111.55 70.3059 111.436 70.6471 110.914 70.7381Z" fill="#D5C68E"/>
<path fill-rule="evenodd" clip-rule="evenodd" d="M172.672 80.3824C172.672 79.8137 172.922 79.4497 173.49 79.3359C173.49 79.8819 173.24 80.2459 172.672 80.3824Z" fill="#729F6F"/>
<path fill-rule="evenodd" clip-rule="evenodd" d="M28.6456 67.7805C28.5547 67.2344 28.6002 66.7339 29.1909 66.4609C29.3727 67.0524 29.3045 67.5302 28.6456 67.7805Z" fill="#A18E54"/>
<path fill-rule="evenodd" clip-rule="evenodd" d="M111.554 69.5541C111.554 69.1673 111.554 68.7578 111.577 68.3711C111.713 68.3711 111.872 68.3711 112.008 68.3711C112.099 68.8716 112.077 69.3266 111.531 69.5769L111.554 69.5541Z" fill="#D5C68E"/>
<path fill-rule="evenodd" clip-rule="evenodd" d="M98.5775 7.12891C98.7365 7.62941 98.6229 8.01617 98.0776 8.15267C97.9867 7.67491 98.1685 7.33366 98.5775 7.12891Z" fill="#588951"/>
<path fill-rule="evenodd" clip-rule="evenodd" d="M31.5938 52.1964L31.7074 51.9234C32.1845 51.8097 32.5935 51.8097 32.8207 52.3557C32.4117 52.3102 32.0027 52.2419 31.5938 52.1964Z" fill="#626F3B"/>
<path fill-rule="evenodd" clip-rule="evenodd" d="M119.07 53.6976C119.434 53.1289 119.934 52.9696 120.57 53.1516C120.184 53.6749 119.706 53.8796 119.07 53.6976Z" fill="#55834E"/>
<path fill-rule="evenodd" clip-rule="evenodd" d="M33.6213 117.534C32.9851 117.216 32.9624 116.67 33.0987 116.078C33.5077 116.465 33.7122 116.943 33.6213 117.534Z" fill="#688E65"/>
<path fill-rule="evenodd" clip-rule="evenodd" d="M119.137 34.3602C118.546 34.1782 118.478 33.7459 118.614 33.2227C119.069 33.4729 119.205 33.8824 119.137 34.3602Z" fill="#3E693C"/>
<path fill-rule="evenodd" clip-rule="evenodd" d="M19.3281 161.488C19.3736 161.056 19.6462 160.987 19.987 161.124C19.9189 161.533 19.7144 161.715 19.3281 161.488Z" fill="#C6B076"/>
<path fill-rule="evenodd" clip-rule="evenodd" d="M17.4219 161.168C17.7172 161.055 17.9217 161.1 17.9672 161.464C17.6264 161.669 17.4446 161.578 17.4219 161.168Z" fill="#C6B076"/>
<path fill-rule="evenodd" clip-rule="evenodd" d="M33.3672 52.6062C33.6626 52.4242 33.867 52.4469 33.9125 52.8337C33.6171 53.0384 33.4354 52.9474 33.3672 52.6062Z" fill="#A18E54"/>
<path fill-rule="evenodd" clip-rule="evenodd" d="M127.609 121.836C127.746 121.495 127.996 121.426 128.314 121.586C128.2 121.995 127.927 121.972 127.609 121.836Z" fill="#C8AC6C"/>
<path fill-rule="evenodd" clip-rule="evenodd" d="M69.4487 35.7246C69.9032 36.2024 69.9032 36.6801 69.4942 37.1806C69.3806 37.0896 69.267 36.9986 69.1534 36.9076C68.9489 36.5891 68.9489 36.2479 69.1534 35.9294C69.2442 35.8611 69.3579 35.7929 69.4487 35.7246Z" fill="#61925A"/>
<path fill-rule="evenodd" clip-rule="evenodd" d="M162.696 105.364C162.651 105.046 162.787 104.909 163.105 104.932C163.196 105.273 163.06 105.433 162.696 105.364Z" fill="#9E874C"/>
<path fill-rule="evenodd" clip-rule="evenodd" d="M159.94 105.021C160.258 104.93 160.395 105.09 160.372 105.408C160.031 105.499 159.918 105.34 159.94 105.021Z" fill="#9E874C"/>
<path fill-rule="evenodd" clip-rule="evenodd" d="M132.156 119.219V119.082L132.247 119.173V119.31L132.156 119.219Z" fill="#C8AC6C"/>
<path fill-rule="evenodd" clip-rule="evenodd" d="M131.382 119.763L131.359 119.627H131.518L131.564 119.786L131.382 119.763Z" fill="#C8AC6C"/>
<path fill-rule="evenodd" clip-rule="evenodd" d="M39.0454 52.8343L39 52.6523L39.2045 52.6979V52.8798L39.0454 52.8343Z" fill="#A18E54"/>
<path fill-rule="evenodd" clip-rule="evenodd" d="M130.842 120.468L130.797 120.309L130.956 120.331L131.001 120.491L130.842 120.468Z" fill="#C8AC6C"/>
<path fill-rule="evenodd" clip-rule="evenodd" d="M129.562 121.06L129.585 120.924L129.676 121.038L129.653 121.174L129.562 121.06Z" fill="#C8AC6C"/>
<path fill-rule="evenodd" clip-rule="evenodd" d="M28.0469 68.4392C28.0469 68.0524 28.2286 67.8477 28.6149 67.8477C28.6149 68.2344 28.4331 68.4392 28.0469 68.4392Z" fill="#A18E54"/>
<path fill-rule="evenodd" clip-rule="evenodd" d="M22.7812 68.5304C23.1448 68.4849 23.2811 68.6669 23.2811 68.9854C22.9176 69.0309 22.7812 68.8716 22.7812 68.5304Z" fill="#A18E54"/>
<path fill-rule="evenodd" clip-rule="evenodd" d="M27.3906 69.0766C27.3906 68.6671 27.5724 68.5078 27.9586 68.5078C27.9586 68.8946 27.7769 69.0766 27.3906 69.0766Z" fill="#A18E54"/>
<path fill-rule="evenodd" clip-rule="evenodd" d="M121 52.9931C121.159 52.6064 121.432 52.4471 121.841 52.5154C121.704 52.9021 121.409 53.0841 121 52.9931Z" fill="#55834E"/>
<path fill-rule="evenodd" clip-rule="evenodd" d="M93.5078 52.5365C93.8713 52.4682 94.1213 52.6047 94.2349 52.9687C93.8486 53.0597 93.5987 52.9232 93.5078 52.5365Z" fill="#55834E"/>
<path fill-rule="evenodd" clip-rule="evenodd" d="M2.89844 137.465C3.26197 137.465 3.5119 137.647 3.60279 138.011C3.23925 138.011 2.98932 137.852 2.89844 137.465Z" fill="#659761"/>
<path fill-rule="evenodd" clip-rule="evenodd" d="M24.6648 139.283C24.8466 139.147 25.0284 139.124 25.2556 139.215C25.1193 139.488 24.9829 139.761 24.8466 140.034L24.5967 139.852C24.4376 139.715 24.3922 139.579 24.4604 139.442C24.5285 139.329 24.5967 139.283 24.6648 139.283Z" fill="#C6B076"/>
<path fill-rule="evenodd" clip-rule="evenodd" d="M99.1454 5.76172C99.2818 6.03472 99.1909 6.21673 98.8728 6.26223C98.7137 5.96647 98.8046 5.80722 99.1454 5.76172Z" fill="#588951"/>
<path fill-rule="evenodd" clip-rule="evenodd" d="M119.616 35.0188C119.343 34.996 119.207 34.8368 119.275 34.541C119.593 34.541 119.73 34.7003 119.616 35.0188Z" fill="#3E693C"/>
<path fill-rule="evenodd" clip-rule="evenodd" d="M15.1008 24.4414C15.1008 24.6007 15.0099 24.7144 14.8736 24.7827L14.8281 24.5324L15.0781 24.4642L15.1008 24.4414Z" fill="#365E38"/>
<path fill-rule="evenodd" clip-rule="evenodd" d="M14.4161 25.7598L14.3253 25.9873L14.2344 25.8053L14.4161 25.7598Z" fill="#365E38"/>
<path fill-rule="evenodd" clip-rule="evenodd" d="M130.458 93.2367C130.163 93.1685 130.027 92.9637 130.049 92.668C130.39 92.7135 130.549 92.8955 130.458 93.2367Z" fill="#52854E"/>
<path fill-rule="evenodd" clip-rule="evenodd" d="M173.486 79.3368C173.464 78.9273 173.645 78.6998 174.032 78.6543C174.077 79.0638 173.85 79.2686 173.486 79.3368Z" fill="#729F6F"/>
<path fill-rule="evenodd" clip-rule="evenodd" d="M29.8278 51.8548C29.8278 51.9913 29.7596 52.1278 29.6914 52.2415C28.2827 52.5828 26.7832 52.287 25.3745 52.8103C24.9655 52.9695 24.352 52.742 23.8749 52.5828C23.1024 52.3325 22.4435 52.4235 21.8527 52.9923C20.9893 53.834 19.9442 53.6975 18.899 53.5383C19.202 52.9164 19.0429 52.5069 18.4219 52.3098C19.6261 49.9892 21.4438 49.3068 23.9203 50.0803C25.4881 50.558 27.2149 50.467 28.6008 51.6273C28.8735 51.8548 29.4188 51.7865 29.8278 51.832V51.8548Z" fill="#626F3B"/>
<path fill-rule="evenodd" clip-rule="evenodd" d="M25.754 16.5919C25.7995 17.1834 25.4132 17.5019 24.8906 17.6384C24.7543 17.6839 24.4362 17.5474 24.3908 17.4109C24.1863 16.8194 24.5044 16.4326 25.0269 16.2279C25.3223 16.1141 25.595 16.2279 25.754 16.5919Z" fill="#4F7B47"/>
<path fill-rule="evenodd" clip-rule="evenodd" d="M29.8175 121.404C30.9081 122.223 32.4077 122.587 32.6349 124.316C32.794 125.385 34.339 124.93 34.748 125.863C34.2254 126.022 33.6574 126.227 33.9073 126.909C34.6116 128.866 34.2027 130.868 34.2027 132.824C34.2027 134.326 33.4983 134.917 31.976 134.53C31.0217 134.303 30.2492 134.439 29.6358 134.963C28.5679 135.895 27.1819 136.1 26.0004 136.76C23.3648 135.622 20.82 137.875 18.0935 136.965C17.1847 136.669 17.0938 138.057 16.8439 138.808C16.7303 139.103 16.5031 139.285 16.2304 139.376C15.3897 139.331 14.5491 139.308 13.6857 139.263C13.3676 139.263 13.0722 139.103 12.9813 138.762C12.8677 138.398 13.1177 138.17 13.3676 137.988C14.2537 137.397 14.7081 136.646 14.231 135.554C13.9129 134.826 14.1855 134.348 14.8672 134.007C15.2534 133.825 15.617 133.62 15.9805 133.393C16.7984 132.915 17.162 132.233 16.8666 131.254C16.7076 130.754 16.6621 130.208 16.4122 129.73C15.5034 127.887 16.4804 126.522 17.5482 125.18C17.8663 124.793 18.3435 124.862 18.5934 125.294C18.8206 125.635 18.9342 126.067 19.0933 126.454C19.3659 127.114 20.0021 127.319 20.5928 127.523C21.1381 127.705 21.8652 127.228 22.0015 126.568C22.1379 125.999 21.9334 125.567 21.3426 125.294C19.525 124.452 19.3205 124.043 19.8203 122.291C20.1384 121.153 20.6156 120.152 21.7289 119.515C22.7286 118.924 23.6147 118.173 24.5236 117.445C25.137 116.967 25.7278 116.99 26.2049 117.536C26.7502 118.173 27.1592 118.924 27.7272 119.561C28.1362 120.016 28.6815 120.357 29.1813 120.744C29.3631 120.994 29.5903 121.199 29.8175 121.381V121.404Z" fill="#3D693C"/>
<path fill-rule="evenodd" clip-rule="evenodd" d="M24.6669 139.283C24.6669 139.465 24.6442 139.669 24.5987 139.851C23.6672 140.966 23.3037 142.217 23.3718 143.673C23.4173 144.629 23.4627 145.562 23.0764 146.472C22.9174 146.859 22.7356 147.359 22.8492 147.7C23.599 149.862 22.5993 152.046 22.9401 154.184C23.0083 154.594 23.2128 154.98 23.3491 155.39C22.7584 155.39 22.3948 155.663 22.213 156.254C21.895 157.278 21.1906 157.847 20.1 157.87C19.2139 157.87 18.3959 157.779 18.2142 156.641C18.146 156.209 17.8961 155.868 17.3735 155.663C17.1008 156.186 16.8509 156.755 16.5328 157.278C16.3283 157.619 15.5785 157.528 15.4877 157.164C15.3286 156.55 15.1468 155.936 15.1014 155.322C14.8288 152.364 15.0332 149.384 15.1241 146.404C15.1696 144.811 15.1696 143.241 14.5561 141.694C14.1244 140.625 14.1698 140.602 12.693 141.307C12.4658 141.034 12.2613 140.761 12.0341 140.488C11.9886 140.352 11.9886 140.215 12.0341 140.079C12.9656 140.033 13.9199 139.965 14.8515 139.92C15.3741 139.897 15.9194 139.92 16.2147 139.374C16.3738 139.328 16.4647 139.237 16.4874 139.078C18.6459 137.531 20.9407 137.667 23.2809 138.464C23.3491 138.623 23.4627 138.737 23.6445 138.805C23.7808 139.396 24.3034 139.192 24.6896 139.328L24.6669 139.283Z" fill="#A89154"/>
<path fill-rule="evenodd" clip-rule="evenodd" d="M113.368 119.446C113.163 119.446 112.959 119.446 112.754 119.4C112.527 119.241 112.323 119.059 112.164 118.831L112.118 118.786C111.686 118.49 111.277 118.422 110.868 118.786C110.096 118.9 109.323 118.922 109.028 118.012C108.733 117.171 108.324 116.488 107.392 116.238C106.438 115.988 105.893 115.123 105.938 114.35C106.029 112.939 104.643 111.529 105.983 110.141C106.074 110.027 106.074 109.663 105.983 109.572C104.507 108.321 105.506 107.365 106.324 106.364C106.574 106.046 106.892 105.659 106.915 105.272C107.119 102.815 108.619 100.768 108.96 98.3789C109.505 98.4699 110.028 98.6064 110.119 99.2434C110.278 100.313 110.21 101.336 109.846 102.383C109.551 103.247 109.891 103.543 111.005 103.702C111.3 103.748 111.664 103.702 111.914 103.816C112.436 104.066 112.686 104.521 112.459 105.136C112.277 105.659 111.641 105.932 111.187 105.659C110.755 105.409 110.482 104.84 109.869 104.863C109.687 104.863 109.437 104.976 109.323 105.113C109.21 105.249 109.142 105.522 109.187 105.682C109.301 105.977 109.505 106.228 109.71 106.478C112.164 109.549 112.118 109.549 112.959 113.326C113.141 114.145 113.163 114.714 112.504 115.282C112.05 115.692 112.141 116.283 112.436 116.738C112.732 117.171 113.118 117.557 113.459 117.944C113.89 118.445 113.595 118.922 113.39 119.4L113.368 119.446Z" fill="#52854E"/>
<path fill-rule="evenodd" clip-rule="evenodd" d="M125.96 122.29C125.505 122.791 124.824 123.064 125.21 124.065C125.642 125.225 125.392 125.635 124.687 125.771C123.324 125.999 122.597 125.566 122.62 124.292C122.62 123.564 122.347 123.155 122.029 122.632C121.62 121.949 121.756 121.767 122.733 121.38C123.029 121.267 123.324 121.153 123.597 121.039C124.437 121.358 124.915 122.359 125.96 122.29Z" fill="#96773A"/>
<path fill-rule="evenodd" clip-rule="evenodd" d="M121.517 120.491L121.312 120.673V120.445L121.517 120.491Z" fill="#96773A"/>
<path fill-rule="evenodd" clip-rule="evenodd" d="M163.81 57.4968C164.537 58.6116 164.877 60.0221 166.195 60.7046C166.968 61.1141 166.763 61.9786 167.059 62.6156C167.558 63.7304 168.467 64.7087 167.695 66.0737C167.604 66.2329 167.831 66.7107 168.036 66.8927C168.535 67.3477 168.354 67.7344 168.149 68.2577C167.695 69.4634 167.763 69.873 168.854 70.1687C170.376 70.601 170.876 71.4882 170.808 72.9215C170.762 73.6722 170.967 74.3547 171.58 74.9007C172.125 75.3557 172.057 76.0383 172.057 76.6525C171.626 77.972 171.012 79.0868 169.353 78.7C168.263 78.4498 167.581 79.2005 166.763 79.6555C161.219 82.7041 156.13 80.611 151.063 78.2678C150.495 77.9948 150.109 77.426 150.359 76.6753C150.359 75.8335 150.359 74.969 150.359 74.1272C150.359 73.3082 150.745 72.7167 151.358 72.2162C151.608 72.0115 151.904 71.8067 152.199 72.057C152.426 72.239 152.654 72.512 152.767 72.785C153.108 73.5812 151.949 74.4685 152.744 75.1737C153.381 75.7425 153.994 76.2885 154.403 77.062C154.494 77.244 154.698 77.3578 154.857 77.4715C155.198 77.6763 155.562 77.4715 155.653 77.2213C156.084 76.152 156.471 75.0827 156.811 73.9907C156.925 73.6495 156.516 73.513 156.221 73.4447C155.266 73.1945 154.835 72.512 154.812 71.5565C154.789 69.9639 154.767 68.3942 154.267 66.8244C153.971 65.9372 154.062 64.9134 154.449 64.0034C154.994 62.6611 154.744 61.2734 154.789 59.9084C154.789 59.4989 154.721 59.0666 154.585 58.6799C154.403 58.1566 153.449 57.7926 154.176 57.1101C154.585 56.7233 155.176 57.1328 155.675 57.2238C156.357 57.3603 156.652 57.0191 156.425 56.3138C156.198 55.6086 156.153 55.0171 157.22 55.1991C157.629 55.2673 158.107 55.4493 158.447 55.2901C159.288 54.9261 159.811 55.3583 160.47 55.7223C161.56 56.3138 162.378 57.4968 163.787 57.4741L163.81 57.4968Z" fill="#406D3E"/>
<path fill-rule="evenodd" clip-rule="evenodd" d="M150.378 76.6755C150.628 77.0167 150.832 77.4945 151.15 77.631C154.558 79.0188 157.944 80.4065 161.715 80.5658C163.897 80.6568 165.623 79.8833 166.987 78.4045C167.986 77.3125 168.759 77.0623 169.895 78.0405C170.281 78.3818 170.622 78.1315 170.917 77.7675C171.235 77.358 171.667 77.0395 172.053 76.6982C172.258 77.1305 172.485 77.54 172.69 77.9723C171.644 79.2235 170.44 79.8378 168.713 79.997C166.805 80.179 164.965 81.0663 163.079 81.6578C160.557 81.9308 158.057 81.9308 155.649 80.9298C154.331 80.3838 152.968 80.5885 151.605 80.543C151.127 80.3155 150.673 79.7695 150.173 80.0198C149.128 80.543 148.378 80.3383 147.697 79.4283C146.947 78.4273 145.902 78.086 144.72 77.7903C143.062 77.3808 142.584 75.7655 143.425 74.0592C143.72 73.4677 143.698 73.1492 143.016 72.899C141.494 72.3302 141.539 72.3075 141.789 71.0107C142.244 68.3944 142.766 65.8009 144.198 63.5031C144.561 62.8889 144.493 62.2974 144.243 61.6831C143.811 60.5684 144.061 59.5901 144.97 58.8166C146.811 57.2013 146.152 54.949 146.379 52.947C146.424 52.4693 145.902 52.0143 145.288 51.9688C144.902 51.946 144.47 52.2873 144.084 51.673C144.288 51.2635 144.47 50.763 144.766 50.3535C145.356 49.489 146.083 48.9658 147.174 49.5118C147.447 49.6483 147.788 49.671 148.083 49.6255C148.401 49.58 148.674 49.3298 148.674 48.9657C148.674 48.7837 148.583 48.5335 148.446 48.4197C148.219 48.2377 147.901 48.1012 147.628 48.0102C146.061 47.5325 146.015 47.5097 146.402 46.2357C146.606 45.5305 146.924 44.848 147.197 44.1655C147.401 43.938 147.447 43.5512 147.833 43.5057H149.719C150.446 43.4374 151.15 43.5057 151.65 44.12C151.696 44.8252 151.309 45.394 151.014 45.9855C149.923 47.0775 150.287 48.397 150.65 49.5572C150.946 50.581 151.037 51.3773 150.31 52.1963C149.901 52.6513 149.991 53.0835 150.287 53.6068C151.264 55.404 151.059 56.2913 149.492 57.2468C149.06 57.5198 148.515 57.6108 148.037 57.8383C147.878 57.9066 147.765 58.1796 147.765 58.3616C147.765 58.4981 147.992 58.6801 148.151 58.7483C148.446 58.8621 148.787 58.8621 149.083 58.9758C149.696 59.2033 149.742 59.7721 149.673 60.2953C149.628 60.7504 149.401 61.1371 148.901 61.0916C148.492 61.0689 148.083 60.8869 147.674 60.8413C147.197 60.7958 146.833 61.0461 146.742 61.5011C146.538 62.4566 146.424 63.4121 147.469 64.0264C148.015 64.3449 148.515 64.7771 149.06 65.0729C149.514 65.3231 150.173 65.3459 150.264 65.9601C150.355 66.5744 150.355 67.2342 150.264 67.8484C150.196 68.2352 149.878 68.5992 149.628 68.9404C149.242 69.5092 149.105 70.1007 149.378 70.7377C149.605 71.2382 149.628 71.716 149.469 72.262C148.924 73.9227 149.764 75.2877 150.446 76.6755H150.378Z" fill="#6B9F67"/>
<path fill-rule="evenodd" clip-rule="evenodd" d="M93.625 37.089C93.625 36.6568 93.6704 36.2018 93.6704 35.7695C94.2157 36.2473 94.2385 36.6795 93.625 37.089Z" fill="#3E693C"/>
<path fill-rule="evenodd" clip-rule="evenodd" d="M110.188 16.6367C110.392 16.8642 110.596 17.069 110.801 17.2965C110.596 17.0917 110.392 16.8642 110.188 16.6367Z" fill="#3E693C"/>
<path fill-rule="evenodd" clip-rule="evenodd" d="M110.797 17.2969C111.138 17.3651 111.342 17.5926 111.433 17.9111C111.229 17.7064 111.001 17.5016 110.797 17.2969Z" fill="#3E693C"/>
<path fill-rule="evenodd" clip-rule="evenodd" d="M151.041 85.6396C151.314 84.9116 150.973 84.2291 150.859 83.3191C151.95 83.1826 152.859 83.5011 153.79 83.9333C153.29 85.3438 152.223 85.6396 150.996 85.5714L151.041 85.6168V85.6396Z" fill="#FEFEFE"/>
<path fill-rule="evenodd" clip-rule="evenodd" d="M17.5085 84.6146C17.6902 84.6828 17.8493 84.7738 18.031 84.8421C17.9629 85.0241 17.9174 85.2743 17.7811 85.3198C17.6448 85.3653 17.4403 85.2061 17.2812 85.1151C17.3494 84.9331 17.4403 84.7738 17.5085 84.5918V84.6146Z" fill="#4B7B4A"/>
<path fill-rule="evenodd" clip-rule="evenodd" d="M8.10264 111.55C8.14809 112.301 8.10264 113.029 7.73911 113.712C6.64851 115.736 6.62578 117.92 6.78483 120.127C6.85299 121.015 6.62578 121.788 6.33041 122.584C6.1032 123.199 6.51218 124.382 5.42158 124.245C4.69451 124.154 4.60362 123.039 4.53546 122.38C4.44458 121.583 4.87627 120.764 4.899 119.945C4.94444 118.99 4.899 117.989 3.58118 117.829C2.945 117.761 3.03588 117.238 3.12676 116.874C3.42214 115.873 4.10376 114.872 4.05832 113.871C3.99016 112.051 4.85355 111.277 6.35313 110.663C7.67095 110.117 8.0572 110.231 8.07992 111.55H8.10264Z" fill="#40693C"/>
<path fill-rule="evenodd" clip-rule="evenodd" d="M4.46137 129.409C4.30233 129.5 4.12056 129.659 3.96151 129.659C3.80247 129.659 3.64342 129.477 3.48438 129.364C3.64342 129.273 3.82519 129.113 3.98424 129.113C4.14328 129.113 4.30233 129.295 4.46137 129.409Z" fill="#4B7B4A"/>
<path fill-rule="evenodd" clip-rule="evenodd" d="M152.722 38.3398C152.949 38.3626 153.268 38.3853 153.563 38.4763C153.904 38.5901 154.085 38.9086 153.995 39.2044C153.858 39.7049 153.631 40.1826 153.358 40.6376C152.972 41.2974 152.291 41.2974 151.882 40.6376C151.654 40.2736 151.473 39.8869 151.314 39.5001C151.086 38.9086 151.359 38.4763 151.995 38.3853C152.2 38.3626 152.404 38.3626 152.722 38.3398Z" fill="#4E7E4C"/>
<path fill-rule="evenodd" clip-rule="evenodd" d="M151.65 44.0968C150.946 44.0968 150.196 44.2106 149.719 43.4826C149.81 43.3006 149.901 43.1186 150.014 42.982C150.4 42.4588 150.9 42.1175 151.536 42.527C152.263 42.982 151.832 43.5508 151.65 44.0968Z" fill="#4E7E4C"/>
<path fill-rule="evenodd" clip-rule="evenodd" d="M147.858 43.4608C147.653 43.6883 147.449 43.8931 147.222 44.1206C147.222 43.4153 147.085 42.6646 147.79 42.1641C147.79 42.5963 147.835 43.0286 147.858 43.4608Z" fill="#4E7E4C"/>
<path fill-rule="evenodd" clip-rule="evenodd" d="M147.851 41.5479C147.851 41.3431 147.851 41.1383 147.851 40.9336C148.101 41.0246 148.192 41.1838 148.078 41.3658C148.033 41.4568 147.919 41.4796 147.828 41.5479H147.851Z" fill="#4E7E4C"/>
<path fill-rule="evenodd" clip-rule="evenodd" d="M110.867 118.809C111.276 118.172 111.708 118.195 112.117 118.809C111.708 118.809 111.276 118.809 110.867 118.809Z" fill="#44723F"/>
<path fill-rule="evenodd" clip-rule="evenodd" d="M112.164 118.832C112.369 119.014 112.55 119.196 112.755 119.401C112.437 119.355 112.232 119.151 112.164 118.832Z" fill="#44723F"/>
<path fill-rule="evenodd" clip-rule="evenodd" d="M117.07 122.039C117.07 122.358 116.866 122.494 116.57 122.471C116.752 122.335 116.911 122.176 117.07 122.039Z" fill="#44723F"/>
<path fill-rule="evenodd" clip-rule="evenodd" d="M92.9844 40.9573C93.0753 40.6161 93.3025 40.3886 93.6433 40.3203C93.4161 40.5251 93.2116 40.7526 92.9844 40.9573Z" fill="#3E693C"/>
<path fill-rule="evenodd" clip-rule="evenodd" d="M173.33 69.6692C173.171 69.5327 172.989 69.4417 172.876 69.2824C172.739 69.0777 172.83 68.8729 173.08 68.8047C173.126 68.8047 173.217 68.9412 173.262 69.0322C173.308 69.237 173.353 69.4417 173.376 69.6237L173.33 69.6692Z" fill="#406D3E"/>
<path fill-rule="evenodd" clip-rule="evenodd" d="M69.1524 35.9292C69.1524 36.2477 69.1524 36.589 69.1524 36.9075C68.8343 37.2032 68.4935 37.499 68.0618 37.2487C67.6074 36.9985 67.1984 36.6572 66.7667 36.3387C66.3805 36.0657 66.176 35.6334 66.5168 35.2694C67.2439 34.5414 67.0167 33.7452 66.8804 32.9034C66.8576 32.7669 67.0167 32.4939 67.1757 32.4257C67.312 32.3574 67.5847 32.4257 67.721 32.5394C68.2663 32.9034 68.5844 33.4267 68.6299 34.1092C68.6753 34.7462 68.7435 35.3604 69.1297 35.9064L69.1524 35.9292Z" fill="#376039"/>
<path fill-rule="evenodd" clip-rule="evenodd" d="M23.2785 138.442C22.8922 138.374 22.256 138.101 22.1197 138.26C21.0973 139.466 20.0294 139.125 18.8252 138.624C18.03 138.306 17.2347 138.784 16.4622 139.034C16.3713 138.42 15.9396 137.896 16.1668 137.214C16.644 135.781 17.3938 135.348 18.7343 135.985C19.9612 136.577 20.9155 136.736 22.2106 135.872C23.642 134.893 24.5281 135.257 25.9823 136.713C25.6642 137.214 25.1643 137.35 24.619 137.328C23.8465 137.328 23.5057 137.805 23.2558 138.42L23.2785 138.442Z" fill="#4B7B4A"/>
</svg>
