<svg width="361" height="219" viewBox="0 0 361 219" fill="none" xmlns="http://www.w3.org/2000/svg">
<g clip-path="url(#clip0_1_9290)">
<path d="M-0.00168448 107.913C0.875606 108.358 1.61872 108.74 1.69097 108.771C2.69211 107.851 3.55908 107.18 4.28156 106.373C5.74715 104.73 6.82054 102.177 8.60609 101.515C11.0625 100.606 14.0659 101.288 16.7907 100.957C18.9375 100.699 21.5487 100.575 23.0556 99.3135C32.3445 91.5714 41.7264 83.881 50.3755 75.4464C57.0945 68.8931 63.1633 61.5748 68.8502 54.0912C76.9109 43.4859 84.3834 32.4361 92.0416 21.5311C93.115 20.0013 93.8684 18.2441 95.0244 16.1354C97.2744 24.6941 96.521 32.6635 94.3122 40.5606C93.0944 44.9123 91.7629 49.2433 90.2148 53.4916C89.4717 55.5486 88.2951 57.5126 87.0152 59.3111C83.4235 64.3863 80.2756 69.9577 75.8685 74.206C69.2424 80.594 61.7183 86.0517 54.5348 91.8402C48.8376 96.4296 43.1094 100.988 37.3296 105.474C34.9455 107.324 32.4065 108.957 29.3618 111.107C31.2299 111.883 32.3136 112.317 33.3973 112.772C41.9122 116.348 50.4271 119.914 58.9316 123.511C61.5738 124.628 65.0314 125.113 66.6208 127.098C69.4075 130.561 71.1931 134.881 73.1024 138.985C77.9843 149.466 79.7183 161.56 88.873 169.829C90.8547 171.628 92.7847 173.747 95.1379 174.822C100.309 177.179 99.9579 181.427 99.9682 186.264C96.0771 182.409 92.3306 179.039 88.9969 175.308C84.5898 170.367 78.6861 168.062 72.7412 166.356C62.7195 163.472 51.9339 162.687 42.4179 158.717C30.7551 153.849 20.0005 146.717 9.00861 140.308C6.71733 138.975 4.52926 136.794 3.31138 134.458C2.17606 132.297 2.03157 129.413 2.11413 126.881C2.26895 122.736 3.39395 118.591 3.24945 114.477C3.1772 112.358 1.22652 110.312 -0.0429688 107.913H-0.00168448Z" fill="#054965"/>
<path d="M318.962 172.901C317.693 163.66 316.434 154.419 314.999 143.958C312.419 147.979 310.737 151.09 308.59 153.85C304.936 158.543 301.54 163.691 297.03 167.433C289.991 173.273 286.121 172.725 279.536 163.815C275.459 158.305 271.971 152.3 268.854 146.181C265.984 140.537 268.049 134.862 270.732 129.653C272.59 126.055 275.108 122.81 277.131 119.285C278.39 117.104 278.638 115.626 275.5 113.91C269.318 110.509 263.642 106.158 257.924 101.971C256.716 101.093 255.756 99.3045 255.498 97.7953C254.765 93.5367 256.056 91.7278 260.37 92.2343C269.607 93.33 277.719 97.1131 285.491 101.754C287.628 103.036 288.846 105.558 287.679 108.607C286.018 112.959 284.985 117.569 283.148 121.838C281.074 126.665 280.754 131.358 282.797 136.134C284.438 139.989 286.338 143.741 288.464 148.238C290.218 146.573 291.416 145.695 292.272 144.568C297.381 137.829 303.409 131.534 307.176 124.102C310.499 117.538 315.969 115.502 321.656 114.013C327.384 112.515 330.842 114.944 329.335 121.022C325.454 136.599 321.058 152.114 321.274 168.404C321.295 169.882 320.841 171.371 320.604 172.849C320.056 172.859 319.509 172.87 318.962 172.88V172.901Z" fill="#054965"/>
<path d="M100.402 111.095C103.653 110.009 105.831 108.986 108.845 111.239C113.283 114.557 115.027 112.976 116.09 107.446C118.164 96.6648 120.786 85.9769 123.377 75.2992C124.543 70.5031 126.101 65.8 127.639 61.1072C128.124 59.6291 129.115 58.3163 130.859 57.0966C131.035 58.3473 131.448 59.6291 131.355 60.8591C130.147 76.3639 128.867 91.8584 127.608 107.363C127.474 109.007 127.092 110.754 127.464 112.294C127.773 113.575 128.836 114.867 129.91 115.705C131.386 116.862 133.398 117.359 134.812 118.568C140.169 123.157 140.128 125.948 134.823 130.414C134.018 131.085 133.037 131.551 132.139 132.109C132.397 132.471 132.655 132.822 132.903 133.184C139.911 132.129 146.929 131.085 153.937 130.01C164.176 128.439 174.177 129.473 183.992 132.688C187.264 133.763 188.214 136.016 186.965 139.138C186.459 140.399 185.85 141.773 184.89 142.673C176.798 150.27 167.479 155.645 156.28 157.774C159.727 154.012 163.309 150.363 166.581 146.466C169.264 143.262 173.104 139.81 170.771 135.261C168.5 130.848 163.288 131.385 159.418 132.14C150.469 133.887 141.655 136.429 132.872 138.921C130.292 139.654 128.723 141.546 128.878 144.812C129.26 152.73 129.301 160.658 129.383 168.586C129.404 170.261 128.991 171.946 128.775 173.631L127.536 173.982C124.44 165.754 121.343 157.526 118.237 149.298C110.331 153.412 108.432 148.73 104.324 141.37C101.413 136.161 102.28 134.362 106.842 130.041C109.03 127.964 111.249 125.886 113.19 123.592C115.533 120.801 115.027 119.612 111.549 119.043C110.599 118.888 109.619 118.651 108.679 118.733C105.707 118.992 103.663 118.237 102.982 114.898C102.734 113.689 101.506 112.676 100.392 111.115L100.402 111.095Z" fill="#054965"/>
<path d="M199.837 105.689C195.709 105.875 192.045 106.03 188.391 106.196C188.236 105.689 188.082 105.183 187.927 104.676C190.125 102.723 192.158 100.542 194.553 98.8568C198.248 96.252 202.16 93.947 206.03 91.6006C209.24 89.6573 214.297 90.1638 216.547 93.089C217.476 94.2984 217.321 96.4794 217.301 98.2159C217.29 99.2393 216.444 100.221 216.196 101.265C214.7 107.612 215.732 108.873 222.079 109.979C227.157 110.868 232.638 111.302 237.086 113.607C248.367 119.447 248.006 133.867 243.237 142.601C237.901 152.379 231.038 161.052 221.563 167.006C216.723 170.044 210.953 171.605 205.586 173.817C205.08 174.024 204.502 174.045 203.997 174.231C198.217 176.401 195.957 175.068 196.762 168.918C197.412 163.956 198.96 158.953 201.045 154.395C203.161 149.754 210.045 149.506 213.141 153.403C218.725 160.452 218.776 160.494 224.99 153.744C228.303 150.147 231.843 146.632 234.526 142.58C238.448 136.657 236.756 132.916 229.82 131.768C224.463 130.89 218.983 130.59 213.554 130.342C209.116 130.145 205.658 128.419 204.131 124.295C202.624 120.212 201.798 115.881 200.807 111.622C200.322 109.534 200.106 107.374 199.837 105.679V105.689ZM216.64 160.628C213.926 159.201 212.068 158.23 209.622 156.938C209.054 159.915 208.6 162.261 208.146 164.607C208.528 164.866 208.909 165.114 209.291 165.372C211.459 163.967 213.637 162.561 216.64 160.628Z" fill="#054965"/>
<path d="M197.141 46.3496C197.192 50.0398 195.985 51.9313 192.28 51.4042C189.741 51.0424 187.181 50.7943 184.663 50.4946C182.805 59.6631 184.508 61.0275 199.37 62.7537C200.072 67.8806 198.379 69.7619 193.528 69.2037C192.166 69.0486 190.783 68.9246 189.441 68.6248C180.792 66.6816 178.635 63.9321 178.614 54.9186C178.614 53.4301 178.614 51.9313 178.614 49.9674C176.581 49.864 174.889 49.771 173.062 49.678C170.492 58.7121 164.712 64.6349 156.476 68.1804C155.134 68.7592 153.059 68.8522 151.914 68.1804C151.202 67.7566 151.16 65.2861 151.635 64.0664C152.007 63.1258 153.576 62.3712 154.742 62.0715C160.79 60.5313 164.02 56.2934 166.694 50.1431C163.401 50.7633 160.904 51.5282 158.385 51.5799C156.951 51.6109 155.495 50.4842 154.05 49.8847C155.051 48.603 155.856 46.4943 157.085 46.2152C160.532 45.4297 164.155 45.0679 167.695 45.1506C171.225 45.2333 172.391 43.8895 172.019 40.5612C171.844 39.0624 171.575 37.3568 172.112 36.0648C172.67 34.7417 174.156 33.8217 175.239 32.7261C176.303 33.8631 177.964 34.8451 178.295 36.1681C178.976 38.8866 177.975 42.6491 179.492 44.3547C180.803 45.8328 184.642 45.0265 187.346 45.2953C190.577 45.6157 193.807 46.0085 197.12 46.3703L197.141 46.3496Z" fill="#054965"/>
<path d="M261.824 34.3911C260.885 45.0274 258.851 55.519 267.583 64.088C267.16 64.9562 266.923 66.207 266.169 66.8065C264.858 67.8505 263.238 69.0495 261.721 69.1012C260.802 69.1322 259.254 67.2303 258.975 65.9796C257.881 61.1834 256.963 56.3149 256.426 51.4154C256.034 47.8803 256.23 44.2522 256.343 40.6757C256.416 38.1743 255.384 37.244 252.927 37.275C246.187 37.3577 239.448 37.3577 232.718 37.275C229.87 37.244 228.972 38.5464 228.786 41.2753C228.384 47.4358 228.074 53.6481 226.887 59.6743C226.319 62.5478 224.059 65.2147 222.119 67.6127C221.479 68.3983 219.456 68.0675 218.063 68.2433C217.949 66.4137 217.061 63.5401 217.866 62.9303C222.862 59.1678 222.924 53.7721 223.378 48.4695C223.677 44.9137 224.131 41.2649 223.667 37.7712C223.275 34.7736 224.524 34.0914 226.835 33.7916C227.785 33.6676 228.755 33.5435 229.705 33.5435C238.643 33.5332 247.581 33.5125 256.519 33.5952C258.242 33.6159 259.956 34.081 261.834 34.3601L261.824 34.3911Z" fill="#054965"/>
<path d="M230.983 48.6244C233.502 48.2833 235.824 48.0663 238.095 47.6011C238.848 47.4461 239.478 46.6398 240.159 46.1333C239.478 45.6372 238.848 44.8413 238.095 44.7069C235.721 44.2831 233.295 44.097 230.89 43.8179C230.736 43.4355 230.57 43.0634 230.416 42.6809C231.417 41.9057 232.366 40.5206 233.419 40.4482C240.076 39.9934 246.744 39.8384 253.411 39.6006C253.628 39.6006 253.844 39.8797 255.155 40.7687C252.441 41.8023 250.315 42.4432 248.343 43.4148C247.064 44.0454 246.021 45.1514 244.875 46.0506C246.083 46.5881 247.239 47.3117 248.498 47.6218C250.325 48.0766 252.224 48.242 254.381 48.5831C254.061 51.8804 254.051 54.9297 253.328 57.7929C253.07 58.8266 251.12 59.4364 249.737 60.3667C250.645 62.0619 251.822 64.2429 253.473 67.3129H230.023C231.819 64.7287 233.367 62.5064 234.916 60.284C231.334 59.0643 230.333 56.2218 230.983 48.6244ZM243.616 56.0254C246.083 55.953 249.014 58.072 249.592 54.0098C249.737 52.9968 248.364 50.9088 247.445 50.7538C243.255 50.0405 244.153 53.4102 243.616 56.0254ZM239.23 62.2687C239.498 62.6821 239.777 63.0956 240.045 63.509H247.043C247.27 63.1989 247.497 62.8785 247.714 62.5684C246.486 61.4004 245.175 59.2194 244.06 59.3124C242.378 59.4571 240.83 61.204 239.22 62.2687H239.23ZM240.283 52.2112C239.87 51.56 239.457 50.9088 239.054 50.2576C237.671 51.0018 235.834 51.4463 235.081 52.604C234.637 53.2965 235.886 55.0951 236.381 56.3975C237.682 55.0021 238.982 53.6066 240.283 52.2112Z" fill="#054965"/>
<path d="M296.408 55.7978C297.915 55.0019 299.412 54.1646 300.95 53.4307C301.548 53.1413 302.425 53.286 302.89 52.8932C308.432 48.1694 314.687 50.6812 322.056 51.0843C319.208 53.131 317.092 54.6504 314.966 56.1802C315.213 56.635 315.461 57.0899 315.709 57.5447C318.929 58.4026 322.149 59.2502 325.338 60.0978C324.595 64.5218 324.162 64.8423 319.589 64.1497C319.641 69.8761 315.719 69.3283 311.745 69.1112C308.907 68.9562 306.028 69.3386 302.962 69.4937C302.415 67.7778 301.899 66.1343 301.373 64.4701H294.974C296.563 58.5783 302.735 61.8963 305.573 57.9891H297.172C296.914 57.2656 296.656 56.542 296.388 55.8185L296.408 55.7978ZM310.177 67.5401C311.456 66.7752 312.468 66.1757 313.49 65.5658C312.571 65.049 311.642 64.1187 310.724 64.129C309.599 64.1394 308.484 64.9456 307.359 65.4004C308.185 66.031 309.01 66.6511 310.177 67.5401Z" fill="#054965"/>
<path d="M327.715 48.6323H314.029C314.029 43.8051 313.957 39.3191 314.101 34.8433C314.122 34.1508 315.092 32.9207 315.639 32.9104C321.481 32.7657 327.333 32.8174 332.772 32.8174C332.772 44.1566 332.875 54.4311 332.648 64.7056C332.617 66.0286 330.935 67.3104 330.026 68.6128C329.252 67.4137 327.869 66.2457 327.818 65.0157C327.57 59.682 327.715 54.338 327.715 48.6323ZM319.107 42.2236C319.086 42.7198 319.065 43.2056 319.045 43.7017C321.161 46.0791 323.999 44.8594 326.621 44.6941C326.497 43.8671 326.424 42.3373 326.259 42.327C323.885 42.1719 321.501 42.2236 319.117 42.2236H319.107ZM326.92 39.4018C327.198 39.0193 327.477 38.6368 327.756 38.2544C326.951 37.6445 326.146 36.5282 325.351 36.5282C323.297 36.5385 321.254 37.0554 319.21 37.3655C319.767 38.0373 320.252 39.226 320.892 39.2984C322.874 39.5465 324.918 39.3914 326.93 39.3914L326.92 39.4018Z" fill="#054965"/>
<path d="M309.129 33.0649C308.861 39.0187 308.644 43.7839 308.427 48.7247C305.579 48.7247 303.246 48.9418 300.965 48.6731C297.322 48.2493 296.104 49.6033 295.536 53.2935C294.897 57.3971 293.152 61.3766 291.46 65.2218C290.593 67.1858 288.539 69.3668 286.289 67.2685C284.421 65.5216 284.937 63.4129 286.743 60.8908C288.921 57.8416 290.221 53.8103 290.758 50.0375C291.398 45.5928 290.923 40.962 290.727 36.4243C290.593 33.4267 291.666 32.7238 294.639 32.9719C299.231 33.3543 303.886 33.0752 309.14 33.0752L309.129 33.0649ZM300.336 40.3005C301.708 39.6286 302.875 39.0601 304.051 38.4812C302.864 37.8921 301.667 36.8171 300.491 36.8377C299.149 36.8584 297.828 37.8507 296.496 38.4296C297.663 38.9981 298.829 39.5666 300.336 40.3005ZM299.861 41.3961C298.561 42.3574 297.549 43.0913 296.548 43.8252C297.797 44.249 299.046 45.0036 300.294 45.0036C301.378 45.0036 302.462 44.156 303.546 43.6702C302.452 42.988 301.358 42.3161 299.861 41.3961Z" fill="#054965"/>
<path d="M329.823 127.19C334.395 130.57 338.575 133.568 342.652 136.7C346.141 139.367 346.78 144.142 344.138 146.778C341.919 149 337.997 148.308 335.159 145.042C330.845 140.059 328.626 134.385 329.813 127.19H329.823Z" fill="#054965"/>
<path d="M345.919 127.077C349.944 130.57 354.021 134.106 358.097 137.651C358.923 138.364 360.172 138.964 360.451 139.853C360.925 141.424 361.256 143.346 360.74 144.783C360.492 145.476 358.066 145.838 356.766 145.6C349.644 144.277 343.885 133.878 345.929 127.077H345.919Z" fill="#054965"/>
<path d="M197.32 200.639H200.53C201.872 204.557 203.172 208.35 204.772 213.022C207.27 208.371 209.148 204.794 205.123 200.773H209.21C210.604 204.856 211.904 208.681 213.204 212.495C213.524 212.526 213.855 212.547 214.175 212.578C215.341 208.774 216.497 204.98 217.797 200.742C217.787 200.742 218.84 200.742 219.748 200.742C217.612 206.552 215.485 212.361 213.05 218.997C211.44 214.945 210.16 211.699 208.601 207.771C207.105 211.554 205.835 214.769 204.204 218.914C201.748 212.381 199.57 206.593 197.331 200.639H197.32Z" fill="#054965"/>
<path d="M302.304 208.79C303.13 210.785 304.988 213.111 304.461 214.568C303.863 216.253 301.303 217.793 299.322 218.279C296.752 218.91 293.913 218.434 291.405 218.434V200.707C293.469 200.707 296.122 200.283 298.547 200.841C300.436 201.275 302.748 202.588 303.553 204.17C304.162 205.369 302.666 207.622 302.304 208.78V208.79ZM295.028 218.021C297.495 217.152 299.58 216.873 300.952 215.736C301.664 215.147 301.716 212.356 301.025 211.746C299.58 210.475 297.453 209.999 295.028 208.945V218.021ZM295.018 208.552C298.124 208.645 301.21 208.718 301.025 205.038C300.839 201.492 297.908 201.679 295.018 201.978V208.552Z" fill="#054965"/>
<path d="M201.651 7.07997C196.728 8.08261 192.651 8.91987 188.585 9.75713C188.141 6.8629 188.605 6.48045 193.198 6.06699C195.768 5.82925 198.338 5.61218 200.795 5.38478C201.146 3.36916 201.435 1.72565 201.724 0.0821429L202.869 -0.000549316C203.261 1.6843 203.654 3.36916 204.139 5.42613C208.381 5.71555 212.726 6.01531 217.267 6.33574C216.648 9.33333 214.955 9.99487 212.199 9.17829C209.619 8.41338 206.956 7.92757 204.139 7.26603C202.487 13.4163 205.068 19.4218 203.282 24.9518C202.745 24.9312 202.198 24.9105 201.662 24.8898V7.07997H201.651Z" fill="#054965"/>
<path d="M164.022 200.694H168.057C165.436 203.195 162.876 205.635 160.131 208.25C163.248 211.64 166.189 214.845 169.379 218.328H165.25C162.618 215.217 160.471 212.684 158.314 210.152C157.901 210.328 157.499 210.493 157.086 210.669C157.262 213.222 157.437 215.765 157.623 218.4H153.907V200.797H157.747C157.489 203.082 157.21 205.5 156.942 207.93C157.282 208.147 157.633 208.364 157.974 208.581C160.131 206.255 162.288 203.919 164.455 201.593C164.311 201.293 164.166 201.004 164.012 200.704L164.022 200.694Z" fill="#054965"/>
<path d="M232.625 23.3001C238.116 20.4989 242.379 17.2842 241.749 9.83159C237.156 10.4828 232.811 11.103 228.466 11.7128C228.249 11.4027 228.043 11.103 227.826 10.7929C228.931 10.0797 230.014 8.76693 231.129 8.74626C239.83 8.57054 248.541 8.65323 257.582 8.65323C256.56 11.7335 255.218 12.6431 252.287 11.5164C249.831 10.5655 247.075 10.3794 244.443 9.85227C242.152 22.6696 238.395 27.1246 232.636 23.3001H232.625Z" fill="#054965"/>
<path d="M262.673 218.495C256.501 219.064 256.449 212.035 251.887 210.236V218.433H248.141V200.654C250.009 200.654 252.579 200.148 254.798 200.799C256.862 201.419 259.545 202.949 260.123 204.686C260.608 206.153 258.482 208.5 257.048 211.373C258.193 212.82 260.278 215.467 262.673 218.495ZM251.402 208.768C254.467 209.048 257.223 209.068 257.595 205.502C257.894 202.649 255.469 201.202 253.311 201.791C249.348 202.877 252.156 206.288 251.412 208.768H251.402Z" fill="#054965"/>
<path d="M284.178 1.19879C286.191 6.81152 284.251 12.817 285.386 19.5875C289.535 16.4245 293.313 13.5406 297.204 10.574C295.883 15.7733 287.739 22.492 282.713 22.4197V1.36418C283.198 1.31249 283.683 1.25047 284.168 1.19879H284.178Z" fill="#054965"/>
<path d="M268.866 200.686H272.52C272.52 205.172 272.272 209.71 272.685 214.175C272.799 215.416 274.852 217.369 276.06 217.4C277.794 217.442 280.983 216.191 281.086 215.209C281.613 210.496 281.324 205.689 281.324 200.769H284.121C283.367 206.02 283.14 211.446 281.52 216.418C281.066 217.824 276.442 218.661 273.924 218.331C272.303 218.114 270.342 215.478 269.785 213.565C269.042 211.023 269.558 208.118 269.434 205.369C269.372 203.911 269.093 202.474 268.866 200.697V200.686Z" fill="#054965"/>
<path d="M233.515 199.894C236.446 206.437 239.109 212.381 241.834 218.438H238.201C237.458 216.505 237.21 213.756 236.023 213.249C234.083 212.433 231.358 212.619 229.315 213.342C228.375 213.673 228.262 216.309 227.643 218.324H225.465C228.055 212.412 230.646 206.468 233.526 199.894H233.515ZM235.827 211.368C234.774 208.898 233.938 206.944 232.762 204.184C231.668 207.027 230.894 209.032 229.996 211.368H235.817H235.827Z" fill="#054965"/>
<path d="M316.115 218.473H311.884V200.725H316.115V218.473Z" fill="#054965"/>
<path d="M187.742 217.159C181.828 220.922 176.781 218.472 176.45 211.629C176.306 208.621 176.358 205.603 176.223 202.595C176.203 202.027 175.718 201.479 175.356 200.745H179.495C179.495 205.396 178.835 210.161 179.681 214.637C180.507 218.968 184.367 217.686 187.453 216.891L187.742 217.17V217.159Z" fill="#054965"/>
<path d="M266.562 19.7839C274.964 17.0757 276.171 10.2639 276.791 2.25311C277.761 3.64854 278.37 4.11369 278.37 4.57883C278.349 10.481 277.152 16.0317 273.003 20.5281C270.608 23.1226 270.072 23.0605 266.562 19.7839Z" fill="#054965"/>
<path d="M166.315 39.207C164.592 40.7575 163.136 42.277 162.981 42.1633C161.175 40.7265 159.555 39.052 157.883 37.4291C159.132 36.4162 160.907 34.2972 161.516 34.5969C163.198 35.4239 164.395 37.2534 166.305 39.207H166.315Z" fill="#054965"/>
<path d="M186.047 41.6974C186.615 39.7748 186.821 37.6145 187.894 36.0433C188.483 35.1854 190.526 35.3198 191.92 34.9993C192.043 36.3121 192.776 38.121 192.188 38.8342C190.877 40.4053 188.906 41.408 187.213 42.6484L186.068 41.7077L186.047 41.6974Z" fill="#054965"/>
<path d="M251.121 2.82818H234.133C235.072 0.760874 245.197 -0.0247017 251.121 2.82818Z" fill="#054965"/>
<path d="M217.282 18.0986C216.239 19.0599 215.279 19.9489 213.669 21.4373C212.028 18.6051 210.645 16.1967 209.252 13.7883C209.52 13.6126 209.778 13.4265 210.047 13.2508C212.369 14.8013 214.681 16.3621 217.282 18.109V18.0986Z" fill="#054965"/>
<path d="M196.336 14.2337C194.768 16.4148 193.333 18.7095 191.527 20.6734C191.217 21.0145 189.38 19.9395 187.853 19.371C190.763 17.128 193.085 15.3501 195.408 13.5722L196.336 14.2337Z" fill="#054965"/>
<path d="M187.449 216.894C189.771 211.674 189.224 206.382 188.316 200.759C188.894 200.707 189.999 200.625 191.619 200.49C191.216 201.059 190.948 201.255 190.927 201.482C190.628 204.687 190.577 207.922 190.009 211.075C189.627 213.173 188.523 215.137 187.738 217.163L187.449 216.884V216.894Z" fill="#054965"/>
</g>
<defs>
<clipPath id="clip0_1_9290">
<rect width="361" height="219" fill="white"/>
</clipPath>
</defs>
</svg>
