<svg width="311" height="188" viewBox="0 0 311 188" fill="none" xmlns="http://www.w3.org/2000/svg">
<g clip-path="url(#clip0_22_6860)">
<path d="M0.000304529 92.6382C0.753846 93.0197 1.39214 93.348 1.4542 93.3747C2.31412 92.5849 3.0588 92.0082 3.67936 91.316C4.93822 89.9052 5.8602 87.7135 7.39388 87.1456C9.50379 86.3647 12.0836 86.9503 14.424 86.6664C16.2679 86.4446 18.5108 86.3381 19.8052 85.2555C27.7838 78.6094 35.8423 72.0076 43.2713 64.7669C49.0426 59.1412 54.2553 52.8589 59.14 46.4346C66.0637 37.3305 72.4821 27.8449 79.0601 18.4835C79.9821 17.1702 80.6293 15.6617 81.6222 13.8516C83.5548 21.1987 82.9076 28.0401 81.0105 34.8193C79.9644 38.555 78.8208 42.273 77.491 45.9199C76.8527 47.6857 75.842 49.3716 74.7428 50.9156C71.6577 55.2724 68.9538 60.0552 65.1684 63.7021C59.4769 69.1859 53.0142 73.871 46.844 78.8401C41.9504 82.7799 37.0302 86.693 32.0657 90.5441C30.0179 92.1324 27.837 93.5344 25.2218 95.38C26.8264 96.0455 27.7572 96.4182 28.6881 96.8087C36.0019 99.8788 43.3156 102.94 50.6206 106.028C52.8901 106.986 55.8599 107.403 57.2251 109.107C59.6187 112.08 61.1524 115.789 62.7925 119.312C66.9857 128.309 68.4751 138.691 76.3385 145.79C78.0406 147.334 79.6984 149.153 81.7197 150.075C86.1611 152.099 85.8597 155.746 85.8686 159.898C82.5264 156.589 79.3083 153.696 76.4449 150.493C72.6594 146.251 67.5886 144.272 62.4822 142.808C53.8741 140.333 44.61 139.658 36.4363 136.251C26.4186 132.071 17.1811 125.949 7.73962 120.447C5.77155 119.303 3.89213 117.43 2.84603 115.425C1.87086 113.57 1.74675 111.095 1.81767 108.921C1.95065 105.363 2.91695 101.804 2.79284 98.2728C2.73078 96.4537 1.05526 94.6968 -0.0351562 92.6382H0.000304529Z" fill="white"/>
<path d="M273.969 148.424C272.879 140.492 271.797 132.559 270.565 123.579C268.349 127.031 266.904 129.702 265.06 132.071C261.922 136.099 259.005 140.518 255.131 143.73C249.085 148.744 245.76 148.274 240.104 140.625C236.603 135.895 233.606 130.74 230.929 125.487C228.464 120.642 230.237 115.77 232.542 111.298C234.138 108.21 236.301 105.424 238.039 102.398C239.12 100.526 239.333 99.2571 236.638 97.7841C231.328 94.8648 226.452 91.1291 221.541 87.5354C220.503 86.7811 219.679 85.246 219.457 83.9505C218.828 80.2947 219.936 78.7419 223.642 79.1767C231.576 80.1172 238.544 83.3649 245.219 87.349C247.055 88.4493 248.101 90.6144 247.099 93.2321C245.672 96.9677 244.785 100.925 243.207 104.59C241.425 108.734 241.15 112.762 242.906 116.862C244.315 120.172 245.946 123.393 247.773 127.253C249.28 125.824 250.308 125.07 251.044 124.103C255.432 118.317 260.609 112.913 263.845 106.533C266.7 100.899 271.398 99.1506 276.283 97.8728C281.203 96.5862 284.173 98.6714 282.879 103.889C279.546 117.261 275.769 130.58 275.955 144.564C275.973 145.833 275.583 147.111 275.379 148.38C274.909 148.389 274.439 148.398 273.969 148.407V148.424Z" fill="white"/>
<path d="M86.2393 95.3701C89.0319 94.4384 90.9024 93.5599 93.4911 95.4943C97.3031 98.3427 98.8013 96.985 99.7144 92.2378C101.496 82.9829 103.748 73.8078 105.973 64.6416C106.975 60.5244 108.314 56.487 109.635 52.4585C110.051 51.1896 110.902 50.0627 112.401 49.0156C112.551 50.0893 112.906 51.1896 112.826 52.2455C111.789 65.5556 110.69 78.8568 109.608 92.1668C109.493 93.5777 109.165 95.0773 109.484 96.3994C109.75 97.4997 110.663 98.6089 111.585 99.3276C112.853 100.321 114.581 100.747 115.796 101.786C120.397 105.725 120.361 108.121 115.805 111.954C115.113 112.531 114.271 112.93 113.5 113.41C113.721 113.72 113.943 114.022 114.156 114.332C120.175 113.427 126.204 112.531 132.223 111.608C141.017 110.26 149.608 111.147 158.039 113.907C160.849 114.829 161.664 116.764 160.592 119.444C160.157 120.526 159.634 121.706 158.81 122.478C151.86 129 143.854 133.614 134.236 135.442C137.196 132.212 140.273 129.08 143.083 125.735C145.388 122.984 148.686 120.02 146.682 116.116C144.732 112.327 140.255 112.788 136.931 113.436C129.244 114.936 121.674 117.119 114.129 119.257C111.913 119.887 110.565 121.511 110.698 124.315C111.026 131.112 111.062 137.918 111.133 144.724C111.151 146.161 110.796 147.608 110.61 149.054L109.546 149.356C106.886 142.292 104.227 135.229 101.558 128.166C94.7677 131.698 93.1365 127.678 89.6081 121.36C87.1081 116.888 87.8528 115.344 91.7712 111.635C93.6506 109.851 95.5567 108.068 97.2233 106.098C99.2357 103.702 98.8013 102.682 95.8137 102.194C94.9982 102.061 94.156 101.857 93.3492 101.928C90.7961 102.149 89.0407 101.502 88.4556 98.6355C88.2429 97.5973 87.1879 96.7277 86.2305 95.3878L86.2393 95.3701Z" fill="white"/>
<path d="M171.648 90.7292C168.102 90.8889 164.955 91.022 161.817 91.164C161.684 90.7292 161.551 90.2944 161.418 89.8596C163.306 88.1825 165.053 86.3102 167.109 84.8639C170.283 82.6278 173.643 80.649 176.968 78.6348C179.725 76.9666 184.069 77.4014 186.001 79.9125C186.799 80.9507 186.666 82.823 186.648 84.3137C186.639 85.1922 185.913 86.0351 185.7 86.9314C184.414 92.3796 185.301 93.4622 190.753 94.4116C195.115 95.1747 199.822 95.5474 203.643 97.5262C213.333 102.54 213.022 114.918 208.927 122.416C204.343 130.81 198.448 138.255 190.31 143.366C186.152 145.975 181.196 147.315 176.586 149.214C176.152 149.391 175.655 149.409 175.221 149.568C170.257 151.432 168.315 150.287 169.007 145.008C169.565 140.748 170.895 136.454 172.686 132.54C174.503 128.556 180.416 128.343 183.076 131.689C187.872 137.74 187.916 137.776 193.253 131.981C196.099 128.894 199.139 125.877 201.444 122.398C204.813 117.314 203.359 114.102 197.402 113.117C192.801 112.362 188.093 112.105 183.43 111.892C179.618 111.724 176.648 110.242 175.336 106.701C174.042 103.196 173.333 99.4783 172.482 95.8225C172.065 94.03 171.879 92.1755 171.648 90.7203V90.7292ZM186.081 137.891C183.749 136.667 182.154 135.832 180.053 134.723C179.565 137.279 179.175 139.293 178.785 141.307C179.113 141.529 179.441 141.742 179.769 141.964C181.631 140.757 183.501 139.55 186.081 137.891Z" fill="white"/>
<path d="M169.333 39.7888C169.377 42.9566 168.34 44.5805 165.157 44.1279C162.976 43.8174 160.778 43.6044 158.615 43.3471C157.019 51.2177 158.482 52.389 171.248 53.8709C171.851 58.2721 170.397 59.887 166.23 59.4079C165.06 59.2748 163.872 59.1683 162.719 58.911C155.29 57.2428 153.438 54.8824 153.42 47.1449C153.42 45.8671 153.42 44.5805 153.42 42.8945C151.673 42.8058 150.219 42.7259 148.65 42.6461C146.443 50.4014 141.478 55.4858 134.404 58.5294C133.251 59.0263 131.47 59.1062 130.486 58.5294C129.874 58.1656 129.838 56.0449 130.246 54.9978C130.565 54.1903 131.913 53.5426 132.915 53.2852C138.11 51.9631 140.884 48.325 143.18 43.0454C140.352 43.5778 138.207 44.2344 136.044 44.2788C134.812 44.3054 133.562 43.3382 132.321 42.8235C133.181 41.7232 133.872 39.9131 134.927 39.6735C137.888 38.9991 141 38.6885 144.04 38.7595C147.072 38.8305 148.074 37.677 147.755 34.8198C147.604 33.5331 147.374 32.069 147.835 30.9598C148.313 29.8241 149.59 29.0343 150.521 28.0938C151.434 29.0698 152.861 29.9128 153.145 31.0486C153.73 33.3823 152.87 36.6122 154.173 38.0763C155.299 39.3452 158.597 38.6531 160.92 38.8838C163.695 39.1588 166.469 39.496 169.315 39.8066L169.333 39.7888Z" fill="white"/>
<path d="M224.892 29.5214C224.085 38.6521 222.338 47.6586 229.838 55.0146C229.475 55.76 229.271 56.8337 228.624 57.3483C227.498 58.2445 226.106 59.2738 224.803 59.3182C224.014 59.3448 222.684 57.7121 222.445 56.6384C221.505 52.5212 220.716 48.3418 220.255 44.1359C219.918 41.1012 220.087 37.9866 220.184 34.9164C220.246 32.7691 219.36 31.9705 217.25 31.9971C211.461 32.0681 205.672 32.0681 199.892 31.9971C197.445 31.9705 196.674 33.0885 196.514 35.4311C196.168 40.7196 195.902 46.0525 194.883 51.2257C194.395 53.6925 192.454 55.9818 190.787 58.0404C190.238 58.7148 188.5 58.4309 187.303 58.5817C187.206 57.0111 186.443 54.5443 187.135 54.0208C191.425 50.7909 191.479 46.159 191.869 41.607C192.126 38.5545 192.516 35.4222 192.117 32.423C191.78 29.8498 192.853 29.2641 194.839 29.0068C195.654 28.9003 196.488 28.7938 197.303 28.7938C204.98 28.7849 212.658 28.7672 220.335 28.8382C221.815 28.8559 223.287 29.2552 224.9 29.4948L224.892 29.5214Z" fill="white"/>
<path d="M198.403 41.7386C200.566 41.4458 202.56 41.2595 204.511 40.8602C205.158 40.7271 205.699 40.0349 206.284 39.6002C205.699 39.1742 205.158 38.491 204.511 38.3756C202.472 38.0118 200.388 37.8521 198.323 37.6125C198.19 37.2842 198.048 36.9648 197.915 36.6365C198.775 35.9709 199.591 34.7819 200.495 34.7198C206.213 34.3294 211.94 34.1963 217.667 33.9922C217.853 33.9922 218.039 34.2318 219.165 34.9949C216.833 35.8822 215.007 36.4324 213.314 37.2665C212.215 37.8077 211.319 38.7572 210.335 39.5292C211.372 39.9906 212.365 40.6117 213.447 40.8779C215.016 41.2683 216.647 41.4103 218.5 41.7031C218.225 44.5337 218.216 47.1514 217.596 49.6093C217.374 50.4966 215.699 51.0202 214.511 51.8188C215.291 53.274 216.301 55.1463 217.72 57.7817H197.578C199.121 55.5633 200.45 53.6556 201.78 51.7478C198.704 50.7007 197.844 48.2606 198.403 41.7386ZM209.254 48.092C211.372 48.0299 213.89 49.8489 214.387 46.3617C214.511 45.4921 213.332 43.6996 212.543 43.5665C208.943 42.9543 209.715 45.847 209.254 48.092ZM205.486 53.4515C205.716 53.8064 205.956 54.1613 206.186 54.5163H212.197C212.392 54.2501 212.587 53.975 212.773 53.7088C211.718 52.7061 210.592 50.8338 209.635 50.9137C208.19 51.0379 206.86 52.5375 205.477 53.4515H205.486ZM206.39 44.8177C206.036 44.2587 205.681 43.6996 205.335 43.1406C204.147 43.7795 202.569 44.1611 201.922 45.1549C201.541 45.7494 202.614 47.2934 203.039 48.4114C204.156 47.2135 205.273 46.0156 206.39 44.8177Z" fill="white"/>
<path d="M254.599 47.8984C255.894 47.2152 257.179 46.4965 258.5 45.8664C259.014 45.618 259.768 45.7422 260.167 45.405C264.927 41.3499 270.3 43.5061 276.629 43.8522C274.183 45.6091 272.365 46.9135 270.539 48.2268C270.752 48.6172 270.965 49.0076 271.177 49.398C273.943 50.1345 276.709 50.8621 279.449 51.5898C278.81 55.3876 278.438 55.6626 274.511 55.0681C274.555 59.984 271.186 59.5137 267.773 59.3273C265.335 59.1942 262.862 59.5226 260.229 59.6557C259.759 58.1827 259.316 56.7718 258.864 55.3432H253.367C254.732 50.2854 260.034 53.1337 262.472 49.7796H255.255C255.034 49.1585 254.812 48.5373 254.582 47.9162L254.599 47.8984ZM266.426 57.9786C267.525 57.322 268.394 56.8073 269.271 56.2838C268.482 55.8401 267.684 55.0415 266.895 55.0504C265.929 55.0593 264.972 55.7514 264.005 56.1418C264.715 56.6831 265.424 57.2155 266.426 57.9786Z" fill="white"/>
<path d="M281.488 41.748H269.732C269.732 37.6042 269.67 33.7531 269.794 29.9109C269.812 29.3164 270.645 28.2605 271.115 28.2516C276.133 28.1274 281.16 28.1718 285.832 28.1718C285.832 37.9058 285.92 46.726 285.725 55.5461C285.699 56.6819 284.254 57.7822 283.473 58.9002C282.808 57.8709 281.621 56.8682 281.576 55.8123C281.363 51.2336 281.488 46.6461 281.488 41.748ZM274.094 36.2465C274.076 36.6724 274.059 37.0895 274.041 37.5154C275.858 39.5563 278.296 38.5092 280.548 38.3673C280.441 37.6574 280.379 36.3441 280.238 36.3353C278.199 36.2022 276.151 36.2465 274.103 36.2465H274.094ZM280.805 33.8241C281.044 33.4958 281.284 33.1675 281.523 32.8392C280.832 32.3156 280.14 31.3573 279.457 31.3573C277.693 31.3662 275.938 31.8098 274.183 32.076C274.661 32.6528 275.078 33.6733 275.628 33.7354C277.33 33.9483 279.085 33.8152 280.814 33.8152L280.805 33.8241Z" fill="white"/>
<path d="M265.522 28.3849C265.292 33.496 265.105 37.5866 264.919 41.828C262.472 41.828 260.469 42.0144 258.51 41.7837C255.38 41.4199 254.334 42.5823 253.847 45.7501C253.297 49.2728 251.799 52.689 250.345 55.9899C249.6 57.6759 247.836 59.5482 245.903 57.7469C244.299 56.2473 244.742 54.4371 246.293 52.272C248.164 49.6543 249.281 46.1937 249.742 42.955C250.292 39.1394 249.884 35.1641 249.715 31.2687C249.6 28.6955 250.522 28.0921 253.075 28.305C257.02 28.6333 261.019 28.3938 265.531 28.3938L265.522 28.3849ZM257.969 34.5962C259.148 34.0195 260.15 33.5314 261.16 33.0345C260.141 32.5288 259.113 31.6059 258.102 31.6237C256.949 31.6414 255.815 32.4933 254.671 32.9902C255.673 33.4782 256.675 33.9662 257.969 34.5962ZM257.561 35.5368C256.444 36.362 255.575 36.9921 254.715 37.6221C255.788 37.9859 256.861 38.6336 257.933 38.6336C258.864 38.6336 259.795 37.906 260.726 37.489C259.786 36.9033 258.847 36.3266 257.561 35.5368Z" fill="white"/>
<path d="M283.295 109.188C287.223 112.089 290.813 114.662 294.315 117.351C297.311 119.64 297.861 123.74 295.591 126.003C293.685 127.91 290.317 127.316 287.879 124.512C284.173 120.235 282.267 115.363 283.286 109.188H283.295Z" fill="white"/>
<path d="M297.127 109.09C300.584 112.089 304.086 115.124 307.588 118.167C308.297 118.78 309.37 119.294 309.609 120.057C310.017 121.406 310.3 123.057 309.857 124.29C309.644 124.884 307.561 125.195 306.444 124.991C300.327 123.855 295.38 114.929 297.136 109.09H297.127Z" fill="white"/>
<path d="M169.484 172.242H172.241C173.394 175.605 174.511 178.862 175.885 182.872C178.03 178.879 179.644 175.809 176.186 172.358H179.697C180.894 175.863 182.011 179.146 183.128 182.42C183.403 182.447 183.686 182.464 183.961 182.491C184.963 179.226 185.956 175.969 187.073 172.331C187.064 172.331 187.968 172.331 188.748 172.331C186.913 177.318 185.087 182.305 182.995 188.001C181.612 184.523 180.513 181.737 179.174 178.365C177.889 181.612 176.798 184.372 175.397 187.93C173.288 182.322 171.417 177.353 169.493 172.242H169.484Z" fill="white"/>
<path d="M259.662 179.233C260.372 180.946 261.967 182.942 261.515 184.194C261.001 185.64 258.803 186.962 257.1 187.379C254.893 187.92 252.455 187.512 250.301 187.512V172.294C252.074 172.294 254.352 171.931 256.436 172.41C258.058 172.782 260.044 173.909 260.735 175.267C261.258 176.296 259.973 178.231 259.662 179.224V179.233ZM253.412 187.157C255.531 186.412 257.322 186.172 258.501 185.196C259.113 184.69 259.157 182.295 258.563 181.771C257.322 180.68 255.496 180.272 253.412 179.366V187.157ZM253.404 179.029C256.072 179.109 258.723 179.171 258.563 176.012C258.404 172.969 255.886 173.128 253.404 173.386V179.029Z" fill="white"/>
<path d="M173.208 6.07826C168.98 6.93897 165.478 7.65771 161.985 8.37646C161.604 5.89191 162.003 5.5636 165.948 5.20867C168.155 5.00458 170.363 4.81824 172.473 4.62302C172.774 2.89272 173.022 1.48185 173.27 0.0709869L174.254 0C174.591 1.44636 174.928 2.89272 175.345 4.65852C178.988 4.90697 182.721 5.1643 186.621 5.43937C186.09 8.01265 184.636 8.58054 182.269 7.87955C180.052 7.22292 177.765 6.80587 175.345 6.23798C173.926 11.5176 176.143 16.6731 174.609 21.4203C174.148 21.4026 173.678 21.3848 173.217 21.3671V6.07826H173.208Z" fill="white"/>
<path d="M140.885 172.285H144.351C142.1 174.433 139.901 176.527 137.543 178.772C140.22 181.682 142.747 184.433 145.486 187.423H141.94C139.679 184.752 137.836 182.578 135.983 180.404C135.628 180.555 135.282 180.697 134.928 180.848C135.078 183.04 135.229 185.223 135.389 187.485H132.197V172.374H135.495C135.273 174.335 135.034 176.411 134.804 178.497C135.096 178.683 135.398 178.869 135.69 179.056C137.543 177.059 139.396 175.054 141.257 173.057C141.133 172.8 141.009 172.551 140.876 172.294L140.885 172.285Z" fill="white"/>
<path d="M199.814 20.0004C204.53 17.5957 208.191 14.8361 207.651 8.43841C203.706 8.99743 199.973 9.52983 196.241 10.0534C196.055 9.78716 195.878 9.52983 195.691 9.26363C196.64 8.65137 197.571 7.52445 198.528 7.5067C206.002 7.35586 213.484 7.42684 221.25 7.42684C220.372 10.0711 219.22 10.852 216.702 9.88477C214.592 9.06842 212.225 8.9087 209.964 8.45615C207.996 19.4591 204.769 23.2835 199.823 20.0004H199.814Z" fill="white"/>
<path d="M225.619 187.564C220.318 188.052 220.273 182.019 216.355 180.475V187.511H213.137V172.249C214.741 172.249 216.949 171.814 218.855 172.373C220.628 172.906 222.933 174.219 223.429 175.71C223.846 176.97 222.02 178.984 220.787 181.451C221.771 182.693 223.562 184.965 225.619 187.564ZM215.938 179.215C218.571 179.454 220.938 179.472 221.257 176.411C221.514 173.962 219.431 172.719 217.578 173.225C214.174 174.157 216.585 177.085 215.947 179.215H215.938Z" fill="white"/>
<path d="M244.095 1.0293C245.823 5.84753 244.157 11.003 245.132 16.815C248.696 14.0998 251.94 11.6241 255.283 9.07744C254.148 13.5407 247.153 19.3084 242.836 19.2463V1.17127C243.253 1.1269 243.669 1.07366 244.086 1.0293H244.095Z" fill="white"/>
<path d="M230.938 172.277H234.076C234.076 176.128 233.863 180.024 234.218 183.857C234.315 184.922 236.079 186.599 237.117 186.626C238.606 186.661 241.345 185.587 241.434 184.744C241.886 180.698 241.638 176.572 241.638 172.348H244.04C243.393 176.856 243.198 181.515 241.806 185.783C241.416 186.989 237.445 187.708 235.281 187.424C233.89 187.238 232.205 184.975 231.727 183.334C231.088 181.151 231.531 178.657 231.425 176.297C231.372 175.046 231.133 173.812 230.938 172.286V172.277Z" fill="white"/>
<path d="M200.575 171.602C203.093 177.218 205.38 182.321 207.72 187.52H204.6C203.962 185.861 203.749 183.501 202.729 183.066C201.063 182.365 198.722 182.525 196.967 183.146C196.16 183.43 196.063 185.692 195.531 187.423H193.66C195.885 182.347 198.11 177.245 200.584 171.602H200.575ZM202.561 181.451C201.657 179.33 200.938 177.653 199.928 175.284C198.988 177.724 198.323 179.446 197.552 181.451H202.552H202.561Z" fill="white"/>
<path d="M271.523 187.548H267.889V172.312H271.523V187.548Z" fill="white"/>
<path d="M161.257 186.421C156.178 189.651 151.843 187.548 151.559 181.674C151.435 179.092 151.479 176.501 151.364 173.918C151.346 173.43 150.929 172.96 150.619 172.33H154.174C154.174 176.323 153.607 180.414 154.334 184.256C155.043 187.974 158.358 186.874 161.009 186.19L161.257 186.43V186.421Z" fill="white"/>
<path d="M228.961 16.9828C236.177 14.658 237.214 8.81045 237.746 1.93359C238.58 3.1315 239.103 3.5308 239.103 3.9301C239.085 8.99679 238.057 13.7618 234.493 17.6217C232.436 19.8489 231.975 19.7957 228.961 16.9828Z" fill="white"/>
<path d="M142.854 33.656C141.374 34.987 140.124 36.2914 139.991 36.1938C138.439 34.9604 137.047 33.5229 135.611 32.1298C136.684 31.2602 138.209 29.4412 138.732 29.6985C140.177 30.4084 141.205 31.979 142.845 33.656H142.854Z" fill="white"/>
<path d="M159.805 35.7949C160.292 34.1444 160.47 32.2899 161.392 30.9411C161.897 30.2046 163.652 30.32 164.849 30.0449C164.955 31.1718 165.585 32.7247 165.079 33.3369C163.954 34.6857 162.26 35.5464 160.806 36.6112L159.822 35.8037L159.805 35.7949Z" fill="white"/>
<path d="M215.7 2.4298H201.107C201.914 0.655129 210.611 -0.0192464 215.7 2.4298Z" fill="white"/>
<path d="M186.63 15.5366C185.734 16.3618 184.91 17.1249 183.527 18.4027C182.117 15.9714 180.929 13.9039 179.732 11.8364C179.963 11.6856 180.185 11.5258 180.415 11.375C182.41 12.706 184.396 14.0459 186.63 15.5455V15.5366Z" fill="white"/>
<path d="M168.643 12.2202C167.295 14.0925 166.063 16.0624 164.511 17.7483C164.246 18.0412 162.668 17.1183 161.355 16.6303C163.855 14.7048 165.85 13.1786 167.845 11.6523L168.643 12.2202Z" fill="white"/>
<path d="M161.01 186.191C163.004 181.71 162.535 177.167 161.754 172.34C162.251 172.296 163.199 172.225 164.591 172.109C164.246 172.597 164.015 172.766 163.997 172.961C163.74 175.712 163.696 178.489 163.208 181.196C162.88 182.997 161.932 184.683 161.258 186.422L161.01 186.183V186.191Z" fill="white"/>
</g>
<defs>
<clipPath id="clip0_22_6860">
<rect width="310.078" height="188" fill="white"/>
</clipPath>
</defs>
</svg>
