<svg width="457" height="41" viewBox="0 0 457 41" fill="none" xmlns="http://www.w3.org/2000/svg">
<path d="M185.231 31.7511C185.231 31.7511 184.809 28.6244 184.612 27.0469C184.415 25.4694 184.246 23.8638 184.049 22.23C183.852 20.5962 183.683 18.9624 183.514 17.2723C183.345 15.5821 183.148 13.8356 182.951 12.0328V11.7793H182.134L182.05 11.9201C181.599 12.7934 181.093 13.723 180.558 14.7089C180.023 15.6948 179.488 16.7089 178.953 17.7511C178.418 18.7934 177.883 19.8075 177.348 20.8216C176.813 21.8356 176.334 22.7652 175.856 23.6103C175.405 24.4835 174.983 25.2441 174.645 25.9201C174.42 26.3427 174.251 26.6807 174.082 26.9906C172.759 24.5117 171.492 22.0892 170.253 19.723C168.958 17.2159 167.663 14.6244 166.396 11.9483L166.312 11.7793H165.411V12.0328C165.242 13.5258 165.073 15.1032 164.876 16.7652C164.679 18.4272 164.453 20.1173 164.2 21.8075C163.975 23.5258 163.721 25.2159 163.468 26.9061C163.215 28.5962 162.736 31.723 162.736 31.723L162.68 32.061H165.214V31.7793C165.214 31.7793 165.27 30.061 165.354 28.9061C165.439 27.723 165.551 26.4835 165.692 25.1596C165.833 23.8356 165.974 22.4835 166.115 21.1314C166.227 20.1173 166.34 19.1314 166.452 18.2018C167.55 20.4272 168.62 22.568 169.718 24.7089C170.929 27.0751 172.083 29.4413 173.181 31.8075L173.266 31.9483H173.885L173.97 31.7793C175.068 29.2441 176.222 26.7934 177.461 24.4554C178.559 22.3427 179.685 20.23 180.811 18.1173C181.064 20.2863 181.29 22.399 181.459 24.4835C181.656 26.8497 182.078 31.7511 182.078 31.7511V32.0047H185.288V31.6666L185.231 31.7511Z" fill="white"/>
<path d="M121.539 28.2009C121.483 29.4121 121.398 31.7502 121.398 31.7502V32.06H124.692V31.7502C124.692 31.7502 124.58 29.4121 124.523 28.2009C124.495 27.0178 124.467 25.7783 124.467 24.5671V19.722C124.467 18.4826 124.467 17.2713 124.523 16.0882C124.58 14.9051 124.692 12.4544 124.692 12.4544V12.1445H121.398V12.4544C121.398 12.4544 121.511 14.9051 121.567 16.0882C121.624 17.2713 121.652 18.4826 121.652 19.722V20.4262C120.751 20.4262 119.878 20.4544 119.033 20.4826C118.104 20.4826 117.147 20.4826 116.162 20.4826C115.176 20.4826 114.219 20.4826 113.29 20.4826C112.445 20.4826 111.572 20.4826 110.7 20.4262V19.722C110.7 18.4826 110.7 17.2713 110.784 16.0882C110.812 14.9051 110.925 12.4544 110.925 12.4544V12.1445H107.631V12.4544C107.631 12.4544 107.743 14.9051 107.8 16.0882C107.828 17.2713 107.856 18.4826 107.856 19.722V24.5671C107.856 25.8065 107.856 27.0178 107.8 28.2009C107.743 29.4121 107.659 31.7502 107.659 31.7502V32.06H110.953V31.7502C110.953 31.7502 110.84 29.4121 110.784 28.2009C110.728 27.0178 110.7 25.7783 110.7 24.5671V22.3135C111.601 22.3135 112.473 22.2854 113.29 22.2854C114.219 22.2854 115.176 22.2854 116.162 22.2854C117.147 22.2854 118.104 22.2854 119.033 22.2854C119.878 22.2854 120.751 22.2854 121.652 22.3135V24.5671C121.652 25.8065 121.652 27.0178 121.567 28.2009H121.539Z" fill="white"/>
<path d="M230.19 30.2009C230.19 29.553 230.133 28.8488 230.133 28.0882C230.133 27.3276 230.105 26.5671 230.105 25.7783C230.105 25.1023 230.105 24.4826 230.105 24.1727L237.566 12.1445H234.723L229.148 22.1445L223.517 12.1445H219.801L220.082 12.5671C220.082 12.5671 226.67 23.4966 227.29 24.4544C227.29 25.9473 227.29 26.8488 227.262 28.2009C227.262 29.5812 227.065 31.722 227.065 31.722V32.0319H230.359V31.722C230.359 31.722 230.274 30.7924 230.246 30.1727L230.19 30.2009Z" fill="white"/>
<path d="M264.57 17.752C264.063 16.4562 263.331 15.3858 262.374 14.4843C261.445 13.5829 260.318 12.9069 258.995 12.4562C257.7 12.0055 256.264 11.752 254.716 11.752C253.167 11.752 251.76 11.9773 250.464 12.4562C249.169 12.9351 248.043 13.6111 247.086 14.4843C246.157 15.3858 245.425 16.4843 244.89 17.752C244.355 19.0477 244.102 20.5125 244.102 22.1463C244.102 23.7801 244.355 25.2167 244.89 26.5125C245.397 27.7801 246.129 28.8787 247.086 29.7801C248.015 30.6815 249.169 31.3294 250.464 31.7801C251.76 32.2027 253.195 32.428 254.716 32.428C256.236 32.428 257.7 32.2027 258.995 31.7801C260.29 31.3294 261.445 30.6815 262.374 29.7801C263.303 28.8787 264.035 27.7801 264.57 26.5125C265.105 25.2167 265.358 23.752 265.358 22.1463C265.358 20.5407 265.105 19.0477 264.57 17.752ZM262.064 22.1463C262.064 23.6674 261.867 24.9914 261.501 26.09C261.107 27.1886 260.6 28.09 259.952 28.7942C259.277 29.4984 258.517 30.0336 257.616 30.3717C256.715 30.7097 255.757 30.8787 254.688 30.8787C253.618 30.8787 252.689 30.7097 251.788 30.3717C250.887 30.0336 250.127 29.4984 249.479 28.7942C248.803 28.09 248.297 27.1886 247.931 26.09C247.536 24.9914 247.367 23.6674 247.367 22.1463C247.367 20.6252 247.536 19.3012 247.931 18.2027C248.297 17.1041 248.831 16.2027 249.479 15.4703C250.155 14.766 250.915 14.2308 251.816 13.8928C252.717 13.5548 253.674 13.3858 254.716 13.3858C255.757 13.3858 256.743 13.5548 257.644 13.8928C258.545 14.2308 259.305 14.766 259.981 15.4703C260.628 16.1745 261.163 17.0759 261.529 18.2027C261.895 19.3012 262.092 20.6252 262.092 22.1463H262.064Z" fill="white"/>
<path d="M289.62 12.1462V12.456C289.62 12.456 289.789 14.0053 289.845 15.442C289.901 16.8786 289.93 18.9349 289.986 21.611C289.986 21.9772 289.986 22.3715 289.986 22.7941C289.986 23.0194 289.986 23.2729 289.986 23.5265C289.986 24.2025 289.93 24.8786 289.845 25.5828C289.733 26.2589 289.564 26.9067 289.338 27.5265C289.113 28.1462 288.775 28.6814 288.353 29.1321C287.959 29.5828 287.424 29.949 286.748 30.2307C286.129 30.5124 284.721 30.6814 283.708 30.6532C282.666 30.6532 281.821 30.5406 281.146 30.287C280.47 30.0335 279.907 29.6955 279.456 29.3011C279.006 28.8786 278.668 28.3997 278.415 27.8363C278.161 27.2729 277.964 26.6814 277.851 26.0335C277.739 25.3856 277.654 24.7377 277.626 24.0617C277.598 23.3856 277.57 22.7096 277.57 22.0898C277.57 21.1321 277.57 20.2025 277.57 19.3011V19.0476C277.57 18.0617 277.57 17.1603 277.598 16.3152C277.598 15.4701 277.654 14.7096 277.683 14.0617C277.683 13.3856 277.767 12.456 277.767 12.456V12.1462H274.529V12.4279C274.529 12.4279 274.755 23.3011 274.755 24.1744C274.811 26.9631 275.487 29.0758 276.866 30.4279C278.246 31.78 280.385 32.4279 283.229 32.4279C284.524 32.4279 286.213 32.2589 287.255 31.8645C288.269 31.4983 289.141 30.9349 289.817 30.2025C290.521 29.4701 291.028 28.5969 291.394 27.5546C291.732 26.5124 291.929 25.3856 291.929 24.118V24.0617C291.929 23.0476 292.098 15.8927 292.126 14.9913C292.154 14.0617 292.21 12.3715 292.21 12.3715V12.0898H289.62V12.1462Z" fill="white"/>
<path d="M152.993 31.6385C152.993 31.6385 152.458 30.5399 152.092 29.6666C151.698 28.7934 151.276 27.8356 150.825 26.737C150.347 25.6385 149.868 24.4554 149.305 23.1877C148.77 21.9201 148.235 20.6244 147.7 19.3286C147.165 18.0328 146.63 16.737 146.123 15.4976C145.617 14.23 145.138 13.0469 144.688 11.9483L144.603 11.7793H143.702L143.618 11.9483C142.182 15.3286 140.774 18.6244 139.338 21.8638C137.931 25.1032 134.974 31.6666 134.974 31.6666L134.777 32.061H137.48L137.536 31.8638C137.536 31.8638 138.128 29.9201 138.606 28.5962C138.888 27.8638 139.169 27.1032 139.451 26.3145C139.93 26.3145 140.408 26.3145 140.859 26.3145C141.703 26.3145 142.576 26.3145 143.477 26.3145C144.378 26.3145 145.251 26.3145 146.095 26.3145C146.518 26.3145 146.996 26.3145 147.447 26.3145L149.502 31.8638L149.558 32.061H153.162L152.937 31.6385H152.993ZM146.152 24.4835C145.307 24.4835 144.434 24.5117 143.533 24.5117C142.632 24.5117 141.76 24.5117 140.915 24.4835C140.69 24.4835 140.465 24.4835 140.239 24.4835L143.533 16.5962L146.18 22.7652L146.827 24.4835C146.602 24.4835 146.377 24.4835 146.152 24.4835Z" fill="white"/>
<path d="M212.532 31.6385C212.532 31.6385 211.997 30.5399 211.603 29.6666C211.209 28.7934 210.815 27.8356 210.336 26.737C209.858 25.6385 209.351 24.4554 208.816 23.1877C208.281 21.9201 207.746 20.6244 207.211 19.3286C206.676 18.0328 206.141 16.737 205.634 15.4976C205.128 14.23 204.649 13.0469 204.199 11.9483L204.114 11.7793H203.213L203.129 11.9483C201.693 15.3286 200.285 18.6244 198.849 21.8638C197.442 25.1032 194.485 31.6666 194.485 31.6666L194.316 32.061H196.991L197.047 31.8638C197.047 31.8638 197.639 29.9201 198.117 28.5962C198.371 27.8638 198.68 27.1032 198.962 26.3145C199.44 26.3145 199.919 26.3145 200.37 26.3145C201.214 26.3145 202.087 26.3145 202.988 26.3145C203.889 26.3145 204.762 26.3145 205.606 26.3145C206.057 26.3145 206.507 26.3145 206.958 26.3145L209.013 31.8638L209.069 32.061H212.673L212.476 31.6385H212.532ZM205.663 24.4835C204.818 24.4835 203.945 24.5117 203.044 24.5117C202.143 24.5117 201.271 24.5117 200.426 24.4835C200.201 24.4835 199.975 24.4835 199.75 24.4835L203.044 16.5962L205.663 22.7652L206.31 24.4835C206.085 24.4835 205.86 24.4835 205.634 24.4835H205.663Z" fill="white"/>
<path d="M330.42 31.5828C330.42 31.5828 329.829 30.9349 329.407 30.4279C328.985 29.9208 328.534 29.3575 328.056 28.7659C327.577 28.1744 327.07 27.5265 326.563 26.8504C326.057 26.1744 325.55 25.5265 325.071 24.9349C324.593 24.3152 324.17 23.7518 323.776 23.2448C323.551 22.9349 323.326 22.6532 323.157 22.4279C323.579 22.3434 324.029 22.2025 324.508 22.0335C325.184 21.78 325.831 21.442 326.423 20.9913C327.014 20.5406 327.549 19.9772 327.943 19.3011C328.365 18.5969 328.562 17.78 328.562 16.8222C328.562 15.949 328.422 15.1884 328.084 14.5687C327.746 13.949 327.295 13.4701 326.732 13.1039C326.169 12.7377 325.55 12.4842 324.818 12.3152C324.086 12.1744 323.326 12.0898 322.537 12.0898C322.002 12.0898 321.467 12.0898 320.933 12.1462C320.426 12.2025 319.891 12.2025 319.384 12.2025C318.877 12.2025 318.342 12.2025 317.836 12.1744C317.329 12.1744 316.794 12.118 316.259 12.0898H315.949V12.3715C316.006 13.611 316.062 14.8222 316.09 16.0053C316.146 17.1884 316.146 18.3997 316.146 19.6391V24.4842C316.146 25.7236 316.146 26.9349 316.09 28.1462C316.034 29.3575 315.949 31.6955 315.949 31.6955V31.9772H319.243V31.6955C319.243 31.6955 319.131 29.3575 319.074 28.1462C319.018 26.9631 318.99 25.7236 318.99 24.4842V22.7096H319.637C320.2 23.3011 320.82 24.0335 321.467 24.8786C322.171 25.78 322.875 26.6532 323.551 27.5546C324.227 28.456 324.846 29.3011 325.409 30.0898C325.972 30.8786 326.676 31.8645 326.676 31.8645L326.76 31.9772H330.815L330.364 31.4983L330.42 31.5828ZM319.018 21.1039V19.7236C319.018 18.7096 319.018 17.6955 319.074 16.6814C319.102 15.7518 319.159 14.7941 319.187 13.8363C319.412 13.8363 319.694 13.78 320.003 13.78C320.398 13.78 320.933 13.7518 321.58 13.7518C322.031 13.7518 322.509 13.8082 322.988 13.8927C323.466 13.9772 323.889 14.1744 324.283 14.4279C324.677 14.6814 324.987 15.0194 325.24 15.4701C325.465 15.8927 325.606 16.456 325.606 17.1603C325.606 17.9772 325.437 18.6251 325.127 19.1039C324.818 19.6391 324.424 20.0335 323.945 20.3434C323.466 20.6532 322.931 20.8786 322.34 20.9913C321.749 21.1321 321.158 21.1884 320.623 21.1884C320.257 21.1884 319.947 21.1884 319.637 21.1884C319.44 21.1884 319.243 21.1603 319.046 21.1321L319.018 21.1039Z" fill="white"/>
<path d="M353.193 29.8924C353.193 29.8924 352.123 30.0614 351.476 30.0895C350.828 30.1459 350.124 30.1741 349.364 30.2022C348.632 30.2304 347.872 30.2586 347.084 30.2586H345.197C345.197 29.9205 345.197 29.498 345.169 28.9628C345.169 28.2586 345.169 27.3853 345.169 26.3149V23.5262C345.169 23.2445 345.169 22.991 345.169 22.7938C345.169 22.7093 345.169 22.5966 345.169 22.5121C345.507 22.5121 345.901 22.5121 346.38 22.5121C346.999 22.5121 347.675 22.5121 348.379 22.5121C349.082 22.5121 349.786 22.5402 350.49 22.5684C351.194 22.5966 352.348 22.7093 352.348 22.7093H352.658V20.3994H352.348C352.348 20.3994 351.419 20.4839 350.941 20.5121C350.434 20.5402 349.899 20.5684 349.308 20.5966C348.716 20.5966 348.069 20.6529 347.337 20.6529C346.689 20.6529 345.986 20.6529 345.197 20.6811C345.197 20.3431 345.197 19.9205 345.197 19.3853C345.197 18.6811 345.197 17.9769 345.197 17.2445C345.197 16.5121 345.197 15.9487 345.253 15.3853C345.253 14.9346 345.31 14.4557 345.31 13.9487C346.183 13.9487 346.971 13.9487 347.618 14.005C348.322 14.005 348.998 14.0614 349.589 14.0895C350.209 14.1177 350.772 14.174 351.307 14.2022C351.842 14.2304 353.109 14.3149 353.109 14.3149H353.418V12.0332H353.137C353.137 12.0332 351.307 12.1177 350.406 12.1459C349.505 12.174 348.604 12.174 347.675 12.174C346.746 12.174 345.845 12.174 344.944 12.1459C344.015 12.1459 343.114 12.0895 342.185 12.0614H341.875V12.3431C341.931 13.5543 341.988 14.7374 342.044 15.9487C342.1 17.16 342.128 18.3712 342.128 19.5825V24.4276C342.128 25.667 342.128 26.8783 342.044 28.0614C341.988 29.2445 341.931 30.4557 341.875 31.667V31.9769H342.157C343.086 31.9487 344.015 31.9205 344.944 31.9205H350.518C351.419 31.9205 353.249 31.9769 353.249 31.9769H353.531V29.7515L353.193 29.8079V29.8924Z" fill="white"/>
<path d="M376.985 23.2433C376.478 22.5954 375.859 22.0602 375.098 21.6376C374.366 21.2151 373.578 20.9052 372.762 20.6235C371.945 20.3419 371.185 20.0602 370.481 19.694C369.805 19.3559 369.214 18.9616 368.764 18.4827C368.341 18.032 368.116 17.4123 368.116 16.5954C368.116 16.1165 368.201 15.694 368.37 15.2996C368.538 14.9052 368.792 14.5672 369.13 14.2855C369.468 14.0038 369.834 13.7785 370.284 13.6095C370.734 13.4404 371.213 13.3841 371.776 13.3841C372.339 13.3841 372.762 13.4686 373.128 13.6376C373.522 13.8066 373.86 14.0038 374.113 14.2573C374.395 14.5109 374.592 14.7644 374.761 15.0461C374.929 15.3559 375.07 15.6095 375.155 15.863L375.211 16.032H375.971L376.957 13.2714L376.759 13.1588C376.759 13.1588 375.493 12.37 374.704 12.1447C373.944 11.9193 373.071 11.8066 372.086 11.8066C371.1 11.8066 370.087 11.9475 369.242 12.201C368.398 12.4827 367.666 12.8489 367.046 13.3559C366.427 13.8348 365.976 14.4264 365.639 15.1306C365.301 15.8348 365.16 16.5672 365.16 17.4123C365.16 18.5672 365.413 19.4968 365.948 20.2292C366.455 20.9052 367.074 21.4686 367.835 21.9193C368.567 22.3419 369.355 22.7081 370.2 22.9897C371.016 23.2714 371.776 23.5813 372.48 23.8912C373.184 24.2292 373.747 24.6235 374.197 25.1024C374.62 25.5531 374.845 26.1447 374.845 26.9616C374.845 27.4968 374.732 27.9757 374.563 28.4545C374.366 28.9052 374.113 29.2996 373.747 29.6376C373.409 29.9757 372.987 30.2573 372.452 30.4545C371.945 30.6517 371.382 30.7644 370.734 30.7644C370.087 30.7644 369.552 30.6799 369.045 30.5109C368.538 30.3419 368.088 30.1165 367.722 29.863C367.328 29.6095 367.018 29.2996 366.765 28.9897C366.511 28.6517 366.286 28.3419 366.145 28.0038L366.061 27.8348H365.301L364.625 30.7644L364.794 30.8771C364.794 30.8771 365.976 31.6376 366.821 31.9475C367.637 32.2855 368.707 32.4264 370.002 32.4264C371.213 32.4264 372.311 32.2855 373.268 31.9475C374.226 31.6376 375.042 31.1869 375.718 30.5672C376.393 29.9757 376.9 29.2714 377.266 28.4545C377.604 27.6376 377.801 26.7926 377.801 25.8912C377.801 24.8207 377.548 23.9193 377.013 23.2433H376.985Z" fill="white"/>
<path d="M407.531 17.752C407.024 16.4562 406.292 15.3858 405.335 14.4843C404.406 13.5829 403.279 12.9069 401.956 12.4562C400.661 11.9773 399.225 11.752 397.677 11.752C396.128 11.752 394.72 11.9773 393.425 12.4562C392.13 12.9351 391.004 13.5829 390.047 14.4843C389.118 15.3858 388.386 16.4843 387.851 17.752C387.316 19.0477 387.062 20.5125 387.062 22.1182C387.062 23.7238 387.316 25.1886 387.851 26.4843C388.358 27.752 389.09 28.8505 390.047 29.752C391.004 30.6534 392.13 31.3013 393.425 31.752C394.72 32.1745 396.156 32.3998 397.677 32.3998C399.197 32.3998 400.661 32.1745 401.956 31.752C403.251 31.3294 404.377 30.6534 405.335 29.752C406.264 28.8505 406.996 27.752 407.531 26.4843C408.037 25.1886 408.319 23.752 408.319 22.1182C408.319 20.4843 408.066 19.0196 407.531 17.752ZM405.025 22.1463C405.025 23.6674 404.828 24.9914 404.462 26.09C404.096 27.1886 403.561 28.09 402.913 28.7942C402.266 29.4984 401.477 30.0336 400.605 30.3717C399.704 30.7097 398.747 30.8787 397.677 30.8787C396.607 30.8787 395.678 30.7097 394.777 30.3717C393.876 30.0336 393.116 29.4984 392.44 28.7942C391.792 28.09 391.257 27.1886 390.891 26.09C390.525 24.9914 390.328 23.6674 390.328 22.1463C390.328 20.6252 390.525 19.3012 390.891 18.2027C391.257 17.1041 391.792 16.2027 392.44 15.4984C393.116 14.7942 393.876 14.259 394.777 13.921C395.678 13.5829 396.635 13.4139 397.677 13.4139C398.718 13.4139 399.704 13.5829 400.605 13.921C401.506 14.259 402.266 14.7942 402.913 15.4984C403.561 16.2027 404.096 17.1041 404.462 18.2027C404.828 19.3012 405.025 20.6252 405.025 22.1463Z" fill="white"/>
<path d="M432.675 31.582C432.675 31.582 432.084 30.9341 431.661 30.427C431.239 29.92 430.788 29.3566 430.31 28.7651C429.831 28.1735 429.324 27.5256 428.818 26.8496C428.311 26.1735 427.804 25.5256 427.325 24.9341C426.847 24.3144 426.425 23.7792 426.03 23.2721C425.777 22.9623 425.58 22.6806 425.411 22.4552C425.833 22.3707 426.284 22.2299 426.79 22.0609C427.466 21.8073 428.114 21.4693 428.705 21.0186C429.296 20.5679 429.803 20.0045 430.225 19.3285C430.648 18.6242 430.873 17.8073 430.873 16.8496C430.873 15.9763 430.704 15.2158 430.394 14.5961C430.056 13.9763 429.606 13.4975 429.043 13.1313C428.48 12.7651 427.832 12.5116 427.1 12.3425C426.396 12.2017 425.636 12.1172 424.848 12.1172C424.285 12.1172 423.778 12.1172 423.243 12.1735C422.736 12.2299 422.23 12.2299 421.695 12.2299C421.16 12.2299 420.653 12.2299 420.146 12.2017C419.639 12.2017 419.104 12.1454 418.569 12.1172H418.26V12.3989C418.316 13.6383 418.372 14.8496 418.401 16.0327C418.457 17.2158 418.457 18.427 418.457 19.6665V24.5116C418.457 25.751 418.457 26.9623 418.401 28.1735C418.344 29.3566 418.26 31.7228 418.26 31.7228V32.0045H421.554V31.7228C421.554 31.7228 421.441 29.3848 421.385 28.1735C421.329 26.9904 421.3 25.751 421.3 24.5116V22.7369H421.948C422.511 23.3285 423.13 24.0609 423.806 24.9059C424.51 25.8073 425.214 26.6806 425.89 27.582C426.565 28.4834 427.185 29.3285 427.748 30.1172C428.311 30.9059 429.015 31.8918 429.015 31.8918L429.099 32.0045H433.153L432.703 31.5256L432.675 31.582ZM421.272 19.7228C421.272 18.7087 421.272 17.6947 421.329 16.6806C421.357 15.751 421.413 14.7932 421.441 13.8637C421.666 13.8637 421.948 13.8073 422.258 13.8073C422.68 13.8073 423.187 13.751 423.834 13.751C424.313 13.751 424.763 13.8073 425.242 13.8918C425.692 13.9763 426.115 14.1735 426.537 14.427C426.931 14.6806 427.241 15.0186 427.494 15.4693C427.72 15.8918 427.86 16.4552 427.86 17.1594C427.86 17.9763 427.691 18.6242 427.382 19.1031C427.072 19.6383 426.678 20.0327 426.199 20.3425C425.721 20.6524 425.186 20.8778 424.594 20.9904C424.003 21.1313 423.412 21.1876 422.877 21.1876C422.511 21.1876 422.173 21.1876 421.892 21.1876C421.695 21.1876 421.498 21.1594 421.3 21.1313V19.751L421.272 19.7228Z" fill="white"/>
<path d="M456.606 12.1445C456.606 12.1445 454.044 12.2009 452.889 12.229C451.735 12.2572 450.553 12.2572 449.342 12.2572C448.131 12.2572 446.949 12.2572 445.794 12.229C444.64 12.229 442.022 12.1445 442.022 12.1445H441.74V14.5107H442.05C442.05 14.5107 443.092 14.3981 443.57 14.3417C444.049 14.3135 444.556 14.2854 445.091 14.2572C445.626 14.2572 446.132 14.2009 446.667 14.2009C447.09 14.2009 447.484 14.2009 447.878 14.2009C447.934 16.0319 447.962 17.891 447.962 19.7502V24.5952C447.962 25.8347 447.962 27.0459 447.906 28.2572C447.85 29.4685 447.765 31.8065 447.765 31.8065V32.0882H451.059V31.8065C451.059 31.8065 450.947 29.4685 450.89 28.2572C450.834 27.0741 450.834 25.8347 450.834 24.5952V19.7502C450.834 17.891 450.834 16.0319 450.919 14.2009C451.313 14.2009 451.735 14.2009 452.157 14.2009C452.664 14.2009 453.199 14.229 453.706 14.2572C454.241 14.2572 454.748 14.3135 455.226 14.3417C455.705 14.3981 456.69 14.4826 456.69 14.4826H457V12.1445H456.718H456.606Z" fill="white"/>
<path d="M69.4001 12.3169C68.3021 12.3169 67.2322 12.3733 66.1905 12.4859V10.7113C66.1905 6.7113 66.3313 4.65496 67.0915 3.33101C67.9079 1.95073 68.5837 1.41552 70.3855 1.13383L71.5398 0.936647C71.5398 0.936647 71.6243 0.683126 71.6243 0.542281C71.6243 0.345098 71.5117 0.260591 71.4835 0.232422H51.0999C51.0999 0.232422 50.9591 0.373267 50.9591 0.542281C50.9591 0.683126 51.0154 0.936647 51.0436 0.936647L52.5639 1.13383C54.3939 1.35918 55.0978 1.89439 55.8861 3.27468C56.6463 4.62679 56.7589 6.7113 56.787 10.7113V14.5704C53.0988 15.7817 49.1009 17.3874 44.2866 19.2183L44.174 19.2747L44.0613 19.2183C41.5275 17.669 38.8247 16.2324 35.6714 15.0493C30.0687 12.9648 24.6068 12.0071 19.7079 11.8662V10.7113C19.7079 6.7113 19.8487 4.65496 20.6089 3.33101C21.4254 1.95073 22.1011 1.41552 23.9029 1.13383L25.0291 0.936647C25.0291 0.936647 25.1136 0.683126 25.1136 0.542281C25.1136 0.345098 25.0009 0.260591 24.9728 0.232422H4.58914C4.58914 0.232422 4.44837 0.373267 4.44837 0.542281C4.44837 0.683126 4.53283 0.936647 4.53283 0.936647L6.05315 1.13383C7.85502 1.35918 8.55888 1.89439 9.37535 3.27468C10.1355 4.62679 10.2481 6.7113 10.2763 10.7113V12.7958C7.60164 13.4437 5.3493 14.4296 3.71636 15.6127C1.32325 17.3028 0 19.8944 0 21.9507C0 22.0071 0 22.0634 0 22.0916C0.0563084 24.1479 1.32325 26.0634 3.63189 27.5C5.29299 28.5141 7.48902 29.3874 10.2481 29.8944C10.2481 33.7817 10.1074 35.8381 9.3472 37.162C8.53073 38.5704 7.82687 39.1057 6.025 39.3028L4.50467 39.5C4.50467 39.5 4.42021 39.669 4.42021 39.8381C4.42021 40.0352 4.56098 40.2043 4.56098 40.2324H24.9446C24.9446 40.2324 25.0854 40.0352 25.0854 39.8381C25.0854 39.6972 25.0009 39.5282 25.0009 39.5L23.8748 39.3028C22.0729 39.0212 21.3972 38.4859 20.5807 37.1057C19.8206 35.8099 19.7079 33.7817 19.6798 29.8944C24.4942 29.1902 30.2658 27.4719 37.0791 24.1197C39.2188 23.0775 41.6964 21.9226 43.8643 21.0775L44.005 21.0212L44.1176 21.1057C50.5087 25.3028 53.9435 31.6127 55.4919 35.1902C55.4919 35.1902 56.1676 36.7395 55.3793 37.8944C55.3793 37.9507 55.323 37.9789 55.2949 38.0071C55.2949 38.0352 55.2386 38.0634 55.2104 38.0916C54.591 38.7958 53.859 39.1338 52.5358 39.3028L51.0154 39.5C51.0154 39.5 50.931 39.669 50.931 39.8381C50.931 40.0352 51.0436 40.2043 51.0717 40.2324H71.4554C71.4554 40.2324 71.5962 40.0352 71.5962 39.8381C71.5962 39.6972 71.5117 39.5282 71.5117 39.5L70.3574 39.3028C68.5555 39.0212 67.8798 38.4859 67.0633 37.1057C66.3032 35.7817 66.1905 33.7254 66.1624 29.7254V14.7958C66.641 14.7958 67.1478 14.7395 67.6546 14.7395C79.1978 14.6268 82.6608 18.2888 84.7723 20.1197C85.0257 20.0916 85.1946 19.9226 85.3073 19.6972C85.2509 19.3028 82.3229 12.2888 69.372 12.2888L69.4001 12.3169ZM4.02605 22.2888C3.74451 20.2043 4.6736 18.993 6.30654 17.6127C7.17932 16.8803 8.55888 16.1479 10.2481 15.5564V26.7676C9.12196 26.5141 8.0521 26.1761 7.12301 25.8381C5.659 25.2465 4.27944 24.1761 4.02605 22.3169V22.2888ZM41.8372 20.3451C40.2605 21.0212 37.2762 22.3451 35.5306 22.993C29.5338 25.6409 24.2408 26.9085 19.6798 27.3028V13.7817C20.1303 13.7817 20.5807 13.7535 21.0312 13.7535C25.198 13.7535 29.9279 14.5141 34.9394 16.3733C37.2762 17.2465 39.9227 18.5986 41.8653 19.7817L42.3721 20.0916L41.809 20.3169L41.8372 20.3451ZM56.7589 29.7254C56.7589 29.8662 56.7589 30.0071 56.7589 30.1761C54.2813 27.1902 50.8183 23.7254 46.3418 20.5704L45.8632 20.2324L46.4263 20.0352C50.5931 18.5423 53.859 17.3592 56.787 16.4859V29.7254H56.7589Z" fill="white"/>
</svg>
