<svg width="201" height="110" viewBox="0 0 201 110" fill="none" xmlns="http://www.w3.org/2000/svg">
<g clip-path="url(#clip0_1_922)">
<path d="M150.184 44.9384C150.918 44.4741 151.773 44.804 152.543 44.5963C153.752 44.7307 154.913 44.8162 155.438 46.2702C155.658 46.8689 156.257 46.7467 156.342 46.0136C156.501 44.6207 157.625 44.3519 158.603 44.4497C160.13 44.5963 161.731 44.5963 163.111 45.4516C163.27 45.5493 163.453 45.7448 163.575 45.6959C165.054 44.9995 166.52 46.1236 167.925 45.7937C170.051 45.2927 172.128 45.5738 174.23 45.7448C175.17 46.3313 176.111 46.9178 176.539 48.0174C176.062 49.2759 175.012 49.618 173.814 49.6791C170.796 49.8379 170.1 50.5465 170.014 53.6011C170.014 53.8454 170.039 54.0776 170.063 54.3219C170.576 58.4517 170.308 58.8304 166.129 59.979C165.567 60.1378 165.091 60.3455 165.042 60.9931C164.993 61.604 165.31 62.0194 165.836 62.2882C166.471 62.6059 167.278 62.5814 167.717 63.2656C167.681 64.292 166.764 64.5852 166.129 65.0495C164.651 66.1247 163.258 67.2243 162.867 69.167C162.745 69.7657 162.293 70.2055 161.804 70.5843C160.448 71.2807 160.044 72.8569 158.884 73.7366C158.456 74.0665 158.138 74.6163 157.601 74.7018C155.34 75.0806 153.41 76.0336 151.626 77.4753C151.027 77.9641 150.417 78.3673 149.928 79.0026C148.926 80.3222 147.716 81.3851 145.859 81.2874C144.21 81.2019 143.452 80.591 143.135 78.9537C143.037 78.4161 143.049 77.8663 142.902 77.3409C142.585 76.2535 141.998 75.6915 140.764 76.0825C139.115 76.5956 137.624 76.4246 136.231 75.1783C134.24 73.4067 133.995 71.0242 136.097 69.3014C138.87 67.0166 140.764 63.7666 144.173 62.1538C145.297 61.6284 145.212 59.7346 144.198 58.2806C143.611 57.4376 142.817 56.7656 142.206 55.947C140.508 53.6988 140.532 51.3041 142.902 49.8379C145.358 48.3106 147.973 46.9422 150.808 45.6959C150.869 45.4271 150.221 45.3416 150.184 44.9384Z" fill="#B0D2AF"/>
<path d="M111.001 94.286C111.294 92.8809 111.465 91.4514 111.905 90.0952C114.691 81.5058 118.283 73.2708 122.608 65.3412C122.694 65.1946 122.853 65.0969 122.987 64.9747C124.27 64.7303 124.465 63.4108 124.917 62.6166C126.359 60.1241 128.033 57.8148 130.135 55.921C131.54 54.6503 132.627 53.0742 134.154 51.9624C134.484 51.718 134.741 51.2904 135.217 51.3514C136.683 51.5347 136.964 50.484 137.27 49.4454C137.93 48.3947 139.115 48.2114 140.117 47.7227C141.314 48.3336 140.337 49.0789 140.227 49.7631C141.412 49.3232 141.73 50.1907 141.583 50.9482C141.29 52.4022 140.996 53.9783 139.652 54.9069C138.834 55.469 138.186 56.1287 137.636 56.9351C136.781 58.1692 135.523 58.7312 134.069 58.8045C131.747 58.9145 130.306 60.2463 129.218 62.1034C128.754 62.8976 128.18 63.5818 127.605 64.2905C126.445 65.7322 126.445 66.5264 127.544 68.0048C128.9 69.8375 128.791 70.3995 126.921 71.8046C125.113 73.1608 122.962 73.9795 121.435 75.8244C119.835 77.7671 119.81 78.2069 122.144 78.9156C122.779 79.1111 123.439 79.2455 124.038 79.5387C125.993 80.4795 126.603 81.7869 125.834 83.8028C125.235 85.379 125.015 87.0895 124.062 88.5313C123.854 88.8489 123.793 89.2277 124.013 89.5576C124.294 90.0097 124.783 89.9852 125.15 89.7775C128.07 88.1892 131.454 88.2869 134.509 87.1628C135.144 86.9307 135.779 86.723 136.402 87.1873C137.038 89.2277 139.567 89.9119 141.167 88.4335C142.059 87.6027 142.915 86.9307 144.149 87.7982C144.967 89.1544 146.275 88.9956 147.533 88.8367C148.559 88.7145 149.561 88.5557 150.551 89.02C151.871 89.6309 152.127 90.6084 151.26 91.7813C151.003 92.1234 150.734 92.5022 150.343 92.6366C148.095 93.443 146.739 95.3734 144.98 96.803C144.246 97.4017 143.77 98.1225 143.477 99.0022C142.744 101.153 143.355 101.922 145.627 102.142C148.12 102.399 150.514 101.764 152.97 101.702C155.719 100.468 158.542 99.6131 161.596 99.5276C163.013 99.491 163.942 98.5746 164.736 97.4017C165.897 95.6911 167.888 95.7155 169.672 95.4223C170.112 95.349 170.943 95.6178 170.589 96.5342C166.948 98.318 164.015 101.275 160.215 102.79C156.904 103.706 153.288 103.12 150.148 105.001C147.863 106.37 145.187 107.201 142.707 107.64C140.508 108.031 137.832 107.567 135.559 106.92C133.812 106.419 132.163 105.808 130.33 105.942C129.169 106.028 128.375 105.539 127.715 104.647C127.214 103.963 126.836 103.205 126.335 102.521C125.541 101.446 124.563 100.957 123.195 101.568C121.02 102.533 120.177 102.167 119.835 99.8697C119.59 98.2691 119.163 97.7926 117.525 98.4524C116.487 98.8678 115.29 98.3424 114.715 97.3406C114.153 96.3509 114.984 95.7155 115.705 95.1046C117.012 93.9928 117.513 91.3292 116.78 89.7531C116.646 89.4721 116.56 89.2033 116.181 89.1911C115.155 89.1788 112.87 90.7916 112.504 91.8057C112.406 92.0868 112.321 92.38 112.223 92.6732C111.942 93.3086 111.807 94.0294 111.025 94.286H111.001Z" fill="#A6CB99"/>
<path d="M136.427 87.3472C134.13 87.5672 131.968 88.4347 129.658 88.7523C128.082 88.9723 126.592 89.8031 125.089 90.4018C124.429 90.6706 123.855 90.6217 123.513 90.0352C123.183 89.461 123.012 88.7768 123.513 88.1781C124.893 86.5164 125.125 84.3782 125.761 82.4355C126.213 81.0671 124.808 80.3462 123.72 79.8331C122.865 79.4299 121.9 79.2222 120.971 79.0023C119.688 78.709 119.102 77.7316 120.006 76.8519C121.484 75.4101 122.303 73.2597 124.71 72.6977C125.785 72.4533 126.689 71.4026 127.63 70.6573C128.437 70.0219 128.241 69.3988 127.618 68.6657C125.614 66.332 125.639 65.8066 127.691 63.4852C128.803 62.2389 129.304 60.5651 130.721 59.4899C131.528 58.879 132.297 58.4269 133.287 58.3658C135.291 58.2558 137.075 57.8282 137.844 55.6045C137.967 55.2379 138.541 54.9569 138.956 54.7614C140.667 53.9428 141.07 52.2689 141.241 50.7172C141.424 49.0311 140.313 50.5095 139.812 50.4484C139.592 49.4221 140.752 48.6524 140.141 47.6627C142.707 46.7463 145.212 45.6589 147.924 45.2068C148.682 45.0847 149.439 44.9869 150.197 44.877C150.539 44.9991 150.881 45.1091 151.211 45.2557C151.59 45.4146 152.103 45.5245 151.907 46.0988C151.761 46.5508 151.321 46.4042 150.979 46.4042C150.796 46.4042 150.576 46.3553 150.441 46.4287C147.387 48.3347 143.257 48.6768 141.522 52.5377C141.143 53.393 141.461 54.1017 141.925 54.7248C142.719 55.7755 143.636 56.7408 144.479 57.7671C146.067 59.6731 145.823 61.738 143.746 62.9109C140.422 64.7803 138.455 68.0792 135.584 70.4373C134.631 71.2193 134.949 72.881 135.584 73.9561C136.598 75.6423 138.602 76.2287 140.459 75.6911C142.426 75.1291 143.245 75.6178 143.489 77.6094C143.648 78.8312 143.33 80.2729 144.968 80.725C146.532 81.1649 148.535 80.3218 149.537 78.8801C151.138 76.5586 153.447 75.1413 156.086 74.6037C157.992 74.2127 159.006 73.0764 159.898 71.6958C160.362 70.9871 160.753 70.4129 161.621 70.3151C162.256 70.2785 162.672 69.2888 163.454 69.8753C163.625 70.6817 163.307 71.3659 162.659 71.7569C159.886 73.4186 157.992 76.2776 154.791 77.3406C152.396 78.1348 150.551 79.8086 148.67 81.397C148.254 81.7513 147.802 82.1301 147.252 82.1667C144.674 82.3745 142.548 83.9628 140.093 84.5004C139.518 84.6226 139.225 85.1235 138.895 85.5512C138.248 86.3698 137.515 87.0784 136.439 87.2739L136.427 87.3472Z" fill="#ACD0A7"/>
<path d="M162.867 83.253C166.361 83.3019 169.501 82.8254 171.823 79.6487C173.167 77.8037 175.61 78.3047 176.233 80.4306C177.089 83.3508 179.08 84.2549 181.805 84.316C184.444 84.0594 185.874 82.5322 186.374 80.003C186.509 79.2943 186.643 78.5857 186.753 77.877C186.949 76.6308 187.56 75.6655 188.61 75.0546C190.406 70.6683 192.716 66.4653 195.367 62.641C195.465 62.4699 195.575 62.2867 195.672 62.1156C194.561 61.9812 193.449 62.1156 192.545 62.751C190.419 64.2294 188.415 65.891 186.069 67.0273C185.751 67.3572 185.641 68.0659 185.092 67.9559C183.906 67.7115 182.721 68.4446 181.548 67.907C180.95 67.626 180.424 67.7115 179.874 68.0903C178.775 68.8478 177.553 69.2144 176.209 69.3365C174.67 69.4709 173.106 69.6909 172.14 71.1571C168.744 73.5885 165.897 76.8018 161.841 78.2924C160.216 78.8911 159.287 80.174 159.556 81.3592C159.825 82.5688 161.107 83.2408 162.879 83.2652L162.867 83.253Z" fill="#A5CEBB"/>
<path d="M111.868 92.2221C112.332 90.7803 112.491 89.0942 114.788 89.4608C115.521 89.583 116.083 87.738 116.768 88.52C117.525 89.3875 117.855 90.8781 117.574 92.1121C117.256 93.4806 117.342 95.1789 115.485 95.7898C114.862 95.9975 114.532 96.9872 115.008 97.2437C115.766 97.6469 116.474 98.5267 117.537 98.1112C119.044 97.5248 119.92 98.0176 120.164 99.5896C120.519 101.911 121.105 102.217 122.987 101.08C124.184 100.359 125.821 100.824 126.713 102.192C127.08 102.742 127.41 103.316 127.715 103.903C128.411 105.234 129.401 105.625 130.953 105.479C132.48 105.344 134.142 105.271 135.473 106.578C136.231 107.324 137.343 106.859 138.247 106.639C139.114 106.42 139.823 106.432 140.605 106.982C141.204 107.409 142.059 107.886 142.804 107.373C144.918 105.906 147.716 106.139 149.732 104.685C152.005 103.06 154.497 103.133 157.002 103.072C157.662 103.06 157.833 102.424 158.395 102.375C159.042 102.326 159.812 101.63 160.178 102.791C155.633 105.528 150.648 107.116 145.505 108.203C141.448 109.071 137.367 109.816 133.189 109.718C131.295 107.971 128.631 107.971 126.713 109.743C126.42 109.914 126.139 109.902 125.846 109.743C125.32 109.279 125.516 108.619 125.394 108.045C124.978 106.053 123.585 105.002 121.826 105.283C121.203 105.381 120.653 105.515 120.433 106.212C120.201 106.957 119.529 107.14 118.881 107.299C116.853 107.8 115.827 107.299 115.411 105.259C115.008 103.304 113.701 101.679 113.603 99.6141C113.566 98.7954 112.797 98.1479 112.198 97.5492C111.489 96.8528 111.55 96.2907 112.235 95.5576C113.762 93.9082 113.676 93.4439 111.856 92.2221H111.868Z" fill="#9FC788"/>
<path d="M163.355 69.8617C162.769 70.0206 162.353 70.7292 161.62 70.3749C162.854 69.2752 162.463 67.2837 163.868 66.2574C165.163 65.3043 166.422 64.3147 167.693 63.3372C168.963 62.0421 170.637 61.9077 172.225 62.1276C174.18 62.3964 175.915 61.7977 177.357 60.8081C180.717 58.4988 184.529 57.1548 188.085 55.2977C188.488 55.09 189.16 55.1022 189.196 54.5279C189.233 53.9415 188.634 53.7704 188.194 53.6482C185.983 53.0373 184.175 51.7666 182.501 50.2638C180.766 48.7121 178.738 48.0279 176.428 48.0279C175.646 47.3559 174.865 46.6839 174.083 45.9997C174.058 45.8042 174.083 45.5965 174.254 45.5232C175.524 44.9489 175.5 44.1181 174.742 43.1406C179.202 43.2384 183.307 44.448 187.266 46.5251C189.746 47.8202 192.544 48.5288 195.195 49.4941C195.342 49.8117 195.403 50.3005 195.745 50.3738C197.248 50.7037 196.808 51.7422 196.32 52.3898C195.305 53.7215 194.291 55.1511 192.556 55.652C191.921 55.8353 191.53 56.214 191.188 56.7272C190.724 57.558 190.369 58.5966 189.086 57.6924C188.634 57.3748 188.194 57.6191 187.791 57.9368C186.46 58.9509 184.92 59.7207 184.236 61.3945C183.955 61.6267 183.637 61.7366 183.283 61.7611C181.731 61.7366 180.399 62.3231 179.043 63.044C176.416 64.4491 173.826 65.903 170.735 66.2574C168.413 66.5262 166.226 67.467 164.504 69.2142C164.223 69.5074 164.039 70.1427 163.392 69.8373L163.355 69.8617Z" fill="#A0CBB4"/>
<path d="M177.92 68.7017C179.447 68.0297 180.901 67.4432 182.734 67.932C183.858 68.2252 185.385 68.4451 186.375 67.1622C187.878 66.5391 189.271 65.8427 190.566 64.7308C191.543 63.8877 192.569 62.8126 194.072 62.5315C194.451 62.4582 194.915 62.7026 195.318 62.6782C195.355 62.6293 195.38 62.5926 195.404 62.5438C195.722 61.9817 196.052 61.4197 196.394 60.8699C196.394 60.8454 196.406 60.821 196.418 60.8088C195.245 60.5766 194.72 59.4403 195.111 58.023C195.209 57.6809 195.355 57.351 195.453 57.0089C195.563 56.6668 195.636 56.2881 195.282 56.0437C194.842 55.726 194.5 56.0315 194.182 56.3003C193.779 56.6546 193.474 57.1067 193.046 57.4243C192.215 58.0475 191.8 59.196 190.627 59.3915C189.6 59.6481 188.501 58.8661 187.511 59.6847C186.473 60.5522 185.214 60.9554 183.931 61.2731C183.675 61.2975 183.418 61.3342 183.149 61.3586C183.039 62.1039 182.905 62.6781 181.952 62.9347C179.814 63.509 177.761 64.4253 175.562 64.7919C174.193 65.024 173.876 66.3069 173.167 67.1378C172.739 67.6387 173.485 68.3229 174.022 68.7261C175.317 69.7158 176.6 69.276 177.895 68.7017H177.92Z" fill="#6BB078"/>
<path d="M170.576 96.5221C170.454 95.9356 169.843 95.5935 169.525 95.7402C167.986 96.4855 165.848 95.9723 164.882 98.0372C164.296 99.3079 163.037 99.9676 161.657 100.017C158.944 100.102 156.366 100.579 153.959 101.861C153.715 101.996 153.373 101.947 153.067 101.984C151.723 101.874 152.249 101.018 152.579 100.469C153.959 98.1471 155.377 96.1678 158.749 96.4366C160.252 96.5588 162.317 96.1556 163.587 94.6283C163.819 94.3473 164.149 94.0052 164.467 94.0418C166.74 94.2373 167.827 92.429 169.244 91.2317C170.6 90.0832 171.944 89.4356 173.679 90.242C174.412 90.5841 174.865 90.242 175.402 89.741C176.331 88.8613 176.856 87.4685 178.347 87.2363C179.312 87.835 179.593 88.7758 179.678 89.8266C176.954 92.4779 173.973 94.7871 170.576 96.5343V96.5221Z" fill="#A2CA9E"/>
<path d="M111.868 92.222C113.017 91.9165 114.08 92.955 113.823 94.128C113.652 94.8733 113.249 95.4598 112.614 95.8752C112.015 96.2662 111.673 96.4983 112.443 97.1703C113.64 98.2211 114.08 99.6017 114.447 101.215C114.837 102.949 115.644 104.672 116.279 106.407C116.707 107.556 117.721 106.688 118.442 106.981C118.747 107.104 119.737 106.92 120.067 106.175C120.653 104.843 122.486 104.318 123.732 105.027C125.614 106.09 126.09 107.751 125.858 109.755C121.496 109.621 117.318 108.668 113.237 107.165C111.954 106.688 111.184 105.967 111.05 104.489C110.757 101.092 110.305 97.7079 110.989 94.3113C111.282 93.627 111.563 92.9306 111.856 92.2464L111.868 92.222Z" fill="#93C075"/>
<path d="M174.731 43.1539C176.564 44.3146 176.49 44.6323 174.083 46.013C171.848 46.1718 169.563 45.5487 167.351 46.404C166.838 46.5994 166.288 46.2818 165.836 45.9641C165.543 45.7564 165.274 45.4387 164.92 45.8419C164.028 46.8316 163.442 45.9641 162.562 45.732C160.9 45.2921 159.165 44.2169 157.308 45.1455C156.941 45.3288 156.441 45.4632 156.783 46.0374C157.027 46.4528 157.467 46.9538 156.722 47.1615C156.196 47.3081 155.121 47.4303 155.084 46.9415C154.938 45.2677 153.508 45.231 152.543 44.5957C159.91 43.6304 167.254 42.4331 174.731 43.1539Z" fill="#9DC8A0"/>
<path d="M185.08 83.7552C185.52 82.9855 185.947 82.228 186.363 81.4582C187.059 79.0268 187.914 76.6198 188.916 74.2617C187.01 75.2392 186.204 76.7909 186.045 78.9168C185.837 81.617 184.628 83.5353 181.72 83.9752C179.691 84.2317 178.824 85.5757 178.519 87.4329C178.714 88.3248 179.068 89.1312 179.667 89.8276C181.695 87.9949 183.442 85.9423 185.08 83.7552Z" fill="#93C3A7"/>
<path d="M191.799 59.5633C192.703 58.3049 193.876 57.2419 194.964 56.0812C195.733 56.9242 194.206 57.2663 194.841 57.9506C194.988 58.1583 195.22 58.3537 195.428 58.2438C196.821 57.5474 198.348 57.1442 199.668 56.3133C199.997 55.9223 200.34 55.5314 200.694 55.1404C200.718 55.006 200.706 54.8594 200.669 54.6883C199.509 52.2569 197.847 50.3509 195.184 49.5078C195 50.4486 194.744 51.4505 196.271 50.974C196.54 53.1977 194.072 53.4543 193.265 55.006C193.045 55.4336 191.335 55.3725 190.724 56.3988C190.883 56.9731 190.59 57.474 190.321 57.9139C189.844 58.6959 190.101 59.2701 190.626 59.8444C191.054 59.9543 191.335 60.1987 191.787 59.5756L191.799 59.5633Z" fill="#84BDA1"/>
<path d="M196.43 60.7966H196.454C197.749 58.6951 199.252 56.7035 201.012 54.8097C200.902 54.773 200.792 54.7242 200.682 54.6875C199.252 56.7035 196.845 56.9479 194.842 57.9497C193.608 59.0127 194.903 59.7703 195.147 60.6744C195.501 61.994 195.99 60.9676 196.43 60.8088V60.7966Z" fill="#329B51"/>
<path d="M137.27 49.4458C137.527 49.4825 138.052 49.4092 137.82 49.8246C137.392 50.6065 136.806 51.303 136.256 52.0238C136.158 52.146 135.963 52.256 135.816 52.2682C133.813 52.4026 132.872 53.099 132.212 54.9806C132.114 55.2617 132.163 55.6282 131.784 55.6526C129.842 55.7259 129.475 57.5464 128.388 58.5972C126.359 60.5521 125.26 63.179 123.378 65.2194C123.354 65.2439 123.122 65.0606 122.987 64.9751C123.855 63.6555 124.808 62.3726 125.59 61.0042C128.437 56.0803 132.481 52.3904 137.27 49.4336V49.4458Z" fill="#89BB73"/>
<path d="M126.738 109.743C126.677 109.523 126.494 109.181 126.567 109.107C127.825 107.873 129.658 108.338 131.161 107.69C131.747 107.446 133.104 108.423 133.201 109.718C131.051 109.987 128.888 110.17 126.726 109.743H126.738Z" fill="#93C075"/>
<path d="M176.429 48.0299C179.374 46.8447 181.426 48.7507 183.332 50.3391C184.957 51.6953 186.656 52.6605 188.623 53.2959C189.283 53.5036 189.942 53.8213 189.942 54.591C189.942 55.373 189.124 55.2996 188.623 55.5684C184.97 57.4623 181.048 58.794 177.627 61.2132C176.258 62.1785 174.499 63.1193 172.434 62.5572C170.821 62.1174 169.245 62.8871 167.705 63.3392C167.131 63.1804 166.557 63.0215 165.983 62.8749C164.895 62.6061 164.37 61.873 164.443 60.7978C164.529 59.7593 165.274 59.4905 166.227 59.4294C169.331 59.2461 170.43 57.841 169.685 54.8964C169.306 53.4058 169.721 52.0374 170.112 50.7056C170.467 49.5082 171.664 48.8973 172.862 49.1417C174.352 49.4472 175.415 48.9096 176.441 48.0176L176.429 48.0299Z" fill="#AED2B8"/>
<path d="M181.732 83.9621C180.07 84.573 179.472 86.1491 178.531 87.4198C177.138 87.9941 176.417 89.277 175.562 90.3644C174.939 91.1463 174.474 91.3418 173.656 90.7798C172.373 89.9001 171.175 90.1445 170.064 91.1586C169.355 91.8061 168.707 92.5392 167.913 93.0524C167.046 93.6144 166.667 95.5449 165.03 94.2131C164.981 94.1642 164.749 94.2253 164.7 94.2986C163.661 96.1313 161.56 96.0214 160.02 96.9377C159.532 97.231 159.202 97.2188 158.713 97.121C156.221 96.6079 155.316 97.0599 154.046 99.2714C153.789 99.7235 153.349 100.078 153.007 100.505C152.616 101.006 152.262 101.52 153.068 101.984C150.955 102.363 148.853 102.717 146.69 102.705C146.458 102.705 146.214 102.509 145.994 102.534C144.65 102.692 143.184 102.925 142.756 101.19C142.341 99.5036 142.952 97.8541 144.235 96.8156C145.114 96.1069 145.884 95.3005 146.69 94.5308C147.521 93.7366 148.23 92.9424 149.452 92.6736C150.075 92.5392 150.637 91.8672 151.077 91.3174C151.688 90.5477 151.492 89.8879 150.539 89.4725C149.672 89.0937 148.804 88.9226 147.912 89.277C146.959 89.6557 146.006 89.3381 145.065 89.2892C144.21 89.2403 143.734 88.7638 143.978 87.823C145.505 86.6989 146.605 85.0128 148.499 84.3531C148.78 84.2553 149.048 83.9743 149.33 84.0109C151.382 84.3164 152.506 83.0579 153.618 81.6528C154.913 80.0278 156.978 79.3558 158.432 77.9019C158.603 77.7308 158.835 77.6086 159.067 77.572C163.16 76.8633 166.166 74.0287 169.685 72.1838C170.552 71.7317 171.383 71.0353 172.495 71.3041C172.141 72.7214 170.662 73.0146 169.722 73.6866C167.877 75.0184 166.142 76.509 164.321 77.8652C163.6 78.4028 162.721 78.3295 161.963 78.6716C160.937 79.1481 159.727 79.6735 159.935 81.0541C160.143 82.5448 161.377 82.8136 162.672 82.7891C163.869 82.7647 165.091 82.8502 166.276 82.667C168.243 82.3737 169.905 81.5429 170.992 79.7102C171.823 78.3173 173.314 77.9263 174.78 78.0974C175.941 78.2318 176.613 79.3192 176.808 80.3944C177.236 82.8258 178.824 83.6322 181.035 83.7421C181.268 83.7544 181.5 83.8643 181.732 83.9254V83.9621Z" fill="#AACFB0"/>
<path d="M172.483 71.3041C168.829 73.3812 165.03 75.1773 161.621 77.6698C161.474 77.7675 161.303 77.9019 161.144 77.8897C158.041 77.6454 156.514 80.2478 154.314 81.6407C153.569 82.1172 153.154 82.8381 152.653 83.4978C152.262 83.9988 151.883 84.4753 151.199 84.3898C148.902 84.121 147.277 85.1962 145.884 86.8823C145.42 87.4443 144.711 87.7009 143.978 87.8109C142.817 87.6154 142.047 87.9453 141.278 89.0082C140.435 90.1812 138.981 89.4725 137.759 89.4237C136.268 89.3748 135.804 88.715 136.415 87.3466C137.343 86.3569 138.602 85.6849 139.201 84.3776C139.262 84.2432 139.494 84.121 139.653 84.1088C142.304 83.901 144.381 81.9339 147.13 81.824C148.608 81.7629 149.671 80.2356 150.637 79.307C152.262 77.7675 154.314 77.3643 156.037 76.2158C157.247 75.4094 158.749 75.1162 159.446 73.4912C159.739 72.807 160.814 72.3793 161.621 72.0006C162.586 71.5485 163.124 70.8521 163.356 69.8502C165.237 67.3821 167.876 66.1236 170.821 65.8182C173.68 65.5127 176.05 64.1443 178.469 62.8858C179.985 62.1039 181.414 61.3219 183.161 61.3341C183.784 62.4093 183.491 62.9958 182.257 63.3012C179.923 63.8755 177.773 65.0484 175.317 65.2317C174.877 65.2684 173.924 65.6227 174.413 66.6124C174.511 66.7956 174.633 66.9789 174.413 67.2477C174.12 67.5898 173.326 66.1359 173.46 67.4799C173.546 68.3107 174.706 68.8361 175.073 68.8116C175.891 68.7628 176.771 68.8972 177.651 68.384C179.288 67.4188 181.048 66.8445 183.088 67.6753C184.078 68.0785 185.299 67.5165 186.362 67.15C186.081 68.1152 185.715 68.7505 184.456 68.4207C183.259 68.103 181.952 69.0438 180.693 68.0908C180.314 67.7975 180.046 68.8727 179.508 69.0193C178.054 69.4225 176.502 70.3022 175.146 70.0823C173.668 69.838 173.301 70.8154 172.47 71.3041H172.483Z" fill="#98C6A1"/>
<path d="M143.489 91.1225C143.037 90.9026 142.353 90.7926 142.67 90.0595C142.89 89.5464 143.391 89.5219 143.892 89.7296C144.417 89.9496 144.894 90.255 144.686 90.9026C144.466 91.5868 143.929 91.2203 143.489 91.1225Z" fill="#AACFB0"/>
<path d="M132.908 80.1008C132.383 81.5425 130.819 82.5077 129.389 81.9946C128.51 81.6769 127.117 82.1045 126.799 81.1515C126.445 80.0763 127.997 80.0885 128.497 79.3921C129.059 78.5979 129.695 77.9015 130.501 77.3517C131.234 76.8507 132.114 76.3987 132.835 76.9118C133.556 77.425 133.36 78.4269 133.214 79.2577C133.165 79.5509 133.018 79.8197 132.908 80.113V80.1008Z" fill="#A6CB99"/>
<path d="M190.737 56.3984C191.128 57.5592 189.832 58.6588 190.639 59.8317C188.928 59.5141 187.413 60.0517 186.094 61.0413C185.348 61.6034 184.701 61.5667 183.943 61.2613C184.249 60.5648 184.591 59.5996 184.945 59.2575C186.045 58.2556 187.487 57.608 188.855 56.9605C189.051 56.8749 189.576 57.4981 189.955 57.7913C190.529 57.4736 190.48 56.8505 190.724 56.3984H190.737Z" fill="#98C6A1"/>
<path d="M14.4665 44.7783C9.32268 38.6326 5.95048 31.6193 4.22773 23.7997C4.53318 22.1869 4.30104 20.6108 3.65348 19.1324C3.38468 18.5093 3.04257 17.9472 3.3969 17.2997C4.52096 15.247 4.55762 12.8889 5.24183 10.7141C5.65725 9.39453 5.03412 8.29489 4.06889 7.40297C3.1281 6.53548 3.00592 5.52137 3.40911 4.36065C4.02002 2.61345 4.61871 2.308 6.34146 2.95556C7.48996 3.3832 8.60181 3.92079 9.88471 3.70087C12.8659 5.58246 16.177 5.41141 19.5248 5.50915C24.5342 5.65577 29.5314 6.08341 34.4553 7.12195C34.5042 7.17082 34.6019 7.23191 34.5897 7.25635C34.0521 8.91802 29.2871 10.3353 28.0652 9.1746C27.8942 9.01576 27.882 8.67365 27.5277 8.74696C25.6094 9.15016 24.0211 7.85504 22.1761 7.75729C21.1498 7.6962 20.2945 7.72064 19.3904 8.31933C17.1667 9.82216 16.9956 10.1887 18.1319 12.6079C18.9994 14.4406 20.3556 15.8335 22.0906 16.872C23.9477 17.9717 25.866 19.0102 27.5032 20.4397C28.1263 21.0506 28.8228 21.576 29.4948 22.1258C30.57 23.2866 31.7185 24.3495 33.1113 25.1559C34.382 25.889 35.4694 26.7932 36.1292 28.1616C36.7279 29.4079 37.9497 29.7866 39.2204 30.031C40.039 30.1898 40.9676 30.1532 41.3952 31.1184C40.8698 32.3402 39.8191 31.7904 39.0982 31.5949C37.4365 31.1306 36.8012 31.5949 37.0456 33.3054C37.0822 33.562 36.96 33.8064 36.789 34.0141C35.3839 33.953 34.9074 32.5113 33.7833 31.9981C33.148 31.7049 32.6226 31.1673 31.8773 31.0451C30.7288 30.6908 29.7391 30.0799 28.8839 29.2368C27.6376 26.9154 25.2551 25.8768 23.2758 24.4351C19.9646 22.0037 17.1056 18.8758 13.037 17.5562C12.536 17.3974 12.0718 17.1286 11.5586 17.0064C10.7522 16.8232 9.77475 16.3222 9.21271 17.2264C8.65068 18.1427 7.9909 19.2668 8.7973 20.342C10.1169 22.1014 10.0435 23.873 9.46929 25.889C8.44297 29.4689 8.89504 32.7434 11.3264 35.8835C12.5605 37.4718 13.599 39.3901 14.3199 41.3816C14.5398 42.1147 14.6864 42.86 15.0285 43.5565C15.2851 44.0574 15.4439 44.7294 14.4665 44.7539V44.7783Z" fill="#C2D88B"/>
<path d="M31.9382 30.7148C33.6976 30.7148 34.6628 32.0955 35.8724 33.0363C36.2023 33.2929 36.2878 33.8427 36.8254 33.8916C36.9965 33.9404 37.1431 34.0382 37.2653 34.1726C37.6318 34.8812 38.0717 35.5166 38.8414 35.8342C39.9166 36.2497 40.7719 36.9828 41.6394 37.7158C44.6939 39.9151 47.443 42.4198 49.7033 45.4499C49.911 45.731 50.2531 45.792 50.5464 45.9509C52.1103 46.9039 52.7578 48.5045 53.271 50.1173C53.8086 51.7789 54.7372 52.6831 56.4966 53.0618C58.3415 53.465 59.8321 54.8579 61.4938 55.5788C63.8274 56.6051 64.2551 58.389 64.8293 60.3561C49.5078 62.4332 34.9683 60.6004 21.8827 51.7301C19.0725 49.824 16.6167 47.4415 14.4541 44.7902C14.9306 44.4725 15.0039 43.9471 14.6129 43.6661C13.7699 43.0796 14.0875 42.2243 13.9287 41.479C14.955 41.0881 15.0283 42.0289 15.4071 42.5298C16.2379 43.6172 16.6656 45.1811 18.4494 45.1567C20.1355 45.9142 21.8094 46.6717 22.7746 48.3945C23.0556 48.8832 23.4344 49.2498 24.0209 49.1887C25.0594 49.0909 25.9513 49.4208 26.8066 49.9706C27.503 50.4105 28.175 50.0806 28.8714 49.8485C31.7305 48.9077 34.5284 48.5778 37.0454 50.777C37.3386 51.0336 37.7174 51.2658 38.1083 51.2658C40.613 51.278 42.5557 52.7075 44.6206 53.8194C45.3537 54.2103 46.0868 54.9557 46.9665 54.4303C47.9561 53.8438 47.5529 52.793 47.4796 51.9011C47.0031 46.5129 44.2174 42.542 39.9899 39.3286C37.3142 37.3004 34.3329 35.5288 32.5613 32.4865C32.2314 31.9244 31.6938 31.4724 31.926 30.7271L31.9382 30.7148Z" fill="#C7DB97"/>
<path d="M41.3338 31.4121C38.2182 30.6301 35.8356 28.9318 33.8074 26.3904C32.549 24.8265 30.3008 24.1667 29.1523 22.3218C30.1054 21.2954 30.924 22.1385 31.4616 22.7005C35.0659 26.4393 39.9043 27.4778 44.596 28.8218C46.6609 29.4205 48.7013 30.1414 50.9494 29.8359C53.6374 29.4572 54.0528 28.7485 53.4419 26.085C53.0876 24.5699 52.6844 23.1893 51.4993 22.1263C50.2652 20.7334 48.8479 19.4016 49.9476 17.2635C51.5359 16.8603 53.1853 17.9599 52.9654 19.5482C52.6844 21.5398 53.5397 22.1385 55.2746 22.1751C55.9711 22.1874 56.5331 22.9205 57.3029 22.5906C58.0726 23.0304 58.5491 23.7635 59.1111 24.4233C59.722 27.038 61.9946 28.4919 63.3752 30.5812C63.2775 32.9516 64.6948 34.711 65.7333 36.6537C66.3687 37.8266 66.9796 38.9262 65.6478 40.3558C64.7437 41.321 64.3527 43.0071 64.6581 44.4488C65.0613 46.2938 64.988 48.2731 66.0144 49.9592C66.5153 50.7901 66.0632 51.1444 65.3301 51.3887C62.972 52.1585 60.8828 51.4254 59.5632 49.2628C59.0134 48.3586 58.4147 47.5156 57.535 46.8802C57.2173 46.6481 56.8997 46.3915 56.7408 46.025C54.6149 41.3088 50.9617 38.0832 46.6853 35.3463C44.8282 34.1612 43.0321 32.8538 41.346 31.4121H41.3338Z" fill="#C5DA98"/>
<path d="M50.1916 17.1541C49.5074 19.2312 50.7048 20.6241 51.951 22.0048C50.7537 22.469 49.9106 21.6016 49.1897 21.0151C46.9661 19.1946 44.3514 19.4267 41.8711 19.6589C38.8899 19.9277 36.0064 20.1842 33.2573 18.7181C33.2329 18.7059 33.1718 18.6814 33.0741 18.6448C29.7752 17.4718 28.8955 17.7773 27.3193 20.6485C24.3992 18.6448 20.9659 17.3619 18.6323 14.5395C17.606 13.2932 17.2761 11.7171 16.7629 10.2387C16.6896 10.0187 16.7629 9.71329 16.8729 9.49337C17.2638 8.68697 20.9171 7.14748 21.8945 7.25745C23.4096 7.4285 24.9246 7.66065 26.2564 8.35708C27.3438 8.93133 27.5759 7.85614 28.3335 7.5629C28.8588 8.12494 27.8569 9.02908 28.6633 9.4445C29.4575 9.85991 30.0073 9.1757 30.6549 8.9069C31.95 8.38152 33.575 8.56479 34.4425 7.12305C35.4566 7.28188 36.5196 7.28188 37.3993 7.92944C37.4848 8.35708 37.7047 8.34486 37.9858 8.11272C38.5233 8.01497 38.951 8.21046 39.3053 8.61366C39.2686 9.10239 39.4153 9.53002 39.8307 9.81104C42.0177 11.3139 43.9604 13.2688 46.6728 13.8675C48.53 14.2829 49.6418 15.3825 50.1916 17.1419V17.1541Z" fill="#D0DF97"/>
<path d="M41.3334 31.4127C46.7583 34.2107 51.6577 37.6806 55.4453 42.5434C56.1295 43.4232 56.5816 44.8649 57.0948 45.3658C58.8297 47.1008 59.685 49.6178 61.872 50.864C63.1305 51.5849 64.5234 50.6319 65.733 50.974C64.9021 47.9683 63.3749 45.2681 64.4989 42.1647C64.8777 41.1384 64.2912 39.6233 66.0262 39.2323C66.2828 39.1712 66.0262 38.6459 65.8918 38.3526C65.4153 37.3019 65.1587 36.0678 64.4134 35.2614C63.1916 33.9174 62.8617 32.4879 63.0816 30.8018C63.7292 30.2276 63.8758 30.924 63.9736 31.2417C64.5845 33.3432 66.3805 34.9071 66.6127 37.1797C66.6493 37.4974 66.7837 37.9739 67.3458 37.8639C68.4209 40.6741 68.6898 43.5942 68.5554 46.5632C67.4191 47.2597 68.1399 48.4815 68.0666 49.3123C67.8834 51.3527 67.9322 53.5398 69.0319 55.4703C69.2151 55.9468 69.264 56.4233 68.9341 56.8631C67.8345 57.865 66.6615 57.2419 65.3664 56.9609C66.3683 58.0483 65.9895 59.1846 65.7941 60.3086C65.4886 60.3086 65.1832 60.3209 64.8655 60.3331C64.6578 60.1742 64.3768 60.0643 64.2424 59.8566C61.1756 55.3359 60.1737 54.615 55.0055 53.2588C53.5515 52.88 53.2827 51.5727 52.8795 50.4242C52.3297 48.8725 51.7432 47.3452 50.3993 46.27C48.9086 44.4861 47.2836 42.8367 45.7319 41.1139C44.4613 39.7088 43.0195 38.5115 41.2357 37.7784C40.3315 37.2163 39.4274 36.6665 38.5233 36.1045C37.8268 35.628 37.5825 34.8094 37.0449 34.2229C36.9838 34.1129 36.9105 33.9907 36.8494 33.8808C36.8249 33.8197 36.7883 33.7586 36.7761 33.6975C36.2996 30.6552 36.2996 30.6674 39.2075 31.205C39.9161 31.3394 40.637 31.3394 41.3579 31.4127H41.3334Z" fill="#B8D389"/>
<path d="M68.4454 61.9697C69.8627 61.7987 71.28 61.6887 72.7217 61.652C71.9275 60.9067 71.1212 60.1736 70.327 59.4283C69.6061 58.7563 68.5187 58.2065 68.9097 56.8747C67.8345 56.8381 66.7226 57.3024 65.733 56.3982C65.232 55.9339 64.6944 56.3494 64.4378 56.8137C64.0591 57.5101 64.67 57.5223 65.1221 57.5956C65.8551 57.7178 65.6597 58.231 65.5253 58.6464C65.342 59.2573 65.3909 59.8071 65.7696 60.3203C66.5638 59.9782 67.0036 60.5524 67.4557 60.9923C67.7856 61.3099 68.1155 61.6398 68.4454 61.9575V61.9697Z" fill="#92B15D"/>
<path d="M9.88429 3.70116C8.62583 4.81301 7.47733 3.85999 6.31661 3.49345C5.62018 3.27352 4.86265 2.3816 4.32506 3.46901C3.79968 4.51977 2.89554 5.83933 4.17844 6.89009C5.74236 8.173 6.36548 9.39482 5.53465 11.4719C4.72826 13.4757 5.07036 15.8827 3.65306 17.752C3.56754 17.8742 3.57975 18.2163 3.6775 18.3018C5.46134 19.7192 4.27619 21.9306 5.08258 23.6045C5.19254 23.8367 5.53465 24.2521 4.99705 24.3376C4.77713 24.3743 4.49611 23.9955 4.23953 23.8C3.04216 21.7596 3.02994 19.4015 2.70005 17.1778C1.97918 12.315 1.05061 7.48878 0.158685 2.6504C-0.317821 -0.000943013 0.183121 -0.526323 2.78558 0.475565C5.20476 1.41636 7.5262 2.61374 9.88429 3.70116Z" fill="#B5CF6E"/>
<path d="M50.1917 17.1533C48.6766 14.7829 46.0742 14.3187 43.7528 13.2557C42.0178 12.4737 40.5516 11.0564 39.0366 9.8346C38.5967 9.48027 38.2546 8.80827 39.3176 8.625C43.3373 9.87125 46.6118 12.3638 49.8129 14.954C52.5987 17.2144 55.0545 19.8046 57.3026 22.5903C57.3515 22.9935 57.6814 23.6533 56.7895 23.3479C56.1908 23.1402 55.7509 22.5537 55.0301 22.5903C52.7697 22.7125 52.1099 21.6862 52.5131 19.4747C52.7941 17.9352 51.1691 17.7642 50.2161 17.1533H50.1917Z" fill="#BED479"/>
<path d="M67.3337 37.8882C67.1505 38.1326 67.3704 38.658 66.9428 38.6702C66.454 38.6824 66.3319 38.2426 66.3196 37.8271C66.2585 35.2247 64.0471 33.5019 63.5706 31.0583C63.5461 30.9483 63.2407 30.8994 63.0696 30.8139C61.579 28.7857 58.9643 27.4539 59.0987 24.4238C59.7585 26.1222 61.3469 27.0507 62.3976 28.4314C64.5847 31.3271 66.2708 34.4183 67.3337 37.876V37.8882Z" fill="#A9C75A"/>
<path d="M69.0199 55.4814C68.409 55.7135 67.9569 55.6158 67.908 54.8827C67.8103 53.1844 67.5292 51.5471 67.1749 49.8855C66.9916 49.0424 67.627 47.5885 67.5659 46.2933C67.5415 45.7557 68.2501 46.2567 68.5433 46.5866C68.7022 49.5556 68.861 52.5246 69.0199 55.4814Z" fill="#A0C357"/>
<path d="M37.9864 8.11296C37.9619 8.56503 37.9253 9.09041 37.2899 8.76052C36.8012 8.50394 37.07 8.17405 37.3999 7.92969C37.5954 7.99078 37.7909 8.05187 37.9864 8.11296Z" fill="#BED479"/>
<path d="M31.9381 30.7146C34.284 34.8444 38.3038 37.2025 41.8226 40.1226C46.0623 43.6292 48.2249 48.2233 48.1638 53.7703C48.1515 55.1143 46.942 55.6397 45.5858 54.9677C44.0707 54.2101 42.6778 53.2205 41.1017 52.5363C40.1731 52.1331 39.4034 51.6688 38.3648 51.9254C37.6195 52.1086 37.1064 51.5466 36.6543 51.1312C34.2596 48.9075 31.5838 49.4206 28.9447 50.4225C27.8695 50.8257 27.0264 51.2778 26.1834 50.1782C26.0734 50.0315 25.8535 49.8238 25.7069 49.8483C21.9926 50.4103 21.2351 46.134 18.3394 45.3642C16.5678 44.4723 15.4559 42.9206 14.5395 41.2711C13.8431 40.0127 14.564 38.9863 15.6025 38.2532C16.6044 37.5568 17.6918 37.3002 18.596 38.4121C19.3535 39.3407 20.1599 40.1715 21.2839 40.648C22.4813 41.1612 23.3732 41.039 24.0697 39.7561C25.206 37.6423 25.0227 35.3942 23.3121 33.647C22.3591 32.6818 21.6383 31.6554 21.3939 30.2992C21.174 29.0896 21.064 27.9167 22.1759 27.0614C23.3244 26.1817 24.5828 26.084 25.8902 26.6704C27.1608 27.2447 28.175 28.1733 29.2257 29.0652C30.1298 29.615 31.034 30.177 31.9381 30.7269V30.7146Z" fill="#D3E2A5"/>
<path d="M29.226 29.0533C28.3585 28.6012 27.4788 28.1736 26.6479 27.6727C24.6564 26.4997 22.9703 26.5119 22.0295 27.746C21.3697 28.6257 21.8707 31.3381 22.9214 32.45C23.2758 32.8287 23.6789 33.183 24.0333 33.5618C25.8049 35.4801 25.7438 39.4265 23.9477 41.2837C23.3613 41.8824 22.6648 41.6136 22.0906 41.4792C20.6855 41.1493 19.3049 40.575 18.6207 39.2066C17.8387 37.6427 16.8368 37.887 15.7738 38.7057C14.6376 39.5609 14.2954 40.6117 15.2362 41.9068C16.1648 43.1775 17.631 43.935 18.3641 45.3645C17.4233 45.8777 16.9956 45.7433 16.2748 44.6925C15.5417 43.6173 15.224 42.1756 13.9656 41.467C13.2203 39.6464 11.7296 38.2291 11.1432 36.2742C10.9355 35.5778 10.0802 35.1013 9.61591 34.2949C7.84429 31.1426 8.18639 27.8926 9.21271 24.8503C9.82362 23.0298 9.31046 21.8202 8.3941 20.7572C6.9768 19.12 8.50406 17.8981 8.80952 16.6397C9.04166 15.6867 10.5445 16.1387 11.4608 16.4564C14.4421 17.4827 17.2644 18.7901 19.6836 20.9038C21.8218 22.7732 24.0333 24.5815 26.5746 25.9621C27.7598 26.6097 28.5173 27.8682 29.2382 29.0411L29.226 29.0533Z" fill="#D1E09B"/>
<path d="M27.3071 20.6362C27.6248 17.5327 27.9425 17.4106 31.0948 17.6061C33.1107 17.7282 34.5891 19.2311 36.6418 19.2799C38.5844 19.3288 40.5027 19.0356 42.3843 19.0111C44.7668 18.9745 47.5159 18.5713 49.5563 20.7217C50.1428 21.3448 51.1324 21.5892 51.9388 22.0046C53.0507 22.9087 53.796 23.9717 53.7227 25.5112C53.6738 26.4886 55.0056 27.0873 54.358 28.358C53.906 29.2499 53.4783 29.9342 52.4642 30.1052C50.5826 30.4229 48.7499 30.4229 46.8195 30.0319C43.3495 29.3477 40.1484 27.8326 36.7517 26.9529C34.7235 26.4398 33.1352 24.9125 31.6201 23.4952C30.8748 22.7865 30.2273 22.1756 29.1399 22.3223C28.3212 21.9924 27.6248 21.5159 27.2949 20.6362H27.3071Z" fill="#D4E2A5"/>
<path d="M41.2236 37.7891C44.1315 37.8257 45.5 40.196 46.9539 42.0165C48.0902 43.4338 50.1673 44.1547 50.3872 46.2807C48.7011 46.2807 48.5911 44.5701 47.7603 43.7026C45.7077 41.5767 43.3251 39.8539 41.2358 37.7891H41.2236Z" fill="#C2D88B"/>
<path d="M37.0209 34.2344C37.974 34.5032 38.0106 35.4928 38.4993 36.116C37.6685 35.7494 36.9843 35.2729 37.0209 34.2344Z" fill="#C2D88B"/>
</g>
<defs>
<clipPath id="clip0_1_922">
<rect width="201" height="110" fill="white"/>
</clipPath>
</defs>
</svg>
