<svg width="144" height="151" viewBox="0 0 144 151" fill="none" xmlns="http://www.w3.org/2000/svg">
<g clip-path="url(#clip0_1_962)">
<path d="M143.25 69.6306C143.006 71.8284 142.274 73.8866 141.229 75.8227C139.015 76.2413 136.854 78.5612 136.871 80.6194C136.871 81.4566 136.47 82.0322 136.017 82.6253C134.379 84.7882 132.061 86.1487 129.952 87.7359C129.673 87.9453 129.359 88.0848 129.063 88.2767C128.261 88.7999 127.634 90.1779 126.449 89.1662C125.298 88.1894 123.887 87.2301 124.497 85.2765C124.915 83.9684 124.566 83.009 123.311 82.2067C121.534 81.0903 120.924 79.4333 121.429 77.2704C122.335 73.3982 121.847 72.6307 118.118 71.0086C117.263 70.6423 116.375 70.3806 115.59 69.8748C113.952 68.8282 113.638 67.4154 115.085 66.177C116.531 64.9211 116.34 63.735 115.59 62.3571C115.033 61.3454 114.667 60.264 113.935 59.3221C112.314 57.2464 113.133 54.1765 115.521 53.0427C117.211 52.2404 117.264 51.9613 116.357 50.3043C115.155 48.124 114.423 45.7518 113.638 43.397C113.969 40.362 115.399 37.6584 116.427 34.8502C116.828 33.7687 117.926 33.6815 118.867 34.4665C120.47 35.7921 121.011 37.9724 120.209 39.9085C118.762 43.397 121.412 46.9727 125.194 46.5018C124.409 44.8099 124.444 43.0307 124.444 41.2516C124.444 40.676 124.497 40.0829 124.706 39.5422C125.194 38.2689 126.118 37.2921 127.477 37.2224C128.836 37.1526 129.394 38.3561 129.847 39.4376C130.231 40.362 130.248 41.3737 130.161 42.3505C129.952 44.6529 130.353 46.8332 131.381 48.9089C131.904 49.9903 132.096 51.1066 131.521 52.2404C131.259 52.7637 130.98 53.3218 131.59 53.8102C131.921 54.0719 132.322 54.2288 132.723 54.0544C133.386 53.7753 133.316 53.13 133.368 52.5718C133.42 51.9439 133.316 51.2985 133.508 50.6706C134.03 49.1007 135.425 48.7868 136.54 50.0077C138.074 51.6822 138.057 53.6009 137.115 55.5021C136.54 56.6882 136.819 57.5604 137.255 58.729C138.701 62.6885 141.752 65.706 143.285 69.5783L143.25 69.6306Z" fill="#C6DCAC"/>
<path d="M143.251 69.631C143.024 69.474 142.641 69.3693 142.571 69.16C141.542 66.0029 138.458 63.997 137.778 60.6481C137.725 60.4388 137.569 60.2295 137.447 60.055C136.261 58.3282 135.617 56.7235 136.993 54.5781C137.743 53.4094 137.551 51.6303 136.261 50.4268C135.861 50.0605 135.651 49.293 134.902 49.6767C134.275 49.9907 133.752 50.4616 133.769 51.2814C133.769 52.0315 133.821 52.7815 133.769 53.5315C133.734 54.0025 133.891 54.6827 133.176 54.8048C132.183 54.9792 131.346 54.5257 130.667 53.8804C130.161 53.4094 130.58 52.8862 130.893 52.485C131.678 51.4907 131.643 50.4791 131.085 49.4151C129.83 47.0603 129.412 44.5835 129.743 41.9322C129.847 41.1648 129.725 40.2752 129.429 39.5601C129.081 38.6705 128.523 37.4669 127.477 37.6414C126.344 37.8332 125.298 38.6182 125.02 40.0136C124.671 41.7404 125.089 43.4672 125.054 45.194C125.054 45.351 125.194 45.508 125.229 45.6824C125.316 46.2231 126.536 46.1184 125.996 46.9557C125.56 47.6534 124.845 47.2348 124.235 47.1999C120.471 46.9731 118.187 43.0137 119.895 39.6298C120.593 38.2344 119.617 35.1994 118.222 34.5017C117.49 34.1354 116.898 34.4668 116.706 35.1471C115.956 37.9728 114.51 40.5543 113.935 43.4149C113.848 43.7811 113.656 44.0428 113.272 44.1649C112.401 44.1126 111.756 43.1358 110.78 43.6067C109.316 43.7637 108.845 44.7579 108.514 46.0487C107.956 48.229 107.242 50.3744 105.133 51.6826C103.651 52.5896 103.338 52.5722 102.658 51.0372C101.909 49.3628 101.089 47.7406 100.828 45.8394C100.619 44.3568 99.8344 42.9962 98.1612 42.5253C97.2549 42.2636 96.6449 42.473 96.2092 43.4149C95.6689 44.6184 95.39 45.8045 95.7909 47.0952C96.1569 48.2464 95.9826 49.3104 95.5294 50.4442C94.5882 52.7466 93.8736 55.1886 93.5251 57.5782C93.281 59.2003 92.915 60.3167 91.7299 61.276C91.2593 61.6597 91.4684 62.183 91.4858 62.7063C91.5904 65.4273 91.207 68.0437 89.4641 70.2764C89.0109 70.3636 88.8018 70.1194 88.7146 69.7182C88.5926 68.9856 88.488 68.253 88.732 67.5204C90.3529 65.3576 90.3181 63.1772 88.6449 60.8748C88.4706 60.4562 88.4183 60.0376 88.61 59.6015C88.9935 58.8515 88.9238 58.1189 88.5229 57.3863L88.61 56.427C89.6035 54.5432 90.2135 52.485 91.2593 50.6012C91.939 49.3628 92.2353 47.8627 91.9913 46.3801C91.817 45.3684 91.9564 44.4265 92.2179 43.4672C92.3399 43.0137 92.4967 42.5776 92.6187 42.1415C93.5599 38.9496 93.7516 39.1065 95.8083 36.7169C97.3246 34.9378 99.2593 33.4726 100.34 31.3097C101.246 29.4957 102.745 28.798 104.732 28.7806C107.259 28.7631 107.869 28.1352 108.166 25.606C108.305 24.4199 109.054 23.8967 110.222 24.1583C110.85 24.2978 111.477 24.5595 111.895 25.0479C112.505 25.763 113.046 26.3037 114.039 25.606C114.475 25.3095 115.068 25.5188 115.538 25.7805C116.305 26.234 117.107 26.4433 117.978 26.5828C119.425 26.827 120.54 28.6061 120.279 30.1585C120.174 30.8562 119.983 31.519 120.209 32.2167C120.401 32.7749 120.802 33.054 121.377 33.1063C122.022 33.1586 122.301 32.7575 122.44 32.1993C122.684 31.2225 122.614 30.2632 122.44 29.269C122.092 27.4549 121.708 25.6409 122.074 23.7746C122.336 22.4838 121.028 22.2571 120.575 21.4373C120.122 20.8093 119.46 20.3035 119.634 19.3965C120.854 20.3558 121.987 21.3849 123.015 22.571C128.035 28.3271 132.497 34.4668 136.575 40.9206C137.115 41.7927 137.551 42.7346 138.022 43.6416C137.97 43.6416 137.917 43.659 137.847 43.6765C138.179 45.1591 137.237 46.9208 138.492 48.1767C141.333 50.9675 141.682 54.4211 141.333 58.084C141.281 58.7294 141.298 59.3224 141.49 59.9504C142.03 61.8167 141.786 62.1481 139.887 62.3923C139.817 63.2819 140.235 63.5087 141.107 63.5959C142.937 63.7877 143.512 64.5552 143.547 66.4564C143.46 67.5204 143.39 68.5844 143.303 69.631H143.251Z" fill="#C9DC9E"/>
<path d="M4.34012 21.1936C2.98064 15.176 1.56887 9.15829 0.714844 3.01852C1.48173 2.87898 2.31833 2.91387 2.77149 2.0243C2.99807 1.58823 3.45123 1.39636 3.93924 1.41381C5.92617 1.50102 7.9131 1.06496 9.90003 1.51846C12.0264 1.62312 14.1179 2.05918 16.2443 2.21616C17.2551 2.28593 17.9697 3.10573 18.7541 3.68134C20.4795 4.97208 22.2922 5.44303 24.4011 4.58835C25.8129 4.01274 26.8761 5.12907 27.4338 6.05352C28.863 8.46059 30.6408 8.80944 32.9763 7.65823C33.1854 7.55358 33.4992 7.43148 33.6386 7.55358C34.9283 8.792 36.6887 8.25128 38.1527 8.80944C39.2682 9.2455 40.0177 10.1351 40.7148 11.077C40.802 12.8212 39.8434 14.4085 39.8608 16.1527C39.8608 16.9028 39.2334 17.1819 38.5188 17.1993C37.8216 17.1993 37.1419 17.0772 36.4621 16.9551C34.3706 16.5714 32.8368 18.0365 33.2551 20.1645C33.656 22.153 34.1092 24.1065 33.8826 26.1473C33.778 27.159 33.7954 28.2404 32.924 29.0079C31.3902 29.444 30.1876 28.7288 29.1767 27.752C27.5732 26.2171 25.7257 25.1705 23.8434 24.0368C21.5602 22.6763 19.6604 20.6529 17.3772 19.2052C16.6277 18.7168 15.6865 17.7226 14.9894 18.5947C14.2573 19.4668 15.4251 20.1994 16.0874 20.7925C17.2377 21.8216 17.8303 23.06 17.7257 24.6124C17.168 25.6066 16.6974 25.031 16.1048 24.6124C15.5645 24.2286 14.6408 22.4844 14.5362 24.9263C14.5013 25.6764 13.839 25.7636 13.229 25.3624C12.8281 25.1008 12.6016 24.6821 12.4447 24.2461C11.8521 22.5018 10.51 22.0134 8.81942 21.5425C7.35537 21.1239 6.11789 20.7576 4.72356 21.4902C4.60155 21.5599 4.42726 21.3681 4.37497 21.1762L4.34012 21.1936Z" fill="#D4E195"/>
<path d="M4.33984 21.1931C5.0893 21.2803 5.68189 21.1233 6.06533 20.3907C6.36163 19.8326 7.16337 19.6233 7.30281 20.1117C7.73854 21.5071 8.83658 21.0187 9.70804 21.2803C11.1721 21.6989 12.4793 22.3617 12.793 24.106C12.915 24.7862 13.2984 25.327 14.2222 25.3793C14.1525 24.5944 13.159 23.7571 14.2222 23.4083C14.8671 23.199 15.9825 23.042 16.3486 24.2455C16.5054 24.7862 16.8889 25.1525 17.5337 24.7514C18.1612 24.5072 18.6666 24.7688 19.1024 25.17C21.9433 27.891 25.2026 30.1934 27.573 33.4203C27.9738 33.9785 28.6013 34.3273 29.159 34.7285C29.769 35.1646 30.3791 35.6181 30.6405 36.3681C30.3616 37.3274 31.5468 36.7344 31.634 37.2925C31.7211 37.4321 31.7908 37.5891 31.8431 37.746C32.5403 39.0194 33.1677 40.3101 33.2549 41.8102C33.3246 43.0137 32.9237 43.8684 31.8083 44.3044C29.4553 45.194 27.1198 45.6301 24.9412 43.8161C24.3137 43.2928 23.5991 42.8916 22.7799 42.7869C22.3268 42.7346 21.769 42.6474 21.6122 43.2404C21.4902 43.7288 21.9433 43.9207 22.3093 44.0951C22.5185 44.1998 22.7451 44.2521 22.9542 44.3219C24.2091 44.7405 25.2374 45.4731 25.7778 46.7115C27.1198 49.7988 29.6645 51.264 32.732 52.2234C34.8758 52.8862 36.8801 54.0199 38.6928 55.3804C40.8017 56.9677 40.9586 60.8051 38.9891 62.5144C37.8736 63.4912 37.1067 62.654 36.3921 61.8167C34.1438 59.2352 31.0588 57.8922 28.183 56.2526C25.4466 55.4153 22.8148 54.2467 19.9215 53.7757C17.0806 53.3222 15.5468 50.6884 16.2266 47.7057C16.6449 45.9266 16.1743 44.6882 14.9717 43.4846C12.9673 41.4962 12.3224 39.0368 12.7233 36.3158C13.2984 32.3389 13.1416 32.0075 9.41174 30.5597C8.95858 30.3853 8.4357 30.1586 8.40085 29.705C8.27884 27.7864 6.67536 27.3329 5.43788 26.4956C4.91501 24.7514 4.44442 22.9897 4.33984 21.1582V21.1931Z" fill="#CEDF9C"/>
<path d="M24.0695 147.302C19.4682 146.151 14.9715 144.738 10.7536 142.523C10.6491 141.459 10.7711 141.267 11.8168 140.935C13.5597 140.377 13.7166 139.714 12.4094 138.406C11.9911 138.005 11.5031 137.691 11.0848 137.29C10.6491 136.871 10.2656 136.296 10.4748 135.755C11.2939 133.679 11.1719 131.29 12.4966 129.388C13.1937 128.97 13.9083 128.603 14.5532 128.115C15.7035 127.26 16.9759 126.772 18.4399 127.33C19.7297 127.819 20.9671 127.226 22.1872 127.016C26.4573 126.266 30.8495 126.423 35.1022 125.516C36.2874 125.272 37.5075 125.83 38.6404 126.214C40.5053 126.859 42.039 126.807 43.1197 124.906C43.2242 124.714 43.4508 124.592 43.6425 124.47C45.3854 123.789 47.1632 124.347 48.9236 124.4C49.2722 124.4 49.5336 124.714 49.5859 125.115C49.5336 125.289 49.4465 125.516 49.307 125.534C47.1807 125.708 46.3963 127.33 45.5249 128.935C44.88 130.104 43.9388 131.115 42.8931 131.9C40.7493 133.487 38.3092 132.859 36.3223 131.778C34.4051 130.731 32.7493 130.383 30.7798 131.307C30.0826 131.638 29.2634 131.691 28.5663 131.412C26.8931 130.749 25.1327 131.15 23.4247 130.801C22.9541 130.714 22.5009 130.836 22.0826 131.08C21.7863 131.255 21.4203 131.412 21.4552 131.83C21.4726 132.179 21.8212 132.232 22.0826 132.336C23.3027 132.755 24.4878 133.191 25.063 134.499C25.2199 134.83 25.4987 134.778 25.795 134.691C27.4857 134.29 29.246 134.482 30.9541 134.237C33.0804 133.941 34.6316 134.708 35.2591 136.801C35.782 138.528 36.8974 139.209 38.5881 139.575C41.673 140.238 42.3876 141.807 41.1676 144.808C40.9236 145.418 40.1741 146.098 40.8887 146.674C41.6207 147.267 42.6142 147.86 43.6077 147.284C45.2286 146.325 46.8844 146.308 48.6273 146.726C49.8125 147.023 51.0499 146.639 52.2177 147.04C52.4443 149.046 52.2177 148.976 50.4225 148.802C48.331 148.593 46.1175 147.738 44.0783 149.151C43.8343 149.325 43.538 149.412 43.2591 149.36C40.8016 148.924 38.1872 149.552 35.8865 148.087C34.9105 147.476 33.673 147.424 32.5401 147.267C31.3027 147.093 30.1872 146.709 29.124 146.116C27.1022 144.982 26.4573 145.104 24.7144 146.813C24.5053 147.023 24.2613 147.162 24.0521 147.372L24.0695 147.302Z" fill="#C6DBA0"/>
<path d="M52.2345 147.11C50.631 147.511 49.0101 147.302 47.4589 146.918C46.3957 146.656 45.4197 146.709 44.6528 147.284C43.5199 148.122 42.5613 147.982 41.3935 147.441C39.8946 146.761 39.668 146.395 40.6441 144.947C41.2541 144.023 41.2541 142.976 41.3238 141.964C41.3761 141.249 40.9055 140.656 40.1735 140.377C39.8597 140.255 39.5112 140.081 39.18 140.063C36.6353 140.046 35.2236 138.615 34.5787 136.33C34.1604 134.83 33.1146 134.551 31.8075 134.569C30.082 134.569 28.217 134.516 26.6833 134.952C25.1146 135.388 24.8183 135.301 24.2606 133.888C23.9992 133.226 22.8663 132.755 21.8728 132.755C21.2628 132.755 20.8619 132.476 20.6876 131.917C20.461 131.202 21.1059 131.15 21.5068 130.836C22.326 130.191 23.18 130.4 24.1037 130.313C26.7878 130.086 29.3848 131.9 32.1386 130.348C33.2541 129.72 34.6658 129.946 35.8162 130.993C37.2454 132.319 39.1626 132.196 40.9055 132.214C43.0319 132.231 43.7465 130.103 45.0711 128.9C45.1582 128.83 45.1756 128.691 45.2279 128.586C46.082 126.702 47.0929 125.01 49.5329 125.062C49.5852 124.871 49.7072 124.731 49.899 124.679C51.6419 124.435 52.6179 125.533 53.3325 126.824C54.326 128.621 55.546 130.191 57.0972 131.551C58.3521 132.65 59.1539 134.045 59.5896 135.65C59.9033 136.801 60.461 137.743 61.3325 138.58C63.0231 140.203 62.5351 142.453 60.339 143.22C59.4327 143.534 58.8053 144.04 58.4916 144.895C58.0558 146.098 57.0449 146.988 56.7661 148.244C56.3303 148.592 55.8074 148.68 55.2671 148.697C54.3434 147.982 53.2105 147.685 52.217 147.075L52.2345 147.11Z" fill="#C5DBA7"/>
<path d="M113.116 44.0593C113.395 43.8325 113.656 43.6232 113.935 43.3965C115.295 45.7861 115.539 48.6641 117.316 50.8968C118.101 51.891 117.578 52.8852 116.201 53.3911C113.377 54.4202 112.802 57.1935 114.615 59.4611C115.765 60.8913 116.428 62.7577 116.881 64.6066C117.055 65.3218 116.375 65.5834 115.957 65.9497C113.935 67.7114 114.127 68.9847 116.619 69.944C117.979 70.4673 119.321 70.9557 120.541 71.758C122.528 73.0662 122.859 73.9907 122.144 76.2233C121.099 79.4502 121.499 80.5665 124.306 82.2061C125.473 82.8864 125.282 83.9329 125.107 84.962C124.828 86.4795 125.613 88.4157 126.833 89.061C127.094 89.2006 127.39 89.3227 127.634 89.061C130.214 86.3923 133.909 85.0493 136.053 81.8398C136.245 81.5607 136.663 81.3514 136.558 80.9851C135.512 77.5141 138.876 76.9559 140.41 75.2117C140.933 74.6186 141.107 75.3861 141.247 75.7873C140.933 76.5024 140.637 77.2176 140.323 77.9327C139.242 79.4153 137.918 80.7409 137.691 82.712C137.639 83.2178 137.325 83.7062 136.977 84.0899C135.321 85.9388 135.024 88.6599 132.985 90.2471C132.811 90.3867 132.672 90.6309 132.689 90.8576C132.881 94.1368 130.458 95.6369 128.279 97.2241C124.828 99.7708 120.75 99.9801 116.689 100.189C115.521 100.242 114.807 99.3347 114.859 98.2707C115.033 94.8171 113.709 91.3634 114.824 87.9273C115.591 85.59 116.079 83.2352 115.678 80.7758C115.852 78.2292 115.556 75.8745 113.743 73.8337C113.029 73.0314 113.099 71.758 112.75 70.7638C111.617 67.6242 112.245 64.5543 112.593 61.4321C112.733 60.1064 112.436 58.6761 111.948 57.368C111.617 56.4784 111.495 55.519 111.809 54.6469C112.593 52.5015 112.523 50.234 112.994 48.0536C113.151 47.3385 112.942 46.6931 112.785 46.0129C112.611 45.3152 112.297 44.5477 113.133 44.0244L113.116 44.0593Z" fill="#BBD7A9"/>
<path d="M56.7843 148.297C56.2092 148.053 56.0697 147.582 56.5577 147.251C57.3595 146.71 57.4989 145.803 57.8649 145.07C58.475 143.867 58.9107 142.803 60.6362 142.733C61.9259 142.681 62.4662 140.012 61.3856 139.227C60.1307 138.32 59.4684 137.204 59.1373 135.739C58.719 133.96 57.6384 132.599 56.2092 131.413C55.024 130.436 54.0131 129.215 53.3508 127.767C52.6536 126.215 51.6253 125.081 49.8301 124.889C50.5098 123.703 51.573 124.279 52.4445 124.418C53.7691 124.663 54.9717 124.715 56.3137 124.296C57.9869 123.773 59.695 124.68 61.4031 124.715C63.5817 124.767 65.8649 125.465 67.9042 124.035C68.2527 123.791 68.6362 123.773 69.0545 123.965C69.8214 124.331 70.5011 124.017 71.1634 123.616C73.0632 122.918 75.085 123.198 77.0371 122.936C77.7516 123.006 78.4488 123.023 79.0414 122.517C79.2506 122.378 79.4771 122.29 79.7211 122.203C80.1743 122.081 80.6275 122.046 81.098 122.081C83.0501 122.256 83.8867 123.477 82.9281 125.151C82.1438 126.529 81.9172 128.151 81.0458 129.372C79.7734 131.169 78.5882 132.983 77.4728 134.884C76.0436 137.326 73.5686 138.32 70.658 138.198C68.2353 138.093 68.0784 138.303 67.8693 140.692C67.817 141.303 67.6079 141.861 67.1373 142.21C65.7429 143.222 64.8366 145.227 62.4662 144.268C61.9085 144.041 61.0196 144.809 60.427 145.367C59.9216 145.855 59.4161 146.309 58.8758 146.745C58.4401 147.198 57.6558 147.303 57.5512 148.088C57.2898 148.158 57.0283 148.21 56.7843 148.28V148.297Z" fill="#ADCFA2"/>
<path d="M88.6621 69.7181C88.8887 69.9274 89.1153 70.1541 89.4639 70.0844C90.4225 70.2414 90.9279 70.9739 90.9279 71.7763C90.9279 73.5206 92.0085 74.7939 92.6534 76.2416C93.2286 77.5498 95.4421 78.4219 96.8015 78.0556C97.5859 77.8463 98.1262 77.3754 98.3005 76.5556C98.4225 75.9974 98.4573 75.4218 98.527 74.8462C98.8233 72.6484 99.6774 71.4798 101.839 71.2705C103.895 71.0612 105.185 70.1193 106.353 68.5145C107.05 67.5552 107.747 66.5261 108.793 65.8633C109.786 66.1075 109.595 66.875 109.438 67.5029C108.549 70.9739 109.351 74.4799 109.194 77.9684C109.141 78.9626 109.298 80.0266 109.368 81.0557C109.699 84.4745 107.242 86.4106 105.133 88.2769C102.937 90.2305 102.797 92.4806 102.954 94.9923C102.971 95.4109 103.181 95.7947 103.547 96.004C104.401 96.4924 104.784 97.3471 105.29 98.1145C106.335 100.644 105.987 103.609 104.453 105.039C103.006 104.115 102.1 102.667 101.107 101.341C95.5989 94.1027 91.4508 86.1838 89.4987 77.2358C88.9584 74.7764 88.5401 72.2821 88.697 69.7355L88.6621 69.7181Z" fill="#A9CEA1"/>
<path d="M41.4808 97.6087C43.764 96.7889 46.0821 97.0331 48.4002 97.3471C48.5396 97.7483 48.7662 98.0797 49.1148 98.3064C52.1301 100.277 52.2869 103.347 52.1475 106.452C52.0603 108.161 50.7706 109.068 49.0451 108.877C48.2956 108.807 47.5462 108.65 46.8142 108.911C45.6638 109.33 45.4895 110.15 46.3784 111.005C46.7967 111.423 47.3719 111.598 47.8773 111.859C49.0625 112.487 49.69 113.499 49.568 114.825C49.446 116.133 48.7662 117.075 47.459 117.493C46.4133 117.825 45.3501 118.086 44.4089 118.697C43.764 119.272 43.2237 119.988 42.3174 120.197C40.8011 120.929 39.2325 121.296 37.5244 121.313C35.9906 121.313 34.4394 121.505 32.9579 122.011C32.2782 122.238 31.4939 122.534 31.0059 121.627C31.1279 120.284 32.1039 119.517 32.9928 118.714C34.8229 117.057 34.8926 116.83 33.8294 114.563C32.6616 112.051 31.4416 109.557 29.7858 107.307C29.4721 106.801 29.5767 106.278 29.8555 105.842C31.1453 103.801 32.4874 101.934 34.666 100.574C36.008 99.7367 37.1758 99.353 38.6747 99.2832C39.7902 99.2309 40.9928 98.9169 41.4808 97.6087Z" fill="#BFD89D"/>
<path d="M75.7125 38.827C77.1417 41.0596 78.1352 43.4841 78.8672 46.0307C77.3509 46.8854 77.4031 47.9668 77.7517 49.6064C78.3269 52.3275 79.5992 54.8915 79.6689 57.7172C79.7212 59.3743 79.4075 61.0313 79.5121 62.7232C79.5818 64.014 79.8258 64.9908 81.1156 65.4791C81.3247 65.5664 81.5339 65.6885 81.7082 65.828C82.0393 66.0722 82.3879 66.3513 82.3356 66.8048C82.2659 67.3629 81.7604 67.2932 81.377 67.3106C80.8018 67.3455 80.4533 67.3106 80.5753 68.1827C80.8716 70.3631 78.9021 71.7061 76.8454 70.7817C75.8868 70.3456 75.0676 69.7002 74.5622 68.7409C74.2659 68.1653 73.9347 67.485 73.3073 67.3629C71.1286 66.9443 69.6123 65.357 67.7822 64.3803C66.9979 63.9616 66.4576 63.5605 66.9456 62.4965C68.1482 59.758 67.2942 56.9323 67.2419 54.1241C67.2419 53.688 66.9979 53.3217 66.4925 53.3391C66.0219 53.3391 65.7604 53.6705 65.6733 54.0892C65.5339 54.8218 65.4816 55.5718 65.3247 56.3218C64.8716 58.3277 63.8781 58.9033 61.9435 58.0835C60.6711 57.5428 59.5382 56.723 58.3007 56.0776C57.7953 55.816 57.255 55.6067 56.7496 55.2927C56.3313 55.0311 56.0698 54.6648 56.1047 54.1415C56.2267 53.6182 56.2964 53.0601 56.8193 52.7287C57.2201 52.6066 57.621 52.6414 58.0219 52.7287C59.7474 53.1822 60.6537 52.3275 61.7692 51.0367C64.0001 48.4378 66.0916 45.6121 69.2289 43.9551C70.3095 43.3795 71.2855 42.6643 72.2267 41.8968C72.9064 41.3387 73.2027 40.6759 73.0981 39.7688C73.011 39.0537 72.7321 38.1293 73.6559 37.7978C74.597 37.4664 75.3116 37.9897 75.7474 38.8444L75.7125 38.827Z" fill="#A7CB94"/>
<path d="M5.4375 26.5295C6.64011 25.4655 6.30896 27.1226 6.88412 27.3144C7.61615 27.2098 6.62269 26.4598 7.25014 26.2679C7.28499 26.2679 7.47672 26.2679 7.49415 26.3028C8.40046 28.3436 8.87105 30.5588 11.7817 31.0646C13.4201 31.3437 13.7861 33.2624 13.3852 34.7973C12.4092 38.6172 13.4898 41.7743 16.261 44.4081C17.0976 45.2105 17.0628 46.0826 16.8188 46.9373C16.4876 48.0362 16.6096 49.0304 16.7142 50.1467C16.8885 51.9607 18.0562 52.6759 19.468 53.2864C19.9386 53.4782 20.4615 53.6178 20.9669 53.6527C23.5813 53.7748 25.8122 55.1178 28.1826 56.0074C29.0018 56.3214 29.7338 56.7226 30.2218 57.5249C30.6401 58.2575 31.3896 58.6412 32.139 58.9726C33.8819 59.7227 35.0148 61.0134 35.3111 62.8274C35.7817 65.8624 37.8732 67.659 39.9996 69.4556C40.261 69.6824 40.5573 69.8568 40.8885 69.9963C41.8645 70.3975 42.98 70.8161 43.8514 70.0487C44.7752 69.2463 44.1477 68.1649 43.7294 67.3276C43.0148 65.8973 42.7185 64.3624 42.3525 62.8623C41.5856 59.7227 42.7534 58.0482 45.9952 57.4726C46.9887 58.0656 46.4658 58.6936 45.9081 59.0773C44.0432 60.3332 44.2 61.8332 45.0889 63.5949C45.9429 65.3043 46.1695 67.2404 46.6401 69.0893C47.0758 70.7987 45.9604 72.1243 44.0257 72.1069C41.8819 72.1069 39.773 71.6359 37.9952 70.3103C37.1586 69.6824 36.3395 69.0544 35.3286 68.7579C34.0911 68.4963 33.4288 69.1591 32.9756 70.1882C28.2697 66.6299 24.1565 62.4786 20.3569 57.9784C14.1347 50.6177 10.2828 42.0534 7.28499 33.0182C6.58783 30.9076 5.7338 28.8145 5.48979 26.5644L5.4375 26.5295Z" fill="#C2D997"/>
<path d="M51.4687 79.6247C49.534 79.1886 47.5123 79.0839 45.7345 78.1072C45.229 77.8804 45.0373 77.4792 45.3336 76.9908C45.595 76.5548 46.0482 76.642 46.4316 76.799C48.0003 77.4443 48.558 76.5025 48.8717 75.264C49.3249 73.5547 50.2312 72.2814 51.7824 71.3395C53.0373 70.5894 53.6648 69.3685 53.6996 67.851C53.7345 66.0893 53.3162 64.4148 52.9327 62.7228C52.8456 62.3042 52.619 62.0077 52.253 61.7809C51.1027 61.0832 51.399 60.3158 52.2007 59.5483C53.351 59.1995 53.8216 60.0716 54.4142 60.7344C56.6974 63.0543 59.2944 65.0253 61.5079 67.4498C63.3728 69.4905 65.6038 71.2871 67.8695 72.9616C68.9502 73.7465 69.8739 74.7233 70.7279 75.7001C71.9306 77.0781 73.5689 78.0374 74.5275 79.6421C74.8587 80.3921 74.5275 81.2991 75.1201 82.0492C75.4164 82.4329 74.9458 82.869 74.5624 83.1655C72.68 83.0957 70.8325 82.712 68.9676 82.3631C65.8652 80.8456 62.5362 80.8805 59.2072 80.9503C58.5449 80.9503 57.8826 80.9852 57.2726 80.6712C55.582 78.9793 53.473 79.5723 51.4512 79.6247H51.4687Z" fill="#A4CA8E"/>
<path d="M121.081 21.4015C121.517 21.7853 121.935 22.1516 122.371 22.5353C122.632 22.7621 122.981 23.076 122.806 23.4074C121.639 25.4831 122.615 27.5064 122.946 29.5298C123.155 30.7682 122.876 31.9368 122.737 33.1229C122.649 33.7857 122.161 33.7509 121.691 33.6811C120.907 33.5939 119.948 33.6811 119.721 32.6694C119.565 32.0066 119.495 31.274 119.617 30.6112C120.053 28.3611 119.268 27.175 117.055 27.0355C116.497 27.0006 116.114 26.7041 115.695 26.3901C114.894 25.7971 114.057 25.4657 113.342 26.5645C112.819 27.3669 112.384 26.8087 112.262 26.3203C112.053 25.5354 111.495 25.1691 110.885 24.8726C110.292 24.5761 109.612 24.1226 108.95 24.6459C108.323 25.1517 108.549 25.8145 108.671 26.5297C108.968 28.2739 107.312 28.5007 106.283 29.1286C105.9 29.3553 105.273 29.2507 104.767 29.2332C103.094 29.1984 101.665 29.5647 100.898 31.2391C99.7824 33.6288 97.4469 35.0416 96.1397 37.2743C96.1048 37.3266 96.0525 37.3789 96.0177 37.3789C92.1135 37.9022 93.8739 41.5302 92.6887 43.5187C92.131 44.4606 92.3924 45.5769 92.4621 46.6758C92.5667 48.5072 92.2878 50.3736 91.0678 51.8562C89.9349 53.2342 90.4578 55.4668 88.6103 56.4262C88.3663 52.3272 89.2203 48.3677 90.3183 44.478C92.3401 37.2219 95.1811 30.2972 99.6255 24.1226C100.323 23.9133 100.828 24.4365 101.403 24.6284C103.338 25.2738 104.785 24.7331 105.482 23.1458C105.743 22.5702 105.83 22.0644 105.36 21.5585C104.279 20.3724 105.255 19.4305 105.795 18.4538C106.371 17.4421 107.26 17.5467 108.218 17.8433C110.763 18.6456 113.377 19.0468 116.026 19.2212C116.689 19.2736 117.421 19.3084 117.647 19.9887C118.275 21.9074 119.634 21.7678 121.133 21.3492L121.081 21.4015Z" fill="#C7DA8C"/>
<path d="M31.1114 121.748C32.7497 122.201 34.144 121.085 35.765 121.015C37.8913 120.928 40.1571 121.015 42.1615 119.899C41.8478 121.626 40.4883 122.079 39.0416 122.393C38.6582 122.48 38.2399 122.323 37.839 122.411C37.1419 122.55 36.2878 122.794 36.3924 123.597C36.5144 124.556 37.3684 124.033 37.9436 123.998C39.5471 123.928 41.1506 124.085 42.7541 124.12C43.1898 124.12 43.6952 124.19 43.8695 124.748C43.4687 125.079 43.1026 125.428 42.8412 125.899C42.1266 127.085 40.9937 127.451 39.7562 126.963C37.351 126.004 34.8935 125.707 32.3837 126.265C28.8281 127.068 25.1506 126.614 21.6299 127.556C20.1135 127.975 18.6669 127.853 17.1332 127.469C16.1048 127.207 15.1811 128.079 14.4316 128.725C13.9088 129.196 13.3684 129.335 12.7759 129.51C11.7824 130.295 10.7018 130.853 9.41202 131.097C8.48827 131.271 7.7911 131.987 7.3728 132.841C6.9545 133.696 6.39677 134.428 5.42073 134.184C4.40984 133.923 4.67128 132.911 4.60156 132.126C9.06344 128.01 11.6604 122.498 15.3379 117.806C20.0613 111.806 24.9066 105.927 31.2159 101.497C31.8608 101.392 32.1397 100.695 32.7671 100.573C35.4512 98.9678 38.3793 98.0433 41.4469 97.5898C41.778 98.6364 41.534 99.2469 40.314 99.3341C39.1114 99.4213 37.9785 100.503 36.6887 99.6132C36.619 99.5608 36.4098 99.5608 36.3576 99.6132C34.0743 101.985 30.7105 103.416 29.839 107.026C29.4207 108.212 28.3227 108.404 27.3292 108.544C25.6386 108.788 24.5231 109.643 23.5994 111.038C22.5536 112.608 21.1419 113.899 20.2355 115.625C19.5907 116.864 17.9872 117.16 16.924 118.067C16.07 118.783 15.2508 119.323 15.5471 120.736C15.7737 121.852 14.4142 122.201 13.5776 123.195C15.6865 123.963 17.656 124.277 19.6604 123.684C21.5427 123.126 23.4077 122.55 25.2726 121.94C27.1549 121.312 29.1244 121.852 31.0416 121.73L31.1114 121.748Z" fill="#BDD58A"/>
<path d="M56.2782 54.1243C56.9753 55.5197 58.5614 55.5546 59.6943 56.2697C60.74 56.9151 61.6987 57.8221 63.0756 57.9268C64.1213 57.9966 64.7836 57.8396 64.8011 56.636C64.8011 55.7814 65.2194 54.9964 65.1496 54.0894C65.0799 53.165 65.7248 52.5719 66.7008 52.6591C67.6769 52.7464 67.886 53.4789 67.7466 54.3162C67.6072 55.2581 67.7117 56.1476 67.9034 57.0721C68.3392 59.1129 68.008 61.0664 67.1366 62.9328C66.8228 63.6131 67.3631 63.7526 67.7466 63.8747C68.7923 64.2235 69.7509 64.5201 70.2738 65.6887C70.5875 66.4213 71.6333 66.212 72.3305 66.4039C73.5854 66.7701 74.4045 67.3806 75.032 68.5842C75.6769 69.8226 76.7575 70.7122 78.361 70.5726C79.8076 70.4505 80.3653 69.4912 79.947 68.0434C79.7379 67.3632 79.581 66.4039 80.9405 66.8399C81.3065 66.9446 81.7248 67.0667 82.1257 66.7876C81.9339 66.1422 81.2891 65.8631 80.8185 65.7934C79.4241 65.6189 78.9884 64.4328 79.0756 63.5607C79.215 61.9211 79.1627 60.2292 79.1279 58.6419C79.1104 57.1768 79.9122 55.2406 78.239 53.9499C77.9775 53.7406 77.8381 53.1999 77.8729 52.8336C77.995 51.4207 77.5592 50.1125 77.1932 48.7869C76.618 46.6938 76.6355 46.6938 78.8838 45.9961C81.6725 52.2754 83.0669 58.8861 83.2063 65.741C83.3109 70.4854 82.4917 75.0379 80.0342 79.1892C79.8947 79.4334 79.703 79.6427 79.5287 79.8695C78.4481 79.9567 77.9427 79.1195 77.3501 78.4566C76.9318 78.0031 76.4612 77.5671 76.008 77.1659C73.4111 73.6251 70.6573 70.2063 68.252 66.526C68.0255 66.1771 67.8337 65.8457 67.4677 65.6538C67.0843 65.4096 66.6137 65.2003 66.3697 64.834C65.0625 62.8456 62.605 62.0781 61.2106 60.4385C58.7705 57.5605 55.459 56.1302 52.6355 53.9324C52.2172 53.5138 51.9383 53.0603 52.1649 52.4324C53.6638 51.9789 55.3719 52.6591 56.2956 54.0894L56.2782 54.1243Z" fill="#9DC686"/>
<path d="M116.044 80.6895C117.02 83.8815 115.452 86.7944 114.929 89.7945C114.772 90.7539 114.929 91.6085 114.946 92.4981C114.981 94.3296 115.469 96.1262 115.225 98.0099C115.068 99.1437 115.696 100.033 117.107 99.8763C119.617 99.6147 122.197 99.4926 124.567 98.6379C127.617 97.539 130.354 95.8645 131.974 92.8295C132.149 92.5156 132.341 92.2016 132.219 91.8527C131.626 90.3352 132.654 89.6724 133.665 88.9747C133.892 88.8177 134.293 88.6084 134.293 88.4514C134.101 86.5328 135.774 85.5909 136.471 84.1257C136.907 83.2012 137.308 82.3291 137.552 81.3C137.883 79.922 138.981 78.7011 140.34 77.9336C136.942 85.9572 133.7 94.0679 127.861 100.748C126.188 102.667 124.201 104.237 121.97 105.528C119.652 106.871 117.892 108.929 115.765 110.534C113.674 110.202 112.192 109.138 111.565 107.045C111.478 106.766 111.321 106.47 111.46 106.208C112.367 104.603 111.321 103.731 110.223 102.946C109.317 102.301 108.898 101.76 109.857 100.801C110.728 99.9286 110.171 98.2541 111.513 97.5913C111.181 97.0506 110.885 96.4924 110.937 95.8296C110.937 95.4808 111.059 95.1668 111.216 94.8528C111.774 94.0156 112.088 93.0912 112.14 92.0795C112.262 89.4282 112.68 86.777 112.157 84.1257C112.035 83.4978 112.053 82.8524 112.436 82.2768C113.482 81.3872 114.284 79.9046 116.062 80.6546L116.044 80.6895Z" fill="#A9CD9D"/>
<path d="M56.3836 98.8984C57.2028 99.1077 58.022 99.3171 58.8412 99.5264C59.9392 100.381 61.3161 100.922 61.7344 102.492C61.8738 103.015 62.5536 103.277 63.1636 103.311C64.4882 103.416 64.6277 104.218 64.2791 105.282C64.1745 105.614 63.9828 105.91 63.8433 106.224C62.6756 109.137 62.8325 110.027 65.5166 111.614C67.6952 112.905 70.1179 113.515 72.6451 112.399C73.7083 111.928 74.8063 111.597 75.9566 111.352C76.5841 111.213 77.1593 111.038 77.6821 110.62C78.7104 109.783 79.2682 109.905 79.5471 111.195C79.8433 112.538 79.9654 113.864 81.3074 114.736C81.8128 115.068 81.4643 115.696 81.046 116.219C80.0351 117.457 78.5187 117.736 77.2464 118.486C75.3292 118.504 73.8303 119.917 71.9654 120.126C71.7911 120.126 71.6168 120.143 71.4599 120.091C69.2115 119.306 66.9457 119.219 64.5231 119.341C61.1941 119.516 57.9174 119.393 54.7104 120.702C53.6298 121.138 52.1135 121.626 51.2246 120.039C53.5078 118.992 54.4316 116.812 55.7388 114.893C57.5165 112.312 57.9174 111.387 57.7083 108.317C57.6386 107.288 58.0046 106.381 58.388 105.492C58.9109 104.253 58.7889 103.154 57.9 102.108C57.6211 101.794 57.4991 101.497 56.9588 101.637C56.2094 101.846 55.6865 101.41 55.5993 100.695C55.5122 99.9973 55.3205 99.1426 56.3836 98.8984Z" fill="#9FC899"/>
<path d="M40.6443 11.268C40.0168 11.0413 39.6683 10.5005 39.1977 10.0819C38.3088 9.27956 37.385 8.40743 36.0081 9.15746C35.8338 9.24468 35.433 9.27956 35.3633 9.17491C33.8469 7.0818 32.0168 8.91327 30.3611 8.80861C29.1933 8.73884 28.2173 8.52953 27.7816 7.25623C27.3807 6.08758 26.2478 5.59919 25.3415 4.91893C25.1846 4.79683 24.7314 4.79683 24.7314 4.81427C24.4003 6.03525 23.494 5.18056 22.9537 5.37243C20.8622 6.1399 19.5724 4.77939 18.2129 3.8026C17.1149 3.01769 16.0517 2.45953 14.7097 2.5293C13.019 2.61651 11.4678 1.65717 9.75977 1.9537C9.81205 1.46531 10.1432 1.30832 10.5615 1.27344C20.5484 1.60485 30.1171 3.78516 39.3371 7.57019C42.8578 9.01792 46.3611 10.4831 49.6203 12.4541C51.0321 14.3379 52.3044 16.2217 54.8317 16.9717C56.6094 17.495 58.0038 18.9776 59.5027 20.1114C59.921 20.4253 60.2521 20.844 60.7402 21.0358C62.2391 21.6463 63.3371 22.6405 64.1563 24.0708C65.08 25.693 67.067 26.0069 68.409 27.1582C68.775 27.6117 69.1236 28.0652 69.4896 28.5187C69.4722 28.6757 69.3676 28.7803 69.2107 28.7978C68.6704 28.6408 68.1476 28.2745 67.5898 28.7454C66.9101 29.0768 66.2304 29.3734 65.4635 29.4431C64.0866 29.3908 63.2674 28.6059 62.6748 27.4372C61.5419 25.2046 60.0604 23.4603 57.2543 23.5999C56.958 23.5999 56.592 23.5301 56.5223 23.251C55.9471 20.9661 53.6813 20.8788 52.1127 19.9021C51.3981 19.4486 50.8404 19.0299 50.4395 18.2799C49.3066 16.2217 48.0866 16.0298 46.3262 17.5822C45.9428 17.9311 45.5593 18.2973 45.1062 18.5415C43.7118 19.309 42.7358 18.9951 41.9689 17.5996C41.3066 16.431 40.7837 15.2449 40.9057 13.8321C40.9754 12.9774 40.592 12.1227 40.6617 11.2506L40.6443 11.268Z" fill="#C4D98A"/>
<path d="M56.383 98.8998C56.0344 99.1789 55.9647 99.58 55.9298 99.9812C55.895 100.504 55.7555 101.063 56.383 101.342C57.2022 101.708 57.2719 100.941 57.603 100.225C58.0736 101.22 58.3699 102.005 58.9276 102.702C59.6248 103.574 59.2937 104.83 58.7185 105.824C57.847 107.325 57.9865 108.807 58.7011 110.307C59.3808 111.737 59.1019 113.203 57.6553 113.848C56.261 114.459 55.5115 115.575 55.1107 116.726C54.4309 118.68 53.1412 119.604 51.3111 120.058C50.9625 120.546 50.4745 120.267 50.0388 120.249C48.2261 120.197 46.5878 119.377 44.8274 119.116C44.4266 119.063 44.0605 118.837 44.0605 118.331C45.0017 117.633 46.152 117.354 47.2327 117.092C48.5747 116.778 49.0279 115.836 49.1847 114.772C49.3416 113.621 48.8187 112.575 47.6161 112.174C46.3263 111.737 44.9146 111.04 45.2457 109.662C45.6292 108.075 47.3024 108.075 48.749 108.301C50.9974 108.633 51.7642 107.865 51.7294 105.476C51.712 103.679 51.5551 101.987 50.6314 100.347C50.1956 99.5626 49.6553 99.0044 48.9233 98.7777C47.9647 98.4637 48.1913 97.9404 48.4004 97.3125C51.0845 97.7311 53.8383 97.7311 56.3656 98.8823L56.383 98.8998Z" fill="#B1D1A2"/>
<path d="M65.4983 29.1108C66.178 28.8491 66.8752 28.5875 67.5549 28.3258C68.6181 28.0642 69.1759 29.0236 69.9776 29.3898C70.2216 29.7213 70.5528 29.9654 70.6225 30.4015C70.9536 30.855 71.3022 31.2911 71.6334 31.7446C71.8251 32.5993 72.7663 33.0004 72.9754 33.8551C74.1955 35.3552 74.9972 37.082 75.7118 38.8437C75.2586 38.5995 74.8403 38.2681 74.3523 38.1111C73.69 37.8844 73.08 38.0065 73.4111 38.896C74.5266 41.8787 72.0691 42.8904 70.3436 43.8148C66.7358 45.7509 64.1388 48.6464 61.873 51.8558C60.3218 54.0361 58.5266 53.2687 56.6443 52.9373C55.2674 52.2221 53.9079 51.4895 52.7576 50.4604C51.8164 49.6057 50.9275 48.6987 49.69 48.2801C49.4634 48.2103 49.2369 48.1057 49.0974 47.9313C47.5637 45.7684 44.8098 45.0707 43.1715 43.1346C42.1432 41.8961 40.6094 40.9891 40.1562 39.2798C40.2085 39.0181 40.3131 38.7739 40.5048 38.5821C40.5571 38.5646 40.6268 38.4948 40.6617 38.5123C42.9972 39.9077 45.995 40.2914 47.7379 42.5938C48.5571 43.6753 49.3414 44.6695 50.4743 45.4021C52.0255 46.3963 53.3676 47.7045 54.9013 48.7336C56.3828 49.7278 57.446 49.4662 58.0735 47.8615C58.9275 45.6637 60.6007 44.6346 62.6748 43.7625C65.8643 42.402 67.1018 40.3612 65.9515 37.239C65.2891 35.4075 65.4983 34.7098 67.2064 33.7156C68.1475 33.1749 68.7401 32.669 67.9558 31.5702C67.5549 31.012 67.8338 30.6457 68.3741 30.3841C67.4504 29.791 65.9515 30.6457 65.446 29.1456L65.4983 29.1108Z" fill="#B6D399"/>
<path d="M77.1587 118.243C78.0825 117.144 79.6511 117.092 80.6794 115.958C81.3417 115.243 81.3417 114.842 80.7143 114.65C79.3897 114.249 79.1631 113.481 79.3548 112.295C79.4594 111.58 79.0411 110.987 78.6751 110.115C77.9256 111.65 76.5313 111.685 75.2589 111.981C74.5792 112.138 73.9169 112.33 73.272 112.592C69.821 114.057 66.5269 113.446 63.9648 110.847C62.1696 109.016 62.1522 108.493 63.6511 105.527C64.1391 104.551 64.8886 103.504 62.7274 103.801C61.8733 103.905 60.9147 102.789 60.9147 102.283C60.9147 100.853 60.0607 100.713 59.1195 100.469C58.4398 100.295 58.4049 99.9807 58.8581 99.5098C61.5596 100.103 64.1391 101.114 66.7012 102.126C67.3635 103.051 68.0433 103.731 69.3504 104.01C70.0999 104.167 71.1282 105.056 71.6685 106.086C72.0171 106.748 72.3831 107.69 73.6206 107.115C74.4223 106.748 74.6141 107.812 75.0847 108.231C75.4507 107.603 74.9278 106.975 75.1544 106.365C78.9539 108.737 82.3178 111.58 84.5313 115.574C84.7753 116.01 85.1761 116.377 85.4899 116.778C85.455 117.109 85.2459 117.301 84.9321 117.353C82.6489 117.65 80.3308 117.702 78.1696 118.609C77.8036 118.766 77.3504 118.714 77.1587 118.226V118.243Z" fill="#95C38F"/>
<path d="M130.98 144.774C122.683 139.402 115.415 132.843 108.478 125.866C109.489 124.593 110.169 123.32 108.757 121.854C108.496 121.575 108.165 121.104 108.757 120.703C115.834 128.831 124.566 135.058 132.775 141.878C133.367 142.262 133.925 142.681 133.698 143.501C133.489 144.251 132.844 144.512 132.165 144.687C131.781 144.791 131.38 144.739 130.98 144.774Z" fill="#AFBD87"/>
<path d="M58.4746 146.517C59.5204 146.029 60.0084 144.912 61.0716 144.354C61.9953 143.866 62.675 143.412 63.6336 144.145C63.8079 144.284 64.4005 144.267 64.4354 144.145C65.2023 142.418 68.2001 142.261 67.3984 139.261C66.9801 137.709 69.0193 137.674 70.2045 137.709C72.0171 137.761 73.8297 137.778 75.2415 136.505C76.4441 135.424 78.1347 134.621 77.8907 132.511C77.8036 131.708 78.6228 131.377 79.1631 130.993C80.5225 130.034 81.2023 128.726 81.272 127.086C81.272 126.772 81.3243 126.511 81.5683 126.336C82.6315 125.516 83.3112 124.33 82.736 123.179C82.1957 122.132 80.784 122.516 79.7034 122.464C79.7382 121.888 80.174 121.731 80.6271 121.574C82.4572 120.929 84.1827 120.039 86.0302 119.464C86.8842 119.202 87.7557 119.656 88.5923 119.342C89.9692 118.993 91.3461 119.272 92.723 119.342C93.1064 119.342 93.3853 119.534 93.4899 119.917C93.6467 120.475 93.211 120.598 92.845 120.737C92.3047 120.929 91.7644 120.964 91.2241 120.772C90.9801 120.441 90.7186 120.441 90.4398 120.755C88.4877 120.423 87.9299 121.609 87.2676 123.214C84.1478 130.767 79.1282 136.819 72.3308 141.372C72.2088 141.459 71.9997 141.441 71.8428 141.476C71.6162 141.319 72.3134 140.656 71.6685 140.883C70.3439 141.337 69.4201 142.593 67.9909 142.924C67.9909 142.924 68.3744 143.046 68.4093 143.29C66.6838 144.11 64.9583 144.93 63.2154 145.75C62.1173 145.558 61.0541 145.575 60.0607 146.221C59.6075 146.517 59.1544 147.18 58.492 146.535L58.4746 146.517Z" fill="#A0C996"/>
<path d="M52.2351 59.6702C52.1654 60.333 50.9105 61.3795 52.8103 61.3621C53.1414 61.3621 53.3331 61.5889 53.3506 61.9203C53.4726 64.0831 54.3963 66.1414 54.1523 68.3391C53.9954 69.8217 53.2634 71.1299 51.9388 71.7927C50.5096 72.5079 49.7427 73.6242 49.3593 75.0371C48.6621 77.5313 48.5401 77.5662 46.1 77.0778C45.002 76.8511 45.49 77.6185 45.7166 78.1069C43.5031 77.6883 41.7427 76.3452 39.8778 75.2115C37.4203 73.7289 35.0151 72.159 32.9236 70.1357C32.5401 68.2345 33.8473 68.3217 35.0673 68.2868C35.7297 68.4612 36.2002 68.9322 36.4617 69.5078C37.2634 71.252 38.7798 72.0544 40.453 72.6125C42.0564 73.1358 43.6251 73.6765 44.9846 74.7231C45.9606 75.4731 46.6926 75.194 47.1109 74.0254C47.5815 72.7172 48.0347 71.4264 48.0695 69.9962C48.1044 68.3042 48.7841 67.5019 50.3179 67.1879C51.2416 66.996 52.0782 66.7344 51.9737 65.5832C51.8691 64.432 51.2242 63.5599 50.039 63.4727C48.697 63.3854 47.3201 63.5948 46.6403 62.0424C45.9432 60.4725 47.3201 59.7225 48.0172 58.7457C48.8713 57.5422 48.8713 56.5654 47.8604 55.5014C47.3898 54.9956 46.9192 54.4723 46.6403 53.8269C46.5009 53.4955 46.2046 53.042 46.9192 52.9199C49.2373 54.7514 51.2242 56.8096 52.2351 59.6527V59.6702Z" fill="#B3D190"/>
<path d="M111.617 95.0622C111.512 95.2889 111.407 95.5331 111.303 95.7599C110.64 96.9983 110.344 98.3588 110.013 99.6845C109.908 100.138 109.943 100.696 109.612 100.993C108.723 101.83 109.089 102.44 109.769 103.138C110.937 104.342 110.152 105.894 110.362 107.272C110.449 107.795 109.769 107.9 109.298 107.638C108.898 107.394 108.776 106.888 108.462 106.557C107.59 105.493 106.632 105.336 105.569 106.278C105.185 105.859 104.819 105.423 104.453 105.004C105.603 102.842 105.569 100.609 104.906 98.3239C104.697 95.6901 104.366 93.0737 106.51 90.8585C107.503 89.8294 107.869 88.3468 107.974 86.8468C108.044 85.8002 108.235 84.7013 109.054 84.0211C109.769 83.4106 110.762 83.1315 111.634 83.7769C112.68 84.5792 112.749 85.7828 112.505 86.934C112.07 88.9573 111.739 91.033 111.059 93.004C110.762 93.8587 110.885 94.5389 111.634 95.0622H111.617Z" fill="#95C16F"/>
<path d="M4.60199 132.144C5.42116 132.441 4.56713 133.906 5.73489 133.871C6.76321 133.853 6.62378 132.667 7.09436 132.249C7.79153 131.586 8.33184 130.435 9.60417 130.574C10.8068 130.696 11.6085 129.528 12.7763 129.545C11.6434 131.446 11.8177 133.766 10.8416 135.737C10.5279 136.365 11.1205 136.854 11.6782 137.255C12.4451 137.813 13.2992 138.266 13.6477 139.295C14.1183 140.656 13.9092 141.249 12.4451 141.336C11.5562 141.389 10.8242 141.441 10.7545 142.54C7.28609 141.267 4.11397 139.348 0.819854 137.726C-0.0516053 137.307 -0.313043 136.731 0.47127 135.842C1.30787 134.865 2.28391 134.063 3.27737 133.278C3.8351 133.417 4.09654 133.173 4.07911 132.615C4.25341 132.475 4.44513 132.318 4.61942 132.179L4.60199 132.144Z" fill="#CFDF92"/>
<path d="M88.6104 119.673C87.5123 120.213 86.2748 119.969 85.0897 120.318C83.2073 120.876 81.6038 122.062 79.704 122.463C79.5297 122.603 79.338 122.742 79.1637 122.865C78.5014 122.987 77.8391 123.056 77.1768 123.196C75.2596 123.405 73.325 123.632 71.4077 123.841C70.6234 124.138 69.8391 124.644 69.0199 123.963C68.5493 123.58 68.3053 123.946 67.9742 124.12C66.6496 124.87 65.3075 125.115 63.8783 124.33C63.1637 123.929 62.4491 124.033 61.7345 124.417C61.1071 124.748 60.4273 124.748 60.1311 123.998C59.8173 123.213 60.5668 123.039 61.0548 122.812C62.6583 122.045 64.3141 121.469 66.1093 121.242C68.0439 120.998 69.9437 120.492 71.7912 119.864C73.0287 119.079 74.6496 119.167 75.765 118.05C76.2705 117.545 76.6888 118.347 77.1768 118.19C77.3337 118.242 77.5602 118.382 77.6648 118.329C80.1398 117.074 82.8762 117.231 85.508 116.742C86.0831 116.76 86.6583 116.795 87.2334 116.812C88.2269 117.492 88.3663 118.591 88.6278 119.62L88.6104 119.673Z" fill="#98C05B"/>
<path d="M121.08 21.4014C119.825 22.7096 118.239 22.5701 117.646 21.0177C117.245 19.9537 116.757 19.8141 115.555 19.7269C113.184 19.5351 110.779 19.1862 108.461 18.4711C107.694 18.2269 106.788 17.3722 106.108 18.6804C105.603 19.6746 104.435 20.5991 106.038 21.6631C106.37 21.8898 106.509 22.2735 106.248 22.727C105.55 23.8957 105.08 25.2737 103.389 25.3609C101.96 25.4306 100.688 25.0469 99.5723 24.1573C101.855 20.5816 104.679 17.5292 108.025 14.9128C108.967 14.1802 109.786 13.9011 110.988 14.4593C114.004 15.8547 117.054 17.1803 119.581 19.4304C120.086 20.0932 120.592 20.756 121.097 21.4189L121.08 21.4014Z" fill="#C2D673"/>
<path d="M52.236 147.11C53.5607 147.058 54.6761 147.424 55.2861 148.733C50.8766 150.529 46.2753 151.366 41.5694 150.843C35.6434 150.198 29.8744 148.715 24.0879 147.285C25.2731 144.756 26.772 144.232 29.0726 145.506C30.223 146.151 31.4082 146.587 32.7676 146.796C34.3014 147.023 35.8875 147.895 37.2644 148.122C39.5476 148.488 42.0922 149.884 44.48 148.14C44.7066 147.983 45.0552 147.826 45.2818 147.895C47.2339 148.419 49.2905 147.564 51.2774 148.506C52.4626 149.064 51.7306 147.477 52.2535 147.093L52.236 147.11Z" fill="#B6D394"/>
<path d="M88.5402 98.6367C84.6883 93.8225 81.2199 88.7293 77.6992 83.6884C78.2221 82.5372 79.6339 82.4674 80.3485 81.543C84.7406 88.2235 89.0108 94.9912 94.0827 101.201C94.3267 101.497 94.4661 101.898 94.6578 102.247C93.3506 102.09 92.8278 100.957 92.1829 100.084C91.2243 98.7762 90.2134 97.9215 88.5227 98.6541L88.5402 98.6367Z" fill="#AEB983"/>
<path d="M143.495 66.457C142.85 65.079 142.501 63.2824 140.236 64.2767C139.869 64.4336 139.521 63.9627 139.538 63.6836C139.591 62.9336 138.771 62.2882 139.172 61.608C139.381 61.2417 139.887 61.6428 140.218 61.8522C140.532 62.044 140.898 62.1312 141.159 61.8173C141.421 61.4859 141.49 60.9975 141.281 60.6661C140.636 59.6544 140.88 58.6602 140.915 57.5439C141.02 54.2472 140.95 50.9506 138.039 48.5086C137.412 47.9679 136.68 47.0086 137.464 45.7876C138.127 44.7759 136.506 44.0433 136.767 42.927C137.429 42.7003 137.534 43.4503 137.935 43.6596C139.015 46.1016 140.654 48.2644 141.508 50.8285C142.867 54.9972 144 59.2009 143.965 63.6313C143.965 64.5732 144.157 65.6023 143.477 66.457H143.495Z" fill="#BFD791"/>
<path d="M108.74 106.383C109.054 106.54 109.315 106.714 109.315 107.15C109.315 107.551 109.594 107.621 109.908 107.499C110.186 107.394 110.169 107.15 110.064 106.923C109.385 105.58 110.622 103.557 108.6 102.65C108.513 102.615 108.496 102.161 108.6 102.004C109.733 100.347 109.803 98.3415 110.378 96.5101C110.535 96.0217 111.04 96.0914 111.302 95.7949C111.372 96.1961 111.302 96.7194 111.511 96.9461C112.208 97.6613 113.864 98.4462 111.18 98.359C110.884 98.359 110.831 98.8125 110.866 99.0916C110.971 100.278 110.64 101.237 109.071 101.865C110.518 102.231 110.936 103.278 111.842 103.749C112.295 103.993 112.487 104.603 112.348 104.952C110.953 108.388 113.725 109.243 115.746 110.586C114.056 112.069 112.156 113.028 109.838 112.801C109.036 112.732 108.391 112.993 107.764 113.429C107.659 113.429 107.572 113.394 107.52 113.325C107.467 113.255 107.45 113.203 107.467 113.185C107.467 113.046 107.52 112.906 107.572 112.767C107.694 112.505 107.764 112.226 107.711 111.947C107.415 110.272 108.112 108.668 108.025 107.01C108.025 106.679 108.269 106.383 108.705 106.4L108.74 106.383Z" fill="#8FBF85"/>
<path d="M88.541 98.638C90.5802 97.0682 90.1794 96.824 91.9223 98.952C92.8286 100.051 93.7523 101.15 94.6587 102.249C96.5062 104.76 98.3537 107.255 100.201 109.766C99.8526 110.359 99.3471 110.168 98.8242 110.011C99.1728 110.865 99.3123 111.737 99.9397 112.47C100.48 113.098 99.8526 113.586 99.3645 113.987C95.8787 108.79 91.8177 103.993 88.541 98.6555V98.638Z" fill="#7CAC67"/>
<path d="M88.611 119.673C88.9247 118.4 87.3212 119.569 87.4084 118.766C87.4781 118.086 87.8964 117.441 87.1992 116.865C88.001 116.918 88.8027 116.97 89.6219 117.022C89.465 117.197 89.4476 116.9 89.5522 117.109C89.6045 117.214 89.6916 117.162 89.6393 117.022C93.1949 116.865 96.7504 117.266 100.306 117.301C100.777 117.301 101.352 117.65 101.7 117.005C102.171 117.179 102.241 117.598 102.241 118.016C102.014 119.028 102.432 120.144 101.787 121.104C98.8071 120.982 95.8092 120.842 92.8288 120.72C93.1949 120.336 93.6306 119.761 92.7591 119.656C91.3997 119.516 89.9879 119.656 88.611 119.656V119.673Z" fill="#81B673"/>
<path d="M102.1 118.069C101.96 117.72 101.838 117.371 101.699 117.022C100.932 116.01 100.148 114.999 99.3808 113.987C100.078 112.679 98.6314 111.842 98.6314 110.656C98.6314 110.185 98.3177 109.696 98.5617 109.068C99.1194 109.33 99.3983 110.307 100.217 109.766C101.403 111.214 102.588 112.679 103.895 114.284C104.784 112.749 104.435 111.092 105.132 109.749C105.83 110.028 105.725 110.691 105.865 111.231C105.725 113.115 106.039 114.981 106.231 116.848C106.37 118.261 105.743 118.941 104.557 119.377C102.692 120.947 102.727 118.906 102.117 118.104L102.1 118.069Z" fill="#6D975D"/>
<path d="M68.4104 27.1749C66.6152 26.6516 64.8026 26.0586 63.7917 24.3318C62.9202 22.8491 61.5607 22.0991 60.1664 21.2095C58.9812 20.4595 57.7089 19.692 56.698 18.7327C55.7568 17.8431 54.7982 17.2675 53.613 16.971C51.417 16.4303 50.6849 14.3895 49.3952 12.9243C49.3603 12.872 49.5346 12.6453 49.6217 12.4883C56.9943 15.9593 63.1817 20.9654 68.393 27.1923L68.4104 27.1749Z" fill="#B5D077"/>
<path d="M80.3492 81.5441C80.5061 82.3465 80.0007 82.6081 79.3732 82.8523C78.7981 83.0791 78.2578 83.4105 77.7 83.6896C76.6543 83.5152 75.6085 83.3407 74.5628 83.1837C74.5628 82.6605 75.2948 82.0849 74.3188 81.6314C73.517 81.2476 74.8416 80.6895 74.371 80.1836C73.883 78.1254 74.5279 76.9742 76.1837 76.9219C77.6652 77.5149 78.1009 79.2766 79.5126 79.9569C79.4081 80.6895 80.1401 81.0034 80.3667 81.579L80.3492 81.5441Z" fill="#7AAD4C"/>
<path d="M102.1 118.068C102.518 118.4 103.355 118.313 103.059 119.289C102.954 119.656 103.181 119.725 104.227 119.045C104.593 119.045 104.976 119.15 105.15 119.429C105.935 120.702 106.771 120.284 107.643 119.568C108.27 119.499 108.2 120.214 108.566 120.423C108.654 120.51 108.723 120.598 108.758 120.702C108.654 121.295 109.037 121.749 109.438 122.01C111.216 123.162 109.542 124.452 109.595 125.656C109.595 125.708 108.88 125.795 108.497 125.865C108.392 125.83 108.305 125.743 108.27 125.638C107.102 124.784 106.179 123.615 105.429 122.481C104.418 120.981 103.32 120.789 101.821 121.103C100.985 120.458 102.797 119.115 101.211 118.609C101.194 118.609 101.908 118.417 102.135 118.068H102.1Z" fill="#76A764"/>
<path d="M130.98 144.773C131.259 144.598 131.538 144.336 131.834 144.249C133.734 143.709 133.821 143.517 132.758 141.895C135.564 143.534 137.935 145.767 140.967 147.93C136.959 147.895 133.804 146.848 130.963 144.79L130.98 144.773Z" fill="#D3D5A7"/>
<path d="M105.499 111.267C105.377 110.743 105.237 110.238 105.115 109.714C105.255 108.581 105.394 107.429 105.551 106.296C105.359 105.546 105.342 105.075 106.422 105.319C107.311 105.511 108.479 104.865 108.723 106.383C108.287 108.336 107.991 110.29 108.2 112.278C107.869 112.383 107.834 112.662 107.799 112.941C107.73 113.028 107.66 113.098 107.59 113.168C107.102 113.744 106.858 113.168 106.579 112.924C106.056 112.488 105.9 111.807 105.516 111.267H105.499Z" fill="#81B34B"/>
<path d="M75.1366 106.381C76.0604 107.358 75.6595 108.335 75.1366 109.469C74.7009 108.928 74.7183 108.23 74.2129 107.846C74.0211 107.707 73.9514 107.149 73.6726 107.41C71.6159 109.416 71.9296 106.503 71.0407 106.085C70.117 105.631 69.629 104.41 68.3218 104.375C66.8926 104.34 66.9797 103.085 66.666 102.16C69.6813 103.172 72.5222 104.532 75.1192 106.399L75.1366 106.381Z" fill="#82B876"/>
<path d="M10.5616 1.29095C10.3002 1.51771 10.0213 1.74446 9.75991 1.97121C7.80784 1.32584 5.78605 2.21541 3.81655 1.77935C3.46797 1.70958 3.08452 1.90144 3.01481 2.28518C2.66622 3.87245 1.74248 3.54104 0.731583 3.01777C0.470145 0.244402 0.749012 -0.0870058 3.52025 0.000206883C5.92548 0.0874195 8.29585 0.331615 10.5442 1.27351L10.5616 1.29095Z" fill="#C3D667"/>
<path d="M105.498 111.266C106.579 111.475 106.422 113.027 107.573 113.167C107.607 113.254 107.677 113.341 107.747 113.411C107.172 114.353 107.363 115.382 107.381 116.394C107.276 116.987 106.91 117.597 107.538 118.121C107.712 118.557 107.904 118.993 108.078 119.429C108.148 119.603 108.078 119.69 107.904 119.69C107.66 119.935 107.433 120.196 107.172 120.406C106.562 120.894 105.969 121.452 105.464 120.196C105.272 119.725 104.644 119.411 104.226 119.045C104.156 118.086 106.562 119.15 105.638 117.248C105.359 116.69 105.882 115.766 105.533 114.841C105.132 113.795 105.498 112.469 105.533 111.266H105.498Z" fill="#66954B"/>
<path d="M59.2246 80.9682C59.2246 80.6717 59.3466 80.2007 59.5558 80.2879C61.107 80.9508 62.7453 80.1658 64.3314 80.6891C65.9 81.2124 67.8695 80.567 68.985 82.381C65.6908 82.1543 62.449 81.6136 59.2246 80.9682Z" fill="#78B15F"/>
<path d="M88.5918 60.8926C90.0907 60.9798 90.1256 62.5147 90.3173 63.2822C90.5962 64.3985 90.0733 65.7416 89.7944 66.9626C89.6898 67.4161 89.2367 67.6952 88.6964 67.5382C88.6615 65.323 88.6267 63.1078 88.6092 60.8926H88.5918Z" fill="#C7DA8C"/>
<path d="M58.4743 146.517C59.8512 145.68 61.3676 145.139 62.9362 144.703C63.4765 144.773 63.0408 145.349 63.2151 145.732C61.3327 146.517 59.4504 147.32 57.568 148.104C57.0451 147.093 58.1258 147.006 58.4918 146.517H58.4743Z" fill="#9FC577"/>
<path d="M101.787 121.103C103.966 119.899 104.035 119.969 105.36 121.992C106.214 123.283 107.277 124.434 108.236 125.638C107.486 125.376 107.155 124.661 106.632 124.155C105.238 122.777 103.896 121.295 101.77 121.103H101.787Z" fill="#81B673"/>
<path d="M68.3928 143.272H67.2773C69.1597 142.296 70.5192 140.447 72.8547 140.115C72.8198 140.935 72.1052 141.04 71.8264 141.458C70.5715 141.859 69.7174 142.993 68.3928 143.255V143.272Z" fill="#69AA5F"/>
<path d="M51.4688 79.6254C53.142 78.3696 56.6626 79.0149 57.2901 80.672C55.3555 80.3231 53.4208 79.9743 51.4688 79.6254Z" fill="#7BB363"/>
<path d="M88.4698 57.4023C88.6964 57.2977 89.2018 57.1058 89.0624 57.4721C88.7835 58.1698 89.9861 59.2338 88.5569 59.6001C88.3304 58.8675 88.2083 58.1349 88.4698 57.3849V57.4023Z" fill="#C7DA8C"/>
<path d="M107.555 118.121C106.3 117.668 106.77 117.04 107.398 116.395C107.45 116.97 107.502 117.546 107.555 118.121Z" fill="#ABBC8E"/>
<path d="M4.06151 132.58C4.30552 132.929 4.51467 133.365 4.18351 133.662C3.73035 134.045 3.5212 133.487 3.25977 133.243C3.5212 133.016 3.80007 132.807 4.06151 132.58Z" fill="#BDD58A"/>
<path d="M72.9768 33.8391C72.5062 33.1414 71.6522 32.7053 71.6348 31.7285C72.1751 32.3739 72.8897 32.9146 72.9768 33.8391Z" fill="#C5DB9E"/>
<path d="M70.6239 30.4015C70.2927 30.0352 69.979 29.6515 69.6479 29.2852C69.369 29.2154 69.2121 29.0584 69.247 28.7445C69.3341 28.6747 69.4039 28.6049 69.491 28.5352C69.9442 29.1108 70.5716 29.5817 70.6239 30.4015Z" fill="#C5DB9E"/>
<path d="M32.8012 100.609C32.3132 100.976 31.982 101.604 31.25 101.534C31.7032 101.098 32.104 100.609 32.8012 100.609Z" fill="#BFD89D"/>
<path d="M90.4407 120.754C90.2489 120.457 90.2141 120.23 90.6672 120.265C90.9635 120.283 91.3818 120.23 91.225 120.789C90.9635 120.789 90.7021 120.771 90.4407 120.771V120.754Z" fill="#81B673"/>
<path d="M107.904 119.691C107.957 119.604 108.009 119.517 108.079 119.43C108.375 119.709 108.601 120.005 108.549 120.441C107.922 120.546 108.026 120.005 107.904 119.691Z" fill="#AFBD87"/>
<path d="M108.916 65.881C107.957 67.6602 106.389 68.9858 105.221 70.608C104.715 71.3057 103.792 71.4801 102.903 71.5673C99.7655 71.8464 98.8766 72.9801 98.9289 75.3872C98.9637 77.0268 98.4932 78.3699 96.6108 78.649C94.9202 78.8932 92.9158 77.5152 92.0444 76.2419C90.7546 74.3407 91.016 71.8289 89.4648 70.0847C90.2666 67.9044 91.5738 65.4624 91.016 63.4042C90.4234 61.2064 91.7655 60.718 92.6544 59.7064C93.0901 59.218 93.5607 59.0087 92.7241 58.4854C92.4104 58.2935 92.5498 57.84 92.7241 57.5261C94.2056 54.9446 94.0139 51.8049 95.5476 49.2409C95.8439 48.7525 95.5476 48.2117 95.4431 47.7234C95.1119 46.2756 94.7285 44.8977 95.6696 43.4325C96.0879 42.7871 96.0356 41.7755 97.1163 41.8452C98.3189 41.9324 99.4518 42.1766 100.219 43.3453C101.7 45.6477 101.543 48.5257 102.972 50.863C103.582 51.8572 103.757 52.0142 104.785 51.334C106.911 49.9386 107.643 47.828 108.114 45.5605C108.428 44.0604 109.003 43.0836 110.711 43.293C110.816 43.3453 110.938 43.4674 110.903 43.5371C109.055 47.4966 110.38 51.6654 110.136 55.7295C110.101 56.2179 110.136 56.6539 109.718 56.9679C108.759 57.683 108.951 58.5028 109.125 59.5668C109.474 61.6425 110.258 63.8054 108.881 65.8461L108.916 65.881Z" fill="#BDD8A6"/>
<path d="M108.916 65.8808C109.282 63.5087 109.404 61.1365 108.445 58.8515C108.288 58.4852 108.044 58.0666 108.445 57.7526C110.432 56.113 109.526 53.985 109.508 51.9966C109.508 51.0896 109.665 50.1826 109.735 49.2581C109.77 48.9093 109.944 48.4383 109.787 48.2464C108.253 46.2405 110.153 44.9149 110.693 43.3276C111.913 42.2288 112.454 43.3102 113.081 44.0602C112.889 44.4963 112.767 44.9672 112.942 45.4033C113.97 47.9325 113.064 50.4268 112.628 52.8687C112.314 54.6304 111.896 56.1653 112.523 58.0491C113.011 59.4794 113.116 61.2062 112.855 62.9505C112.506 65.1657 111.844 67.3809 113.046 69.8229C113.726 71.1834 113.395 73.2416 114.65 74.5323C115.8 75.7184 115.957 77.1313 116.079 78.6139C116.131 79.2941 116.027 79.9918 116.009 80.6721C114.406 80.6896 113.482 81.928 112.349 82.7652C111.512 81.6838 110.676 80.6372 109.072 80.9512C108.602 78.7709 108.515 76.5382 108.671 74.323C108.846 71.7764 107.957 69.16 109.142 66.6483C109.229 66.4564 108.985 66.125 108.898 65.8634L108.916 65.8808Z" fill="#B1D095"/>
<path d="M65.4997 29.1114C66.2491 29.8615 67.26 29.5126 68.1141 29.7568C68.6718 29.9138 69.7001 29.5475 69.7001 30.315C69.7001 31.2045 68.6369 30.5766 68.0269 30.9254C68.4103 31.5359 69.2121 31.9371 69.0204 32.8441C68.8286 33.8035 67.9049 33.6639 67.3472 34.1C66.4234 34.8326 65.3428 35.3384 66.3711 36.9257C67.6086 38.8444 66.8243 40.5363 65.3777 42.3852C64.3668 43.6934 63.1642 44.0597 61.857 44.5481C60.1838 45.176 59.1032 46.3272 58.5106 48.0191C57.8483 49.9204 56.5585 50.3913 54.9202 49.2575C52.7589 47.7749 50.65 46.1702 48.5585 44.583C48.2099 44.3213 48.0356 43.8504 47.809 43.4492C47.1467 42.1933 46.4147 41.077 44.7415 41.1293C43.5737 41.1642 42.9812 40.1525 42.1794 39.5595C41.674 39.1758 41.2382 38.7223 40.5411 38.7048C39.4605 38.5478 39.321 37.5362 38.9724 36.8036C38.345 35.5128 37.5432 34.4314 36.1663 33.8732C35.9049 33.7686 35.5215 33.6465 35.4517 33.4023C34.9812 31.6406 33.4474 30.4894 32.8897 28.78C33.7611 25.9369 33.4822 23.1461 32.7676 20.3204C32.1228 17.7912 34.0574 16.0121 36.6021 16.6226C37.1598 16.7621 37.7524 16.7621 38.3101 16.8668C39.2862 17.0412 39.5476 16.5354 39.4953 15.6981C39.3733 14.1108 40.0356 12.7154 40.5934 11.2852C41.3254 12.0177 41.43 13.0294 41.2905 13.8841C41.0117 15.4539 42.04 16.5354 42.4583 17.8261C42.7546 18.7506 43.6086 18.8029 44.4801 18.4366C45.247 18.1052 45.735 17.4424 46.3276 16.9191C48.053 15.4714 50.0225 15.89 50.7894 18.0529C51.138 19.0296 51.626 19.4134 52.5672 19.5878C53.9441 19.832 54.7284 21.5414 56.3842 21.2274C56.4539 21.2274 56.6805 21.5065 56.6456 21.5937C56.0879 23.4949 57.3951 22.9891 58.4583 23.1984C60.3406 23.5647 61.735 24.7682 62.6064 26.5125C63.2164 27.7335 63.7393 29.0765 65.43 29.1463L65.4997 29.1114Z" fill="#C5DB9E"/>
<path d="M32.9411 28.7804C33.9694 30.0014 35.416 30.9433 35.4858 32.7922C35.4858 33.1061 35.7646 33.3155 36.0609 33.3678C38.2047 33.769 38.9019 35.5655 39.7211 37.2051C39.9825 37.7284 40.1916 38.2517 40.5925 38.6878C40.5925 38.8447 40.5577 39.0192 40.5402 39.1761C39.1807 38.9843 38.7799 37.7633 38.2047 36.8388C36.6361 34.3097 34.0217 33.9783 31.5119 33.5945C30.5707 33.455 30.2047 35.0074 29.1241 35.0597C27.1546 34.5539 26.6492 32.4957 25.2548 31.3619C22.6404 29.2165 20.4967 26.5478 17.586 24.7512C17.2723 23.0069 16.5402 21.5417 15.0413 20.4603C14.3093 19.9196 13.6121 18.9603 14.4139 18.0881C15.1285 17.3032 16.1916 17.6521 16.8888 18.2974C18.7712 20.0591 21.0544 21.315 23.0587 22.9023C25.464 24.8035 28.3398 26.1815 30.6579 28.3094C31.1633 28.763 32.1219 29.0071 32.976 28.7804H32.9411Z" fill="#C3D98D"/>
<path d="M46.0472 57.5428C45.4197 58.3277 44.3391 58.1707 43.5548 58.9382C42.4568 60.0196 42.3348 61.0662 42.6659 62.3395C43.1191 64.1012 43.4851 65.8977 44.3217 67.5548C44.7748 68.4618 45.2629 69.5781 44.374 70.4502C43.5548 71.27 42.2999 71.1479 41.4284 70.7119C38.5875 69.3165 36.0602 67.3804 35.2236 64.2058C34.5962 61.8162 33.777 59.8975 31.2672 59.0428C29.7683 58.537 29.472 56.723 28.1648 55.9729C28.4437 55.9729 28.8097 55.8857 29.0014 56.0427C31.4764 57.9439 34.631 58.8684 36.6528 61.415C37.0363 61.9034 37.2454 62.7406 38.1866 62.5488C39.1278 62.3569 38.8489 61.5022 39.1801 60.9615C39.8947 59.758 40.2432 58.694 39.5635 57.316C39.2846 56.7404 39.0929 56.2171 38.5352 55.8508C36.4088 54.4729 34.2825 53.1647 31.8075 52.4495C28.8446 51.6123 26.5613 49.8157 25.3413 46.9203C24.7487 45.5249 23.6681 44.9318 22.3435 44.6527C21.4371 44.4609 20.6703 44.0248 20.8271 43.1178C21.0363 41.984 22.1343 42.1236 22.9535 42.298C23.7901 42.4724 24.5918 42.8562 25.2193 43.4841C26.8925 45.176 28.9666 44.7574 30.8663 44.2516C33.0101 43.6934 33.4459 41.8794 32.2955 39.577C31.9644 38.9316 31.2672 38.4083 31.5287 37.5362C32.7138 37.3269 33.4284 38.0595 34.0907 38.8618C34.5613 39.42 34.7531 40.1875 35.3979 40.6235C35.6245 40.7979 35.8162 40.9898 36.008 41.1991C36.6877 41.9666 37.2629 42.8387 38.204 43.3445C39.8075 44.3388 40.9404 45.7342 41.8293 47.3738C42.8228 49.2227 44.7226 50.2867 45.8032 52.0484C46.3435 52.7461 46.4655 53.6182 46.9186 54.3682C47.7204 55.7113 47.3718 56.7579 46.0472 57.5253V57.5428Z" fill="#C3D99C"/>
<path d="M35.1552 40.8669C34.8415 40.8669 34.5626 40.7448 34.4755 40.4482C34.0223 38.9482 32.872 38.1458 31.5474 37.5353C31.5474 36.7679 30.7979 36.9423 30.4145 36.6807C30.1879 35.9655 29.5256 35.6167 29.0898 35.0759C29.3339 34.2736 30.6062 34.2387 30.5365 33.1747C30.5365 33.1224 31.0593 32.9131 31.2859 32.9828C34.0746 33.8375 37.3164 33.8026 38.8328 37.0818C39.1988 37.8842 39.9482 38.4947 40.5234 39.2098C40.4537 40.3261 41.6214 40.3959 42.1095 41.0762C42.9461 42.2099 44.0267 43.1693 45.0201 44.1809C45.2641 44.4251 45.543 44.7914 45.8219 44.8089C47.6171 44.8786 48.2968 46.3438 49.1857 47.4776C49.6737 48.1055 50.4406 47.7567 50.8589 48.2102C52.5495 50.094 55.0245 51.0184 56.6628 52.972C56.8023 53.4604 56.6628 53.8616 56.2968 54.1755C55.0419 53.408 53.8044 52.5882 52.2707 52.5359C50.9809 52.972 50.214 52.0999 49.4297 51.3673C48.0005 50.0416 46.7979 48.5067 45.2467 47.2857C44.4275 46.6229 43.5909 46.0473 42.6323 45.6461C40.3665 44.6868 38.6759 42.9076 36.6715 41.5646C36.2184 41.268 35.8872 40.6401 35.1726 40.9366L35.1552 40.8669Z" fill="#B1CF85"/>
<path d="M30.4141 36.6636C31.0764 36.5938 31.6515 36.5938 31.547 37.5182C31.303 37.0473 30.4315 37.431 30.4141 36.6636Z" fill="#C3D99C"/>
<path d="M71.7735 119.918C70.8323 121.313 69.2114 121.034 67.8868 121.418C66.1264 121.924 64.3138 122.22 62.5012 122.569C61.7168 122.726 61.3334 123.581 60.4445 123.563C60.2179 123.563 60.3225 123.964 60.4968 124.121C60.7757 124.383 61.1591 124.505 61.4206 124.208C62.5186 122.97 63.5469 123.563 64.5752 124.261C64.9412 124.505 65.377 124.749 65.6907 124.557C67.5033 123.546 69.4728 123.982 71.39 123.86C70.6057 124.54 69.7691 124.993 68.7757 124.296C68.4445 124.069 68.1831 124.121 68.0611 124.365C67.2419 125.831 65.9347 124.941 64.8715 125.168C62.1874 125.778 59.7996 124.714 57.2724 124.505C56.5752 124.453 56.0872 124.784 55.5121 125.063C54.6406 125.482 53.7343 125.115 52.828 124.906C51.8345 124.697 50.8062 124.296 49.7953 124.871C49.7081 124.941 49.6036 125.011 49.5164 125.081C47.6689 124.435 45.7691 124.47 43.8694 124.767C41.6558 124.505 39.4598 124.139 37.2463 124.714C36.6014 124.889 36.1134 124.575 35.7473 124.104C35.3639 123.598 35.8345 123.249 36.0436 122.865C36.4445 122.098 37.2985 121.784 37.9434 121.906C39.8955 122.255 41.0458 121.208 42.1264 119.9C43.0153 119.726 43.3988 118.906 44.0088 118.365C46.3617 119.22 48.7844 119.726 51.2419 120.075C53.0022 121.243 54.7277 120.406 56.3138 119.796C57.9696 119.168 59.5556 118.871 61.3334 118.941C62.8497 119.011 64.3835 119.115 65.9347 118.784C67.9565 118.365 69.8911 119.08 71.7386 119.9L71.7735 119.918Z" fill="#A7CB89"/>
<path d="M77.1758 123.215C77.7509 122.622 78.4307 122.569 79.1627 122.883C78.5875 123.511 77.9078 123.511 77.1758 123.215Z" fill="#A0C996"/>
<path d="M80.6971 124.767C80.7668 124.54 80.7668 124.366 80.854 124.278C80.9237 124.209 81.1154 124.261 81.2374 124.261C81.22 124.418 81.2374 124.592 81.1503 124.697C81.098 124.767 80.9063 124.749 80.6797 124.767H80.6971Z" fill="#A0C996"/>
<path d="M109.089 80.9687C111.268 80.1489 111.442 80.2361 112.366 82.7828C112.958 85.905 112.802 89.0272 112.523 92.1668C112.436 93.2134 112.209 94.1902 111.582 95.0623C110.571 95.0623 110.083 94.6786 110.414 93.5448C111.059 91.3296 111.616 89.0795 112.192 86.8294C112.436 85.8875 112.226 84.9631 111.651 84.2305C110.972 83.3584 109.978 83.8642 109.385 84.2654C108.636 84.7712 108.479 85.8178 108.409 86.7248C108.253 88.7307 107.695 90.5272 106.126 91.8878C105.464 92.4634 105.202 93.318 105.255 94.0506C105.342 95.5158 104.976 96.8938 104.871 98.3066C104.279 97.574 104.122 96.4751 102.972 96.2309C102.797 96.1961 102.64 95.9344 102.553 95.7426C101.682 93.8936 102.588 89.8644 104.192 88.5388C105.481 87.4748 106.318 85.9224 107.503 84.9282C108.932 83.7072 108.531 82.2246 109.107 80.9339L109.089 80.9687Z" fill="#97C494"/>
<path d="M31.1109 121.749C29.8037 122.202 28.5488 122.394 27.1021 122.098C25.5684 121.784 24.1218 122.83 22.6751 123.301C19.8865 124.243 17.1501 124.941 14.2394 123.894C13.7688 123.72 13.0891 123.772 12.9322 123.214C12.7405 122.447 13.6642 122.639 13.9431 122.272C14.4311 121.609 16.1915 121.522 14.832 119.97C14.4834 119.569 15.442 118.505 15.9998 118.208C17.0804 117.65 17.8124 116.569 19.0499 116.255C19.3636 116.167 19.7645 115.923 19.869 115.644C20.6011 113.638 22.3265 112.365 23.4246 110.656C24.2438 109.365 25.1849 108.405 26.7361 108.248C27.9213 108.126 28.9496 107.69 29.9257 107.045C31.686 108.022 31.8777 110.062 32.9235 111.528C33.7078 112.627 34.1087 114.004 34.7361 115.243C35.4159 116.586 35.2067 117.667 33.9692 118.557C32.7841 119.394 31.8255 120.458 31.1283 121.766L31.1109 121.749Z" fill="#CFDF9B"/>
<path d="M46.0487 57.5426C47.5302 55.7112 46.6065 54.1239 45.5782 52.5366C46.2405 52.1703 46.4148 52.589 46.5019 53.1297C46.8679 53.5832 47.2339 54.0367 47.5825 54.4727C49.9355 57.3682 49.9355 57.5601 47.1816 60.3334C46.6936 60.8393 46.6762 61.3625 46.9551 61.9033C47.3908 62.7056 48.0008 63.2463 49.0466 63.0719C50.8941 62.7579 51.8352 63.3336 52.3407 65.0604C52.7938 66.5604 52.027 67.7465 50.4932 67.6767C48.8548 67.607 48.4714 68.7233 48.5237 69.8396C48.6108 71.7409 47.8091 73.3107 47.2165 74.9852C46.9202 75.7875 46.223 76.1713 45.5956 75.6305C43.6087 73.9386 41.1163 73.3456 38.7808 72.456C36.7416 71.6711 36.3407 69.6477 35.0684 68.3047C36.2884 68.3221 37.1773 69.0547 38.0487 69.7698C39.9311 71.2873 42.162 71.7409 44.4627 71.5664C46.0662 71.4443 46.6413 70.3629 46.1533 68.8803C45.4213 66.7 45.125 64.3975 44.0618 62.3219C43.3298 60.8916 44.0618 59.8102 45.2644 58.9729C45.7525 58.6415 46.5193 58.4148 46.0313 57.5426H46.0487Z" fill="#B7D393"/>
<path d="M76.1823 76.8867C74.4916 77.375 74.5439 78.8228 74.3696 80.1484C73.2367 78.439 71.5635 77.2355 70.1518 75.8052C67.8163 73.433 65.2193 71.2876 62.6746 69.1247C60.7749 67.52 59.3282 65.392 57.3762 63.9443C56.1387 63.0198 55.2672 61.7117 53.8555 61.0314C54.2041 60.2116 55.2324 60.4035 55.7204 59.793C57.1147 59.8104 57.2019 61.0837 57.6202 61.9384C58.021 62.7582 58.4045 63.3861 59.3805 63.6129C60.4786 63.8571 60.9492 64.9036 61.5766 65.706C62.8664 67.3456 64.3653 68.4619 66.6136 68.5317C67.8163 68.5666 67.9034 68.1654 67.6768 67.2584C67.52 66.6479 67.3282 66.0374 67.7117 65.4269C68.862 65.7583 69.0712 66.9793 69.4895 67.7642C70.3435 69.4212 71.7378 70.555 72.7836 72.0202C73.9165 73.6423 74.7879 75.4564 76.1823 76.9041V76.8867Z" fill="#9FC56E"/>
<path d="M55.6859 59.9841C55.6162 61.2923 54.431 60.5946 53.8558 61.0306C53.577 60.2632 53.1064 59.705 52.2349 59.6527C50.7186 57.7689 49.2022 55.9025 47.6859 54.0187C47.3722 53.635 47.1107 53.1292 46.5007 53.0943C46.2567 52.7978 46.0301 52.4664 45.577 52.5012C43.7469 50.1465 41.3591 48.2278 40.0345 45.437C39.6685 44.6521 38.6053 44.1986 37.8558 43.5881C37.2807 42.6811 36.3743 42.088 35.6075 41.3729C35.4506 41.1985 35.3112 41.0241 35.1543 40.8496C35.2066 40.2566 35.5029 39.9077 36.0258 40.3438C38.7273 42.4892 41.4811 44.4951 44.6183 46.0649C46.5007 47.0243 47.8776 49.0302 49.3939 50.6523C50.2131 51.5245 51.102 52.1524 52.2349 52.4489C52.3221 52.9373 52.4963 53.3908 52.8624 53.7397C52.2872 54.2804 51.9386 53.7048 51.5552 53.4431C50.9451 53.0245 50.3526 52.6059 49.516 52.4664C49.7425 53.321 50.2828 53.7397 50.8057 54.1583C52.3743 55.3967 52.7752 57.6817 54.8493 58.5015C55.2502 58.6585 55.5987 59.3562 55.6685 59.9492L55.6859 59.9841Z" fill="#AACA69"/>
<path d="M55.6858 59.9844C55.1978 59.7751 54.7795 59.5309 54.6226 58.9553C54.5355 58.6413 54.1869 58.1355 54.0823 58.1529C52.2871 58.6762 52.3917 57.1761 51.9734 56.2343C51.3634 54.8214 49.7773 54.2458 49.0279 52.9376C48.871 52.6585 48.4701 52.4318 48.6967 52.048C48.9407 51.6643 49.2893 51.9434 49.6205 51.9783C50.9625 52.1178 51.6771 53.3388 52.8449 53.7749C54.7446 55.2226 57.0627 55.9901 58.9102 57.525C60.2697 58.6588 60.9146 60.5774 62.8144 61.0833C65.1499 61.7112 65.725 64.3625 67.6945 65.409C67.7642 66.4207 68.444 67.3277 68.2523 68.3917C68.1303 69.1417 67.9385 69.3161 66.9974 69.1417C65.1499 68.8103 63.4941 68.3917 62.0649 67.0661C61.42 66.473 61.0889 65.7055 60.5137 65.0776C59.8863 64.3974 59.4157 63.8741 58.4571 63.8566C57.7599 63.8566 57.6205 63.3508 57.4113 62.7229C57.0627 61.6938 56.9059 60.4553 55.651 60.0018L55.6858 59.9844Z" fill="#99C15E"/>
<path d="M69.2453 28.746C69.3848 28.9204 69.5068 29.0948 69.6462 29.2867C68.7224 29.4437 68.3739 28.3797 67.5547 28.3448C68.3564 27.5425 68.7922 28.1704 69.2453 28.7634V28.746Z" fill="#B5D077"/>
<path d="M107.8 112.94C107.626 112.661 107.399 112.381 107.678 112.068C107.73 112.015 108.027 112.207 108.201 112.277C108.218 112.591 108.044 112.783 107.8 112.94Z" fill="#66954B"/>
<path d="M89.6389 117.021C89.6912 117.545 89.7609 118.068 88.9417 118.19C88.6977 117.492 89.3949 117.388 89.6214 117.021H89.6389Z" fill="#98C05B"/>
<path d="M35.6074 41.3906C36.3743 42.1058 37.9081 42.0534 37.8558 43.6058C36.7752 43.2046 36.322 42.1755 35.6074 41.3906Z" fill="#B1CF85"/>
</g>
<defs>
<clipPath id="clip0_1_962">
<rect width="144" height="151" fill="white"/>
</clipPath>
</defs>
</svg>
