<svg width="400" height="894" viewBox="0 0 400 894" fill="none" xmlns="http://www.w3.org/2000/svg">
<path d="M198 79H202V832H198V79Z" fill="#3E91B4"/>
<path d="M204.261 811.657C204.213 811.513 204.117 811.321 203.973 811.081C203.845 810.841 203.701 810.593 203.541 810.337C203.381 810.097 203.229 809.913 203.085 809.785C205.277 809.113 206.957 808.049 208.125 806.593C209.293 805.137 209.957 803.441 210.117 801.505H206.157V799.345H219.381C219.381 800.081 219.357 800.889 219.309 801.769C219.277 802.633 219.213 803.497 219.117 804.361C219.037 805.225 218.933 806.041 218.805 806.809C218.693 807.561 218.565 808.201 218.421 808.729C218.117 809.785 217.645 810.505 217.005 810.889C216.381 811.289 215.517 811.489 214.413 811.489H212.445C212.429 811.169 212.365 810.777 212.253 810.313C212.157 809.849 212.053 809.489 211.941 809.233H214.125C214.781 809.233 215.261 809.137 215.565 808.945C215.869 808.737 216.109 808.337 216.285 807.745C216.445 807.265 216.573 806.649 216.669 805.897C216.781 805.129 216.869 804.345 216.933 803.545C216.997 802.745 217.029 802.065 217.029 801.505H212.349C212.237 803.025 211.869 804.449 211.245 805.777C210.637 807.105 209.757 808.273 208.605 809.281C207.453 810.289 206.005 811.081 204.261 811.657ZM222.885 801.529C221.717 800.905 220.589 800.161 219.501 799.297C218.429 798.417 217.493 797.425 216.693 796.321C215.909 795.217 215.349 794.017 215.013 792.721H210.717V790.633H216.813C217.021 791.961 217.477 793.177 218.181 794.281C218.901 795.369 219.797 796.353 220.869 797.233C221.957 798.097 223.165 798.849 224.493 799.489C224.333 799.617 224.141 799.817 223.917 800.089C223.709 800.345 223.509 800.609 223.317 800.881C223.125 801.137 222.981 801.353 222.885 801.529ZM202.725 801.817C202.645 801.673 202.509 801.489 202.317 801.265C202.125 801.041 201.925 800.817 201.717 800.593C201.509 800.369 201.317 800.193 201.141 800.065C202.085 799.569 203.021 798.913 203.949 798.097C204.893 797.281 205.757 796.377 206.541 795.385C207.325 794.393 207.933 793.393 208.365 792.385L210.477 793.393C209.949 794.545 209.269 795.649 208.437 796.705C207.605 797.745 206.693 798.705 205.701 799.585C204.709 800.449 203.717 801.193 202.725 801.817Z" fill="white"/>
<path d="M192.462 810.143C191.502 810.143 190.59 809.903 189.726 809.423C188.878 808.943 188.214 808.295 187.734 807.479L189.462 806.375C189.83 806.935 190.262 807.375 190.758 807.695C191.254 808.015 191.822 808.175 192.462 808.175C193.486 808.175 194.262 807.879 194.79 807.287C195.334 806.679 195.606 805.831 195.606 804.743C195.606 803.687 195.366 802.871 194.886 802.295C194.422 801.719 193.774 801.431 192.942 801.431C192.446 801.431 191.982 801.551 191.55 801.791C191.134 802.031 190.838 802.359 190.662 802.775H188.766V793.199H197.046V795.095H190.83V800.351C191.454 799.807 192.166 799.535 192.966 799.535C193.862 799.535 194.662 799.735 195.366 800.135C196.07 800.535 196.622 801.127 197.022 801.911C197.438 802.679 197.646 803.623 197.646 804.743C197.646 806.487 197.166 807.823 196.206 808.751C195.262 809.679 194.014 810.143 192.462 810.143Z" fill="white"/>
<path d="M179.584 810V795.816L176.416 797.832L175.336 796.104L180.064 793.152H181.624V810H179.584Z" fill="white"/>
<path d="M333.456 775.304C333.296 775.064 333.072 774.744 332.784 774.344C332.512 773.928 332.256 773.624 332.016 773.432C333.248 772.904 334.48 772.232 335.712 771.416C336.944 770.6 338.12 769.688 339.24 768.68C340.36 767.656 341.376 766.576 342.288 765.44C343.2 764.288 343.952 763.128 344.544 761.96C343.808 762.008 342.968 762.064 342.024 762.128C341.096 762.176 340.152 762.232 339.192 762.296C338.248 762.36 337.376 762.416 336.576 762.464C335.776 762.512 335.144 762.552 334.68 762.584L334.416 760.256C334.8 760.256 335.384 760.248 336.168 760.232C336.952 760.216 337.824 760.192 338.784 760.16C339.76 760.112 340.728 760.064 341.688 760.016C342.664 759.952 343.536 759.896 344.304 759.848C345.088 759.784 345.664 759.72 346.032 759.656L347.52 760.616C347.12 761.72 346.608 762.8 345.984 763.856C345.376 764.912 344.672 765.936 343.872 766.928C344.416 767.36 345 767.848 345.624 768.392C346.248 768.936 346.864 769.504 347.472 770.096C348.08 770.672 348.648 771.232 349.176 771.776C349.704 772.304 350.136 772.784 350.472 773.216C350.2 773.392 349.872 773.648 349.488 773.984C349.12 774.304 348.824 774.6 348.6 774.872C348.28 774.424 347.872 773.928 347.376 773.384C346.896 772.824 346.368 772.256 345.792 771.68C345.216 771.088 344.64 770.52 344.064 769.976C343.488 769.432 342.96 768.96 342.48 768.56C341.152 769.984 339.704 771.28 338.136 772.448C336.568 773.6 335.008 774.552 333.456 775.304Z" fill="white"/>
<path d="M306.24 772.664C306.048 772.44 305.76 772.152 305.376 771.8C304.992 771.448 304.648 771.184 304.344 771.008C305.384 770.304 306.336 769.448 307.2 768.44C308.08 767.416 308.832 766.352 309.456 765.248C310.096 764.128 310.552 763.072 310.824 762.08L313.032 762.848C312.648 764.048 312.128 765.248 311.472 766.448C310.816 767.648 310.048 768.784 309.168 769.856C308.288 770.912 307.312 771.848 306.24 772.664ZM322.896 771.944C322.64 771.288 322.288 770.56 321.84 769.76C321.408 768.96 320.92 768.16 320.376 767.36C319.848 766.544 319.312 765.792 318.768 765.104C318.224 764.4 317.712 763.824 317.232 763.376L319.008 762.104C319.536 762.6 320.088 763.192 320.664 763.88C321.256 764.552 321.832 765.28 322.392 766.064C322.952 766.848 323.472 767.64 323.952 768.44C324.432 769.224 324.84 769.968 325.176 770.672C324.92 770.784 324.552 770.976 324.072 771.248C323.608 771.504 323.216 771.736 322.896 771.944ZM324.264 760.448C324.056 760.128 323.784 759.784 323.448 759.416C323.112 759.032 322.768 758.672 322.416 758.336C322.064 757.984 321.744 757.696 321.456 757.472L322.512 756.584C322.768 756.792 323.08 757.08 323.448 757.448C323.832 757.816 324.2 758.192 324.552 758.576C324.92 758.96 325.2 759.288 325.392 759.56L324.264 760.448ZM322.248 762.224C322.04 761.888 321.776 761.528 321.456 761.144C321.136 760.76 320.8 760.392 320.448 760.04C320.096 759.688 319.776 759.4 319.488 759.176L320.568 758.312C320.824 758.52 321.128 758.816 321.48 759.2C321.848 759.568 322.208 759.952 322.56 760.352C322.912 760.736 323.184 761.064 323.376 761.336L322.248 762.224Z" fill="white"/>
<path d="M291.047 774.345V758.385C290.455 758.657 289.807 758.921 289.103 759.177C288.415 759.417 287.807 759.601 287.279 759.729V769.233C287.903 769.041 288.495 768.849 289.055 768.657C289.615 768.465 290.055 768.305 290.375 768.177V770.217C290.071 770.329 289.639 770.489 289.079 770.697C288.519 770.889 287.911 771.097 287.255 771.321C286.599 771.529 285.975 771.721 285.383 771.897C284.791 772.073 284.327 772.209 283.991 772.305L283.319 770.385C283.559 770.321 283.839 770.249 284.159 770.169C284.479 770.073 284.815 769.977 285.167 769.881V758.097C285.631 758.049 286.143 757.953 286.703 757.809C287.279 757.665 287.847 757.489 288.407 757.281C288.983 757.057 289.487 756.833 289.919 756.609L291.047 758.097V757.593H298.367V769.905C298.367 770.689 298.159 771.257 297.743 771.609C297.343 771.961 296.711 772.137 295.847 772.137H294.383C294.367 771.817 294.303 771.441 294.191 771.009C294.095 770.577 293.991 770.233 293.879 769.977H295.415C295.751 769.977 295.975 769.921 296.087 769.809C296.215 769.697 296.279 769.481 296.279 769.161V759.537H293.135V774.345H291.047ZM291.143 777.249C289.495 777.249 288.087 777.161 286.919 776.985C285.751 776.825 284.759 776.561 283.943 776.193C283.127 775.841 282.415 775.377 281.807 774.801C281.535 775.009 281.183 775.257 280.751 775.545C280.319 775.833 279.879 776.121 279.431 776.409C278.999 776.697 278.631 776.945 278.327 777.153L277.391 775.065C277.663 774.953 278.007 774.793 278.423 774.585C278.855 774.361 279.279 774.129 279.695 773.889C280.127 773.649 280.471 773.441 280.727 773.265V766.785H277.775V764.841H282.767V773.097C283.167 773.657 283.711 774.105 284.399 774.441C285.087 774.761 285.983 774.993 287.087 775.137C288.191 775.265 289.543 775.329 291.143 775.329C293.079 775.329 294.735 775.297 296.111 775.233C297.503 775.169 298.671 775.081 299.615 774.969C299.567 775.081 299.503 775.289 299.423 775.593C299.343 775.881 299.271 776.177 299.207 776.481C299.143 776.785 299.103 777.025 299.087 777.201C298.687 777.201 298.167 777.201 297.527 777.201C296.903 777.217 296.223 777.225 295.487 777.225C294.751 777.241 294.007 777.249 293.255 777.249C292.503 777.249 291.799 777.249 291.143 777.249ZM282.047 761.793C281.775 761.393 281.415 760.953 280.967 760.473C280.535 759.977 280.079 759.505 279.599 759.057C279.119 758.593 278.679 758.217 278.279 757.929L279.767 756.561C280.151 756.833 280.591 757.201 281.087 757.665C281.583 758.113 282.063 758.577 282.527 759.057C282.991 759.537 283.359 759.953 283.631 760.305C283.535 760.385 283.375 760.521 283.151 760.713C282.927 760.905 282.711 761.105 282.503 761.313C282.295 761.521 282.143 761.681 282.047 761.793Z" fill="white"/>
<path d="M271.489 774.224C270.145 773.68 268.937 772.936 267.865 771.992C266.809 771.032 265.985 769.944 265.393 768.728C264.817 769.896 263.993 770.928 262.921 771.824C261.865 772.704 260.593 773.472 259.105 774.128C259.025 773.984 258.897 773.792 258.721 773.552C258.561 773.312 258.393 773.08 258.217 772.856C258.041 772.616 257.897 772.456 257.785 772.376C259.289 771.8 260.529 771.088 261.505 770.24C262.481 769.376 263.177 768.36 263.593 767.192H258.073V765.224H264.049C264.065 765.064 264.073 764.904 264.073 764.744C264.089 764.568 264.097 764.392 264.097 764.216V762.488H258.889V760.568H265.777C266.033 760.152 266.297 759.648 266.569 759.056C266.857 758.464 267.121 757.888 267.361 757.328C267.617 756.752 267.801 756.28 267.913 755.912L270.001 756.488C269.777 757.064 269.473 757.736 269.089 758.504C268.721 759.272 268.361 759.96 268.009 760.568H271.681V762.488H266.353V764.216C266.353 764.392 266.353 764.568 266.353 764.744C266.353 764.904 266.337 765.064 266.305 765.224H272.713V767.192H266.809C267.273 768.344 268.009 769.36 269.017 770.24C270.041 771.12 271.313 771.832 272.833 772.376C272.721 772.472 272.569 772.64 272.377 772.88C272.201 773.12 272.025 773.368 271.849 773.624C271.689 773.864 271.569 774.064 271.489 774.224ZM264.745 777.248C263.097 777.248 261.713 777.16 260.593 776.984C259.473 776.824 258.529 776.56 257.761 776.192C256.993 775.84 256.313 775.376 255.721 774.8C255.433 774.976 255.049 775.216 254.569 775.52C254.105 775.808 253.633 776.096 253.153 776.384C252.673 776.688 252.265 776.944 251.929 777.152L250.945 774.992C251.313 774.848 251.737 774.664 252.217 774.44C252.713 774.2 253.177 773.968 253.609 773.744C254.057 773.52 254.401 773.336 254.641 773.192V766.784H251.425V764.84H256.753V773.024C257.153 773.584 257.665 774.032 258.289 774.368C258.913 774.688 259.745 774.92 260.785 775.064C261.825 775.192 263.145 775.256 264.745 775.256C266.681 775.256 268.337 775.224 269.713 775.16C271.105 775.096 272.273 775.008 273.217 774.896C273.169 775.008 273.105 775.216 273.025 775.52C272.945 775.824 272.873 776.136 272.809 776.456C272.745 776.776 272.705 777.024 272.689 777.2C272.289 777.2 271.769 777.2 271.129 777.2C270.505 777.216 269.825 777.224 269.089 777.224C268.353 777.24 267.609 777.248 266.857 777.248C266.105 777.248 265.401 777.248 264.745 777.248ZM256.225 761.552C255.937 761.2 255.545 760.8 255.049 760.352C254.553 759.888 254.041 759.44 253.513 759.008C252.985 758.576 252.505 758.232 252.073 757.976L253.441 756.56C253.857 756.8 254.337 757.128 254.881 757.544C255.425 757.96 255.953 758.392 256.465 758.84C256.993 759.288 257.409 759.68 257.713 760.016C257.617 760.096 257.465 760.24 257.257 760.448C257.049 760.64 256.841 760.848 256.633 761.072C256.441 761.28 256.305 761.44 256.225 761.552ZM262.273 760.544C261.985 759.936 261.633 759.304 261.217 758.648C260.817 757.992 260.433 757.44 260.065 756.992L261.841 756.056C262.257 756.568 262.681 757.16 263.113 757.832C263.545 758.504 263.889 759.08 264.145 759.56C263.889 759.672 263.569 759.832 263.185 760.04C262.801 760.248 262.497 760.416 262.273 760.544Z" fill="white"/>
<path d="M229.541 777.704V769.04C228.997 769.92 228.413 770.768 227.789 771.584C227.165 772.384 226.565 773.064 225.989 773.624C225.829 773.432 225.589 773.2 225.269 772.928C224.949 772.64 224.685 772.44 224.477 772.328C225.037 771.848 225.613 771.248 226.205 770.528C226.813 769.808 227.389 769.032 227.933 768.2C228.477 767.352 228.933 766.528 229.301 765.728H225.125V763.808H229.541V756.032H231.581V763.808H235.349V765.728H231.581V766.256C231.853 766.624 232.197 767.04 232.613 767.504C233.045 767.968 233.493 768.424 233.957 768.872C234.437 769.32 234.869 769.704 235.253 770.024L235.205 769.856C235.733 769.792 236.365 769.704 237.101 769.592C237.853 769.464 238.653 769.32 239.501 769.16C240.349 769 241.189 768.84 242.021 768.68V756.008H244.085V768.248C244.693 768.104 245.253 767.976 245.765 767.864C246.277 767.736 246.685 767.616 246.989 767.504L247.085 769.544C246.733 769.64 246.293 769.752 245.765 769.88C245.253 770.008 244.693 770.136 244.085 770.264V777.704H242.021V770.72C240.853 770.96 239.701 771.192 238.565 771.416C237.445 771.624 236.485 771.792 235.685 771.92L235.325 770.36C235.133 770.552 234.909 770.792 234.653 771.08C234.397 771.368 234.229 771.584 234.149 771.728C233.749 771.36 233.325 770.936 232.877 770.456C232.429 769.976 231.997 769.464 231.581 768.92V777.704H229.541ZM233.837 762.92C233.725 762.856 233.557 762.776 233.333 762.68C233.125 762.568 232.909 762.464 232.685 762.368C232.477 762.272 232.309 762.216 232.181 762.2C232.373 761.88 232.589 761.456 232.829 760.928C233.069 760.4 233.293 759.856 233.501 759.296C233.709 758.736 233.861 758.256 233.957 757.856L235.757 758.408C235.645 758.792 235.469 759.288 235.229 759.896C235.005 760.488 234.765 761.064 234.509 761.624C234.253 762.184 234.029 762.616 233.837 762.92ZM239.525 767.456C239.029 766.992 238.477 766.512 237.869 766.016C237.277 765.52 236.677 765.104 236.069 764.768L237.317 763.304C237.909 763.656 238.533 764.088 239.189 764.6C239.861 765.096 240.421 765.552 240.869 765.968C240.773 766.064 240.629 766.208 240.437 766.4C240.261 766.592 240.085 766.784 239.909 766.976C239.749 767.168 239.621 767.328 239.525 767.456ZM240.197 762.32C239.717 761.856 239.173 761.376 238.565 760.88C237.973 760.384 237.381 759.96 236.789 759.608L238.109 758.168C238.701 758.536 239.317 758.976 239.957 759.488C240.597 760 241.141 760.464 241.589 760.88C241.477 760.976 241.325 761.12 241.133 761.312C240.941 761.504 240.757 761.696 240.581 761.888C240.405 762.08 240.277 762.224 240.197 762.32ZM226.973 762.896C226.877 762.512 226.725 762.056 226.517 761.528C226.325 761 226.117 760.488 225.893 759.992C225.669 759.48 225.445 759.056 225.221 758.72L226.925 758C227.133 758.32 227.357 758.752 227.597 759.296C227.837 759.84 228.061 760.384 228.269 760.928C228.493 761.456 228.653 761.896 228.749 762.248C228.605 762.264 228.413 762.32 228.173 762.416C227.933 762.496 227.701 762.584 227.477 762.68C227.253 762.76 227.085 762.832 226.973 762.896Z" fill="white"/>
<path d="M199.274 771.344V769.472H202.394V765.8H198.506V763.928H202.394V760.496C201.978 760.992 201.554 761.456 201.122 761.888C200.706 762.304 200.298 762.656 199.898 762.944C199.722 762.768 199.458 762.536 199.106 762.248C198.754 761.944 198.466 761.744 198.242 761.648C198.722 761.312 199.21 760.896 199.706 760.4C200.202 759.888 200.674 759.352 201.122 758.792C201.57 758.216 201.962 757.648 202.298 757.088C202.65 756.528 202.914 756.032 203.09 755.6L205.154 756.272C204.882 756.96 204.474 757.68 203.93 758.432H218.81V760.304H216.29V763.928H220.154V765.8H216.29V769.472H219.458V771.344H199.274ZM218.09 777.728C217.882 777.296 217.578 776.768 217.178 776.144C216.794 775.536 216.378 774.928 215.93 774.32C215.498 773.696 215.098 773.184 214.73 772.784L216.314 771.608C216.73 772.056 217.17 772.584 217.634 773.192C218.098 773.784 218.538 774.376 218.954 774.968C219.386 775.56 219.722 776.088 219.962 776.552C219.802 776.616 219.594 776.72 219.338 776.864C219.082 777.024 218.834 777.176 218.594 777.32C218.37 777.48 218.202 777.616 218.09 777.728ZM200.282 777.776C200.09 777.6 199.794 777.384 199.394 777.128C199.01 776.888 198.69 776.728 198.434 776.648C198.834 776.312 199.258 775.872 199.706 775.328C200.17 774.784 200.602 774.208 201.002 773.6C201.402 772.976 201.714 772.408 201.938 771.896L203.858 772.808C203.57 773.4 203.218 774 202.802 774.608C202.402 775.216 201.978 775.792 201.53 776.336C201.098 776.88 200.682 777.36 200.282 777.776ZM211.418 777.56C211.354 777.112 211.25 776.576 211.106 775.952C210.978 775.328 210.834 774.712 210.674 774.104C210.514 773.48 210.354 772.968 210.194 772.568L212.186 772.04C212.346 772.44 212.506 772.936 212.666 773.528C212.842 774.12 213.002 774.728 213.146 775.352C213.306 775.976 213.418 776.536 213.482 777.032C213.338 777.048 213.13 777.088 212.858 777.152C212.586 777.216 212.314 777.28 212.042 777.344C211.786 777.424 211.578 777.496 211.418 777.56ZM206.258 777.632C206.226 777.2 206.162 776.672 206.066 776.048C205.986 775.44 205.89 774.832 205.778 774.224C205.666 773.616 205.554 773.128 205.442 772.76L207.458 772.352C207.586 772.784 207.706 773.296 207.818 773.888C207.946 774.464 208.058 775.056 208.154 775.664C208.25 776.256 208.322 776.784 208.37 777.248C208.226 777.264 208.01 777.288 207.722 777.32C207.45 777.368 207.178 777.416 206.906 777.464C206.634 777.528 206.418 777.584 206.258 777.632ZM212.282 769.472H214.274V765.8H212.282V769.472ZM212.282 763.928H214.274V760.304H212.282V763.928ZM204.386 769.472H206.33V765.8H204.386V769.472ZM208.346 769.472H210.29V765.8H208.346V769.472ZM204.386 763.928H206.33V760.304H204.386V763.928ZM208.346 763.928H210.29V760.304H208.346V763.928Z" fill="white"/>
<path d="M178.32 775.999V764.479H180.288L180.408 766.279C180.728 765.655 181.208 765.151 181.848 764.767C182.504 764.383 183.208 764.191 183.96 764.191C184.216 764.191 184.456 764.207 184.68 764.239C184.904 764.271 185.096 764.303 185.256 764.335V766.423C185.08 766.375 184.856 766.335 184.584 766.303C184.312 766.271 184.016 766.255 183.696 766.255C182.8 766.255 182.04 766.551 181.416 767.143C180.792 767.719 180.48 768.479 180.48 769.423V775.999H178.32Z" fill="white"/>
<path d="M167.855 776.263C166.799 776.263 165.855 776.015 165.023 775.519C164.207 775.007 163.559 774.295 163.079 773.383C162.615 772.471 162.383 771.415 162.383 770.215C162.383 769.015 162.615 767.967 163.079 767.071C163.559 766.159 164.207 765.455 165.023 764.959C165.855 764.447 166.799 764.191 167.855 764.191C168.911 764.191 169.847 764.447 170.663 764.959C171.495 765.455 172.143 766.159 172.607 767.071C173.087 767.967 173.327 769.015 173.327 770.215C173.327 771.415 173.087 772.471 172.607 773.383C172.143 774.295 171.495 775.007 170.663 775.519C169.847 776.015 168.911 776.263 167.855 776.263ZM167.855 774.295C168.831 774.295 169.623 773.935 170.231 773.215C170.855 772.479 171.167 771.479 171.167 770.215C171.167 768.951 170.855 767.959 170.231 767.239C169.623 766.519 168.831 766.159 167.855 766.159C166.879 766.159 166.079 766.519 165.455 767.239C164.847 767.959 164.543 768.951 164.543 770.215C164.543 771.479 164.847 772.479 165.455 773.215C166.079 773.935 166.879 774.295 167.855 774.295Z" fill="white"/>
<path d="M128.149 768.081C128.149 767.937 128.149 767.713 128.149 767.409C128.149 767.089 128.149 766.777 128.149 766.473C128.149 766.169 128.141 765.945 128.125 765.801C128.525 765.817 129.125 765.833 129.925 765.849C130.725 765.849 131.653 765.857 132.709 765.873C133.781 765.873 134.909 765.881 136.093 765.897C137.293 765.897 138.485 765.897 139.669 765.897C140.869 765.897 141.997 765.897 143.053 765.897C144.109 765.881 145.037 765.865 145.837 765.849C146.637 765.833 147.229 765.817 147.613 765.801C147.613 765.849 147.613 765.921 147.613 766.017C147.613 766.113 147.613 766.217 147.613 766.329C147.613 766.617 147.605 766.945 147.589 767.313C147.589 767.665 147.597 767.913 147.613 768.057C147.117 768.041 146.381 768.025 145.405 768.009C144.429 767.993 143.309 767.985 142.045 767.985C140.797 767.969 139.493 767.961 138.133 767.961C136.773 767.961 135.445 767.969 134.149 767.985C132.853 767.985 131.677 767.993 130.621 768.009C129.581 768.025 128.757 768.049 128.149 768.081Z" fill="white"/>
<path d="M105.543 775.711L104.319 773.479C105.471 773.175 106.663 772.743 107.895 772.183C109.143 771.607 110.367 770.959 111.567 770.239C112.783 769.503 113.935 768.727 115.023 767.911C116.127 767.079 117.127 766.239 118.023 765.391C118.919 764.543 119.663 763.727 120.255 762.943C120.303 763.135 120.391 763.391 120.519 763.711C120.647 764.015 120.783 764.319 120.927 764.623C121.071 764.911 121.183 765.127 121.263 765.271C120.463 766.247 119.479 767.239 118.311 768.247C117.143 769.239 115.855 770.207 114.447 771.151C113.055 772.095 111.599 772.959 110.079 773.743C108.559 774.527 107.047 775.183 105.543 775.711ZM110.055 763.015C109.895 762.855 109.623 762.639 109.239 762.367C108.871 762.095 108.455 761.815 107.991 761.527C107.543 761.223 107.111 760.951 106.695 760.711C106.295 760.471 105.975 760.303 105.735 760.207L106.983 758.287C107.271 758.447 107.623 758.655 108.039 758.911C108.455 759.167 108.887 759.447 109.335 759.751C109.783 760.039 110.191 760.311 110.559 760.567C110.927 760.823 111.207 761.031 111.399 761.191L110.055 763.015ZM106.863 767.887C106.655 767.711 106.359 767.511 105.975 767.287C105.607 767.063 105.199 766.839 104.751 766.615C104.303 766.375 103.863 766.159 103.431 765.967C103.015 765.775 102.663 765.631 102.375 765.535L103.503 763.543C103.823 763.655 104.199 763.815 104.631 764.023C105.063 764.231 105.495 764.455 105.927 764.695C106.375 764.935 106.791 765.167 107.175 765.391C107.559 765.599 107.855 765.775 108.063 765.919L106.863 767.887Z" fill="white"/>
<path d="M78.1057 776.672C78.0257 776.496 77.8978 776.28 77.7218 776.024C77.5458 775.768 77.3618 775.52 77.1698 775.28C76.9938 775.04 76.8337 774.856 76.6897 774.728C78.6577 773.944 80.5057 772.944 82.2337 771.728C83.9617 770.512 85.4978 769.128 86.8418 767.576C88.2018 766.024 89.2818 764.384 90.0818 762.656C89.5858 762.672 89.0338 762.696 88.4258 762.728C87.8338 762.76 87.2417 762.784 86.6497 762.8C86.0737 762.816 85.5538 762.832 85.0898 762.848C84.6418 762.864 84.3058 762.872 84.0818 762.872C82.4498 765.016 80.5217 766.832 78.2977 768.32C78.2017 768.192 78.0417 768.024 77.8177 767.816C77.6097 767.608 77.3938 767.408 77.1698 767.216C76.9458 767.008 76.7538 766.856 76.5938 766.76C77.7938 766.056 78.9298 765.192 80.0018 764.168C81.0738 763.144 82.0178 762.032 82.8338 760.832C83.6498 759.632 84.2818 758.44 84.7298 757.256L86.8418 758.024C86.6498 758.504 86.4338 758.976 86.1938 759.44C85.9698 759.904 85.7218 760.36 85.4498 760.808C85.9778 760.792 86.5618 760.776 87.2018 760.76C87.8578 760.744 88.4978 760.728 89.1217 760.712C89.7457 760.68 90.2898 760.656 90.7538 760.64C91.2338 760.608 91.5457 760.584 91.6897 760.568L93.0338 761.36C92.2658 763.568 91.1538 765.648 89.6978 767.6C88.2418 769.552 86.5218 771.304 84.5378 772.856C82.5698 774.392 80.4257 775.664 78.1057 776.672Z" fill="white"/>
<path d="M51.1308 776.887C51.0028 776.583 50.8028 776.231 50.5308 775.831C50.2748 775.415 50.0588 775.127 49.8828 774.967C51.7388 774.263 53.4908 773.359 55.1388 772.255C56.7868 771.151 58.2588 769.895 59.5548 768.487C59.0268 768.119 58.4988 767.775 57.9708 767.455C57.4428 767.135 56.9388 766.871 56.4588 766.663L57.7308 764.983C58.2428 765.207 58.7708 765.479 59.3148 765.799C59.8748 766.103 60.4348 766.439 60.9948 766.807C61.5228 766.103 62.0108 765.383 62.4588 764.647C62.9068 763.911 63.2988 763.151 63.6348 762.367C63.1228 762.383 62.5548 762.407 61.9308 762.439C61.3068 762.471 60.6828 762.503 60.0588 762.535C59.4508 762.551 58.8908 762.567 58.3788 762.583C57.8828 762.599 57.5068 762.607 57.2508 762.607C56.5308 763.711 55.7068 764.759 54.7788 765.751C53.8668 766.743 52.8668 767.647 51.7788 768.463C51.6668 768.319 51.5068 768.143 51.2988 767.935C51.1068 767.727 50.9068 767.527 50.6988 767.335C50.4908 767.143 50.3148 767.007 50.1708 766.927C51.3068 766.127 52.3708 765.191 53.3628 764.119C54.3548 763.031 55.2188 761.871 55.9548 760.639C56.6908 759.407 57.2508 758.175 57.6348 756.943L59.7468 757.615C59.3788 758.655 58.9308 759.671 58.4028 760.663C58.9308 760.647 59.5148 760.631 60.1548 760.615C60.7948 760.599 61.4268 760.583 62.0508 760.567C62.6908 760.535 63.2668 760.511 63.7788 760.495C64.3068 760.463 64.7228 760.431 65.0268 760.399L66.4428 761.167C66.0108 762.447 65.4828 763.663 64.8588 764.815C64.2508 765.951 63.5708 767.031 62.8188 768.055C63.4588 768.519 64.0508 768.983 64.5948 769.447C65.1548 769.911 65.6268 770.351 66.0108 770.767C65.8668 770.863 65.6828 771.031 65.4588 771.271C65.2508 771.495 65.0428 771.727 64.8348 771.967C64.6428 772.191 64.4988 772.383 64.4028 772.543C64.0028 772.127 63.5468 771.687 63.0348 771.223C62.5228 770.743 61.9708 770.279 61.3788 769.831C60.0188 771.335 58.4748 772.679 56.7468 773.863C55.0188 775.031 53.1468 776.039 51.1308 776.887Z" fill="white"/>
<path d="M225.199 237.728C225.167 237.456 225.111 237.128 225.031 236.744C224.951 236.36 224.863 236.056 224.767 235.832H226.135C226.455 235.832 226.679 235.784 226.807 235.688C226.935 235.576 226.999 235.368 226.999 235.064V226.832H222.655V218.288H226.111C226.239 217.92 226.367 217.488 226.495 216.992C226.623 216.48 226.719 216.072 226.783 215.768L228.943 215.984C228.879 216.272 228.767 216.64 228.607 217.088C228.463 217.536 228.319 217.936 228.175 218.288H233.263V226.832H228.919V227.816C229.079 228.2 229.271 228.592 229.495 228.992C229.719 229.376 229.967 229.768 230.239 230.168C230.703 229.8 231.183 229.392 231.679 228.944C232.191 228.496 232.607 228.096 232.927 227.744L234.295 228.944C233.911 229.344 233.431 229.784 232.855 230.264C232.295 230.728 231.759 231.144 231.247 231.512C231.839 232.216 232.471 232.888 233.143 233.528C233.815 234.152 234.479 234.672 235.135 235.088C235.023 235.168 234.871 235.304 234.679 235.496C234.503 235.672 234.327 235.856 234.151 236.048C233.975 236.24 233.847 236.4 233.767 236.528C232.887 235.872 232.023 235.064 231.175 234.104C230.327 233.128 229.575 232.112 228.919 231.056V235.64C228.919 236.36 228.727 236.888 228.343 237.224C227.975 237.56 227.375 237.728 226.543 237.728H225.199ZM216.559 237.752V227.72C215.855 227.784 215.175 227.848 214.519 227.912C213.863 227.976 213.295 228.024 212.815 228.056L212.551 226.16C212.759 226.144 212.991 226.136 213.247 226.136C213.503 226.12 213.775 226.104 214.063 226.088C214.703 225.4 215.423 224.48 216.223 223.328C215.695 222.896 215.079 222.424 214.375 221.912C213.687 221.4 213.047 220.968 212.455 220.616L213.511 219.056C213.687 219.168 213.863 219.28 214.039 219.392C214.215 219.504 214.399 219.624 214.591 219.752C214.847 219.368 215.103 218.944 215.359 218.48C215.631 218 215.879 217.536 216.103 217.088C216.327 216.64 216.495 216.264 216.607 215.96L218.383 216.68C218.063 217.32 217.687 218.008 217.255 218.744C216.823 219.48 216.399 220.144 215.983 220.736C216.223 220.912 216.455 221.088 216.679 221.264C216.903 221.44 217.119 221.6 217.327 221.744C217.791 221.04 218.207 220.376 218.575 219.752C218.959 219.128 219.255 218.616 219.463 218.216L221.143 219.104C220.791 219.744 220.351 220.472 219.823 221.288C219.295 222.088 218.727 222.896 218.119 223.712C217.527 224.528 216.959 225.28 216.415 225.968C216.991 225.936 217.559 225.896 218.119 225.848C218.679 225.8 219.191 225.752 219.655 225.704C219.335 225.096 219.023 224.584 218.719 224.168L220.207 223.376C220.479 223.728 220.759 224.16 221.047 224.672C221.351 225.168 221.639 225.68 221.911 226.208C222.199 226.736 222.439 227.216 222.631 227.648C222.423 227.728 222.143 227.864 221.791 228.056C221.455 228.248 221.191 228.408 220.999 228.536C220.871 228.152 220.679 227.712 220.423 227.216C220.151 227.248 219.855 227.288 219.535 227.336C219.215 227.384 218.871 227.432 218.503 227.48V237.752H216.559ZM221.839 236.696C221.679 236.52 221.463 236.304 221.191 236.048C220.935 235.792 220.687 235.592 220.447 235.448C221.375 234.792 222.175 233.984 222.847 233.024C223.535 232.064 224.007 231.12 224.263 230.192H222.103V228.488H226.087L226.471 228.824C226.295 229.784 225.999 230.752 225.583 231.728C225.167 232.688 224.639 233.6 223.999 234.464C223.375 235.328 222.655 236.072 221.839 236.696ZM224.719 225.224H231.199V223.28H224.719V225.224ZM224.719 221.768H231.199V219.872H224.719V221.768ZM214.063 235.328C213.855 235.248 213.575 235.136 213.223 234.992C212.871 234.848 212.583 234.768 212.359 234.752C212.631 234.304 212.903 233.744 213.175 233.072C213.447 232.384 213.687 231.68 213.895 230.96C214.103 230.224 214.255 229.568 214.351 228.992L216.031 229.352C215.935 229.976 215.783 230.664 215.575 231.416C215.367 232.152 215.127 232.864 214.855 233.552C214.599 234.24 214.335 234.832 214.063 235.328ZM220.615 234.392C220.487 234.12 220.343 233.76 220.183 233.312C220.023 232.864 219.863 232.384 219.703 231.872C219.543 231.36 219.391 230.872 219.247 230.408C219.119 229.928 219.015 229.52 218.935 229.184L220.567 228.728C220.679 229.144 220.839 229.672 221.047 230.312C221.255 230.936 221.471 231.552 221.695 232.16C221.935 232.768 222.151 233.256 222.343 233.624C222.103 233.688 221.807 233.8 221.455 233.96C221.119 234.12 220.839 234.264 220.615 234.392Z" fill="white"/>
<path d="M193.327 237.703V233.527H189.055V231.703H193.327V229.879H189.967V221.791H193.327V220.039H189.247V218.287H193.327V216.055H195.343V218.287H199.351V220.039H195.343V221.791H198.727V223.015C199.415 222.423 200.087 221.727 200.743 220.927C201.399 220.111 201.991 219.279 202.519 218.431C203.047 217.567 203.463 216.767 203.767 216.031L205.711 216.295C206.159 217.095 206.687 217.903 207.295 218.719C207.919 219.519 208.583 220.263 209.287 220.951C210.007 221.639 210.719 222.215 211.423 222.679C211.215 222.839 210.967 223.095 210.679 223.447C210.391 223.799 210.183 224.079 210.055 224.287C209.031 223.503 208.063 222.583 207.151 221.527C206.239 220.471 205.447 219.383 204.775 218.263C204.247 219.287 203.559 220.367 202.711 221.503C201.879 222.623 200.967 223.623 199.975 224.503C199.831 224.375 199.639 224.207 199.399 223.999C199.159 223.775 198.935 223.583 198.727 223.423V229.879H195.343V231.703H199.687V233.527H195.343V237.703H193.327ZM203.959 237.727V230.647H199.687V228.655H203.959V225.559H200.959V223.735H208.999V225.559H206.047V228.655H210.727V230.647H206.047V237.727H203.959ZM191.983 228.319H196.711V226.615H191.983V228.319ZM191.983 225.079H196.711V223.399H191.983V225.079Z" fill="white"/>
<path d="M176.071 237.848C175.943 237.736 175.759 237.6 175.519 237.44C175.279 237.28 175.039 237.128 174.799 236.984C174.559 236.84 174.359 236.744 174.199 236.696C175.527 235.512 176.439 233.976 176.935 232.088C177.447 230.184 177.703 227.872 177.703 225.152V218.072C178.487 218.072 179.359 218 180.319 217.856C181.279 217.712 182.215 217.504 183.127 217.232C184.055 216.96 184.847 216.64 185.503 216.272L186.895 218.12C186.319 218.36 185.607 218.608 184.759 218.864C183.927 219.104 183.071 219.312 182.191 219.488C181.327 219.664 180.543 219.776 179.839 219.824V223.712H187.279V225.728H184.543V237.8H182.407V225.728H179.839C179.823 228.48 179.511 230.856 178.903 232.856C178.295 234.856 177.351 236.52 176.071 237.848ZM170.359 237.704V231.392C169.815 232.176 169.199 232.96 168.511 233.744C167.839 234.512 167.207 235.144 166.615 235.64C166.535 235.528 166.391 235.392 166.183 235.232C165.991 235.056 165.791 234.896 165.583 234.752C165.375 234.592 165.199 234.488 165.055 234.44C165.535 234.104 166.055 233.64 166.615 233.048C167.191 232.456 167.743 231.824 168.271 231.152C168.799 230.48 169.223 229.872 169.543 229.328H166.303V227.432H170.359V225.416H165.871V223.616H168.727C168.583 223.152 168.407 222.664 168.199 222.152C168.007 221.64 167.831 221.24 167.671 220.952L169.351 220.376C169.575 220.776 169.807 221.288 170.047 221.912C170.287 222.536 170.479 223.104 170.623 223.616H172.087C172.247 223.264 172.407 222.88 172.567 222.464C172.727 222.032 172.879 221.624 173.023 221.24C173.167 220.856 173.263 220.552 173.311 220.328L175.135 220.832C175.007 221.232 174.839 221.688 174.631 222.2C174.423 222.696 174.215 223.168 174.007 223.616H176.839V225.416H172.423V227.432H176.359V229.328H172.423V229.616L172.495 229.544C172.767 229.88 173.127 230.256 173.575 230.672C174.023 231.088 174.495 231.488 174.991 231.872C175.487 232.24 175.951 232.552 176.383 232.808C176.287 232.888 176.143 233.032 175.951 233.24C175.775 233.432 175.607 233.632 175.447 233.84C175.287 234.032 175.167 234.192 175.087 234.32C174.719 234.048 174.287 233.688 173.791 233.24C173.311 232.776 172.855 232.32 172.423 231.872V237.704H170.359ZM166.375 220.16V218.408H170.287V215.984H172.447V218.408H176.431V220.16H166.375Z" fill="white"/>
<path d="M228.174 536.416C228.014 536.176 227.79 535.856 227.502 535.456C227.23 535.04 226.974 534.736 226.734 534.544C227.966 534.016 229.198 533.344 230.43 532.528C231.662 531.712 232.838 530.8 233.958 529.792C235.078 528.768 236.094 527.688 237.006 526.552C237.918 525.4 238.67 524.24 239.262 523.072C238.526 523.12 237.686 523.176 236.742 523.24C235.814 523.288 234.87 523.344 233.91 523.408C232.966 523.472 232.094 523.528 231.294 523.576C230.494 523.624 229.862 523.664 229.398 523.696L229.134 521.368C229.518 521.368 230.102 521.36 230.886 521.344C231.67 521.328 232.542 521.304 233.502 521.272C234.478 521.224 235.446 521.176 236.406 521.128C237.382 521.064 238.254 521.008 239.022 520.96C239.806 520.896 240.382 520.832 240.75 520.768L242.238 521.728C241.838 522.832 241.326 523.912 240.702 524.968C240.094 526.024 239.39 527.048 238.59 528.04C239.134 528.472 239.718 528.96 240.342 529.504C240.966 530.048 241.582 530.616 242.19 531.208C242.798 531.784 243.366 532.344 243.894 532.888C244.422 533.416 244.854 533.896 245.19 534.328C244.918 534.504 244.59 534.76 244.206 535.096C243.838 535.416 243.542 535.712 243.318 535.984C242.998 535.536 242.59 535.04 242.094 534.496C241.614 533.936 241.086 533.368 240.51 532.792C239.934 532.2 239.358 531.632 238.782 531.088C238.206 530.544 237.678 530.072 237.198 529.672C235.87 531.096 234.422 532.392 232.854 533.56C231.286 534.712 229.726 535.664 228.174 536.416Z" fill="white"/>
<path d="M203.841 533.775C203.649 533.551 203.361 533.263 202.977 532.911C202.593 532.559 202.249 532.295 201.945 532.119C202.985 531.415 203.937 530.559 204.801 529.551C205.681 528.527 206.433 527.463 207.057 526.359C207.697 525.239 208.153 524.183 208.425 523.191L210.633 523.959C210.249 525.159 209.729 526.359 209.073 527.559C208.417 528.759 207.649 529.895 206.769 530.967C205.889 532.023 204.913 532.959 203.841 533.775ZM220.497 533.055C220.241 532.399 219.889 531.671 219.441 530.871C219.009 530.071 218.521 529.271 217.977 528.471C217.449 527.655 216.913 526.903 216.369 526.215C215.825 525.511 215.313 524.935 214.833 524.487L216.609 523.215C217.137 523.711 217.689 524.303 218.265 524.991C218.857 525.663 219.433 526.391 219.993 527.175C220.553 527.959 221.073 528.751 221.553 529.551C222.033 530.335 222.441 531.079 222.777 531.783C222.521 531.895 222.153 532.087 221.673 532.359C221.209 532.615 220.817 532.847 220.497 533.055ZM221.865 521.559C221.657 521.239 221.385 520.895 221.049 520.527C220.713 520.143 220.369 519.783 220.017 519.447C219.665 519.095 219.345 518.807 219.057 518.583L220.113 517.695C220.369 517.903 220.681 518.191 221.049 518.559C221.433 518.927 221.801 519.303 222.153 519.687C222.521 520.071 222.801 520.399 222.993 520.671L221.865 521.559ZM219.849 523.335C219.641 522.999 219.377 522.639 219.057 522.255C218.737 521.871 218.401 521.503 218.049 521.151C217.697 520.799 217.377 520.511 217.089 520.287L218.169 519.423C218.425 519.631 218.729 519.927 219.081 520.311C219.449 520.679 219.809 521.063 220.161 521.463C220.513 521.847 220.785 522.175 220.977 522.447L219.849 523.335Z" fill="white"/>
<path d="M190.539 535.6V530.296C189.771 531.096 188.891 531.864 187.899 532.6C186.923 533.336 185.971 534 185.043 534.592C184.931 534.4 184.723 534.136 184.419 533.8C184.115 533.464 183.851 533.216 183.627 533.056C184.283 532.72 184.979 532.312 185.715 531.832C186.467 531.336 187.195 530.808 187.899 530.248C188.603 529.688 189.203 529.16 189.699 528.664H185.499V522.76H190.539V521.176H184.395V519.424H190.539V517.096H192.651V519.424H198.987V521.176H192.651V522.76H197.691V528.664H193.491C194.003 529.144 194.627 529.656 195.363 530.2C196.099 530.744 196.859 531.264 197.643 531.76C198.427 532.24 199.147 532.648 199.803 532.984C199.659 533.08 199.491 533.232 199.299 533.44C199.107 533.648 198.923 533.864 198.747 534.088C198.587 534.296 198.467 534.464 198.387 534.592C197.459 534.016 196.467 533.352 195.411 532.6C194.371 531.832 193.451 531.032 192.651 530.2V535.6H190.539ZM191.619 538.36C189.971 538.36 188.571 538.272 187.419 538.096C186.267 537.936 185.291 537.672 184.491 537.304C183.691 536.952 182.995 536.488 182.403 535.912C182.115 536.12 181.747 536.368 181.299 536.656C180.851 536.944 180.395 537.232 179.931 537.52C179.483 537.808 179.107 538.056 178.803 538.264L177.867 536.176C178.139 536.064 178.491 535.904 178.923 535.696C179.371 535.472 179.819 535.24 180.267 535C180.715 534.76 181.067 534.552 181.323 534.376V527.896H178.251V525.952H183.363V534.208C183.763 534.768 184.299 535.216 184.971 535.552C185.643 535.872 186.515 536.104 187.587 536.248C188.675 536.376 190.019 536.44 191.619 536.44C193.555 536.44 195.211 536.408 196.587 536.344C197.979 536.28 199.147 536.192 200.091 536.08C200.043 536.192 199.979 536.4 199.899 536.704C199.819 536.992 199.747 537.288 199.683 537.592C199.619 537.896 199.579 538.136 199.563 538.312C199.163 538.312 198.643 538.312 198.003 538.312C197.379 538.328 196.699 538.336 195.963 538.336C195.227 538.352 194.483 538.36 193.731 538.36C192.979 538.36 192.275 538.36 191.619 538.36ZM182.523 522.904C182.251 522.504 181.891 522.064 181.443 521.584C181.011 521.088 180.555 520.616 180.075 520.168C179.595 519.704 179.155 519.328 178.755 519.04L180.243 517.672C180.627 517.944 181.067 518.312 181.563 518.776C182.059 519.224 182.539 519.688 183.003 520.168C183.467 520.648 183.835 521.064 184.107 521.416C184.011 521.496 183.851 521.632 183.627 521.824C183.403 522.016 183.187 522.216 182.979 522.424C182.771 522.632 182.619 522.792 182.523 522.904ZM187.587 526.984H190.539V524.44H187.587V526.984ZM192.651 526.984H195.603V524.44H192.651V526.984Z" fill="white"/>
<path d="M155.645 538.84V528.376H175.325L175.301 536.608C175.301 537.36 175.093 537.912 174.677 538.264C174.261 538.616 173.621 538.792 172.757 538.792H170.789C170.773 538.504 170.717 538.152 170.621 537.736C170.525 537.336 170.421 537.016 170.309 536.776H172.277C172.597 536.776 172.829 536.72 172.973 536.608C173.117 536.48 173.189 536.264 173.189 535.96V530.104H157.781V538.84H155.645ZM159.413 527.152V522.256H171.461V527.152H159.413ZM160.469 536.2V531.352H170.405V536.2H160.469ZM154.805 520.984V519.184H164.309V517H166.613V519.184H176.141V520.984H154.805ZM161.477 525.592H169.397V523.768H161.477V525.592ZM162.461 534.64H168.389V532.84H162.461V534.64Z" fill="white"/>
<path d="M180.386 561.864C180.338 561.72 180.242 561.528 180.098 561.288C179.97 561.048 179.826 560.8 179.666 560.544C179.506 560.304 179.354 560.12 179.21 559.992C181.402 559.32 183.082 558.256 184.25 556.8C185.418 555.344 186.082 553.648 186.242 551.712H182.282V549.552H195.506C195.506 550.288 195.482 551.096 195.434 551.976C195.402 552.84 195.338 553.704 195.242 554.568C195.162 555.432 195.058 556.248 194.93 557.016C194.818 557.768 194.69 558.408 194.546 558.936C194.242 559.992 193.77 560.712 193.13 561.096C192.506 561.496 191.642 561.696 190.538 561.696H188.57C188.554 561.376 188.49 560.984 188.378 560.52C188.282 560.056 188.178 559.696 188.066 559.44H190.25C190.906 559.44 191.386 559.344 191.69 559.152C191.994 558.944 192.234 558.544 192.41 557.952C192.57 557.472 192.698 556.856 192.794 556.104C192.906 555.336 192.994 554.552 193.058 553.752C193.122 552.952 193.154 552.272 193.154 551.712H188.474C188.362 553.232 187.994 554.656 187.37 555.984C186.762 557.312 185.882 558.48 184.73 559.488C183.578 560.496 182.13 561.288 180.386 561.864ZM199.01 551.736C197.842 551.112 196.714 550.368 195.626 549.504C194.554 548.624 193.618 547.632 192.818 546.528C192.034 545.424 191.474 544.224 191.138 542.928H186.842V540.84H192.938C193.146 542.168 193.602 543.384 194.306 544.488C195.026 545.576 195.922 546.56 196.994 547.44C198.082 548.304 199.29 549.056 200.618 549.696C200.458 549.824 200.266 550.024 200.042 550.296C199.834 550.552 199.634 550.816 199.442 551.088C199.25 551.344 199.106 551.56 199.01 551.736ZM178.85 552.024C178.77 551.88 178.634 551.696 178.442 551.472C178.25 551.248 178.05 551.024 177.842 550.8C177.634 550.576 177.442 550.4 177.266 550.272C178.21 549.776 179.146 549.12 180.074 548.304C181.018 547.488 181.882 546.584 182.666 545.592C183.45 544.6 184.058 543.6 184.49 542.592L186.602 543.6C186.074 544.752 185.394 545.856 184.562 546.912C183.73 547.952 182.818 548.912 181.826 549.792C180.834 550.656 179.842 551.4 178.85 552.024Z" fill="white"/>
<path d="M171.387 560.471C169.563 560.471 168.299 559.759 167.595 558.335C166.891 556.911 166.539 554.735 166.539 551.807C166.539 548.879 166.891 546.703 167.595 545.279C168.299 543.839 169.563 543.119 171.387 543.119C173.195 543.119 174.451 543.839 175.155 545.279C175.859 546.703 176.211 548.879 176.211 551.807C176.211 554.735 175.859 556.911 175.155 558.335C174.451 559.759 173.195 560.471 171.387 560.471ZM171.387 558.479C172.059 558.479 172.595 558.279 172.995 557.879C173.411 557.463 173.707 556.767 173.883 555.791C174.075 554.815 174.171 553.487 174.171 551.807C174.171 550.111 174.075 548.775 173.883 547.799C173.707 546.823 173.411 546.135 172.995 545.735C172.595 545.319 172.059 545.111 171.387 545.111C170.731 545.111 170.195 545.319 169.779 545.735C169.363 546.135 169.059 546.823 168.867 547.799C168.675 548.775 168.579 550.111 168.579 551.807C168.579 553.487 168.675 554.815 168.867 555.791C169.059 556.767 169.363 557.463 169.779 557.879C170.195 558.279 170.731 558.479 171.387 558.479Z" fill="white"/>
<path d="M159.725 560.471C158.765 560.471 157.909 560.263 157.157 559.847C156.421 559.415 155.845 558.815 155.429 558.047C155.013 557.279 154.805 556.399 154.805 555.407C154.805 554.479 155.037 553.663 155.501 552.959C155.981 552.239 156.565 551.703 157.253 551.351C156.661 550.983 156.173 550.503 155.789 549.911C155.421 549.303 155.237 548.583 155.237 547.751C155.237 546.839 155.429 546.039 155.813 545.351C156.197 544.647 156.725 544.103 157.397 543.719C158.069 543.335 158.845 543.143 159.725 543.143C160.605 543.143 161.381 543.335 162.053 543.719C162.725 544.103 163.253 544.647 163.637 545.351C164.021 546.039 164.213 546.839 164.213 547.751C164.213 548.583 164.021 549.303 163.637 549.911C163.253 550.503 162.765 550.983 162.173 551.351C162.877 551.703 163.461 552.239 163.925 552.959C164.389 553.663 164.621 554.479 164.621 555.407C164.621 556.399 164.413 557.279 163.997 558.047C163.581 558.815 163.005 559.415 162.269 559.847C161.533 560.263 160.685 560.471 159.725 560.471ZM159.725 558.503C160.605 558.503 161.301 558.239 161.813 557.711C162.325 557.183 162.581 556.407 162.581 555.383C162.581 554.391 162.325 553.615 161.813 553.055C161.301 552.495 160.605 552.215 159.725 552.215C158.845 552.215 158.141 552.495 157.613 553.055C157.101 553.615 156.845 554.391 156.845 555.383C156.845 556.407 157.101 557.183 157.613 557.711C158.141 558.239 158.845 558.503 159.725 558.503ZM159.725 550.535C160.493 550.535 161.085 550.295 161.501 549.815C161.933 549.319 162.149 548.639 162.149 547.775C162.149 546.927 161.917 546.271 161.453 545.807C161.005 545.343 160.429 545.111 159.725 545.111C159.005 545.111 158.421 545.343 157.973 545.807C157.525 546.271 157.301 546.927 157.301 547.775C157.301 548.639 157.509 549.319 157.925 549.815C158.341 550.295 158.941 550.535 159.725 550.535Z" fill="white"/>
<rect width="400" height="61.64" rx="10" fill="white"/>
<path d="M243.435 45.2391V24.0641H254.215C254.542 23.3175 254.845 22.4891 255.125 21.5791C255.405 20.6691 255.65 19.8058 255.86 18.9891H241.125V16.9941H272.765V18.9891H258.415C258.205 19.7825 257.948 20.6458 257.645 21.5791C257.342 22.4891 257.038 23.3175 256.735 24.0641H270.455V45.2391H243.435ZM262.65 43.1391H268.215V26.0941H262.65V43.1391ZM245.64 43.1391H251.135V26.0941H245.64V43.1391ZM253.34 43.1391H260.48V38.7291H253.34V43.1391ZM253.34 30.4341H260.48V26.0941H253.34V30.4341ZM253.34 36.7341H260.48V32.4291H253.34V36.7341Z" fill="#054965"/>
<path d="M203.529 46.64C203.483 46.5233 203.366 46.325 203.179 46.045C203.016 45.7883 202.841 45.52 202.654 45.24C202.491 44.96 202.351 44.785 202.234 44.715C206.691 43.0583 210.098 40.445 212.454 36.875C214.834 33.2817 216.071 28.7317 216.164 23.225H202.549V21.09H216.759V15H219.139V21.09H233.279V23.225H218.544C218.521 24.135 218.463 25.0333 218.369 25.92C218.299 26.7833 218.194 27.635 218.054 28.475H229.219C229.196 29.5717 229.126 30.7733 229.009 32.08C228.893 33.3633 228.741 34.6467 228.554 35.93C228.368 37.19 228.158 38.38 227.924 39.5C227.714 40.62 227.481 41.5533 227.224 42.3C226.874 43.3033 226.466 44.085 225.999 44.645C225.533 45.205 224.949 45.59 224.249 45.8C223.573 46.0333 222.698 46.15 221.624 46.15H218.334C218.311 45.8233 218.241 45.415 218.124 44.925C218.008 44.435 217.891 44.0733 217.774 43.84H221.344C222.441 43.84 223.234 43.665 223.724 43.315C224.214 42.9417 224.611 42.3233 224.914 41.46C225.148 40.7833 225.358 39.99 225.544 39.08C225.754 38.1467 225.929 37.1667 226.069 36.14C226.233 35.1133 226.361 34.1217 226.454 33.165C226.548 32.2083 226.606 31.3683 226.629 30.645H217.599C216.713 34.3083 215.138 37.4933 212.874 40.2C210.611 42.9067 207.496 45.0533 203.529 46.64Z" fill="#054965"/>
<path d="M166.4 45.1689V25.7089H175.185V19.4089H164.125V17.3789H195.695V19.4089H183.76V25.7089H193.49V45.1689H166.4ZM168.57 43.0689H191.32V27.7739H183.76V34.1789C183.76 34.5522 183.853 34.8322 184.04 35.0189C184.227 35.2056 184.577 35.2989 185.09 35.2989H186.385C187.062 35.2989 187.575 35.2056 187.925 35.0189C188.275 34.8089 188.532 34.4239 188.695 33.8639C188.858 33.2806 188.987 32.4289 189.08 31.3089C189.36 31.4489 189.698 31.5889 190.095 31.7289C190.515 31.8456 190.853 31.9506 191.11 32.0439C190.97 33.5606 190.713 34.7156 190.34 35.5089C189.99 36.2789 189.5 36.7922 188.87 37.0489C188.263 37.3056 187.505 37.4339 186.595 37.4339H184.46C183.48 37.4339 182.757 37.2472 182.29 36.8739C181.823 36.5006 181.59 35.8822 181.59 35.0189V27.7739H177.32C177.227 29.6639 176.947 31.2972 176.48 32.6739C176.013 34.0272 175.302 35.2172 174.345 36.2439C173.388 37.2706 172.128 38.2622 170.565 39.2189C170.495 39.1022 170.355 38.9389 170.145 38.7289C169.935 38.4956 169.713 38.2739 169.48 38.0639C169.27 37.8539 169.118 37.7256 169.025 37.6789C170.425 36.8622 171.557 36.0222 172.42 35.1589C173.283 34.2956 173.925 33.2806 174.345 32.1139C174.765 30.9239 175.022 29.4772 175.115 27.7739H168.57V43.0689ZM177.355 25.7089H181.59V19.4089H177.355V25.7089Z" fill="#054965"/>
<path d="M149.914 46.5691C149.891 46.2658 149.821 45.9158 149.704 45.5191C149.611 45.1225 149.518 44.7958 149.424 44.5391C149.378 44.6325 149.354 44.6791 149.354 44.6791C147.301 44.1425 145.656 43.3025 144.419 42.1591C143.183 41.0158 142.203 39.8375 141.479 38.6241C140.826 40.3275 139.788 41.7041 138.364 42.7541C136.964 43.7808 135.191 44.5625 133.044 45.0991C132.998 45.0058 132.904 44.8191 132.764 44.5391C132.624 44.2825 132.484 44.0258 132.344 43.7691C132.204 43.5125 132.088 43.3375 131.994 43.2441C134.024 42.8241 135.634 42.2058 136.824 41.3891C138.038 40.5725 138.913 39.4875 139.449 38.1341H131.399V36.3491H139.939C140.033 35.9525 140.103 35.5325 140.149 35.0891C140.196 34.6225 140.219 34.1325 140.219 33.6191H132.624V31.8691H144.349L142.739 31.1341C142.949 30.8541 143.194 30.4691 143.474 29.9791C143.754 29.4658 144.023 28.9525 144.279 28.4391C144.536 27.9025 144.723 27.4708 144.839 27.1441L146.799 27.8441C146.519 28.4741 146.146 29.1858 145.679 29.9791C145.213 30.7725 144.804 31.4025 144.454 31.8691H149.879V33.6191H142.389C142.389 34.1091 142.366 34.5875 142.319 35.0541C142.273 35.4975 142.203 35.9291 142.109 36.3491H151.034V38.1341H143.334C144.058 39.2075 144.991 40.1408 146.134 40.9341C147.278 41.7041 148.736 42.3225 150.509 42.7891C150.416 42.8825 150.253 43.1158 150.019 43.4891C149.809 43.8391 149.634 44.1425 149.494 44.3991H152.119C152.586 44.3991 152.924 44.3058 153.134 44.1191C153.344 43.9558 153.449 43.6525 153.449 43.2091V26.5491H143.299V16.1191H155.619V43.6991C155.619 44.6325 155.363 45.3441 154.849 45.8341C154.359 46.3241 153.566 46.5691 152.469 46.5691H149.914ZM127.234 46.6391V16.1191H139.519V26.5491H129.369V46.6391H127.234ZM145.434 24.6941H153.449V22.1041H145.434V24.6941ZM129.369 24.6941H137.384V22.2091H129.369V24.6941ZM129.369 20.3891H137.384V17.9741H129.369V20.3891ZM145.434 20.3891H153.449V17.9741H145.434V20.3891ZM138.014 31.7991C137.781 31.3558 137.431 30.7725 136.964 30.0491C136.521 29.3258 136.078 28.7075 135.634 28.1941L137.419 27.2841C137.793 27.7741 138.201 28.3808 138.644 29.1041C139.088 29.8041 139.449 30.4225 139.729 30.9591L138.014 31.7991Z" fill="#054965"/>
<rect y="653" width="400" height="61.08" rx="10" fill="white"/>
<path d="M257.011 699.08C256.918 699.01 256.743 698.905 256.486 698.765C256.229 698.625 255.973 698.485 255.716 698.345C255.483 698.205 255.308 698.123 255.191 698.1C256.194 696.77 256.953 695.207 257.466 693.41C258.003 691.613 258.364 689.665 258.551 687.565C258.738 685.465 258.831 683.307 258.831 681.09V668.98H271.571V681.09H265.936C266.263 684.403 267.138 687.425 268.561 690.155C270.008 692.885 271.828 695.195 274.021 697.085C273.928 697.132 273.753 697.26 273.496 697.47C273.263 697.68 273.029 697.89 272.796 698.1C272.563 698.333 272.399 698.497 272.306 698.59C269.973 696.63 268.083 694.157 266.636 691.17C265.189 688.183 264.291 684.823 263.941 681.09H260.966C260.966 683.26 260.873 685.418 260.686 687.565C260.523 689.712 260.161 691.765 259.601 693.725C259.041 695.685 258.178 697.47 257.011 699.08ZM248.541 698.94C248.494 698.66 248.424 698.31 248.331 697.89C248.238 697.47 248.144 697.155 248.051 696.945H250.326C251.283 696.945 251.924 696.805 252.251 696.525C252.601 696.222 252.881 695.568 253.091 694.565C253.208 693.982 253.324 693.258 253.441 692.395C253.558 691.532 253.651 690.598 253.721 689.595C253.791 688.592 253.826 687.6 253.826 686.62H243.361V668.84H255.996V670.8H251.166V674.055H255.226V675.875H251.166V679.095H255.226V680.915H251.166V684.695H255.961C255.961 686.655 255.868 688.58 255.681 690.47C255.494 692.36 255.273 693.935 255.016 695.195C254.713 696.688 254.234 697.68 253.581 698.17C252.928 698.683 251.913 698.94 250.536 698.94H248.541ZM260.966 679.06H269.436V670.975H260.966V679.06ZM245.391 684.695H249.206V680.915H245.391V684.695ZM245.391 674.055H249.206V670.8H245.391V674.055ZM245.391 679.095H249.206V675.875H245.391V679.095ZM241.961 695.51C242.031 695.043 242.089 694.402 242.136 693.585C242.183 692.768 242.218 691.963 242.241 691.17C242.288 690.353 242.288 689.735 242.241 689.315L243.956 689.21C243.979 689.653 243.979 690.283 243.956 691.1C243.933 691.917 243.898 692.733 243.851 693.55C243.828 694.367 243.793 695.008 243.746 695.475C243.583 695.475 243.291 695.475 242.871 695.475C242.451 695.475 242.148 695.487 241.961 695.51ZM245.391 694.67C245.414 694.227 245.414 693.667 245.391 692.99C245.368 692.29 245.333 691.602 245.286 690.925C245.239 690.248 245.193 689.712 245.146 689.315L246.686 689.14C246.756 689.56 246.814 690.12 246.861 690.82C246.908 691.52 246.943 692.208 246.966 692.885C247.013 693.562 247.036 694.11 247.036 694.53C246.966 694.53 246.814 694.542 246.581 694.565C246.348 694.588 246.114 694.612 245.881 694.635C245.648 694.635 245.484 694.647 245.391 694.67ZM248.471 693.97C248.448 693.503 248.389 692.955 248.296 692.325C248.226 691.695 248.133 691.077 248.016 690.47C247.923 689.863 247.818 689.362 247.701 688.965L249.171 688.755C249.288 689.152 249.393 689.665 249.486 690.295C249.603 690.925 249.708 691.555 249.801 692.185C249.894 692.792 249.953 693.293 249.976 693.69C249.929 693.69 249.789 693.713 249.556 693.76C249.323 693.807 249.089 693.853 248.856 693.9C248.646 693.923 248.518 693.947 248.471 693.97ZM251.446 693.06C251.353 692.383 251.189 691.602 250.956 690.715C250.746 689.828 250.524 689.082 250.291 688.475L251.726 688.125C251.866 688.498 252.006 688.965 252.146 689.525C252.309 690.085 252.461 690.645 252.601 691.205C252.741 691.765 252.846 692.243 252.916 692.64C252.869 692.64 252.729 692.675 252.496 692.745C252.286 692.815 252.064 692.885 251.831 692.955C251.621 693.002 251.493 693.037 251.446 693.06Z" fill="#054965"/>
<path d="M222.363 699.08C222.293 699.01 222.129 698.882 221.873 698.695C221.639 698.508 221.394 698.322 221.138 698.135C220.881 697.972 220.694 697.867 220.578 697.82C221.558 696.793 222.351 695.638 222.958 694.355C223.588 693.072 224.054 691.555 224.358 689.805C224.661 688.055 224.813 685.978 224.813 683.575V668.7H233.598V696.175C233.598 697.995 232.583 698.905 230.553 698.905H228.068C228.044 698.625 227.974 698.263 227.858 697.82C227.741 697.377 227.636 697.05 227.543 696.84H230.238C230.704 696.84 231.031 696.747 231.218 696.56C231.428 696.397 231.533 696.093 231.533 695.65V686.865H226.773C226.609 689.548 226.166 691.882 225.443 693.865C224.743 695.848 223.716 697.587 222.363 699.08ZM212.213 694.425V683.26H216.063V676.925H210.463V674.895H216.063V668H218.128V674.895H223.343V676.925H218.128V683.26H221.943V694.425H212.213ZM214.278 692.36H219.878V685.29H214.278V692.36ZM226.878 684.87H231.533V678.71H226.878V684.87ZM226.878 676.68H231.533V670.695H226.878V676.68ZM204.968 697.855L203.043 696.735C203.486 696.105 203.988 695.288 204.548 694.285C205.108 693.282 205.656 692.22 206.193 691.1C206.753 689.98 207.254 688.895 207.698 687.845C208.141 686.795 208.479 685.908 208.713 685.185C208.829 685.255 209.004 685.383 209.238 685.57C209.471 685.757 209.704 685.943 209.938 686.13C210.171 686.317 210.334 686.433 210.428 686.48C210.241 687.11 209.926 687.927 209.483 688.93C209.063 689.933 208.573 691.007 208.013 692.15C207.476 693.27 206.928 694.343 206.368 695.37C205.831 696.373 205.364 697.202 204.968 697.855ZM208.223 681.405C207.803 681.008 207.289 680.588 206.683 680.145C206.076 679.678 205.446 679.247 204.793 678.85C204.139 678.43 203.544 678.103 203.008 677.87L204.128 676.26C204.944 676.657 205.866 677.182 206.893 677.835C207.943 678.488 208.818 679.118 209.518 679.725C209.448 679.795 209.319 679.947 209.133 680.18C208.946 680.413 208.759 680.658 208.573 680.915C208.386 681.148 208.269 681.312 208.223 681.405ZM209.693 673.705C209.296 673.308 208.794 672.888 208.188 672.445C207.581 671.978 206.951 671.547 206.298 671.15C205.644 670.73 205.049 670.403 204.513 670.17L205.703 668.595C206.216 668.852 206.799 669.178 207.453 669.575C208.129 669.972 208.783 670.392 209.413 670.835C210.066 671.278 210.614 671.71 211.058 672.13C210.988 672.2 210.848 672.352 210.638 672.585C210.451 672.795 210.264 673.017 210.078 673.25C209.891 673.46 209.763 673.612 209.693 673.705Z" fill="#054965"/>
<path d="M168.32 694.846V671.676H192.75V694.846H168.32ZM170.7 692.676H190.37V673.846H170.7V692.676Z" fill="#054965"/>
<path d="M137.387 689.211V677.031H147.292V689.211H137.387ZM147.292 698.871C147.245 698.544 147.163 698.147 147.047 697.681C146.953 697.237 146.848 696.887 146.732 696.631H150.687C151.177 696.631 151.527 696.549 151.737 696.386C151.947 696.199 152.052 695.872 152.052 695.406V672.201H135.777V670.066H157.897V672.201H154.327V696.001C154.327 697.914 153.253 698.871 151.107 698.871H147.292ZM139.522 687.146H145.157V679.096H139.522V687.146ZM128.147 698.171L126.292 696.666C126.782 696.059 127.342 695.277 127.972 694.321C128.602 693.364 129.232 692.337 129.862 691.241C130.492 690.121 131.063 689.047 131.577 688.021C132.113 686.994 132.522 686.131 132.802 685.431C132.895 685.524 133.058 685.687 133.292 685.921C133.525 686.131 133.758 686.341 133.992 686.551C134.248 686.737 134.423 686.866 134.517 686.936C134.283 687.566 133.898 688.382 133.362 689.386C132.848 690.389 132.277 691.451 131.647 692.571C131.017 693.691 130.387 694.752 129.757 695.756C129.127 696.759 128.59 697.564 128.147 698.171ZM133.782 674.301C133.362 673.904 132.778 673.437 132.032 672.901C131.308 672.364 130.562 671.851 129.792 671.361C129.022 670.871 128.357 670.509 127.797 670.276L128.987 668.561C129.57 668.817 130.247 669.179 131.017 669.646C131.81 670.089 132.58 670.567 133.327 671.081C134.073 671.594 134.668 672.072 135.112 672.516C135.042 672.586 134.902 672.749 134.692 673.006C134.505 673.262 134.318 673.519 134.132 673.776C133.945 674.032 133.828 674.207 133.782 674.301ZM131.927 682.071C131.507 681.674 130.923 681.207 130.177 680.671C129.453 680.134 128.707 679.621 127.937 679.131C127.167 678.641 126.513 678.279 125.977 678.046L127.132 676.296C127.738 676.576 128.427 676.937 129.197 677.381C129.967 677.824 130.713 678.302 131.437 678.816C132.16 679.329 132.755 679.819 133.222 680.286C133.175 680.356 133.047 680.519 132.837 680.776C132.65 681.032 132.463 681.289 132.277 681.546C132.09 681.802 131.973 681.977 131.927 682.071Z" fill="#054965"/>
<rect y="374" width="400" height="62.165" rx="10" fill="white"/>
<path d="M237.448 420.99C237.355 420.92 237.18 420.815 236.923 420.675C236.667 420.535 236.41 420.395 236.153 420.255C235.92 420.115 235.745 420.033 235.628 420.01C236.632 418.68 237.39 417.117 237.903 415.32C238.44 413.523 238.802 411.575 238.988 409.475C239.175 407.375 239.268 405.217 239.268 403V390.89H252.008V403H246.373C246.7 406.313 247.575 409.335 248.998 412.065C250.445 414.795 252.265 417.105 254.458 418.995C254.365 419.042 254.19 419.17 253.933 419.38C253.7 419.59 253.467 419.8 253.233 420.01C253 420.243 252.837 420.407 252.743 420.5C250.41 418.54 248.52 416.067 247.073 413.08C245.627 410.093 244.728 406.733 244.378 403H241.403C241.403 405.17 241.31 407.328 241.123 409.475C240.96 411.622 240.598 413.675 240.038 415.635C239.478 417.595 238.615 419.38 237.448 420.99ZM228.978 420.85C228.932 420.57 228.862 420.22 228.768 419.8C228.675 419.38 228.582 419.065 228.488 418.855H230.763C231.72 418.855 232.362 418.715 232.688 418.435C233.038 418.132 233.318 417.478 233.528 416.475C233.645 415.892 233.762 415.168 233.878 414.305C233.995 413.442 234.088 412.508 234.158 411.505C234.228 410.502 234.263 409.51 234.263 408.53H223.798V390.75H236.433V392.71H231.603V395.965H235.663V397.785H231.603V401.005H235.663V402.825H231.603V406.605H236.398C236.398 408.565 236.305 410.49 236.118 412.38C235.932 414.27 235.71 415.845 235.453 417.105C235.15 418.598 234.672 419.59 234.018 420.08C233.365 420.593 232.35 420.85 230.973 420.85H228.978ZM241.403 400.97H249.873V392.885H241.403V400.97ZM225.828 406.605H229.643V402.825H225.828V406.605ZM225.828 395.965H229.643V392.71H225.828V395.965ZM225.828 401.005H229.643V397.785H225.828V401.005ZM222.398 417.42C222.468 416.953 222.527 416.312 222.573 415.495C222.62 414.678 222.655 413.873 222.678 413.08C222.725 412.263 222.725 411.645 222.678 411.225L224.393 411.12C224.417 411.563 224.417 412.193 224.393 413.01C224.37 413.827 224.335 414.643 224.288 415.46C224.265 416.277 224.23 416.918 224.183 417.385C224.02 417.385 223.728 417.385 223.308 417.385C222.888 417.385 222.585 417.397 222.398 417.42ZM225.828 416.58C225.852 416.137 225.852 415.577 225.828 414.9C225.805 414.2 225.77 413.512 225.723 412.835C225.677 412.158 225.63 411.622 225.583 411.225L227.123 411.05C227.193 411.47 227.252 412.03 227.298 412.73C227.345 413.43 227.38 414.118 227.403 414.795C227.45 415.472 227.473 416.02 227.473 416.44C227.403 416.44 227.252 416.452 227.018 416.475C226.785 416.498 226.552 416.522 226.318 416.545C226.085 416.545 225.922 416.557 225.828 416.58ZM228.908 415.88C228.885 415.413 228.827 414.865 228.733 414.235C228.663 413.605 228.57 412.987 228.453 412.38C228.36 411.773 228.255 411.272 228.138 410.875L229.608 410.665C229.725 411.062 229.83 411.575 229.923 412.205C230.04 412.835 230.145 413.465 230.238 414.095C230.332 414.702 230.39 415.203 230.413 415.6C230.367 415.6 230.227 415.623 229.993 415.67C229.76 415.717 229.527 415.763 229.293 415.81C229.083 415.833 228.955 415.857 228.908 415.88ZM231.883 414.97C231.79 414.293 231.627 413.512 231.393 412.625C231.183 411.738 230.962 410.992 230.728 410.385L232.163 410.035C232.303 410.408 232.443 410.875 232.583 411.435C232.747 411.995 232.898 412.555 233.038 413.115C233.178 413.675 233.283 414.153 233.353 414.55C233.307 414.55 233.167 414.585 232.933 414.655C232.723 414.725 232.502 414.795 232.268 414.865C232.058 414.912 231.93 414.947 231.883 414.97Z" fill="#054965"/>
<path d="M205.251 421.165C205.228 420.838 205.158 420.442 205.041 419.975C204.948 419.508 204.843 419.158 204.726 418.925H207.351C208.028 418.925 208.529 418.855 208.856 418.715C209.183 418.598 209.428 418.377 209.591 418.05C209.754 417.7 209.906 417.198 210.046 416.545C210.139 416.125 210.221 415.623 210.291 415.04C210.384 414.433 210.454 413.827 210.501 413.22C210.571 412.613 210.618 412.112 210.641 411.715H195.451V417H201.121V412.94H203.291V418.855H185.336V412.94H187.541V417H193.211V411.715H188.941V392.465H196.116C196.303 391.928 196.513 391.333 196.746 390.68C196.979 390.003 197.166 389.443 197.306 389L199.791 389.245C199.628 389.712 199.441 390.26 199.231 390.89C199.021 391.497 198.823 392.022 198.636 392.465H208.821V403.035H191.286V405.345H214.736V407.27H191.286V409.825H213.056C213.033 410.945 212.963 412.182 212.846 413.535C212.729 414.865 212.566 416.113 212.356 417.28C212.169 418.307 211.889 419.1 211.516 419.66C211.143 420.243 210.641 420.64 210.011 420.85C209.404 421.06 208.599 421.165 207.596 421.165H205.251ZM191.286 401.18H206.511V398.625H191.286V401.18ZM191.286 396.805H206.511V394.32H191.286V396.805Z" fill="#054965"/>
<path d="M145.539 417.91V415.635H176.374V417.91H145.539ZM147.989 394.705V392.465H174.064V394.705H147.989ZM149.634 405.905V403.7H172.349V405.905H149.634Z" fill="#054965"/>
<rect y="832" width="400" height="61.7461" rx="10" fill="#054965"/>
<path d="M250.353 876.925C247.81 876.925 245.803 876.225 244.333 874.825C242.863 873.425 242.128 871.407 242.128 868.77C242.128 867.09 242.385 865.433 242.898 863.8C243.412 862.143 244.077 860.545 244.893 859.005C245.733 857.465 246.62 856.018 247.553 854.665C246.27 855.295 244.928 855.785 243.528 856.135C242.152 856.485 240.985 856.718 240.028 856.835L239.398 854.77C240.192 854.723 241.102 854.595 242.128 854.385C243.155 854.152 244.182 853.86 245.208 853.51C246.235 853.16 247.168 852.752 248.008 852.285C248.872 851.818 249.537 851.305 250.003 850.745L251.753 852.215C250.54 853.685 249.362 855.33 248.218 857.15C247.098 858.947 246.165 860.825 245.418 862.785C244.695 864.745 244.333 866.717 244.333 868.7C244.333 870.613 244.858 872.083 245.908 873.11C246.982 874.137 248.463 874.65 250.353 874.65C251.893 874.65 253.223 874.23 254.343 873.39C255.487 872.55 256.408 871.383 257.108 869.89C257.808 868.397 258.275 866.647 258.508 864.64C258.765 862.633 258.777 860.452 258.543 858.095C258.31 855.715 257.808 853.253 257.038 850.71L259.208 850.045C259.535 851.445 260.025 852.763 260.678 854C261.355 855.213 262.102 856.333 262.918 857.36C263.758 858.363 264.61 859.25 265.473 860.02C266.337 860.767 267.142 861.35 267.888 861.77C267.678 862.003 267.445 862.342 267.188 862.785C266.955 863.205 266.78 863.567 266.663 863.87C265.753 863.287 264.727 862.4 263.583 861.21C262.44 860.02 261.367 858.597 260.363 856.94C260.737 859.623 260.818 862.178 260.608 864.605C260.398 867.008 259.885 869.132 259.068 870.975C258.252 872.818 257.12 874.277 255.673 875.35C254.227 876.4 252.453 876.925 250.353 876.925ZM268.938 852.355C268.612 851.888 268.168 851.387 267.608 850.85C267.072 850.313 266.512 849.788 265.928 849.275C265.368 848.762 264.855 848.353 264.388 848.05L265.543 847C265.963 847.28 266.465 847.688 267.048 848.225C267.655 848.762 268.25 849.31 268.833 849.87C269.417 850.43 269.86 850.897 270.163 851.27L268.938 852.355ZM266.278 854.98C265.952 854.513 265.52 854 264.983 853.44C264.47 852.88 263.933 852.343 263.373 851.83C262.813 851.293 262.312 850.873 261.868 850.57L263.023 849.52C263.42 849.823 263.91 850.255 264.493 850.815C265.1 851.352 265.683 851.912 266.243 852.495C266.803 853.055 267.223 853.533 267.503 853.93L266.278 854.98Z" fill="white"/>
<path d="M215.559 876.575C213.202 876.575 211.464 876.155 210.344 875.315C209.224 874.452 208.664 873.39 208.664 872.13C208.664 871.337 208.862 870.672 209.259 870.135C209.655 869.575 210.169 869.155 210.799 868.875C211.429 868.572 212.094 868.42 212.794 868.42C214.147 868.42 215.279 868.945 216.189 869.995C217.122 871.045 217.635 872.422 217.729 874.125C219.082 873.799 220.249 873.134 221.229 872.13C222.209 871.127 222.699 869.809 222.699 868.175C222.699 867.009 222.43 865.994 221.894 865.13C221.38 864.267 220.657 863.602 219.724 863.135C218.814 862.645 217.764 862.4 216.574 862.4C215.034 862.4 213.575 862.645 212.199 863.135C210.845 863.602 209.597 864.325 208.454 865.305C208.057 865.655 207.497 866.122 206.774 866.705C206.05 867.289 205.409 867.79 204.849 868.21L203.344 866.565C204.51 865.865 205.747 864.967 207.054 863.87C208.36 862.75 209.667 861.525 210.974 860.195C212.28 858.865 213.505 857.5 214.649 856.1C215.792 854.7 216.76 853.347 217.554 852.04C216.854 852.204 216.025 852.379 215.069 852.565C214.135 852.752 213.155 852.927 212.129 853.09C211.102 853.23 210.122 853.359 209.189 853.475C208.255 853.592 207.439 853.674 206.739 853.72L206.354 851.55C206.984 851.574 207.765 851.55 208.699 851.48C209.632 851.41 210.624 851.317 211.674 851.2C212.724 851.084 213.739 850.944 214.719 850.78C215.722 850.617 216.609 850.442 217.379 850.255C218.149 850.069 218.72 849.894 219.094 849.73L220.739 850.885C220.202 851.982 219.479 853.149 218.569 854.385C217.682 855.622 216.702 856.87 215.629 858.13C214.555 859.367 213.447 860.557 212.304 861.7C212.98 861.374 213.727 861.105 214.544 860.895C215.384 860.662 216.165 860.545 216.889 860.545C218.452 860.545 219.84 860.872 221.054 861.525C222.29 862.155 223.259 863.042 223.959 864.185C224.659 865.329 225.009 866.659 225.009 868.175C225.009 869.809 224.6 871.255 223.784 872.515C222.967 873.775 221.847 874.767 220.424 875.49C219 876.214 217.379 876.575 215.559 876.575ZM215.244 874.475H215.664C215.64 873.262 215.36 872.282 214.824 871.535C214.287 870.789 213.61 870.415 212.794 870.415C212.21 870.415 211.72 870.567 211.324 870.87C210.95 871.15 210.764 871.559 210.764 872.095C210.764 872.749 211.102 873.309 211.779 873.775C212.479 874.219 213.634 874.452 215.244 874.475Z" fill="white"/>
<path d="M169.888 877.626V866.181C168.768 867.161 167.706 868.165 166.703 869.191C165.723 870.218 164.824 871.198 164.008 872.131L162.258 870.591C163.424 869.518 164.649 868.375 165.933 867.161C167.216 865.948 168.534 864.781 169.888 863.661V857.956C168.768 858.19 167.613 858.411 166.423 858.621C165.233 858.831 164.288 858.983 163.588 859.076L163.133 856.941C163.553 856.918 164.136 856.86 164.883 856.766C165.653 856.673 166.481 856.545 167.368 856.381C168.254 856.218 169.094 856.055 169.888 855.891V849.066H172.023V855.401C172.139 855.355 172.233 855.32 172.303 855.296C172.373 855.273 172.443 855.25 172.513 855.226L173.948 856.206L172.023 861.246V862.016C173.609 860.873 175.196 859.94 176.783 859.216C178.393 858.47 179.979 858.096 181.543 858.096C183.106 858.096 184.518 858.388 185.778 858.971C187.038 859.531 188.029 860.395 188.753 861.561C189.499 862.705 189.873 864.151 189.873 865.901C189.873 868.305 188.963 870.381 187.143 872.131C185.346 873.858 182.733 875.083 179.303 875.806C179.209 875.503 179.046 875.13 178.813 874.686C178.579 874.243 178.358 873.905 178.148 873.671C180.014 873.368 181.659 872.855 183.083 872.131C184.506 871.408 185.614 870.521 186.408 869.471C187.224 868.421 187.633 867.231 187.633 865.901C187.633 863.825 187.061 862.343 185.918 861.456C184.774 860.57 183.316 860.126 181.543 860.126C180.073 860.126 178.509 860.535 176.853 861.351C175.219 862.168 173.609 863.195 172.023 864.431V877.626H169.888Z" fill="white"/>
<path d="M141.849 878.746C141.452 877.976 140.915 877.101 140.239 876.121C139.585 875.118 138.862 874.068 138.069 872.971C137.275 871.874 136.447 870.789 135.584 869.716C134.744 868.643 133.927 867.651 133.134 866.741C132.364 865.808 131.664 865.026 131.034 864.396C130.24 863.603 129.844 862.938 129.844 862.401C129.867 861.841 130.31 861.164 131.174 860.371C131.967 859.624 132.854 858.726 133.834 857.676C134.837 856.626 135.84 855.518 136.844 854.351C137.847 853.184 138.757 852.064 139.574 850.991C140.39 849.894 141.009 848.938 141.429 848.121L143.494 849.521C142.98 850.314 142.304 851.248 141.464 852.321C140.624 853.371 139.702 854.456 138.699 855.576C137.695 856.696 136.704 857.769 135.724 858.796C134.767 859.823 133.904 860.698 133.134 861.421C132.737 861.771 132.539 862.109 132.539 862.436C132.539 862.739 132.725 863.089 133.099 863.486C133.752 864.139 134.475 864.933 135.269 865.866C136.062 866.776 136.879 867.756 137.719 868.806C138.559 869.833 139.375 870.871 140.169 871.921C140.962 872.971 141.685 873.963 142.339 874.896C142.992 875.806 143.529 876.599 143.949 877.276C143.809 877.323 143.587 877.451 143.284 877.661C142.98 877.871 142.689 878.081 142.409 878.291C142.129 878.501 141.942 878.653 141.849 878.746Z" fill="white"/>
</svg>
