<?xml version="1.0" encoding="UTF-8"?>
<svg id="_レイヤー_1" data-name="レイヤー_1" xmlns="http://www.w3.org/2000/svg" version="1.1" viewBox="0 0 100 100">
  <!-- Generator: Adobe Illustrator 29.1.0, SVG Export Plug-In . SVG Version: 2.1.0 Build 142)  -->
  <defs>
    <style>
      .st0 {
        fill: #473933;
      }

      .st1 {
        fill: #fff;
      }
    </style>
  </defs>
  <rect class="st1" width="100" height="100"/>
  <g id="_レイヤー_11" data-name="_レイヤー_1">
    <path class="st0" d="M79.2,41.4c-1.2,0-2.4,0-3.5.2v-1.9c0-4.4.2-6.6,1-8.1.9-1.5,1.6-2.1,3.6-2.4l1.2-.2v-.4c0-.2,0-.3,0-.3h-22.3s-.2.1-.2.3v.4l1.6.2c2,.2,2.8.8,3.6,2.3.8,1.5,1,3.7,1,8.1v4.2c-4,1.3-8.4,3.1-13.6,5.1h-.2c-2.8-1.7-5.7-3.3-9.2-4.5-6.1-2.3-12.1-3.3-17.4-3.5v-1.3c0-4.4.2-6.6,1-8.1.9-1.5,1.6-2.1,3.6-2.4l1.2-.2v-.4c0-.2-.1-.3-.1-.3H8.4s-.2.1-.2.3v.4l1.6.2c2,.2,2.7.8,3.6,2.3.8,1.5,1,3.7,1,8.1v2.3c-2.9.7-5.4,1.8-7.2,3.1-2.6,1.9-4,4.7-4,6.9v.2c0,2.3,1.4,4.3,4,5.9,1.8,1.1,4.2,2.1,7.2,2.6,0,4.3-.2,6.5-1,7.9-.9,1.5-1.7,2.1-3.6,2.3l-1.6.2v.4c0,.2.1.4.2.4h22.3s.2-.2.1-.4v-.4l-1.2-.2c-2-.3-2.7-.9-3.6-2.4-.8-1.4-1-3.6-1-7.9,5.3-.8,11.6-2.6,19-6.3,2.3-1.1,5.1-2.4,7.4-3.3h.2c7,4.6,10.7,11.5,12.4,15.4h0s.8,1.7-.2,3h0s0,0-.2.2h0c-.7.7-1.4,1-2.8,1.2l-1.6.2v.4c0,.2,0,.4.2.4h22.3s.2-.2,0-.4v-.4l-1.2-.2c-2-.3-2.7-.9-3.6-2.4-.8-1.4-1-3.7-1-8.1v-16.3h1.6c12.6,0,16.4,3.9,18.7,5.9.3,0,.5-.2.6-.5,0-.4-3.3-8.1-17.4-8.1M7.8,52.3c-.3-2.3.7-3.6,2.5-5.1,1-.8,2.5-1.6,4.3-2.3v12.2c-1.2-.3-2.4-.6-3.4-1-1.6-.7-3.1-1.8-3.4-3.8M49.1,50.1c-1.7.7-5,2.2-6.9,2.9-6.6,2.9-12.3,4.3-17.3,4.7v-14.8h1.5c4.6,0,9.7.8,15.2,2.9,2.5,1,5.5,2.4,7.6,3.7l.6.3-.6.3h0ZM65.4,60.4v.5c-2.7-3.2-6.5-7.1-11.4-10.5l-.5-.4.6-.2c4.6-1.6,8.1-2.9,11.3-3.9v14.5Z"/>
  </g>
</svg>