<svg width="1616" height="390" viewBox="0 0 1616 390" fill="none" xmlns="http://www.w3.org/2000/svg">
<path d="M0 20C0 8.9543 8.95431 0 20 0H80C91.0457 0 100 8.95431 100 20V370C100 381.046 91.0457 390 80 390H20C8.9543 390 0 381.046 0 370V20Z" fill="white"/>
<path d="M1178 20C1178 8.9543 1186.95 0 1198 0H1258C1269.05 0 1278 8.95431 1278 20V370C1278 381.046 1269.05 390 1258 390H1198C1186.95 390 1178 381.046 1178 370V20Z" fill="white"/>
<path d="M1516 20C1516 8.9543 1524.95 0 1536 0H1596C1607.05 0 1616 8.95431 1616 20V370C1616 381.046 1607.05 390 1596 390H1536C1524.95 390 1516 381.046 1516 370V20Z" fill="#054965"/>
<path d="M834 20C834 8.9543 842.954 0 854 0H914C925.046 0 934 8.95431 934 20V370C934 381.046 925.046 390 914 390H854C842.954 390 834 381.046 834 370V20Z" fill="white"/>
<path d="M1516 195L1516 197L100 197L100 195L1516 195Z" fill="white"/>
<path d="M1401.35 145V131.588H1402.98L1403.06 133.912C1403.43 133.128 1404.02 132.493 1404.82 132.008C1405.64 131.504 1406.55 131.252 1407.54 131.252C1407.8 131.252 1408.06 131.271 1408.32 131.308C1408.6 131.327 1408.84 131.364 1409.02 131.42V133.072C1408.86 133.035 1408.61 132.997 1408.3 132.96C1408 132.923 1407.69 132.904 1407.37 132.904C1406.59 132.904 1405.87 133.091 1405.22 133.464C1404.56 133.819 1404.04 134.304 1403.65 134.92C1403.27 135.517 1403.09 136.199 1403.09 136.964V145H1401.35Z" fill="white"/>
<path d="M1391.72 145.308C1390.53 145.308 1389.47 145.009 1388.53 144.412C1387.6 143.815 1386.86 142.993 1386.32 141.948C1385.78 140.884 1385.51 139.661 1385.51 138.28C1385.51 136.899 1385.78 135.685 1386.32 134.64C1386.86 133.576 1387.6 132.745 1388.53 132.148C1389.47 131.551 1390.53 131.252 1391.72 131.252C1392.94 131.252 1394.01 131.551 1394.94 132.148C1395.88 132.745 1396.61 133.576 1397.16 134.64C1397.7 135.685 1397.97 136.899 1397.97 138.28C1397.97 139.661 1397.7 140.884 1397.16 141.948C1396.61 142.993 1395.88 143.815 1394.94 144.412C1394.01 145.009 1392.94 145.308 1391.72 145.308ZM1391.72 143.712C1392.6 143.712 1393.38 143.488 1394.05 143.04C1394.74 142.592 1395.28 141.967 1395.67 141.164C1396.06 140.343 1396.26 139.381 1396.26 138.28C1396.26 137.179 1396.06 136.227 1395.67 135.424C1395.28 134.603 1394.74 133.968 1394.05 133.52C1393.38 133.072 1392.6 132.848 1391.72 132.848C1390.42 132.848 1389.33 133.343 1388.48 134.332C1387.64 135.303 1387.22 136.619 1387.22 138.28C1387.22 139.923 1387.64 141.239 1388.48 142.228C1389.33 143.217 1390.42 143.712 1391.72 143.712Z" fill="white"/>
<path d="M1427.72 109.312V107.492C1428.37 107.492 1429.3 107.502 1430.49 107.52C1431.69 107.52 1433.03 107.53 1434.52 107.548C1436.02 107.548 1437.56 107.548 1439.14 107.548C1440.73 107.548 1442.26 107.548 1443.73 107.548C1445.21 107.548 1446.53 107.548 1447.68 107.548C1448.84 107.53 1449.72 107.511 1450.31 107.492V109.312C1449.7 109.294 1448.81 109.284 1447.65 109.284C1446.52 109.266 1445.22 109.256 1443.76 109.256C1442.33 109.238 1440.82 109.228 1439.25 109.228C1437.71 109.228 1436.18 109.238 1434.69 109.256C1433.22 109.256 1431.87 109.266 1430.66 109.284C1429.45 109.284 1428.47 109.294 1427.72 109.312Z" fill="white"/>
<path d="M1404 118.301L1403.05 116.537C1404.74 115.995 1406.48 115.277 1408.25 114.381C1410.03 113.485 1411.74 112.477 1413.38 111.357C1415.04 110.237 1416.55 109.079 1417.91 107.885C1419.28 106.671 1420.4 105.495 1421.27 104.357C1421.31 104.469 1421.39 104.665 1421.5 104.945C1421.61 105.206 1421.73 105.467 1421.86 105.729C1421.99 105.99 1422.08 106.167 1422.11 106.261C1421.18 107.362 1420.03 108.491 1418.67 109.649C1417.33 110.787 1415.84 111.898 1414.22 112.981C1412.61 114.063 1410.93 115.062 1409.18 115.977C1407.44 116.891 1405.72 117.666 1404 118.301ZM1409.32 103.517C1409.17 103.367 1408.89 103.143 1408.48 102.845C1408.07 102.527 1407.6 102.201 1407.08 101.865C1406.56 101.51 1406.06 101.193 1405.59 100.913C1405.15 100.614 1404.8 100.418 1404.56 100.325L1405.57 98.7285C1405.86 98.8965 1406.25 99.1392 1406.71 99.4565C1407.18 99.7552 1407.66 100.073 1408.14 100.409C1408.65 100.745 1409.1 101.062 1409.51 101.361C1409.92 101.641 1410.23 101.855 1410.44 102.005L1409.32 103.517ZM1405.73 109.089C1405.51 108.902 1405.18 108.687 1404.75 108.445C1404.34 108.183 1403.89 107.922 1403.38 107.661C1402.88 107.381 1402.39 107.138 1401.93 106.933C1401.46 106.709 1401.07 106.55 1400.75 106.457L1401.67 104.833C1402.01 104.963 1402.41 105.15 1402.88 105.393C1403.36 105.635 1403.86 105.887 1404.36 106.149C1404.87 106.41 1405.32 106.662 1405.73 106.905C1406.16 107.147 1406.49 107.334 1406.71 107.465L1405.73 109.089Z" fill="white"/>
<path d="M1374.55 119.476C1374.51 119.383 1374.41 119.224 1374.24 119C1374.09 118.795 1373.93 118.589 1373.76 118.384C1373.61 118.16 1373.49 118.011 1373.4 117.936C1375.75 116.984 1377.97 115.752 1380.06 114.24C1382.15 112.709 1384.01 110.992 1385.63 109.088C1387.26 107.165 1388.54 105.149 1389.47 103.04C1388.95 103.059 1388.31 103.087 1387.57 103.124C1386.84 103.143 1386.1 103.161 1385.35 103.18C1384.61 103.199 1383.93 103.217 1383.31 103.236C1382.71 103.255 1382.27 103.264 1381.99 103.264C1381.06 104.515 1380 105.7 1378.8 106.82C1377.63 107.94 1376.35 108.939 1374.97 109.816C1374.91 109.741 1374.79 109.611 1374.6 109.424C1374.43 109.237 1374.25 109.06 1374.04 108.892C1373.86 108.705 1373.71 108.584 1373.59 108.528C1375.03 107.688 1376.38 106.68 1377.63 105.504C1378.88 104.309 1379.98 103.021 1380.93 101.64C1381.9 100.259 1382.65 98.8774 1383.17 97.4961L1384.88 98.1121C1384.64 98.7094 1384.37 99.2974 1384.07 99.8761C1383.79 100.455 1383.48 101.024 1383.14 101.584C1383.74 101.565 1384.45 101.547 1385.27 101.528C1386.09 101.509 1386.9 101.491 1387.71 101.472C1388.53 101.453 1389.22 101.435 1389.78 101.416C1390.36 101.397 1390.69 101.379 1390.79 101.36L1391.82 102.032C1390.93 104.515 1389.63 106.867 1387.93 109.088C1386.23 111.309 1384.24 113.307 1381.97 115.08C1379.69 116.853 1377.22 118.319 1374.55 119.476Z" fill="white"/>
<path d="M1345.88 119.701C1345.82 119.57 1345.72 119.393 1345.57 119.169C1345.44 118.945 1345.31 118.73 1345.18 118.525C1345.04 118.319 1344.94 118.189 1344.87 118.133C1347.13 117.237 1349.24 116.107 1351.22 114.745C1353.22 113.363 1355 111.823 1356.57 110.125C1355.88 109.639 1355.18 109.201 1354.47 108.809C1353.78 108.398 1353.14 108.053 1352.54 107.773L1353.55 106.401C1354.2 106.699 1354.88 107.063 1355.59 107.493C1356.32 107.903 1357.03 108.342 1357.72 108.809C1358.48 107.875 1359.18 106.905 1359.79 105.897C1360.41 104.87 1360.95 103.825 1361.42 102.761C1360.84 102.779 1360.15 102.807 1359.34 102.845C1358.56 102.863 1357.77 102.891 1356.96 102.929C1356.16 102.947 1355.43 102.966 1354.78 102.985C1354.14 103.003 1353.7 103.013 1353.44 103.013C1352.58 104.338 1351.6 105.589 1350.5 106.765C1349.39 107.941 1348.18 109.005 1346.86 109.957C1346.78 109.863 1346.65 109.733 1346.46 109.565C1346.3 109.378 1346.13 109.201 1345.96 109.033C1345.79 108.846 1345.66 108.725 1345.57 108.669C1346.91 107.754 1348.16 106.681 1349.32 105.449C1350.48 104.217 1351.49 102.891 1352.37 101.473C1353.25 100.035 1353.92 98.5888 1354.39 97.1328L1356.12 97.6928C1355.88 98.3275 1355.62 98.9528 1355.34 99.5688C1355.06 100.185 1354.75 100.791 1354.42 101.389C1355.03 101.389 1355.73 101.379 1356.52 101.361C1357.3 101.342 1358.08 101.323 1358.87 101.305C1359.67 101.267 1360.4 101.239 1361.05 101.221C1361.72 101.183 1362.24 101.146 1362.59 101.109L1363.71 101.753C1363.17 103.227 1362.52 104.637 1361.75 105.981C1360.99 107.325 1360.14 108.603 1359.2 109.817C1359.97 110.358 1360.69 110.909 1361.36 111.469C1362.05 112.01 1362.64 112.523 1363.12 113.009C1363.05 113.065 1362.92 113.195 1362.73 113.401C1362.54 113.587 1362.37 113.783 1362.2 113.989C1362.03 114.194 1361.91 114.343 1361.84 114.437C1361.35 113.951 1360.77 113.429 1360.1 112.869C1359.45 112.29 1358.76 111.73 1358.03 111.189C1356.42 112.999 1354.59 114.614 1352.54 116.033C1350.49 117.451 1348.26 118.674 1345.88 119.701Z" fill="white"/>
<path d="M1398.69 233.792C1398.67 233.699 1398.6 233.55 1398.46 233.344C1398.35 233.139 1398.22 232.934 1398.07 232.728C1397.94 232.523 1397.83 232.383 1397.74 232.308C1400.42 231.431 1402.45 230.068 1403.81 228.22C1405.19 226.354 1405.96 224.226 1406.11 221.836H1401.12V220.044H1416.16C1416.16 220.866 1416.13 221.762 1416.08 222.732C1416.02 223.703 1415.94 224.674 1415.82 225.644C1415.73 226.615 1415.61 227.539 1415.46 228.416C1415.31 229.275 1415.14 230.022 1414.96 230.656C1414.62 231.795 1414.12 232.57 1413.44 232.98C1412.79 233.391 1411.89 233.596 1410.73 233.596H1408.43C1408.41 233.335 1408.36 233.008 1408.26 232.616C1408.19 232.243 1408.11 231.963 1408.01 231.776H1410.56C1411.36 231.776 1411.94 231.655 1412.3 231.412C1412.65 231.17 1412.94 230.694 1413.16 229.984C1413.31 229.48 1413.45 228.883 1413.58 228.192C1413.72 227.483 1413.83 226.746 1413.92 225.98C1414.01 225.196 1414.08 224.44 1414.12 223.712C1414.17 222.984 1414.2 222.359 1414.2 221.836H1407.93C1407.84 223.554 1407.44 225.196 1406.75 226.764C1406.08 228.314 1405.08 229.704 1403.76 230.936C1402.43 232.15 1400.74 233.102 1398.69 233.792ZM1421 221.892C1419.6 221.108 1418.26 220.212 1416.97 219.204C1415.68 218.178 1414.56 217.02 1413.61 215.732C1412.68 214.426 1412.01 212.979 1411.6 211.392H1406.19V209.656H1413.05C1413.37 211.336 1413.99 212.848 1414.9 214.192C1415.82 215.518 1416.92 216.675 1418.2 217.664C1419.51 218.654 1420.89 219.503 1422.35 220.212C1422.27 220.287 1422.13 220.446 1421.93 220.688C1421.74 220.912 1421.56 221.146 1421.37 221.388C1421.18 221.612 1421.06 221.78 1421 221.892ZM1396.73 222.2C1396.67 222.107 1396.56 221.967 1396.39 221.78C1396.22 221.575 1396.05 221.37 1395.86 221.164C1395.69 220.959 1395.56 220.819 1395.47 220.744C1396.59 220.166 1397.71 219.4 1398.83 218.448C1399.95 217.478 1400.98 216.414 1401.91 215.256C1402.84 214.099 1403.58 212.932 1404.12 211.756L1405.86 212.54C1405.24 213.884 1404.45 215.154 1403.48 216.348C1402.51 217.543 1401.44 218.635 1400.28 219.624C1399.13 220.595 1397.94 221.454 1396.73 222.2Z" fill="white"/>
<path d="M1388 232.196C1386.92 232.196 1385.88 231.926 1384.89 231.384C1383.92 230.824 1383.17 230.087 1382.62 229.172L1384 228.248C1384.48 228.995 1385.06 229.574 1385.73 229.984C1386.42 230.376 1387.18 230.572 1388 230.572C1389.34 230.572 1390.38 230.18 1391.11 229.396C1391.86 228.594 1392.23 227.474 1392.23 226.036C1392.23 224.767 1391.9 223.722 1391.25 222.9C1390.6 222.06 1389.68 221.64 1388.5 221.64C1387.85 221.64 1387.23 221.818 1386.63 222.172C1386.03 222.527 1385.63 222.975 1385.43 223.516H1383.89V212.4H1393.18V213.968H1385.56V221.276C1385.94 220.922 1386.39 220.642 1386.91 220.436C1387.45 220.212 1387.99 220.1 1388.53 220.1C1389.56 220.1 1390.47 220.343 1391.28 220.828C1392.08 221.295 1392.7 221.976 1393.15 222.872C1393.62 223.75 1393.85 224.804 1393.85 226.036C1393.85 228.015 1393.31 229.536 1392.23 230.6C1391.15 231.664 1389.74 232.196 1388 232.196Z" fill="white"/>
<path d="M1376.28 232V214.5L1372.27 216.992L1371.38 215.62L1376.67 212.344H1377.9V232H1376.28Z" fill="white"/>
<path d="M480.905 180.987C480.886 180.744 480.84 180.464 480.765 180.147C480.69 179.848 480.606 179.606 480.513 179.419H482.277C482.65 179.419 482.921 179.344 483.089 179.195C483.257 179.046 483.341 178.794 483.341 178.439V168.247H478.161V158.587H482.305C482.454 158.158 482.613 157.635 482.781 157.019C482.968 156.384 483.089 155.89 483.145 155.535L484.937 155.675C484.862 156.067 484.732 156.543 484.545 157.103C484.358 157.663 484.19 158.158 484.041 158.587H490.033V168.247H484.937V169.563C485.366 170.552 485.945 171.56 486.673 172.587C487.27 172.158 487.896 171.654 488.549 171.075C489.202 170.496 489.734 169.992 490.145 169.563L491.293 170.599C490.826 171.066 490.229 171.588 489.501 172.167C488.792 172.746 488.12 173.25 487.485 173.679C488.194 174.575 488.969 175.415 489.809 176.199C490.649 176.983 491.489 177.646 492.329 178.187C492.273 178.224 492.161 178.336 491.993 178.523C491.825 178.691 491.666 178.868 491.517 179.055C491.368 179.242 491.265 179.372 491.209 179.447C490.052 178.607 488.913 177.552 487.793 176.283C486.673 175.014 485.721 173.67 484.937 172.251V178.775C484.937 179.522 484.741 180.072 484.349 180.427C483.976 180.8 483.36 180.987 482.501 180.987H480.905ZM471.217 181.015V168.975C470.34 169.05 469.481 169.124 468.641 169.199C467.801 169.274 467.101 169.32 466.541 169.339L466.289 167.771C466.55 167.771 466.84 167.771 467.157 167.771C467.493 167.752 467.848 167.734 468.221 167.715C468.613 167.286 469.042 166.754 469.509 166.119C469.994 165.466 470.48 164.784 470.965 164.075C470.536 163.702 470.05 163.31 469.509 162.899C468.968 162.47 468.417 162.059 467.857 161.667C467.297 161.256 466.774 160.902 466.289 160.603L467.213 159.343C467.437 159.474 467.67 159.623 467.913 159.791C468.174 159.959 468.436 160.136 468.697 160.323C468.996 159.856 469.313 159.334 469.649 158.755C469.985 158.176 470.284 157.616 470.545 157.075C470.825 156.534 471.03 156.095 471.161 155.759L472.673 156.347C472.337 157.094 471.908 157.915 471.385 158.811C470.862 159.688 470.349 160.482 469.845 161.191C470.218 161.452 470.573 161.714 470.909 161.975C471.245 162.236 471.553 162.488 471.833 162.731C472.393 161.872 472.897 161.051 473.345 160.267C473.812 159.483 474.157 158.858 474.381 158.391L475.809 159.147C475.38 159.968 474.838 160.883 474.185 161.891C473.55 162.88 472.878 163.879 472.169 164.887C471.478 165.876 470.806 166.782 470.153 167.603C470.993 167.566 471.833 167.519 472.673 167.463C473.513 167.388 474.25 167.314 474.885 167.239C474.642 166.847 474.4 166.474 474.157 166.119C473.914 165.764 473.69 165.456 473.485 165.195L474.745 164.439C475.081 164.85 475.426 165.344 475.781 165.923C476.154 166.502 476.518 167.099 476.873 167.715C477.228 168.312 477.536 168.872 477.797 169.395C477.722 169.414 477.582 169.479 477.377 169.591C477.19 169.703 477.004 169.815 476.817 169.927C476.63 170.039 476.5 170.123 476.425 170.179C476.313 169.918 476.182 169.647 476.033 169.367C475.884 169.087 475.734 168.798 475.585 168.499C475.212 168.536 474.792 168.583 474.325 168.639C473.858 168.695 473.373 168.751 472.869 168.807V181.015H471.217ZM479.869 166.847H488.325V164.047H479.869V166.847ZM479.869 162.703H488.325V159.987H479.869V162.703ZM476.761 179.643C476.705 179.568 476.593 179.456 476.425 179.307C476.257 179.158 476.089 179.018 475.921 178.887C475.753 178.738 475.622 178.644 475.529 178.607C476.705 177.823 477.741 176.824 478.637 175.611C479.552 174.379 480.177 173.138 480.513 171.887H477.461V170.403H482.025L482.389 170.795C482.165 171.84 481.801 172.904 481.297 173.987C480.793 175.07 480.158 176.096 479.393 177.067C478.646 178.038 477.769 178.896 476.761 179.643ZM467.717 178.159C467.642 178.122 467.502 178.056 467.297 177.963C467.092 177.87 466.896 177.786 466.709 177.711C466.522 177.618 466.382 177.571 466.289 177.571C466.644 177.048 466.989 176.376 467.325 175.555C467.68 174.734 467.997 173.894 468.277 173.035C468.557 172.158 468.753 171.374 468.865 170.683L470.293 170.991C470.144 171.775 469.938 172.606 469.677 173.483C469.416 174.342 469.117 175.182 468.781 176.003C468.445 176.824 468.09 177.543 467.717 178.159ZM476.005 177.179C475.818 176.843 475.613 176.395 475.389 175.835C475.184 175.275 474.969 174.687 474.745 174.071C474.54 173.436 474.344 172.83 474.157 172.251C473.97 171.672 473.821 171.196 473.709 170.823L475.109 170.403C475.277 170.926 475.492 171.588 475.753 172.391C476.014 173.175 476.294 173.94 476.593 174.687C476.91 175.434 477.2 176.031 477.461 176.479C477.368 176.498 477.218 176.563 477.013 176.675C476.808 176.768 476.602 176.862 476.397 176.955C476.21 177.048 476.08 177.123 476.005 177.179Z" fill="white"/>
<path d="M443.55 181.016V175.808H438.258V174.24H443.55V171.748H439.602V162.62H443.55V160.184H438.594V158.644H443.55V155.76H445.23V158.644H450.214V160.184H445.23V162.62H449.234V171.748H445.23V174.24H450.634V175.808H445.23V181.016H443.55ZM455.87 181.016V172.252H450.494V170.6H455.87V166.54H451.922V164.972H461.358V166.54H457.578V170.6H463.402V172.252H457.578V181.016H455.87ZM450.662 165.588C450.606 165.513 450.484 165.401 450.298 165.252C450.13 165.102 449.962 164.953 449.794 164.804C449.626 164.636 449.495 164.533 449.402 164.496C450.26 163.786 451.091 162.937 451.894 161.948C452.715 160.94 453.452 159.894 454.106 158.812C454.778 157.729 455.31 156.721 455.702 155.788L457.298 156.012C457.82 157.001 458.446 158 459.174 159.008C459.902 160.016 460.686 160.949 461.526 161.808C462.366 162.666 463.196 163.385 464.018 163.964C463.943 164.02 463.812 164.15 463.626 164.356C463.458 164.542 463.299 164.738 463.15 164.944C463 165.13 462.898 165.261 462.842 165.336C461.647 164.365 460.499 163.217 459.398 161.892C458.315 160.548 457.363 159.166 456.542 157.748C456.112 158.606 455.59 159.512 454.974 160.464C454.358 161.397 453.686 162.312 452.958 163.208C452.23 164.085 451.464 164.878 450.662 165.588ZM441.254 170.348H447.554V167.912H441.254V170.348ZM441.254 166.512H447.554V164.076H441.254V166.512Z" fill="white"/>
<path d="M421.909 181.072C421.853 180.998 421.713 180.886 421.488 180.736C421.283 180.606 421.069 180.466 420.844 180.316C420.639 180.186 420.49 180.111 420.396 180.092C421.479 179.159 422.319 177.992 422.917 176.592C423.533 175.192 423.962 173.606 424.205 171.832C424.466 170.04 424.597 168.108 424.597 166.036V158.28C425.437 158.28 426.398 158.206 427.481 158.056C428.582 157.888 429.665 157.655 430.729 157.356C431.811 157.039 432.745 156.666 433.529 156.236L434.705 157.748C434.182 157.972 433.566 158.196 432.857 158.42C432.147 158.644 431.401 158.859 430.617 159.064C429.833 159.251 429.067 159.41 428.321 159.54C427.593 159.671 426.939 159.764 426.361 159.82V165H435.545V166.68H431.821V181.044H430.057V166.68H426.361C426.323 169.872 425.959 172.672 425.269 175.08C424.597 177.47 423.477 179.467 421.909 181.072ZM416.141 181.016V172.7C415.487 173.727 414.703 174.754 413.789 175.78C412.874 176.788 411.997 177.647 411.157 178.356C411.119 178.282 411.007 178.17 410.821 178.02C410.634 177.871 410.438 177.731 410.233 177.6C410.046 177.451 409.906 177.358 409.812 177.32C410.261 177.003 410.746 176.592 411.269 176.088C411.81 175.584 412.342 175.034 412.865 174.436C413.387 173.839 413.873 173.242 414.321 172.644C414.769 172.028 415.142 171.468 415.441 170.964H411.241V169.368H416.141V166.484H410.793V164.944H417.877C418.063 164.552 418.269 164.086 418.493 163.544C418.717 163.003 418.922 162.462 419.109 161.92C419.314 161.379 419.473 160.922 419.585 160.548L421.153 160.968C420.966 161.472 420.714 162.116 420.396 162.9C420.079 163.666 419.781 164.347 419.501 164.944H423.309V166.484H417.849V169.368H422.805V170.964H417.849V171.692C418.185 172.084 418.614 172.532 419.137 173.036C419.678 173.522 420.257 173.998 420.873 174.464C421.489 174.912 422.077 175.295 422.637 175.612C422.581 175.668 422.469 175.79 422.301 175.976C422.133 176.144 421.965 176.322 421.797 176.508C421.647 176.695 421.554 176.826 421.517 176.9C420.994 176.527 420.387 176.042 419.697 175.444C419.025 174.847 418.409 174.259 417.849 173.68V181.016H416.141ZM411.325 160.24V158.7H416.113V155.732H417.877V158.7H422.833V160.24H411.325ZM414.208 164.804C414.134 164.468 414.003 164.076 413.816 163.628C413.648 163.162 413.471 162.714 413.285 162.284C413.098 161.836 412.93 161.482 412.781 161.22L414.265 160.66C414.526 161.183 414.787 161.771 415.049 162.424C415.329 163.078 415.562 163.694 415.748 164.272L414.208 164.804Z" fill="white"/>
<path d="M1088.68 177.768C1088.62 177.675 1088.52 177.526 1088.37 177.32C1088.24 177.096 1088.09 176.882 1087.92 176.676C1087.77 176.452 1087.64 176.303 1087.53 176.228C1088.99 175.594 1090.45 174.791 1091.93 173.82C1093.4 172.831 1094.8 171.73 1096.13 170.516C1097.47 169.284 1098.68 167.987 1099.77 166.624C1100.85 165.243 1101.73 163.843 1102.4 162.424C1101.6 162.48 1100.64 162.546 1099.54 162.62C1098.46 162.676 1097.34 162.742 1096.18 162.816C1095.03 162.872 1093.94 162.928 1092.94 162.984C1091.95 163.022 1091.14 163.059 1090.53 163.096L1090.3 161.248C1090.73 161.248 1091.39 161.239 1092.26 161.22C1093.16 161.183 1094.17 161.146 1095.29 161.108C1096.41 161.052 1097.52 160.996 1098.62 160.94C1099.72 160.884 1100.71 160.828 1101.59 160.772C1102.46 160.698 1103.11 160.632 1103.52 160.576L1104.72 161.332C1104.28 162.583 1103.68 163.824 1102.93 165.056C1102.18 166.288 1101.34 167.474 1100.38 168.612C1100.98 169.098 1101.63 169.658 1102.34 170.292C1103.07 170.927 1103.79 171.59 1104.5 172.28C1105.23 172.971 1105.9 173.643 1106.52 174.296C1107.13 174.931 1107.64 175.5 1108.06 176.004C1107.94 176.079 1107.78 176.21 1107.58 176.396C1107.39 176.564 1107.2 176.742 1106.99 176.928C1106.8 177.096 1106.66 177.236 1106.57 177.348C1106.2 176.826 1105.71 176.238 1105.12 175.584C1104.52 174.931 1103.87 174.259 1103.18 173.568C1102.49 172.878 1101.8 172.215 1101.11 171.58C1100.42 170.927 1099.8 170.367 1099.24 169.9C1097.69 171.562 1095.99 173.074 1094.14 174.436C1092.31 175.799 1090.49 176.91 1088.68 177.768Z" fill="white"/>
<path d="M1059.55 174.885C1059.48 174.792 1059.34 174.652 1059.13 174.465C1058.95 174.278 1058.75 174.092 1058.55 173.905C1058.34 173.718 1058.18 173.588 1058.07 173.513C1059.25 172.71 1060.34 171.721 1061.35 170.545C1062.37 169.369 1063.26 168.146 1064.01 166.877C1064.75 165.589 1065.3 164.394 1065.66 163.293L1067.42 163.937C1066.96 165.262 1066.33 166.597 1065.55 167.941C1064.78 169.266 1063.89 170.526 1062.89 171.721C1061.88 172.916 1060.77 173.97 1059.55 174.885ZM1079.6 174.017C1079.3 173.308 1078.9 172.505 1078.4 171.609C1077.89 170.713 1077.32 169.808 1076.69 168.893C1076.07 167.978 1075.45 167.129 1074.81 166.345C1074.18 165.542 1073.59 164.889 1073.05 164.385L1074.45 163.293C1075.05 163.853 1075.67 164.525 1076.33 165.309C1077 166.074 1077.65 166.905 1078.29 167.801C1078.92 168.678 1079.51 169.565 1080.05 170.461C1080.59 171.338 1081.06 172.169 1081.45 172.953C1081.36 172.99 1081.18 173.084 1080.92 173.233C1080.68 173.364 1080.42 173.504 1080.16 173.653C1079.92 173.802 1079.73 173.924 1079.6 174.017ZM1080.97 161.333C1080.71 160.96 1080.37 160.549 1079.94 160.101C1079.53 159.634 1079.1 159.196 1078.65 158.785C1078.2 158.374 1077.8 158.038 1077.45 157.777L1078.37 156.965C1078.71 157.208 1079.11 157.553 1079.57 158.001C1080.04 158.43 1080.49 158.878 1080.92 159.345C1081.37 159.793 1081.71 160.176 1081.95 160.493L1080.97 161.333ZM1078.76 163.377C1078.52 162.985 1078.19 162.556 1077.78 162.089C1077.37 161.622 1076.95 161.174 1076.52 160.745C1076.09 160.316 1075.7 159.97 1075.35 159.709L1076.3 158.925C1076.62 159.168 1077 159.522 1077.45 159.989C1077.89 160.437 1078.33 160.904 1078.76 161.389C1079.21 161.856 1079.55 162.248 1079.77 162.565L1078.76 163.377Z" fill="white"/>
<path d="M1044.19 177.488V170.376C1043.2 171.459 1042.04 172.476 1040.71 173.428C1039.39 174.362 1038.12 175.202 1036.91 175.948C1036.87 175.874 1036.77 175.752 1036.6 175.584C1036.45 175.398 1036.29 175.22 1036.12 175.052C1035.97 174.866 1035.85 174.744 1035.76 174.688C1036.64 174.24 1037.56 173.69 1038.53 173.036C1039.52 172.383 1040.45 171.702 1041.33 170.992C1042.21 170.283 1042.94 169.611 1043.51 168.976H1038.11V162.592H1044.19V160.296H1036.65V158.756H1044.19V155.732H1045.92V158.756H1053.51V160.296H1045.92V162.592H1052.05V168.976H1046.62C1047.22 169.592 1047.97 170.255 1048.86 170.964C1049.76 171.674 1050.7 172.355 1051.69 173.008C1052.7 173.643 1053.64 174.184 1054.52 174.632C1054.44 174.688 1054.32 174.81 1054.15 174.996C1053.99 175.183 1053.83 175.37 1053.68 175.556C1053.53 175.743 1053.43 175.874 1053.37 175.948C1052.16 175.202 1050.87 174.352 1049.51 173.4C1048.14 172.43 1046.95 171.403 1045.92 170.32V177.488H1044.19ZM1045.36 180.26C1043.5 180.26 1041.88 180.158 1040.52 179.952C1039.16 179.747 1037.97 179.42 1036.96 178.972C1035.97 178.524 1035.08 177.927 1034.27 177.18C1033.96 177.404 1033.53 177.703 1032.99 178.076C1032.46 178.431 1031.93 178.786 1031.39 179.14C1030.87 179.495 1030.44 179.803 1030.1 180.064L1029.23 178.328C1029.55 178.179 1029.98 177.964 1030.52 177.684C1031.06 177.386 1031.61 177.078 1032.15 176.76C1032.71 176.424 1033.15 176.135 1033.46 175.892V167.884H1029.6V166.204H1035.17V175.892C1035.86 176.602 1036.64 177.162 1037.49 177.572C1038.37 177.964 1039.44 178.244 1040.69 178.412C1041.96 178.58 1043.51 178.664 1045.36 178.664C1047.49 178.664 1049.3 178.627 1050.79 178.552C1052.31 178.478 1053.63 178.394 1054.77 178.3C1054.75 178.356 1054.71 178.524 1054.63 178.804C1054.56 179.066 1054.48 179.327 1054.41 179.588C1054.35 179.868 1054.32 180.055 1054.32 180.148C1053.78 180.167 1053.03 180.186 1052.08 180.204C1051.15 180.223 1050.1 180.232 1048.95 180.232C1047.79 180.251 1046.59 180.26 1045.36 180.26ZM1045.92 167.492H1050.32V164.104H1045.92V167.492ZM1039.82 167.492H1044.19V164.104H1039.82V167.492ZM1034.64 162.2C1034.34 161.752 1033.94 161.248 1033.43 160.688C1032.93 160.128 1032.41 159.587 1031.87 159.064C1031.33 158.542 1030.83 158.112 1030.38 157.776L1031.59 156.684C1032.05 157.02 1032.57 157.45 1033.13 157.972C1033.69 158.495 1034.22 159.027 1034.72 159.568C1035.25 160.11 1035.66 160.586 1035.95 160.996C1035.9 161.034 1035.78 161.136 1035.59 161.304C1035.4 161.472 1035.21 161.65 1035 161.836C1034.82 162.004 1034.69 162.126 1034.64 162.2Z" fill="white"/>
<path d="M1002.74 181.016V169.088H1025.22V178.692C1025.22 180.204 1024.38 180.96 1022.7 180.96H1020.38C1020.36 180.717 1020.31 180.418 1020.21 180.064C1020.14 179.728 1020.05 179.466 1019.96 179.28H1022.4C1022.79 179.28 1023.07 179.205 1023.24 179.056C1023.4 178.906 1023.49 178.654 1023.49 178.3V170.6H1004.48V181.016H1002.74ZM1007.11 167.408V161.92H1020.72V167.408H1007.11ZM1008.31 177.74V172.364H1019.51V177.74H1008.31ZM1001.65 160.156V158.588H1013.04V155.676H1014.89V158.588H1026.32V160.156H1001.65ZM1008.82 165.98H1019.01V163.32H1008.82V165.98ZM1009.99 176.34H1017.8V173.736H1009.99V176.34Z" fill="white"/>
<path d="M1457.68 177.768C1457.62 177.675 1457.52 177.526 1457.37 177.32C1457.24 177.096 1457.09 176.882 1456.92 176.676C1456.77 176.452 1456.64 176.303 1456.53 176.228C1457.99 175.594 1459.45 174.791 1460.93 173.82C1462.4 172.831 1463.8 171.73 1465.13 170.516C1466.47 169.284 1467.68 167.987 1468.77 166.624C1469.85 165.243 1470.73 163.843 1471.4 162.424C1470.6 162.48 1469.64 162.546 1468.54 162.62C1467.46 162.676 1466.34 162.742 1465.18 162.816C1464.03 162.872 1462.94 162.928 1461.94 162.984C1460.95 163.022 1460.14 163.059 1459.53 163.096L1459.3 161.248C1459.73 161.248 1460.39 161.239 1461.26 161.22C1462.16 161.183 1463.17 161.146 1464.29 161.108C1465.41 161.052 1466.52 160.996 1467.62 160.94C1468.72 160.884 1469.71 160.828 1470.59 160.772C1471.46 160.698 1472.11 160.632 1472.52 160.576L1473.72 161.332C1473.28 162.583 1472.68 163.824 1471.93 165.056C1471.18 166.288 1470.34 167.474 1469.38 168.612C1469.98 169.098 1470.63 169.658 1471.34 170.292C1472.07 170.927 1472.79 171.59 1473.5 172.28C1474.23 172.971 1474.9 173.643 1475.52 174.296C1476.13 174.931 1476.64 175.5 1477.06 176.004C1476.94 176.079 1476.78 176.21 1476.58 176.396C1476.39 176.564 1476.2 176.742 1475.99 176.928C1475.8 177.096 1475.66 177.236 1475.57 177.348C1475.2 176.826 1474.71 176.238 1474.12 175.584C1473.52 174.931 1472.87 174.259 1472.18 173.568C1471.49 172.878 1470.8 172.215 1470.11 171.58C1469.42 170.927 1468.8 170.367 1468.24 169.9C1466.69 171.562 1464.99 173.074 1463.14 174.436C1461.31 175.799 1459.49 176.91 1457.68 177.768Z" fill="white"/>
<path d="M1428.55 174.885C1428.48 174.792 1428.34 174.652 1428.13 174.465C1427.95 174.278 1427.75 174.092 1427.55 173.905C1427.34 173.718 1427.18 173.588 1427.07 173.513C1428.25 172.71 1429.34 171.721 1430.35 170.545C1431.37 169.369 1432.26 168.146 1433.01 166.877C1433.75 165.589 1434.3 164.394 1434.66 163.293L1436.42 163.937C1435.96 165.262 1435.33 166.597 1434.55 167.941C1433.78 169.266 1432.89 170.526 1431.89 171.721C1430.88 172.916 1429.77 173.97 1428.55 174.885ZM1448.6 174.017C1448.3 173.308 1447.9 172.505 1447.4 171.609C1446.89 170.713 1446.32 169.808 1445.69 168.893C1445.07 167.978 1444.45 167.129 1443.81 166.345C1443.18 165.542 1442.59 164.889 1442.05 164.385L1443.45 163.293C1444.05 163.853 1444.67 164.525 1445.33 165.309C1446 166.074 1446.65 166.905 1447.29 167.801C1447.92 168.678 1448.51 169.565 1449.05 170.461C1449.59 171.338 1450.06 172.169 1450.45 172.953C1450.36 172.99 1450.18 173.084 1449.92 173.233C1449.68 173.364 1449.42 173.504 1449.16 173.653C1448.92 173.802 1448.73 173.924 1448.6 174.017ZM1449.97 161.333C1449.71 160.96 1449.37 160.549 1448.94 160.101C1448.53 159.634 1448.1 159.196 1447.65 158.785C1447.2 158.374 1446.8 158.038 1446.45 157.777L1447.37 156.965C1447.71 157.208 1448.11 157.553 1448.57 158.001C1449.04 158.43 1449.49 158.878 1449.92 159.345C1450.37 159.793 1450.71 160.176 1450.95 160.493L1449.97 161.333ZM1447.76 163.377C1447.52 162.985 1447.19 162.556 1446.78 162.089C1446.37 161.622 1445.95 161.174 1445.52 160.745C1445.09 160.316 1444.7 159.97 1444.35 159.709L1445.3 158.925C1445.62 159.168 1446 159.522 1446.45 159.989C1446.89 160.437 1447.33 160.904 1447.76 161.389C1448.21 161.856 1448.55 162.248 1448.77 162.565L1447.76 163.377Z" fill="white"/>
<path d="M1414.22 177.264V157.636H1422.23V171.916C1422.23 173.465 1421.4 174.24 1419.74 174.24H1417.75C1417.73 173.978 1417.68 173.67 1417.58 173.316C1417.49 172.942 1417.41 172.662 1417.33 172.476H1419.46C1419.87 172.476 1420.15 172.41 1420.3 172.28C1420.45 172.13 1420.52 171.869 1420.52 171.496V159.288H1415.96V177.264H1414.22ZM1414.36 180.26C1412.5 180.26 1410.87 180.157 1409.49 179.952C1408.13 179.746 1406.94 179.42 1405.93 178.972C1404.93 178.524 1404.02 177.926 1403.22 177.18C1402.9 177.404 1402.48 177.702 1401.96 178.076C1401.44 178.43 1400.91 178.785 1400.39 179.14C1399.87 179.494 1399.44 179.802 1399.1 180.064L1398.23 178.328C1398.55 178.178 1398.97 177.964 1399.49 177.684C1400.04 177.385 1400.58 177.077 1401.12 176.76C1401.66 176.424 1402.09 176.134 1402.41 175.892V167.884H1398.6V166.204H1404.09V175.892C1404.78 176.601 1405.56 177.161 1406.44 177.572C1407.32 177.964 1408.39 178.244 1409.66 178.412C1410.95 178.58 1412.51 178.664 1414.36 178.664C1416.49 178.664 1418.3 178.626 1419.79 178.552C1421.31 178.477 1422.63 178.393 1423.77 178.3C1423.75 178.356 1423.71 178.524 1423.63 178.804C1423.56 179.065 1423.48 179.326 1423.41 179.588C1423.35 179.868 1423.32 180.054 1423.32 180.148C1422.78 180.166 1422.03 180.185 1421.08 180.204C1420.15 180.222 1419.1 180.232 1417.95 180.232C1416.79 180.25 1415.59 180.26 1414.36 180.26ZM1405.57 174.576L1405.01 172.952C1405.31 172.877 1405.65 172.793 1406.02 172.7C1406.41 172.588 1406.83 172.466 1407.28 172.336V158.364C1408.17 158.196 1409.12 157.934 1410.11 157.58C1411.11 157.225 1411.99 156.842 1412.74 156.432L1413.77 157.86C1412.99 158.252 1412.16 158.606 1411.28 158.924C1410.42 159.241 1409.67 159.502 1409.01 159.708V171.804C1409.85 171.542 1410.67 171.281 1411.45 171.02C1412.23 170.758 1412.86 170.534 1413.33 170.348V172.056C1412.93 172.205 1412.39 172.401 1411.7 172.644C1411.03 172.868 1410.29 173.11 1409.49 173.372C1408.71 173.614 1407.96 173.848 1407.25 174.072C1406.56 174.296 1406 174.464 1405.57 174.576ZM1403.64 162.2C1403.34 161.752 1402.94 161.248 1402.43 160.688C1401.93 160.128 1401.41 159.586 1400.87 159.064C1400.33 158.541 1399.83 158.112 1399.38 157.776L1400.59 156.684C1401.05 157.02 1401.57 157.449 1402.13 157.972C1402.69 158.494 1403.22 159.026 1403.72 159.568C1404.25 160.109 1404.66 160.585 1404.95 160.996C1404.9 161.033 1404.78 161.136 1404.59 161.304C1404.4 161.472 1404.21 161.649 1404 161.836C1403.82 162.004 1403.69 162.125 1403.64 162.2Z" fill="white"/>
<path d="M1394.4 176.788C1392.64 176.079 1391.09 175.118 1389.75 173.904C1388.42 172.672 1387.43 171.254 1386.78 169.648C1386.16 171.272 1385.21 172.654 1383.92 173.792C1382.64 174.912 1381.02 175.892 1379.08 176.732C1379.04 176.639 1378.95 176.49 1378.8 176.284C1378.65 176.06 1378.5 175.846 1378.35 175.64C1378.22 175.435 1378.12 175.304 1378.04 175.248C1380.04 174.483 1381.63 173.559 1382.8 172.476C1384 171.375 1384.83 170.012 1385.3 168.388H1378.32V166.764H1385.63C1385.67 166.447 1385.7 166.13 1385.72 165.812C1385.75 165.476 1385.77 165.131 1385.77 164.776V162.872H1379.36V161.276H1387.4C1387.71 160.791 1388.05 160.212 1388.4 159.54C1388.76 158.85 1389.08 158.168 1389.38 157.496C1389.7 156.824 1389.94 156.264 1390.11 155.816L1391.85 156.292C1391.55 157.039 1391.15 157.879 1390.64 158.812C1390.14 159.746 1389.66 160.567 1389.22 161.276H1394.06V162.872H1387.59V164.776C1387.59 165.131 1387.57 165.476 1387.54 165.812C1387.52 166.13 1387.49 166.447 1387.45 166.764H1395.29V168.388H1387.96C1389.09 171.562 1391.61 173.839 1395.52 175.22C1395.44 175.276 1395.32 175.416 1395.15 175.64C1395 175.846 1394.85 176.07 1394.7 176.312C1394.55 176.536 1394.45 176.695 1394.4 176.788ZM1386.36 180.26C1384.49 180.26 1382.91 180.158 1381.6 179.952C1380.29 179.747 1379.16 179.42 1378.21 178.972C1377.28 178.524 1376.41 177.927 1375.61 177.18C1375.29 177.367 1374.84 177.647 1374.26 178.02C1373.7 178.375 1373.13 178.739 1372.56 179.112C1371.98 179.486 1371.49 179.803 1371.1 180.064L1370.2 178.3C1370.69 178.095 1371.23 177.843 1371.83 177.544C1372.42 177.227 1372.99 176.919 1373.54 176.62C1374.08 176.303 1374.5 176.051 1374.8 175.864V167.884H1370.6V166.204H1376.53V175.864C1377.22 176.555 1377.97 177.106 1378.77 177.516C1379.57 177.908 1380.57 178.188 1381.77 178.356C1382.98 178.524 1384.51 178.608 1386.36 178.608C1388.49 178.608 1390.3 178.58 1391.79 178.524C1393.3 178.45 1394.63 178.356 1395.77 178.244C1395.75 178.319 1395.7 178.496 1395.63 178.776C1395.55 179.038 1395.48 179.308 1395.4 179.588C1395.35 179.868 1395.32 180.055 1395.32 180.148C1394.78 180.167 1394.03 180.186 1393.08 180.204C1392.15 180.223 1391.1 180.232 1389.94 180.232C1388.79 180.251 1387.59 180.26 1386.36 180.26ZM1376.42 161.892C1376.08 161.482 1375.62 161.015 1375.02 160.492C1374.44 159.951 1373.83 159.438 1373.2 158.952C1372.58 158.448 1372.03 158.047 1371.55 157.748L1372.67 156.6C1373.15 156.88 1373.71 157.263 1374.35 157.748C1375 158.234 1375.63 158.738 1376.22 159.26C1376.82 159.764 1377.3 160.203 1377.65 160.576C1377.6 160.632 1377.47 160.754 1377.29 160.94C1377.1 161.127 1376.92 161.314 1376.76 161.5C1376.59 161.687 1376.48 161.818 1376.42 161.892ZM1383.73 160.856C1383.37 160.166 1382.94 159.447 1382.44 158.7C1381.95 157.954 1381.5 157.338 1381.07 156.852L1382.52 156.04C1383.01 156.619 1383.5 157.3 1384.01 158.084C1384.53 158.868 1384.93 159.531 1385.21 160.072C1385.12 160.11 1384.97 160.184 1384.76 160.296C1384.56 160.408 1384.35 160.52 1384.15 160.632C1383.94 160.726 1383.8 160.8 1383.73 160.856Z" fill="white"/>
<path d="M1348.11 181.016V169.676C1347.44 170.908 1346.68 172.102 1345.84 173.26C1345 174.398 1344.19 175.369 1343.41 176.172C1343.35 176.097 1343.24 175.985 1343.07 175.836C1342.9 175.686 1342.73 175.537 1342.54 175.388C1342.37 175.238 1342.24 175.145 1342.15 175.108C1342.82 174.529 1343.51 173.782 1344.22 172.868C1344.95 171.934 1345.64 170.936 1346.29 169.872C1346.95 168.789 1347.49 167.753 1347.92 166.764H1342.65V165.168H1348.11V155.76H1349.79V165.168H1354.44V166.764H1349.79V167.8C1350.13 168.266 1350.57 168.808 1351.11 169.424C1351.65 170.04 1352.21 170.637 1352.79 171.216C1353.39 171.794 1353.92 172.27 1354.38 172.644C1354.33 172.7 1354.21 172.821 1354.02 173.008C1353.83 173.176 1353.65 173.353 1353.46 173.54C1353.29 173.708 1353.19 173.829 1353.15 173.904C1352.63 173.418 1352.07 172.83 1351.47 172.14C1350.89 171.449 1350.33 170.73 1349.79 169.984V181.016H1348.11ZM1362.59 181.016V171.916C1361.24 172.214 1359.89 172.504 1358.53 172.784C1357.17 173.045 1355.99 173.25 1355 173.4L1354.58 171.748C1355.22 171.654 1355.97 171.533 1356.85 171.384C1357.73 171.234 1358.66 171.057 1359.65 170.852C1360.64 170.646 1361.62 170.441 1362.59 170.236V155.76H1364.32V169.872C1365.09 169.685 1365.79 169.508 1366.42 169.34C1367.08 169.172 1367.61 169.022 1368.02 168.892L1368.08 170.572C1367.63 170.702 1367.08 170.852 1366.42 171.02C1365.79 171.188 1365.09 171.356 1364.32 171.524V181.016H1362.59ZM1352.14 163.74C1352.09 163.702 1351.96 163.637 1351.75 163.544C1351.55 163.432 1351.35 163.329 1351.16 163.236C1350.98 163.142 1350.85 163.096 1350.77 163.096C1351.02 162.722 1351.29 162.228 1351.58 161.612C1351.88 160.996 1352.15 160.37 1352.4 159.736C1352.66 159.082 1352.84 158.513 1352.96 158.028L1354.5 158.56C1354.37 159.008 1354.15 159.577 1353.85 160.268C1353.57 160.94 1353.27 161.602 1352.96 162.256C1352.64 162.89 1352.37 163.385 1352.14 163.74ZM1345.28 163.768C1345.14 163.301 1344.94 162.769 1344.7 162.172C1344.45 161.574 1344.19 160.986 1343.91 160.408C1343.63 159.829 1343.36 159.344 1343.1 158.952L1344.5 158.308C1344.76 158.7 1345.04 159.204 1345.34 159.82C1345.64 160.417 1345.92 161.024 1346.18 161.64C1346.46 162.256 1346.67 162.76 1346.8 163.152C1346.72 163.152 1346.57 163.198 1346.35 163.292C1346.12 163.385 1345.9 163.478 1345.68 163.572C1345.47 163.665 1345.34 163.73 1345.28 163.768ZM1359.59 168.416C1359 167.874 1358.34 167.342 1357.63 166.82C1356.94 166.297 1356.24 165.849 1355.53 165.476L1356.54 164.216C1357.25 164.626 1357.98 165.102 1358.72 165.644C1359.49 166.185 1360.14 166.698 1360.68 167.184C1360.63 167.221 1360.52 167.333 1360.35 167.52C1360.2 167.688 1360.05 167.865 1359.9 168.052C1359.75 168.22 1359.65 168.341 1359.59 168.416ZM1360.46 162.508C1359.86 161.966 1359.22 161.434 1358.53 160.912C1357.84 160.37 1357.14 159.922 1356.43 159.568L1357.49 158.336C1358.2 158.746 1358.92 159.222 1359.65 159.764C1360.4 160.305 1361.04 160.818 1361.58 161.304C1361.51 161.36 1361.38 161.472 1361.22 161.64C1361.07 161.808 1360.92 161.985 1360.77 162.172C1360.62 162.34 1360.52 162.452 1360.46 162.508Z" fill="white"/>
<path d="M1315.27 173.288V171.692H1319.44V166.932H1314.52V165.336H1319.44V160.548H1319.16C1318.64 161.183 1318.09 161.781 1317.51 162.34C1316.95 162.901 1316.4 163.386 1315.86 163.796C1315.78 163.722 1315.65 163.6 1315.47 163.432C1315.28 163.264 1315.09 163.106 1314.91 162.957C1314.74 162.788 1314.61 162.686 1314.52 162.648C1315.13 162.257 1315.74 161.762 1316.34 161.165C1316.95 160.567 1317.52 159.923 1318.04 159.232C1318.58 158.542 1319.06 157.86 1319.47 157.188C1319.88 156.498 1320.2 155.872 1320.42 155.312L1322.1 155.928C1321.71 156.862 1321.13 157.87 1320.37 158.953H1337.81V160.548H1334.54V165.336H1339.52V166.932H1334.54V171.692H1338.74V173.288H1315.27ZM1330.03 165.336H1332.88V160.548H1330.03V165.336ZM1330.03 171.692H1332.88V166.932H1330.03V171.692ZM1321.1 165.336H1323.9V160.548H1321.1V165.336ZM1325.55 165.336H1328.35V160.548H1325.55V165.336ZM1321.1 171.692H1323.9V166.932H1321.1V171.692ZM1325.55 171.692H1328.35V166.932H1325.55V171.692ZM1337.64 180.82C1337.46 180.447 1337.2 179.999 1336.89 179.476C1336.57 178.954 1336.22 178.412 1335.82 177.852C1335.45 177.292 1335.08 176.77 1334.7 176.285C1334.33 175.781 1333.98 175.36 1333.67 175.024L1334.98 174.017C1335.47 174.539 1335.98 175.155 1336.52 175.865C1337.06 176.574 1337.58 177.283 1338.06 177.993C1338.55 178.683 1338.93 179.299 1339.21 179.84C1339.12 179.878 1338.96 179.962 1338.74 180.093C1338.51 180.242 1338.29 180.382 1338.06 180.512C1337.86 180.662 1337.72 180.764 1337.64 180.82ZM1316.06 180.876C1315.98 180.82 1315.83 180.718 1315.61 180.569C1315.4 180.419 1315.19 180.279 1314.96 180.149C1314.76 180.018 1314.61 179.934 1314.52 179.896C1314.98 179.523 1315.49 179.01 1316.03 178.356C1316.57 177.703 1317.08 177.022 1317.57 176.312C1318.05 175.584 1318.42 174.931 1318.66 174.352L1320.26 175.108C1319.73 176.135 1319.08 177.171 1318.3 178.216C1317.51 179.262 1316.76 180.148 1316.06 180.876ZM1329.78 180.681C1329.72 180.158 1329.61 179.533 1329.44 178.805C1329.29 178.058 1329.11 177.32 1328.91 176.592C1328.72 175.864 1328.54 175.267 1328.38 174.8L1329.97 174.352C1330.16 174.856 1330.35 175.463 1330.56 176.172C1330.76 176.863 1330.95 177.572 1331.12 178.3C1331.29 179.01 1331.41 179.663 1331.48 180.26C1331.41 180.26 1331.25 180.288 1331.01 180.344C1330.76 180.4 1330.52 180.456 1330.28 180.512C1330.04 180.587 1329.87 180.643 1329.78 180.681ZM1323.62 180.708C1323.6 180.242 1323.53 179.645 1323.42 178.917C1323.33 178.189 1323.21 177.47 1323.08 176.76C1322.95 176.051 1322.83 175.491 1322.72 175.08L1324.34 174.772C1324.51 175.295 1324.66 175.892 1324.79 176.564C1324.92 177.236 1325.03 177.908 1325.13 178.58C1325.22 179.234 1325.3 179.84 1325.35 180.4C1325.26 180.4 1325.09 180.419 1324.85 180.456C1324.6 180.512 1324.36 180.559 1324.12 180.597C1323.88 180.634 1323.71 180.671 1323.62 180.708Z" fill="white"/>
<path d="M1060.45 233.792C1060.44 233.699 1060.36 233.55 1060.23 233.344C1060.12 233.139 1059.99 232.934 1059.84 232.728C1059.71 232.523 1059.6 232.383 1059.5 232.308C1062.19 231.431 1064.22 230.068 1065.58 228.22C1066.96 226.354 1067.73 224.226 1067.87 221.836H1062.89V220.044H1077.93C1077.93 220.866 1077.9 221.762 1077.84 222.732C1077.79 223.703 1077.7 224.674 1077.59 225.644C1077.5 226.615 1077.38 227.539 1077.23 228.416C1077.08 229.275 1076.91 230.022 1076.72 230.656C1076.39 231.795 1075.88 232.57 1075.21 232.98C1074.56 233.391 1073.65 233.596 1072.49 233.596H1070.2C1070.18 233.335 1070.12 233.008 1070.03 232.616C1069.96 232.243 1069.87 231.963 1069.78 231.776H1072.33C1073.13 231.776 1073.71 231.655 1074.06 231.412C1074.42 231.17 1074.71 230.694 1074.93 229.984C1075.08 229.48 1075.22 228.883 1075.35 228.192C1075.48 227.483 1075.59 226.746 1075.69 225.98C1075.78 225.196 1075.85 224.44 1075.88 223.712C1075.94 222.984 1075.97 222.359 1075.97 221.836H1069.69C1069.6 223.554 1069.21 225.196 1068.52 226.764C1067.85 228.314 1066.85 229.704 1065.52 230.936C1064.2 232.15 1062.51 233.102 1060.45 233.792ZM1082.77 221.892C1081.37 221.108 1080.03 220.212 1078.74 219.204C1077.45 218.178 1076.33 217.02 1075.38 215.732C1074.45 214.426 1073.77 212.979 1073.36 211.392H1067.96V209.656H1074.82C1075.14 211.336 1075.75 212.848 1076.67 214.192C1077.58 215.518 1078.68 216.675 1079.97 217.664C1081.28 218.654 1082.66 219.503 1084.11 220.212C1084.04 220.287 1083.9 220.446 1083.69 220.688C1083.51 220.912 1083.32 221.146 1083.13 221.388C1082.95 221.612 1082.83 221.78 1082.77 221.892ZM1058.49 222.2C1058.44 222.107 1058.33 221.967 1058.16 221.78C1057.99 221.575 1057.81 221.37 1057.63 221.164C1057.46 220.959 1057.33 220.819 1057.23 220.744C1058.35 220.166 1059.47 219.4 1060.59 218.448C1061.71 217.478 1062.74 216.414 1063.67 215.256C1064.61 214.099 1065.35 212.932 1065.89 211.756L1067.62 212.54C1067.01 213.884 1066.21 215.154 1065.24 216.348C1064.27 217.543 1063.21 218.635 1062.05 219.624C1060.89 220.595 1059.71 221.454 1058.49 222.2Z" fill="white"/>
<path d="M1049.62 232.308C1047.64 232.308 1046.23 231.496 1045.39 229.872C1044.55 228.248 1044.13 225.682 1044.13 222.172C1044.13 218.682 1044.55 216.124 1045.39 214.5C1046.23 212.876 1047.64 212.064 1049.62 212.064C1051.62 212.064 1053.03 212.876 1053.85 214.5C1054.67 216.124 1055.08 218.682 1055.08 222.172C1055.08 225.682 1054.67 228.248 1053.85 229.872C1053.03 231.496 1051.62 232.308 1049.62 232.308ZM1049.62 230.712C1050.5 230.712 1051.22 230.451 1051.78 229.928C1052.36 229.387 1052.78 228.491 1053.04 227.24C1053.32 225.99 1053.46 224.3 1053.46 222.172C1053.46 220.063 1053.32 218.392 1053.04 217.16C1052.78 215.91 1052.36 215.023 1051.78 214.5C1051.22 213.959 1050.5 213.688 1049.62 213.688C1048.74 213.688 1048.02 213.959 1047.44 214.5C1046.88 215.023 1046.46 215.91 1046.18 217.16C1045.92 218.392 1045.78 220.063 1045.78 222.172C1045.78 224.3 1045.92 225.99 1046.18 227.24C1046.46 228.491 1046.88 229.387 1047.44 229.928C1048.02 230.451 1048.74 230.712 1049.62 230.712Z" fill="white"/>
<path d="M1035.46 232.308C1034.38 232.308 1033.42 232.066 1032.58 231.58C1031.74 231.095 1031.08 230.423 1030.59 229.564C1030.12 228.706 1029.89 227.716 1029.89 226.596C1029.89 225.402 1030.19 224.384 1030.79 223.544C1031.38 222.686 1032.14 222.051 1033.05 221.64C1032.25 221.23 1031.61 220.651 1031.12 219.904C1030.66 219.158 1030.42 218.28 1030.42 217.272C1030.42 216.246 1030.64 215.35 1031.07 214.584C1031.5 213.8 1032.08 213.184 1032.83 212.736C1033.6 212.288 1034.47 212.064 1035.46 212.064C1036.45 212.064 1037.32 212.288 1038.07 212.736C1038.83 213.184 1039.43 213.8 1039.86 214.584C1040.29 215.35 1040.5 216.246 1040.5 217.272C1040.5 218.28 1040.26 219.158 1039.77 219.904C1039.31 220.651 1038.67 221.23 1037.87 221.64C1038.8 222.051 1039.56 222.686 1040.14 223.544C1040.72 224.384 1041.01 225.402 1041.01 226.596C1041.01 227.716 1040.77 228.706 1040.31 229.564C1039.84 230.423 1039.19 231.095 1038.35 231.58C1037.53 232.066 1036.56 232.308 1035.46 232.308ZM1035.46 230.74C1036.62 230.74 1037.56 230.386 1038.29 229.676C1039.02 228.948 1039.38 227.912 1039.38 226.568C1039.38 225.243 1039.02 224.216 1038.29 223.488C1037.56 222.76 1036.62 222.396 1035.46 222.396C1034.32 222.396 1033.38 222.76 1032.63 223.488C1031.91 224.216 1031.54 225.243 1031.54 226.568C1031.54 227.912 1031.91 228.948 1032.63 229.676C1033.38 230.386 1034.32 230.74 1035.46 230.74ZM1035.46 220.968C1036.51 220.968 1037.33 220.642 1037.93 219.988C1038.54 219.316 1038.85 218.42 1038.85 217.3C1038.85 216.162 1038.53 215.275 1037.9 214.64C1037.28 214.006 1036.47 213.688 1035.46 213.688C1034.44 213.688 1033.61 214.006 1033 214.64C1032.38 215.275 1032.07 216.162 1032.07 217.3C1032.07 218.42 1032.37 219.316 1032.97 219.988C1033.59 220.642 1034.42 220.968 1035.46 220.968Z" fill="white"/>
<path d="M36.0287 285.12V263.945H46.8088C47.1354 263.198 47.4388 262.37 47.7188 261.46C47.9988 260.55 48.2438 259.687 48.4538 258.87H33.7188V256.875H65.3588V258.87H51.0088C50.7988 259.663 50.5421 260.527 50.2388 261.46C49.9354 262.37 49.6321 263.198 49.3288 263.945H63.0487V285.12H36.0287ZM55.2438 283.02H60.8088V265.975H55.2438V283.02ZM38.2337 283.02H43.7288V265.975H38.2337V283.02ZM45.9338 283.02H53.0738V278.61H45.9338V283.02ZM45.9338 270.315H53.0738V265.975H45.9338V270.315ZM45.9338 276.615H53.0738V272.31H45.9338V276.615Z" fill="#054965"/>
<path d="M34.6231 237.521C34.5765 237.404 34.4598 237.206 34.2731 236.926C34.1098 236.669 33.9348 236.401 33.7481 236.121C33.5848 235.841 33.4448 235.666 33.3281 235.596C37.7848 233.939 41.1915 231.326 43.5481 227.756C45.9281 224.163 47.1648 219.613 47.2581 214.106H33.6431V211.971H47.8531V205.881H50.2331V211.971H64.3731V214.106H49.6381C49.6148 215.016 49.5565 215.914 49.4631 216.801C49.3931 217.664 49.2881 218.516 49.1481 219.356H60.3131C60.2898 220.453 60.2198 221.654 60.1031 222.961C59.9865 224.244 59.8348 225.528 59.6481 226.811C59.4615 228.071 59.2515 229.261 59.0181 230.381C58.8081 231.501 58.5748 232.434 58.3181 233.181C57.9681 234.184 57.5598 234.966 57.0931 235.526C56.6265 236.086 56.0431 236.471 55.3431 236.681C54.6665 236.914 53.7915 237.031 52.7181 237.031H49.4281C49.4048 236.704 49.3348 236.296 49.2181 235.806C49.1015 235.316 48.9848 234.954 48.8681 234.721H52.4381C53.5348 234.721 54.3281 234.546 54.8181 234.196C55.3081 233.823 55.7048 233.204 56.0081 232.341C56.2415 231.664 56.4515 230.871 56.6381 229.961C56.8481 229.028 57.0231 228.048 57.1631 227.021C57.3265 225.994 57.4548 225.003 57.5481 224.046C57.6415 223.089 57.6998 222.249 57.7231 221.526H48.6931C47.8065 225.189 46.2315 228.374 43.9681 231.081C41.7048 233.788 38.5898 235.934 34.6231 237.521Z" fill="#054965"/>
<path d="M35.9938 187.05V167.59H44.7788V161.29H33.7188V159.26H65.2887V161.29H53.3538V167.59H63.0838V187.05H35.9938ZM38.1638 184.95H60.9138V169.655H53.3538V176.06C53.3538 176.433 53.4471 176.713 53.6338 176.9C53.8204 177.086 54.1704 177.18 54.6838 177.18H55.9788C56.6554 177.18 57.1688 177.086 57.5188 176.9C57.8688 176.69 58.1254 176.305 58.2888 175.745C58.4521 175.161 58.5804 174.31 58.6737 173.19C58.9538 173.33 59.2921 173.47 59.6887 173.61C60.1087 173.726 60.4471 173.831 60.7038 173.925C60.5638 175.441 60.3071 176.596 59.9338 177.39C59.5838 178.16 59.0938 178.673 58.4638 178.93C57.8571 179.186 57.0988 179.315 56.1888 179.315H54.0538C53.0737 179.315 52.3504 179.128 51.8838 178.755C51.4171 178.381 51.1838 177.763 51.1838 176.9V169.655H46.9138C46.8204 171.545 46.5404 173.178 46.0738 174.555C45.6071 175.908 44.8954 177.098 43.9388 178.125C42.9821 179.151 41.7221 180.143 40.1588 181.1C40.0888 180.983 39.9488 180.82 39.7388 180.61C39.5288 180.376 39.3071 180.155 39.0738 179.945C38.8637 179.735 38.7121 179.606 38.6188 179.56C40.0188 178.743 41.1504 177.903 42.0138 177.04C42.8771 176.176 43.5188 175.161 43.9388 173.995C44.3588 172.805 44.6154 171.358 44.7087 169.655H38.1638V184.95ZM46.9488 167.59H51.1838V161.29H46.9488V167.59Z" fill="#054965"/>
<path d="M58.0081 139.45C57.9848 139.147 57.9148 138.797 57.7981 138.4C57.7048 138.003 57.6115 137.677 57.5181 137.42C57.4715 137.513 57.4481 137.56 57.4481 137.56C55.3948 137.023 53.7498 136.183 52.5131 135.04C51.2765 133.897 50.2965 132.718 49.5731 131.505C48.9198 133.208 47.8815 134.585 46.4581 135.635C45.0581 136.662 43.2848 137.443 41.1381 137.98C41.0915 137.887 40.9981 137.7 40.8581 137.42C40.7181 137.163 40.5781 136.907 40.4381 136.65C40.2981 136.393 40.1815 136.218 40.0881 136.125C42.1181 135.705 43.7281 135.087 44.9181 134.27C46.1315 133.453 47.0065 132.368 47.5431 131.015H39.4931V129.23H48.0331C48.1265 128.833 48.1965 128.413 48.2431 127.97C48.2898 127.503 48.3131 127.013 48.3131 126.5H40.7181V124.75H52.4431L50.8331 124.015C51.0431 123.735 51.2881 123.35 51.5681 122.86C51.8481 122.347 52.1165 121.833 52.3731 121.32C52.6298 120.783 52.8165 120.352 52.9331 120.025L54.8931 120.725C54.6131 121.355 54.2398 122.067 53.7731 122.86C53.3065 123.653 52.8981 124.283 52.5481 124.75H57.9731V126.5H50.4831C50.4831 126.99 50.4598 127.468 50.4131 127.935C50.3665 128.378 50.2965 128.81 50.2031 129.23H59.1281V131.015H51.4281C52.1515 132.088 53.0848 133.022 54.2281 133.815C55.3715 134.585 56.8298 135.203 58.6031 135.67C58.5098 135.763 58.3465 135.997 58.1131 136.37C57.9031 136.72 57.7281 137.023 57.5881 137.28H60.2131C60.6798 137.28 61.0181 137.187 61.2281 137C61.4381 136.837 61.5431 136.533 61.5431 136.09V119.43H51.3931V109H63.7131V136.58C63.7131 137.513 63.4565 138.225 62.9431 138.715C62.4531 139.205 61.6598 139.45 60.5631 139.45H58.0081ZM35.3281 139.52V109H47.6131V119.43H37.4631V139.52H35.3281ZM53.5281 117.575H61.5431V114.985H53.5281V117.575ZM37.4631 117.575H45.4781V115.09H37.4631V117.575ZM37.4631 113.27H45.4781V110.855H37.4631V113.27ZM53.5281 113.27H61.5431V110.855H53.5281V113.27ZM46.1081 124.68C45.8748 124.237 45.5248 123.653 45.0581 122.93C44.6148 122.207 44.1715 121.588 43.7281 121.075L45.5131 120.165C45.8865 120.655 46.2948 121.262 46.7381 121.985C47.1815 122.685 47.5431 123.303 47.8231 123.84L46.1081 124.68Z" fill="#054965"/>
<path d="M1226.97 286.519C1226.88 286.449 1226.7 286.344 1226.45 286.204C1226.19 286.064 1225.93 285.924 1225.68 285.784C1225.44 285.644 1225.27 285.563 1225.15 285.539C1226.16 284.209 1226.91 282.646 1227.43 280.849C1227.96 279.053 1228.33 277.104 1228.51 275.004C1228.7 272.904 1228.79 270.746 1228.79 268.529V256.419H1241.53V268.529H1235.9C1236.22 271.843 1237.1 274.864 1238.52 277.594C1239.97 280.324 1241.79 282.634 1243.98 284.524C1243.89 284.571 1243.71 284.699 1243.46 284.909C1243.22 285.119 1242.99 285.329 1242.76 285.539C1242.52 285.773 1242.36 285.936 1242.27 286.029C1239.93 284.069 1238.04 281.596 1236.6 278.609C1235.15 275.623 1234.25 272.263 1233.9 268.529H1230.93C1230.93 270.699 1230.83 272.858 1230.65 275.004C1230.48 277.151 1230.12 279.204 1229.56 281.164C1229 283.124 1228.14 284.909 1226.97 286.519ZM1218.5 286.379C1218.46 286.099 1218.39 285.749 1218.29 285.329C1218.2 284.909 1218.11 284.594 1218.01 284.384H1220.29C1221.24 284.384 1221.89 284.244 1222.21 283.964C1222.56 283.661 1222.84 283.008 1223.05 282.004C1223.17 281.421 1223.29 280.698 1223.4 279.834C1223.52 278.971 1223.61 278.038 1223.68 277.034C1223.75 276.031 1223.79 275.039 1223.79 274.059H1213.32V256.279H1225.96V258.239H1221.13V261.494H1225.19V263.314H1221.13V266.534H1225.19V268.354H1221.13V272.134H1225.92C1225.92 274.094 1225.83 276.019 1225.64 277.909C1225.46 279.799 1225.23 281.374 1224.98 282.634C1224.67 284.128 1224.2 285.119 1223.54 285.609C1222.89 286.123 1221.87 286.379 1220.5 286.379H1218.5ZM1230.93 266.499H1239.4V258.414H1230.93V266.499ZM1215.35 272.134H1219.17V268.354H1215.35V272.134ZM1215.35 261.494H1219.17V258.239H1215.35V261.494ZM1215.35 266.534H1219.17V263.314H1215.35V266.534ZM1211.92 282.949C1211.99 282.483 1212.05 281.841 1212.1 281.024C1212.14 280.208 1212.18 279.403 1212.2 278.609C1212.25 277.793 1212.25 277.174 1212.2 276.754L1213.92 276.649C1213.94 277.093 1213.94 277.723 1213.92 278.539C1213.89 279.356 1213.86 280.173 1213.81 280.989C1213.79 281.806 1213.75 282.448 1213.71 282.914C1213.54 282.914 1213.25 282.914 1212.83 282.914C1212.41 282.914 1212.11 282.926 1211.92 282.949ZM1215.35 282.109C1215.38 281.666 1215.38 281.106 1215.35 280.429C1215.33 279.729 1215.29 279.041 1215.25 278.364C1215.2 277.688 1215.15 277.151 1215.11 276.754L1216.65 276.579C1216.72 276.999 1216.78 277.559 1216.82 278.259C1216.87 278.959 1216.9 279.648 1216.93 280.324C1216.97 281.001 1217 281.549 1217 281.969C1216.93 281.969 1216.78 281.981 1216.54 282.004C1216.31 282.028 1216.08 282.051 1215.84 282.074C1215.61 282.074 1215.45 282.086 1215.35 282.109ZM1218.43 281.409C1218.41 280.943 1218.35 280.394 1218.26 279.764C1218.19 279.134 1218.09 278.516 1217.98 277.909C1217.88 277.303 1217.78 276.801 1217.66 276.404L1219.13 276.194C1219.25 276.591 1219.35 277.104 1219.45 277.734C1219.56 278.364 1219.67 278.994 1219.76 279.624C1219.86 280.231 1219.91 280.733 1219.94 281.129C1219.89 281.129 1219.75 281.153 1219.52 281.199C1219.28 281.246 1219.05 281.293 1218.82 281.339C1218.61 281.363 1218.48 281.386 1218.43 281.409ZM1221.41 280.499C1221.31 279.823 1221.15 279.041 1220.92 278.154C1220.71 277.268 1220.49 276.521 1220.25 275.914L1221.69 275.564C1221.83 275.938 1221.97 276.404 1222.11 276.964C1222.27 277.524 1222.42 278.084 1222.56 278.644C1222.7 279.204 1222.81 279.683 1222.88 280.079C1222.83 280.079 1222.69 280.114 1222.46 280.184C1222.25 280.254 1222.03 280.324 1221.79 280.394C1221.58 280.441 1221.45 280.476 1221.41 280.499Z" fill="#054965"/>
<path d="M1230.82 237.519C1230.75 237.449 1230.59 237.321 1230.33 237.134C1230.1 236.948 1229.86 236.761 1229.6 236.574C1229.34 236.411 1229.16 236.306 1229.04 236.259C1230.02 235.233 1230.81 234.078 1231.42 232.794C1232.05 231.511 1232.52 229.994 1232.82 228.244C1233.12 226.494 1233.27 224.418 1233.27 222.014V207.139H1242.06V234.614C1242.06 236.434 1241.04 237.344 1239.01 237.344H1236.53C1236.51 237.064 1236.44 236.703 1236.32 236.259C1236.2 235.816 1236.1 235.489 1236 235.279H1238.7C1239.17 235.279 1239.49 235.186 1239.68 234.999C1239.89 234.836 1239.99 234.533 1239.99 234.089V225.304H1235.23C1235.07 227.988 1234.63 230.321 1233.9 232.304C1233.2 234.288 1232.18 236.026 1230.82 237.519ZM1220.67 232.864V221.699H1224.52V215.364H1218.92V213.334H1224.52V206.439H1226.59V213.334H1231.8V215.364H1226.59V221.699H1230.4V232.864H1220.67ZM1222.74 230.799H1228.34V223.729H1222.74V230.799ZM1235.34 223.309H1239.99V217.149H1235.34V223.309ZM1235.34 215.119H1239.99V209.134H1235.34V215.119ZM1213.43 236.294L1211.5 235.174C1211.95 234.544 1212.45 233.728 1213.01 232.724C1213.57 231.721 1214.12 230.659 1214.65 229.539C1215.21 228.419 1215.72 227.334 1216.16 226.284C1216.6 225.234 1216.94 224.348 1217.17 223.624C1217.29 223.694 1217.47 223.823 1217.7 224.009C1217.93 224.196 1218.17 224.383 1218.4 224.569C1218.63 224.756 1218.8 224.873 1218.89 224.919C1218.7 225.549 1218.39 226.366 1217.94 227.369C1217.52 228.373 1217.03 229.446 1216.47 230.589C1215.94 231.709 1215.39 232.783 1214.83 233.809C1214.29 234.813 1213.83 235.641 1213.43 236.294ZM1216.68 219.844C1216.26 219.448 1215.75 219.028 1215.14 218.584C1214.54 218.118 1213.91 217.686 1213.25 217.289C1212.6 216.869 1212.01 216.543 1211.47 216.309L1212.59 214.699C1213.41 215.096 1214.33 215.621 1215.35 216.274C1216.4 216.928 1217.28 217.558 1217.98 218.164C1217.91 218.234 1217.78 218.386 1217.59 218.619C1217.41 218.853 1217.22 219.098 1217.03 219.354C1216.85 219.588 1216.73 219.751 1216.68 219.844ZM1218.15 212.144C1217.76 211.748 1217.26 211.328 1216.65 210.884C1216.04 210.418 1215.41 209.986 1214.76 209.589C1214.11 209.169 1213.51 208.843 1212.97 208.609L1214.16 207.034C1214.68 207.291 1215.26 207.618 1215.91 208.014C1216.59 208.411 1217.24 208.831 1217.87 209.274C1218.53 209.718 1219.08 210.149 1219.52 210.569C1219.45 210.639 1219.31 210.791 1219.1 211.024C1218.91 211.234 1218.73 211.456 1218.54 211.689C1218.35 211.899 1218.22 212.051 1218.15 212.144Z" fill="#054965"/>
<path d="M1215.28 184.285V161.115H1239.71V184.285H1215.28ZM1217.66 182.115H1237.33V163.285H1217.66V182.115Z" fill="#054965"/>
<path d="M1222.85 129.65V117.47H1232.75V129.65H1222.85ZM1232.75 139.31C1232.71 138.983 1232.62 138.587 1232.51 138.12C1232.41 137.677 1232.31 137.327 1232.19 137.07H1236.15C1236.64 137.07 1236.99 136.988 1237.2 136.825C1237.41 136.638 1237.51 136.312 1237.51 135.845V112.64H1221.24V110.505H1243.36V112.64H1239.79V136.44C1239.79 138.353 1238.71 139.31 1236.57 139.31H1232.75ZM1224.98 127.585H1230.62V119.535H1224.98V127.585ZM1213.61 138.61L1211.75 137.105C1212.24 136.498 1212.8 135.717 1213.43 134.76C1214.06 133.803 1214.69 132.777 1215.32 131.68C1215.95 130.56 1216.52 129.487 1217.04 128.46C1217.57 127.433 1217.98 126.57 1218.26 125.87C1218.36 125.963 1218.52 126.127 1218.75 126.36C1218.99 126.57 1219.22 126.78 1219.45 126.99C1219.71 127.177 1219.88 127.305 1219.98 127.375C1219.74 128.005 1219.36 128.822 1218.82 129.825C1218.31 130.828 1217.74 131.89 1217.11 133.01C1216.48 134.13 1215.85 135.192 1215.22 136.195C1214.59 137.198 1214.05 138.003 1213.61 138.61ZM1219.24 114.74C1218.82 114.343 1218.24 113.877 1217.49 113.34C1216.77 112.803 1216.02 112.29 1215.25 111.8C1214.48 111.31 1213.82 110.948 1213.26 110.715L1214.45 109C1215.03 109.257 1215.71 109.618 1216.48 110.085C1217.27 110.528 1218.04 111.007 1218.79 111.52C1219.53 112.033 1220.13 112.512 1220.57 112.955C1220.5 113.025 1220.36 113.188 1220.15 113.445C1219.97 113.702 1219.78 113.958 1219.59 114.215C1219.41 114.472 1219.29 114.647 1219.24 114.74ZM1217.39 122.51C1216.97 122.113 1216.38 121.647 1215.64 121.11C1214.91 120.573 1214.17 120.06 1213.4 119.57C1212.63 119.08 1211.97 118.718 1211.44 118.485L1212.59 116.735C1213.2 117.015 1213.89 117.377 1214.66 117.82C1215.43 118.263 1216.17 118.742 1216.9 119.255C1217.62 119.768 1218.22 120.258 1218.68 120.725C1218.64 120.795 1218.51 120.958 1218.3 121.215C1218.11 121.472 1217.92 121.728 1217.74 121.985C1217.55 122.242 1217.43 122.417 1217.39 122.51Z" fill="#054965"/>
<path d="M1562.74 284.454C1560.19 284.454 1558.19 283.754 1556.72 282.354C1555.25 280.954 1554.51 278.936 1554.51 276.299C1554.51 274.619 1554.77 272.963 1555.28 271.329C1555.79 269.673 1556.46 268.074 1557.28 266.534C1558.12 264.994 1559 263.548 1559.94 262.194C1558.65 262.824 1557.31 263.314 1555.91 263.664C1554.53 264.014 1553.37 264.248 1552.41 264.364L1551.78 262.299C1552.57 262.253 1553.48 262.124 1554.51 261.914C1555.54 261.681 1556.56 261.389 1557.59 261.039C1558.62 260.689 1559.55 260.281 1560.39 259.814C1561.25 259.348 1561.92 258.834 1562.39 258.274L1564.14 259.744C1562.92 261.214 1561.74 262.859 1560.6 264.679C1559.48 266.476 1558.55 268.354 1557.8 270.314C1557.08 272.274 1556.72 274.246 1556.72 276.229C1556.72 278.143 1557.24 279.613 1558.29 280.639C1559.36 281.666 1560.85 282.179 1562.74 282.179C1564.28 282.179 1565.61 281.759 1566.73 280.919C1567.87 280.079 1568.79 278.913 1569.49 277.419C1570.19 275.926 1570.66 274.176 1570.89 272.169C1571.15 270.163 1571.16 267.981 1570.93 265.624C1570.69 263.244 1570.19 260.783 1569.42 258.239L1571.59 257.574C1571.92 258.974 1572.41 260.293 1573.06 261.529C1573.74 262.743 1574.48 263.863 1575.3 264.889C1576.14 265.893 1576.99 266.779 1577.86 267.549C1578.72 268.296 1579.52 268.879 1580.27 269.299C1580.06 269.533 1579.83 269.871 1579.57 270.314C1579.34 270.734 1579.16 271.096 1579.05 271.399C1578.14 270.816 1577.11 269.929 1575.97 268.739C1574.82 267.549 1573.75 266.126 1572.75 264.469C1573.12 267.153 1573.2 269.708 1572.99 272.134C1572.78 274.538 1572.27 276.661 1571.45 278.504C1570.63 280.348 1569.5 281.806 1568.06 282.879C1566.61 283.929 1564.84 284.454 1562.74 284.454ZM1581.32 259.884C1580.99 259.418 1580.55 258.916 1579.99 258.379C1579.45 257.843 1578.89 257.318 1578.31 256.804C1577.75 256.291 1577.24 255.883 1576.77 255.579L1577.93 254.529C1578.35 254.809 1578.85 255.218 1579.43 255.754C1580.04 256.291 1580.63 256.839 1581.22 257.399C1581.8 257.959 1582.24 258.426 1582.55 258.799L1581.32 259.884ZM1578.66 262.509C1578.33 262.043 1577.9 261.529 1577.37 260.969C1576.85 260.409 1576.32 259.873 1575.76 259.359C1575.2 258.823 1574.69 258.403 1574.25 258.099L1575.41 257.049C1575.8 257.353 1576.29 257.784 1576.88 258.344C1577.48 258.881 1578.07 259.441 1578.63 260.024C1579.19 260.584 1579.61 261.063 1579.89 261.459L1578.66 262.509Z" fill="white"/>
<path d="M1566.44 235.105C1564.08 235.105 1562.35 234.685 1561.23 233.845C1560.11 232.981 1559.55 231.92 1559.55 230.66C1559.55 229.866 1559.74 229.201 1560.14 228.665C1560.54 228.105 1561.05 227.685 1561.68 227.405C1562.31 227.101 1562.98 226.95 1563.68 226.95C1565.03 226.95 1566.16 227.475 1567.07 228.525C1568 229.575 1568.52 230.951 1568.61 232.655C1569.96 232.328 1571.13 231.663 1572.11 230.66C1573.09 229.656 1573.58 228.338 1573.58 226.705C1573.58 225.538 1573.31 224.523 1572.78 223.66C1572.26 222.796 1571.54 222.131 1570.61 221.665C1569.7 221.175 1568.65 220.93 1567.46 220.93C1565.92 220.93 1564.46 221.175 1563.08 221.665C1561.73 222.131 1560.48 222.855 1559.34 223.835C1558.94 224.185 1558.38 224.651 1557.66 225.235C1556.93 225.818 1556.29 226.32 1555.73 226.74L1554.23 225.095C1555.39 224.395 1556.63 223.496 1557.94 222.4C1559.24 221.28 1560.55 220.055 1561.86 218.725C1563.16 217.395 1564.39 216.03 1565.53 214.63C1566.67 213.23 1567.64 211.876 1568.44 210.57C1567.74 210.733 1566.91 210.908 1565.95 211.095C1565.02 211.281 1564.04 211.456 1563.01 211.62C1561.98 211.76 1561 211.888 1560.07 212.005C1559.14 212.121 1558.32 212.203 1557.62 212.25L1557.24 210.08C1557.87 210.103 1558.65 210.08 1559.58 210.01C1560.51 209.94 1561.51 209.846 1562.56 209.73C1563.61 209.613 1564.62 209.473 1565.6 209.31C1566.6 209.146 1567.49 208.971 1568.26 208.785C1569.03 208.598 1569.6 208.423 1569.98 208.26L1571.62 209.415C1571.08 210.511 1570.36 211.678 1569.45 212.915C1568.56 214.151 1567.58 215.4 1566.51 216.66C1565.44 217.896 1564.33 219.086 1563.19 220.23C1563.86 219.903 1564.61 219.635 1565.43 219.425C1566.27 219.191 1567.05 219.075 1567.77 219.075C1569.33 219.075 1570.72 219.401 1571.94 220.055C1573.17 220.685 1574.14 221.571 1574.84 222.715C1575.54 223.858 1575.89 225.188 1575.89 226.705C1575.89 228.338 1575.48 229.785 1574.67 231.045C1573.85 232.305 1572.73 233.296 1571.31 234.02C1569.88 234.743 1568.26 235.105 1566.44 235.105ZM1566.13 233.005H1566.55C1566.52 231.791 1566.24 230.811 1565.71 230.065C1565.17 229.318 1564.49 228.945 1563.68 228.945C1563.09 228.945 1562.6 229.096 1562.21 229.4C1561.83 229.68 1561.65 230.088 1561.65 230.625C1561.65 231.278 1561.98 231.838 1562.66 232.305C1563.36 232.748 1564.52 232.981 1566.13 233.005Z" fill="white"/>
<path d="M1559.27 187.156V175.711C1558.15 176.691 1557.09 177.694 1556.09 178.721C1555.11 179.747 1554.21 180.727 1553.39 181.661L1551.64 180.121C1552.81 179.047 1554.03 177.904 1555.32 176.691C1556.6 175.477 1557.92 174.311 1559.27 173.191V167.486C1558.15 167.719 1557 167.941 1555.81 168.151C1554.62 168.361 1553.67 168.512 1552.97 168.606L1552.52 166.471C1552.94 166.447 1553.52 166.389 1554.27 166.296C1555.04 166.202 1555.86 166.074 1556.75 165.911C1557.64 165.747 1558.48 165.584 1559.27 165.421V158.596H1561.41V164.931C1561.52 164.884 1561.62 164.849 1561.69 164.826C1561.76 164.802 1561.83 164.779 1561.9 164.756L1563.33 165.736L1561.41 170.776V171.546C1562.99 170.402 1564.58 169.469 1566.17 168.746C1567.78 167.999 1569.36 167.626 1570.93 167.626C1572.49 167.626 1573.9 167.917 1575.16 168.501C1576.42 169.061 1577.41 169.924 1578.14 171.091C1578.88 172.234 1579.26 173.681 1579.26 175.431C1579.26 177.834 1578.35 179.911 1576.53 181.661C1574.73 183.387 1572.12 184.612 1568.69 185.336C1568.59 185.032 1568.43 184.659 1568.2 184.216C1567.96 183.772 1567.74 183.434 1567.53 183.201C1569.4 182.897 1571.04 182.384 1572.47 181.661C1573.89 180.937 1575 180.051 1575.79 179.001C1576.61 177.951 1577.02 176.761 1577.02 175.431C1577.02 173.354 1576.44 171.872 1575.3 170.986C1574.16 170.099 1572.7 169.656 1570.93 169.656C1569.46 169.656 1567.89 170.064 1566.24 170.881C1564.6 171.697 1562.99 172.724 1561.41 173.961V187.156H1559.27Z" fill="white"/>
<path d="M1569.73 139.275C1569.33 138.505 1568.8 137.63 1568.12 136.65C1567.47 135.647 1566.74 134.597 1565.95 133.5C1565.16 132.404 1564.33 131.319 1563.47 130.245C1562.63 129.172 1561.81 128.18 1561.02 127.27C1560.25 126.337 1559.55 125.555 1558.92 124.925C1558.12 124.132 1557.73 123.467 1557.73 122.93C1557.75 122.37 1558.19 121.694 1559.06 120.9C1559.85 120.154 1560.74 119.255 1561.72 118.205C1562.72 117.155 1563.72 116.047 1564.73 114.88C1565.73 113.714 1566.64 112.594 1567.46 111.52C1568.27 110.424 1568.89 109.467 1569.31 108.65L1571.38 110.05C1570.86 110.844 1570.19 111.777 1569.35 112.85C1568.51 113.9 1567.58 114.985 1566.58 116.105C1565.58 117.225 1564.59 118.299 1563.61 119.325C1562.65 120.352 1561.79 121.227 1561.02 121.95C1560.62 122.3 1560.42 122.639 1560.42 122.965C1560.42 123.269 1560.61 123.619 1560.98 124.015C1561.63 124.669 1562.36 125.462 1563.15 126.395C1563.94 127.305 1564.76 128.285 1565.6 129.335C1566.44 130.362 1567.26 131.4 1568.05 132.45C1568.84 133.5 1569.57 134.492 1570.22 135.425C1570.87 136.335 1571.41 137.129 1571.83 137.805C1571.69 137.852 1571.47 137.98 1571.17 138.19C1570.86 138.4 1570.57 138.61 1570.29 138.82C1570.01 139.03 1569.82 139.182 1569.73 139.275Z" fill="white"/>
<path d="M882.972 262.519C882.879 262.449 882.704 262.344 882.447 262.204C882.19 262.064 881.934 261.924 881.677 261.784C881.444 261.644 881.269 261.563 881.152 261.539C882.155 260.209 882.914 258.646 883.427 256.849C883.964 255.053 884.325 253.104 884.512 251.004C884.699 248.904 884.792 246.746 884.792 244.529V232.419H897.532V244.529H891.897C892.224 247.843 893.099 250.864 894.522 253.594C895.969 256.324 897.789 258.634 899.982 260.524C899.889 260.571 899.714 260.699 899.457 260.909C899.224 261.119 898.99 261.329 898.757 261.539C898.524 261.773 898.36 261.936 898.267 262.029C895.934 260.069 894.044 257.596 892.597 254.609C891.15 251.623 890.252 248.263 889.902 244.529H886.927C886.927 246.699 886.834 248.858 886.647 251.004C886.484 253.151 886.122 255.204 885.562 257.164C885.002 259.124 884.139 260.909 882.972 262.519ZM874.502 262.379C874.455 262.099 874.385 261.749 874.292 261.329C874.199 260.909 874.105 260.594 874.012 260.384H876.287C877.244 260.384 877.885 260.244 878.212 259.964C878.562 259.661 878.842 259.008 879.052 258.004C879.169 257.421 879.285 256.698 879.402 255.834C879.519 254.971 879.612 254.038 879.682 253.034C879.752 252.031 879.787 251.039 879.787 250.059H869.322V232.279H881.957V234.239H877.127V237.494H881.187V239.314H877.127V242.534H881.187V244.354H877.127V248.134H881.922C881.922 250.094 881.829 252.019 881.642 253.909C881.455 255.799 881.234 257.374 880.977 258.634C880.674 260.128 880.195 261.119 879.542 261.609C878.889 262.123 877.874 262.379 876.497 262.379H874.502ZM886.927 242.499H895.397V234.414H886.927V242.499ZM871.352 248.134H875.167V244.354H871.352V248.134ZM871.352 237.494H875.167V234.239H871.352V237.494ZM871.352 242.534H875.167V239.314H871.352V242.534ZM867.922 258.949C867.992 258.483 868.05 257.841 868.097 257.024C868.144 256.208 868.179 255.403 868.202 254.609C868.249 253.793 868.249 253.174 868.202 252.754L869.917 252.649C869.94 253.093 869.94 253.723 869.917 254.539C869.894 255.356 869.859 256.173 869.812 256.989C869.789 257.806 869.754 258.448 869.707 258.914C869.544 258.914 869.252 258.914 868.832 258.914C868.412 258.914 868.109 258.926 867.922 258.949ZM871.352 258.109C871.375 257.666 871.375 257.106 871.352 256.429C871.329 255.729 871.294 255.041 871.247 254.364C871.2 253.688 871.154 253.151 871.107 252.754L872.647 252.579C872.717 252.999 872.775 253.559 872.822 254.259C872.869 254.959 872.904 255.648 872.927 256.324C872.974 257.001 872.997 257.549 872.997 257.969C872.927 257.969 872.775 257.981 872.542 258.004C872.309 258.028 872.075 258.051 871.842 258.074C871.609 258.074 871.445 258.086 871.352 258.109ZM874.432 257.409C874.409 256.943 874.35 256.394 874.257 255.764C874.187 255.134 874.094 254.516 873.977 253.909C873.884 253.303 873.779 252.801 873.662 252.404L875.132 252.194C875.249 252.591 875.354 253.104 875.447 253.734C875.564 254.364 875.669 254.994 875.762 255.624C875.855 256.231 875.914 256.733 875.937 257.129C875.89 257.129 875.75 257.153 875.517 257.199C875.284 257.246 875.05 257.293 874.817 257.339C874.607 257.363 874.479 257.386 874.432 257.409ZM877.407 256.499C877.314 255.823 877.15 255.041 876.917 254.154C876.707 253.268 876.485 252.521 876.252 251.914L877.687 251.564C877.827 251.938 877.967 252.404 878.107 252.964C878.27 253.524 878.422 254.084 878.562 254.644C878.702 255.204 878.807 255.683 878.877 256.079C878.83 256.079 878.69 256.114 878.457 256.184C878.247 256.254 878.025 256.324 877.792 256.394C877.582 256.441 877.454 256.476 877.407 256.499Z" fill="#054965"/>
<path d="M889.274 213.694C889.251 213.368 889.181 212.971 889.064 212.504C888.971 212.038 888.866 211.688 888.749 211.454H891.374C892.051 211.454 892.553 211.384 892.879 211.244C893.206 211.128 893.451 210.906 893.614 210.579C893.778 210.229 893.929 209.728 894.069 209.074C894.163 208.654 894.244 208.153 894.314 207.569C894.408 206.963 894.478 206.356 894.524 205.749C894.594 205.143 894.641 204.641 894.664 204.244H879.474V209.529H885.144V205.469H887.314V211.384H869.359V205.469H871.564V209.529H877.234V204.244H872.964V184.994H880.139C880.326 184.458 880.536 183.863 880.769 183.209C881.003 182.533 881.189 181.973 881.329 181.529L883.814 181.774C883.651 182.241 883.464 182.789 883.254 183.419C883.044 184.026 882.846 184.551 882.659 184.994H892.844V195.564H875.309V197.874H898.759V199.799H875.309V202.354H897.079C897.056 203.474 896.986 204.711 896.869 206.064C896.753 207.394 896.589 208.643 896.379 209.809C896.193 210.836 895.913 211.629 895.539 212.189C895.166 212.773 894.664 213.169 894.034 213.379C893.428 213.589 892.623 213.694 891.619 213.694H889.274ZM875.309 193.709H890.534V191.154H875.309V193.709ZM875.309 189.334H890.534V186.849H875.309V189.334Z" fill="#054965"/>
<path d="M868.062 161.439V159.164H898.898V161.439H868.062ZM870.513 138.234V135.994H896.587V138.234H870.513ZM872.158 149.434V147.229H894.873V149.434H872.158Z" fill="#054965"/>
</svg>
