<svg width="212" height="173" viewBox="0 0 212 173" fill="none" xmlns="http://www.w3.org/2000/svg">
<path d="M120.297 150.606L119.879 149.22C120.333 149.161 120.927 149.051 121.661 148.89C122.409 148.728 123.208 148.552 124.059 148.362V141.278C123.164 142.114 122.218 142.891 121.221 143.61C120.238 144.314 119.248 144.922 118.251 145.436C118.207 145.348 118.119 145.223 117.987 145.062C117.869 144.886 117.745 144.717 117.613 144.556C117.481 144.394 117.378 144.292 117.305 144.248C118.155 143.866 119.035 143.368 119.945 142.752C120.854 142.121 121.734 141.432 122.585 140.684C123.435 139.921 124.205 139.151 124.895 138.374C125.599 137.582 126.163 136.826 126.589 136.108H118.097V134.81H127.227V130.806H128.701V134.81H137.611V136.108H129.405C129.566 137.032 129.779 137.919 130.043 138.77C130.307 139.606 130.6 140.405 130.923 141.168C131.407 140.889 131.92 140.566 132.463 140.2C133.02 139.818 133.555 139.437 134.069 139.056C134.582 138.66 135 138.315 135.323 138.022L136.335 139.1C135.909 139.437 135.411 139.811 134.839 140.222C134.267 140.632 133.687 141.028 133.101 141.41C132.514 141.791 131.986 142.106 131.517 142.356C132.323 143.852 133.284 145.164 134.399 146.294C135.513 147.408 136.738 148.332 138.073 149.066C137.999 149.11 137.882 149.212 137.721 149.374C137.574 149.55 137.427 149.718 137.281 149.88C137.134 150.056 137.024 150.188 136.951 150.276C134.604 148.794 132.683 146.902 131.187 144.6C129.705 142.282 128.686 139.488 128.129 136.218C127.777 136.848 127.373 137.464 126.919 138.066C126.479 138.667 125.995 139.261 125.467 139.848V148.01C126.508 147.746 127.491 147.489 128.415 147.24C129.339 146.976 130.05 146.763 130.549 146.602L130.527 147.966C130.116 148.112 129.573 148.281 128.899 148.472C128.239 148.662 127.513 148.86 126.721 149.066C125.943 149.286 125.151 149.491 124.345 149.682C123.538 149.887 122.783 150.07 122.079 150.232C121.375 150.393 120.781 150.518 120.297 150.606Z" fill="#026995"/>
<path d="M98.692 150.628C98.6627 150.438 98.6113 150.203 98.538 149.924C98.4793 149.66 98.4207 149.455 98.362 149.308H100.056C100.349 149.308 100.562 149.25 100.694 149.132C100.826 149.03 100.892 148.839 100.892 148.56V142.004C100.393 142.914 99.8213 143.801 99.176 144.666C98.5453 145.517 97.9073 146.272 97.262 146.932C97.218 146.874 97.1227 146.778 96.976 146.646C96.844 146.514 96.7047 146.39 96.558 146.272C96.426 146.155 96.3233 146.082 96.25 146.052C96.8367 145.495 97.4307 144.82 98.032 144.028C98.6333 143.236 99.1833 142.422 99.682 141.586C100.195 140.75 100.599 139.988 100.892 139.298H96.558V138.132H102.52C102.183 137.81 101.772 137.458 101.288 137.076C100.804 136.68 100.313 136.306 99.814 135.954C99.3153 135.588 98.868 135.294 98.472 135.074L99.264 134.128C99.5427 134.29 99.8433 134.488 100.166 134.722C100.503 134.942 100.841 135.177 101.178 135.426C101.427 135.162 101.706 134.869 102.014 134.546C102.322 134.224 102.623 133.908 102.916 133.6C103.209 133.292 103.451 133.028 103.642 132.808H97.35V131.642H105.182L105.71 132.104C105.461 132.427 105.116 132.838 104.676 133.336C104.251 133.835 103.803 134.334 103.334 134.832C102.879 135.331 102.469 135.764 102.102 136.13C102.366 136.336 102.615 136.541 102.85 136.746C103.085 136.937 103.29 137.113 103.466 137.274C103.422 137.333 103.312 137.458 103.136 137.648C102.975 137.839 102.843 138 102.74 138.132H105.358L105.93 138.484C105.827 138.763 105.681 139.122 105.49 139.562C105.299 140.002 105.087 140.472 104.852 140.97C104.617 141.469 104.383 141.938 104.148 142.378C103.928 142.818 103.723 143.178 103.532 143.456C103.473 143.427 103.363 143.376 103.202 143.302C103.055 143.229 102.901 143.156 102.74 143.082C102.593 143.009 102.491 142.965 102.432 142.95C102.652 142.613 102.879 142.21 103.114 141.74C103.363 141.256 103.598 140.787 103.818 140.332C104.038 139.878 104.199 139.533 104.302 139.298H102.234V148.868C102.234 149.396 102.073 149.822 101.75 150.144C101.442 150.467 100.951 150.628 100.276 150.628H98.692ZM105.798 141.828C105.754 141.726 105.659 141.535 105.512 141.256C105.365 140.978 105.255 140.787 105.182 140.684C107.177 140.024 108.775 139.137 109.978 138.022C109.069 137.157 108.291 136.16 107.646 135.03C107.323 135.456 106.993 135.859 106.656 136.24C106.333 136.607 106.003 136.937 105.666 137.23C105.563 137.113 105.409 136.974 105.204 136.812C104.999 136.636 104.837 136.512 104.72 136.438C105.277 135.984 105.813 135.419 106.326 134.744C106.854 134.07 107.323 133.373 107.734 132.654C108.159 131.921 108.482 131.239 108.702 130.608L109.934 130.96C109.817 131.283 109.67 131.62 109.494 131.972C109.333 132.324 109.149 132.676 108.944 133.028H116.072V134.26H113.938C113.381 135.698 112.684 136.922 111.848 137.934C112.567 138.448 113.337 138.91 114.158 139.32C114.979 139.716 115.823 140.054 116.688 140.332C116.644 140.391 116.571 140.508 116.468 140.684C116.38 140.846 116.292 141.014 116.204 141.19C116.131 141.352 116.079 141.469 116.05 141.542C114.187 140.956 112.493 140.068 110.968 138.88C109.707 140.054 107.983 141.036 105.798 141.828ZM104.566 150.628C104.537 150.555 104.471 150.43 104.368 150.254C104.28 150.093 104.185 149.924 104.082 149.748C103.979 149.572 103.899 149.462 103.84 149.418C105.497 148.993 106.707 148.326 107.47 147.416C108.247 146.492 108.761 145.363 109.01 144.028H105.204V142.796H109.186C109.215 142.444 109.237 142.085 109.252 141.718C109.267 141.352 109.274 140.978 109.274 140.596L110.638 140.662C110.623 141.396 110.579 142.107 110.506 142.796H115.302C115.287 143.735 115.236 144.696 115.148 145.678C115.06 146.661 114.95 147.519 114.818 148.252C114.627 149.206 114.305 149.829 113.85 150.122C113.41 150.43 112.779 150.584 111.958 150.584H110.484C110.469 150.408 110.425 150.181 110.352 149.902C110.279 149.624 110.213 149.411 110.154 149.264H111.782C112.339 149.264 112.728 149.176 112.948 149C113.168 148.81 113.344 148.414 113.476 147.812C113.593 147.343 113.681 146.778 113.74 146.118C113.799 145.444 113.835 144.747 113.85 144.028H110.352C110.176 145.114 109.868 146.082 109.428 146.932C109.003 147.783 108.401 148.509 107.624 149.11C106.847 149.726 105.827 150.232 104.566 150.628ZM110.858 137.12C111.195 136.695 111.503 136.248 111.782 135.778C112.075 135.309 112.325 134.803 112.53 134.26H108.57C109.157 135.331 109.919 136.284 110.858 137.12Z" fill="#026995"/>
<path d="M86.9004 150.562V136.504H85.0524C84.5097 137.457 83.9304 138.366 83.3144 139.232C82.713 140.082 82.119 140.808 81.5324 141.41C81.415 141.278 81.2464 141.131 81.0264 140.97C80.821 140.808 80.6377 140.691 80.4764 140.618C80.9017 140.222 81.349 139.716 81.8184 139.1C82.2877 138.469 82.7424 137.787 83.1824 137.054C83.637 136.306 84.0624 135.55 84.4584 134.788C84.8544 134.025 85.1917 133.299 85.4704 132.61C85.7637 131.92 85.969 131.319 86.0864 130.806L87.4504 131.202C87.2597 131.818 87.0177 132.463 86.7244 133.138C86.4457 133.812 86.1304 134.487 85.7784 135.162H94.8204V136.504H88.2864V139.892H94.0064V141.212H88.2864V144.578H94.1604V145.92H88.2864V150.562H86.9004ZM78.7604 150.606V137.846C77.7484 139.342 76.7437 140.581 75.7464 141.564C75.629 141.417 75.4677 141.256 75.2624 141.08C75.057 140.904 74.881 140.772 74.7344 140.684C75.1744 140.302 75.6364 139.811 76.1204 139.21C76.619 138.594 77.1104 137.919 77.5944 137.186C78.093 136.438 78.555 135.69 78.9804 134.942C79.4057 134.179 79.7724 133.453 80.0804 132.764C80.403 132.074 80.6377 131.48 80.7844 130.982L82.1044 131.444C81.8844 132.089 81.6057 132.764 81.2684 133.468C80.931 134.172 80.557 134.883 80.1464 135.602V150.606H78.7604Z" fill="#026995"/>
<path d="M202 171V173H10V171H202ZM210 163V10C210 5.58172 206.418 2 202 2H10C5.58172 2 2 5.58172 2 10V163C2 167.418 5.58172 171 10 171V173L9.48535 172.987C4.20167 172.719 0 168.35 0 163V10C0 4.47715 4.47715 8.05322e-08 10 0H202C207.523 0 212 4.47715 212 10V163C212 168.35 207.798 172.719 202.515 172.987L202 173V171C206.418 171 210 167.418 210 163Z" fill="#026995"/>
<path d="M138.827 92.8896H104.829L99.6485 103.988H128.916C134.373 103.988 138.827 99.4872 138.827 93.9043V92.8896ZM140.827 93.9043C140.827 100.562 135.508 105.988 128.916 105.988H98.0782C97.7364 105.988 97.4181 105.814 97.2345 105.525C97.051 105.237 97.0275 104.875 97.172 104.565L103.286 91.4668L103.357 91.3408C103.54 91.062 103.853 90.8896 104.192 90.8896H139.827C140.379 90.8898 140.827 91.3374 140.827 91.8896V93.9043Z" fill="#026995"/>
<path d="M93.6973 90.9244C94.155 91.026 94.4805 91.4322 94.4805 91.901V91.9137C94.4805 92.0994 94.4281 92.2725 94.3398 92.4215L88.2725 105.422C88.1081 105.774 87.7547 106 87.3662 106H81.457C74.8658 105.999 69.5471 100.573 69.5469 93.9156V91.901C69.5469 91.6108 69.6731 91.3351 69.8926 91.1451C70.1121 90.9552 70.4032 90.8701 70.6904 90.9117C70.6891 90.9115 70.6964 90.9119 70.7178 90.9127C70.7413 90.9136 70.7679 90.9137 70.8154 90.9137H93.333C93.4516 90.8959 93.5747 90.8972 93.6973 90.9244ZM71.5469 93.9156C71.5471 99.4985 76 103.999 81.457 104H86.7305L91.9043 92.9137H71.5469V93.9156Z" fill="#026995"/>
<path d="M119.088 36L119.215 36.0078C119.507 36.0452 119.77 36.2108 119.931 36.4629C120.114 36.7511 120.139 37.1131 119.994 37.4229L106.615 66.1064C106.601 66.1534 106.585 66.2 106.563 66.2451L101.412 77.2852L102.063 78.6973C102.206 79.0069 102.181 79.3682 101.997 79.6553C101.813 79.9421 101.496 80.1152 101.155 80.1152H70.8154C70.7679 80.1152 70.7413 80.1154 70.7178 80.1162C70.6967 80.117 70.6893 80.1183 70.6904 80.1182C70.4032 80.1598 70.1121 80.0747 69.8926 79.8848C69.6731 79.6949 69.547 79.4191 69.5469 79.1289V48.084C69.5471 41.4265 74.8658 36.0002 81.457 36H119.088ZM71.5469 78.1152H99.5928L99.4023 77.7021C99.2793 77.4351 99.28 77.1268 99.4043 76.8604L104.688 65.5332C104.701 65.4878 104.718 65.4431 104.738 65.3994L117.518 38H81.457C76 38.0002 71.5471 42.5011 71.5469 48.084V78.1152Z" fill="#026995"/>
<path d="M129.838 36.0421C135.936 36.5209 140.715 41.6493 140.808 47.8996C140.819 47.9596 140.826 48.0218 140.826 48.0851V79.1027C140.826 79.6548 140.378 80.1024 139.826 80.1027H110.164C109.823 80.1027 109.505 79.9285 109.321 79.6408C109.138 79.353 109.113 78.9914 109.257 78.6818L110.102 76.8625V76.8615L128.853 36.6173C129.029 36.2391 129.422 36.0095 129.838 36.0421ZM111.915 77.7062L111.914 77.7052L111.73 78.1027H138.826V48.2394C138.818 48.189 138.813 48.1377 138.813 48.0851C138.813 43.014 135.133 38.8295 130.36 38.1154L111.915 77.7062Z" fill="#026995"/>
<path d="M143 82.9609C143 81.3694 141.734 80.1016 140.188 80.1016H70.8115C70.764 80.1016 70.7374 80.1017 70.7139 80.1025C70.6948 80.1032 70.687 80.1044 70.6865 80.1045C70.6629 80.1079 70.6391 80.1106 70.6152 80.1123C69.162 80.2171 68 81.4519 68 82.9609V88.0293C68.0002 89.4634 69.0268 90.6401 70.3418 90.8594L70.6084 90.8906L70.6865 90.8984C70.6871 90.8985 70.6949 90.8997 70.7139 90.9004C70.7374 90.9012 70.764 90.9014 70.8115 90.9014H140.188C141.732 90.9013 143 89.6359 143 88.0293V82.9609ZM145 88.0293C145 90.7105 142.866 92.9013 140.188 92.9014H70.8115C70.7455 92.9014 70.6196 92.8997 70.4775 92.8848V92.8857C67.953 92.7202 66.0002 90.5795 66 88.0293V82.9609C66 80.4158 67.9591 78.2985 70.4707 78.1172V78.1191C70.6156 78.1035 70.7444 78.1016 70.8115 78.1016H140.188C142.864 78.1016 145 80.2903 145 82.9609V88.0293Z" fill="#026995"/>
<path d="M92.1964 36L92.3399 36.0107C92.6699 36.0587 92.9579 36.2693 93.1017 36.5771L106.558 65.3994C106.683 65.6675 106.683 65.9771 106.558 66.2451L101.211 77.6934C101.047 78.0454 100.693 78.2706 100.305 78.2705C99.9165 78.2703 99.5638 78.0451 99.3995 77.6934L80.6095 37.4229C80.465 37.1132 80.4885 36.7511 80.672 36.4629C80.8556 36.1746 81.174 36 81.5157 36H92.1964ZM100.305 74.9062L104.547 65.8213L91.5597 38H83.086L100.305 74.9062Z" fill="#026995"/>
<path d="M104.174 90.9014L104.301 90.9092C104.593 90.9465 104.857 91.1121 105.018 91.3643C105.201 91.6522 105.225 92.0138 105.081 92.3232L98.9796 105.422C98.8155 105.774 98.462 106 98.0733 106H87.3673C87.0255 106 86.7071 105.825 86.5235 105.537C86.34 105.249 86.3166 104.887 86.461 104.577L92.5753 91.4785L92.6456 91.3525C92.8286 91.0737 93.1417 90.9014 93.4815 90.9014H104.174ZM88.9376 104H97.4366L102.606 92.9014H94.1183L88.9376 104Z" fill="#026995"/>
<path d="M128.892 36C129.216 36 129.528 36.0141 129.841 36.043C130.165 36.0729 130.454 36.2588 130.616 36.541C130.778 36.8232 130.793 37.167 130.655 37.4619L111.892 77.7061L111.891 77.7051L111.048 79.5234C110.884 79.8766 110.53 80.1025 110.141 80.1025H101.148C100.758 80.1024 100.403 79.8757 100.24 79.5215L99.3964 77.6885C99.2735 77.4215 99.2741 77.114 99.3984 76.8477L118.175 36.5771L118.245 36.4512C118.428 36.1723 118.741 36.0001 119.081 36H128.892ZM101.406 77.2725L101.789 78.1025H109.502L110.078 76.8623V76.8604L128.197 38H119.718L101.406 77.2725Z" fill="#026995"/>
</svg>
