<svg width="212" height="173" viewBox="0 0 212 173" fill="none" xmlns="http://www.w3.org/2000/svg">
<path d="M168.695 149.33V132.28H170.103V149.33H168.695ZM176.615 142.62C176.19 142.43 175.684 142.18 175.097 141.872C174.511 141.55 173.902 141.205 173.271 140.838C172.641 140.472 172.047 140.112 171.489 139.76C170.947 139.394 170.499 139.078 170.147 138.814L170.961 137.692C171.313 137.956 171.761 138.264 172.303 138.616C172.861 138.954 173.447 139.298 174.063 139.65C174.679 139.988 175.288 140.31 175.889 140.618C176.491 140.912 177.019 141.146 177.473 141.322C177.415 141.381 177.319 141.506 177.187 141.696C177.07 141.872 176.953 142.056 176.835 142.246C176.733 142.422 176.659 142.547 176.615 142.62Z" fill="#026995"/>
<path d="M145.312 148.89C145.253 148.773 145.143 148.582 144.982 148.318C144.835 148.039 144.725 147.856 144.652 147.768C146.162 147.387 147.548 146.793 148.81 145.986C150.071 145.179 151.12 144.145 151.956 142.884C152.806 141.608 153.356 140.097 153.606 138.352L154.816 138.528C154.522 140.464 153.921 142.121 153.012 143.5C152.117 144.864 151.002 145.986 149.668 146.866C148.333 147.746 146.881 148.421 145.312 148.89ZM148.304 141.63C148.26 141.322 148.172 140.963 148.04 140.552C147.922 140.141 147.783 139.745 147.622 139.364C147.475 138.968 147.336 138.66 147.204 138.44L148.348 138.044C148.465 138.264 148.597 138.579 148.744 138.99C148.905 139.401 149.052 139.819 149.184 140.244C149.33 140.669 149.433 141.021 149.492 141.3L148.304 141.63ZM144.432 142.466C144.373 142.158 144.278 141.806 144.146 141.41C144.014 140.999 143.867 140.603 143.706 140.222C143.559 139.826 143.412 139.518 143.266 139.298L144.41 138.88C144.527 139.085 144.659 139.393 144.806 139.804C144.967 140.215 145.121 140.633 145.268 141.058C145.414 141.483 145.524 141.835 145.598 142.114L144.432 142.466Z" fill="#026995"/>
<path d="M128.172 148.186C126.94 148.186 126.045 147.988 125.488 147.592C124.945 147.196 124.674 146.492 124.674 145.48V139.65C123.5 139.885 122.415 140.097 121.418 140.288C120.42 140.479 119.665 140.618 119.152 140.706L118.844 139.298C119.357 139.225 120.142 139.1 121.198 138.924C122.254 138.748 123.412 138.55 124.674 138.33V132.786H126.104V138.066C127.028 137.89 127.937 137.721 128.832 137.56C129.741 137.384 130.57 137.223 131.318 137.076C132.08 136.929 132.726 136.797 133.254 136.68C133.782 136.548 134.141 136.453 134.332 136.394L135.234 137.098C134.999 137.494 134.698 137.949 134.332 138.462C133.98 138.975 133.598 139.511 133.188 140.068C132.777 140.625 132.366 141.153 131.956 141.652C131.56 142.151 131.193 142.576 130.856 142.928L129.756 141.982C130.078 141.703 130.438 141.337 130.834 140.882C131.23 140.427 131.626 139.936 132.022 139.408C132.432 138.88 132.799 138.396 133.122 137.956C132.608 138.059 131.97 138.191 131.208 138.352C130.46 138.499 129.646 138.66 128.766 138.836C127.9 139.012 127.013 139.188 126.104 139.364V145.128C126.104 145.759 126.272 146.191 126.61 146.426C126.962 146.646 127.497 146.756 128.216 146.756C128.993 146.756 129.792 146.734 130.614 146.69C131.45 146.631 132.234 146.558 132.968 146.47C133.716 146.367 134.339 146.25 134.838 146.118C134.808 146.191 134.772 146.338 134.728 146.558C134.698 146.763 134.669 146.976 134.64 147.196C134.625 147.401 134.618 147.541 134.618 147.614C134.222 147.717 133.738 147.805 133.166 147.878C132.608 147.951 132.022 148.01 131.406 148.054C130.79 148.098 130.196 148.135 129.624 148.164C129.052 148.179 128.568 148.186 128.172 148.186Z" fill="#026995"/>
<path d="M100.997 148.45L100.249 147.064C101.584 146.639 102.948 146.074 104.341 145.37C105.735 144.666 107.077 143.874 108.367 142.994C109.673 142.114 110.861 141.205 111.931 140.266C113.002 139.313 113.882 138.389 114.571 137.494C114.601 137.582 114.659 137.736 114.747 137.956C114.835 138.162 114.931 138.367 115.033 138.572C115.136 138.778 115.202 138.917 115.231 138.99C114.498 139.856 113.596 140.743 112.525 141.652C111.469 142.547 110.303 143.42 109.027 144.27C107.766 145.121 106.446 145.906 105.067 146.624C103.703 147.343 102.347 147.952 100.997 148.45ZM105.177 136.834C105.06 136.717 104.84 136.541 104.517 136.306C104.195 136.057 103.828 135.8 103.417 135.536C103.007 135.258 102.618 135.008 102.251 134.788C101.899 134.554 101.628 134.4 101.437 134.326L102.229 133.072C102.464 133.204 102.765 133.395 103.131 133.644C103.498 133.879 103.872 134.128 104.253 134.392C104.649 134.656 105.009 134.906 105.331 135.14C105.654 135.36 105.896 135.529 106.057 135.646L105.177 136.834ZM102.361 141.212C102.185 141.066 101.929 140.897 101.591 140.706C101.269 140.501 100.909 140.296 100.513 140.09C100.117 139.87 99.736 139.68 99.3693 139.518C99.0026 139.342 98.6946 139.218 98.4453 139.144L99.1713 137.868C99.4353 137.971 99.7507 138.118 100.117 138.308C100.499 138.499 100.887 138.697 101.283 138.902C101.679 139.108 102.039 139.306 102.361 139.496C102.699 139.687 102.955 139.834 103.131 139.936L102.361 141.212Z" fill="#026995"/>
<path d="M80.7594 149.176C80.7301 149.103 80.6568 148.978 80.5394 148.802C80.4368 148.626 80.3268 148.45 80.2094 148.274C80.1068 148.083 80.0188 147.951 79.9454 147.878C82.7174 147.057 84.9688 145.861 86.6994 144.292C88.4301 142.708 89.6474 140.823 90.3514 138.638C89.7354 138.667 88.9874 138.711 88.1074 138.77C87.2274 138.814 86.2961 138.858 85.3134 138.902C84.3308 138.946 83.3701 138.99 82.4314 139.034C81.5074 139.078 80.6861 139.115 79.9674 139.144C79.2634 139.173 78.7428 139.195 78.4054 139.21L78.2734 137.736C78.5961 137.751 79.1021 137.758 79.7914 137.758C80.4808 137.743 81.2728 137.721 82.1674 137.692C83.0621 137.663 83.9861 137.633 84.9394 137.604C85.9074 137.56 86.8168 137.523 87.6674 137.494C88.5328 137.45 89.2734 137.406 89.8894 137.362C90.5201 137.318 90.9381 137.281 91.1434 137.252L91.9794 137.758C91.3781 140.457 90.1314 142.774 88.2394 144.71C86.3621 146.646 83.8688 148.135 80.7594 149.176ZM80.3414 134.26V132.874C81.0894 132.889 81.8814 132.896 82.7174 132.896C83.5681 132.896 84.3748 132.896 85.1374 132.896C85.8708 132.896 86.6554 132.896 87.4914 132.896C88.3421 132.881 89.2294 132.874 90.1534 132.874V134.26C89.2294 134.245 88.3568 134.238 87.5354 134.238C86.7141 134.238 85.9148 134.238 85.1374 134.238C84.4481 134.238 83.6561 134.238 82.7614 134.238C81.8814 134.238 81.0748 134.245 80.3414 134.26Z" fill="#026995"/>
<path d="M58.7386 148.56C58.7093 148.487 58.636 148.362 58.5186 148.186C58.416 148.01 58.2986 147.834 58.1666 147.658C58.0346 147.468 57.932 147.343 57.8586 147.284C60.704 146.287 63.058 144.864 64.9206 143.016C66.798 141.154 68.1253 138.822 68.9026 136.02C68.3013 136.035 67.5606 136.057 66.6806 136.086C65.8153 136.101 64.8986 136.123 63.9306 136.152C62.9626 136.182 62.0166 136.211 61.0926 136.24C60.1686 136.255 59.34 136.277 58.6066 136.306C57.888 136.321 57.3526 136.336 57.0006 136.35L56.8906 134.788C57.2133 134.803 57.7046 134.818 58.3646 134.832C59.0393 134.832 59.8093 134.832 60.6746 134.832C61.54 134.832 62.4273 134.825 63.3366 134.81C64.2606 134.796 65.148 134.781 65.9986 134.766C66.8493 134.737 67.5973 134.715 68.2426 134.7C68.888 134.671 69.35 134.642 69.6286 134.612L70.5746 135.118C69.856 138.433 68.4773 141.212 66.4386 143.456C64.4 145.686 61.8333 147.387 58.7386 148.56ZM74.1386 134.062C73.948 133.754 73.6913 133.424 73.3686 133.072C73.046 132.706 72.7086 132.354 72.3566 132.016C72.0193 131.679 71.7113 131.408 71.4326 131.202L72.1806 130.564C72.43 130.755 72.7306 131.034 73.0826 131.4C73.4493 131.752 73.8013 132.119 74.1386 132.5C74.476 132.867 74.7326 133.175 74.9086 133.424L74.1386 134.062ZM72.3786 135.602C72.188 135.294 71.9386 134.957 71.6306 134.59C71.3226 134.209 71 133.85 70.6626 133.512C70.34 133.16 70.0466 132.874 69.7826 132.654L70.5306 132.038C70.78 132.244 71.0733 132.537 71.4106 132.918C71.7626 133.285 72.1 133.659 72.4226 134.04C72.76 134.422 73.0093 134.737 73.1706 134.986L72.3786 135.602Z" fill="#026995"/>
<path d="M34.5822 150.364V138.286H35.9022V149.132H48.9702V138.242H50.3122V150.364H34.5822ZM32.4922 137.428V136.218H37.2442V131.532H38.6082V136.218H42.0402V130.652H43.4042V132.83H50.3342V134.062H43.4042V136.218H52.3802V137.428H32.4922ZM41.8642 148.494V144.094C41.2189 144.769 40.4782 145.436 39.6422 146.096C38.8062 146.742 38.0142 147.27 37.2662 147.68C37.2369 147.622 37.1635 147.526 37.0462 147.394C36.9289 147.248 36.8115 147.108 36.6942 146.976C36.5769 146.83 36.4815 146.742 36.4082 146.712C36.8922 146.478 37.4129 146.177 37.9702 145.81C38.5422 145.429 39.0995 145.018 39.6422 144.578C40.1849 144.138 40.6615 143.713 41.0722 143.302H36.9362V142.136H41.8642V138.33H43.1402V142.136H47.9142V143.302H43.9542C44.3795 143.713 44.8562 144.131 45.3842 144.556C45.9269 144.982 46.4769 145.378 47.0342 145.744C47.5915 146.111 48.1049 146.412 48.5742 146.646C48.5155 146.69 48.4202 146.786 48.2882 146.932C48.1709 147.064 48.0535 147.204 47.9362 147.35C47.8335 147.482 47.7602 147.578 47.7162 147.636C46.9829 147.226 46.1982 146.698 45.3622 146.052C44.5262 145.407 43.7855 144.747 43.1402 144.072V148.494H41.8642ZM45.3842 142.048L44.3502 141.498C44.5409 141.264 44.7462 140.963 44.9662 140.596C45.1862 140.215 45.3915 139.834 45.5822 139.452C45.7729 139.071 45.9195 138.763 46.0222 138.528L47.1662 139.012C47.0342 139.306 46.8582 139.65 46.6382 140.046C46.4329 140.428 46.2202 140.802 46.0002 141.168C45.7802 141.52 45.5749 141.814 45.3842 142.048ZM39.6862 141.872C39.5395 141.638 39.3489 141.359 39.1142 141.036C38.8942 140.699 38.6595 140.369 38.4102 140.046C38.1609 139.724 37.9262 139.452 37.7062 139.232L38.7842 138.594C38.9749 138.814 39.1949 139.093 39.4442 139.43C39.6935 139.753 39.9355 140.083 40.1702 140.42C40.4195 140.743 40.6175 141.022 40.7642 141.256L39.6862 141.872Z" fill="#026995"/>
<path d="M118.138 33.4551C119.656 33.4551 120.883 34.6838 120.883 36.2033V58.691C120.883 59.0213 120.949 59.3384 121.055 59.6423L124.42 68.3757C124.538 68.6796 124.591 68.9967 124.591 69.327V104.406C124.591 105.86 123.417 107.049 121.952 107.049C120.5 107.049 119.313 105.873 119.313 104.406V70.8597C119.313 70.4633 119.22 70.0669 119.049 69.697L115.631 59.9858C115.46 59.6291 115.367 59.2327 115.367 58.8231V36.2033C115.367 34.6838 116.594 33.4551 118.112 33.4551H118.138Z" stroke="#026995" stroke-width="2" stroke-linecap="round" stroke-linejoin="round"/>
<path d="M120.875 36.2031H133.992V46.9053L129.043 51.86H133.992V59.1929H121.047" stroke="#026995" stroke-width="2" stroke-linecap="round" stroke-linejoin="round"/>
<path d="M133.996 41.9414H127.438" stroke="#026995" stroke-width="2" stroke-linecap="round" stroke-linejoin="round"/>
<path d="M102.027 45.6094V104.392C102.027 105.845 100.839 107.034 99.3875 107.034H81.6392C80.1876 107.034 79 105.845 79 104.392V45.6094H102.027Z" stroke="#026995" stroke-width="2" stroke-linecap="round" stroke-linejoin="round"/>
<path d="M79 45.6165L84.4235 40.8203H96.6032L102.027 45.6165" stroke="#026995" stroke-width="2" stroke-linecap="round" stroke-linejoin="round"/>
<path d="M84.4297 40.8168L87.1216 33.9463C87.3328 33.4178 87.9134 33.0479 88.56 33.0479H92.4659C93.1125 33.0479 93.6931 33.4046 93.9043 33.9463L96.5962 40.8168" stroke="#026995" stroke-width="2" stroke-linecap="round" stroke-linejoin="round"/>
<path d="M102.027 96.5566H79" stroke="#026995" stroke-width="2" stroke-linecap="round" stroke-linejoin="round"/>
<path d="M94.6328 96.5566V107.034" stroke="#026995" stroke-width="2" stroke-linecap="round" stroke-linejoin="round"/>
<path d="M86.6094 96.5566V107.034" stroke="#026995" stroke-width="2" stroke-linecap="round" stroke-linejoin="round"/>
<path d="M79 54.8877H102.027" stroke="#026995" stroke-width="2" stroke-linecap="round" stroke-linejoin="round"/>
<path d="M79 86.3447H102.027" stroke="#026995" stroke-width="2" stroke-linecap="round" stroke-linejoin="round"/>
<rect x="1" y="1" width="210" height="171" rx="9" stroke="#026995" stroke-width="2"/>
</svg>
