<svg width="212" height="173" viewBox="0 0 212 173" fill="none" xmlns="http://www.w3.org/2000/svg">
<path d="M112.101 149L106.359 133.6H107.811L112.739 146.976L117.645 133.6H119.097L113.355 149H112.101Z" fill="#026995"/>
<path d="M99.3491 149V134.876H94.2891V133.6H105.795V134.876H100.735V149H99.3491Z" fill="#026995"/>
<path d="M202 171V173H10V171H202ZM210 163V10C210 5.58172 206.418 2 202 2H10C5.58172 2 2 5.58172 2 10V163C2 167.418 5.58172 171 10 171V173L9.48535 172.987C4.20167 172.719 0 168.35 0 163V10C0 4.47715 4.47715 8.05322e-08 10 0H202C207.523 0 212 4.47715 212 10V163C212 168.35 207.798 172.719 202.515 172.987L202 173V171C206.418 171 210 167.418 210 163Z" fill="#026995"/>
<path d="M154 42.4893C154 39.8311 151.851 37.6807 149.207 37.6807H62.793C60.1487 37.6807 58 39.8311 58 42.4893V95.3076C58 97.9658 60.1487 100.116 62.793 100.116H149.207C151.851 100.116 154 97.9658 154 95.3076V42.4893ZM156 95.3076C156 99.0652 152.961 102.116 149.207 102.116H62.793C59.039 102.116 56 99.0652 56 95.3076V42.4893C56 38.7317 59.039 35.6807 62.793 35.6807H149.207C152.961 35.6807 156 38.7317 156 42.4893V95.3076Z" fill="#026995"/>
<path d="M67.4844 46.4541C67.0986 46.4541 66.7771 46.7486 66.7383 47.1309L66.7344 47.209V90.5869C66.7344 91.0063 67.0727 91.3418 67.4844 91.3418H144.484C144.896 91.3418 145.234 91.0063 145.234 90.5869V47.209C145.234 46.7896 144.896 46.4541 144.484 46.4541L67.4844 46.4541ZM144.484 44.4541C146.006 44.4541 147.234 45.6901 147.234 47.209V90.5869C147.234 92.1058 146.006 93.3418 144.484 93.3418H67.4844C65.963 93.3418 64.7344 92.1058 64.7344 90.5869V47.209L64.749 46.9277C64.8895 45.5404 66.0581 44.4541 67.4844 44.4541L144.484 44.4541Z" fill="#026995"/>
<path d="M128.703 110.68C129.255 110.68 129.703 111.127 129.703 111.68C129.703 112.232 129.255 112.68 128.703 112.68H83.2734C82.7212 112.68 82.2734 112.232 82.2734 111.68C82.2734 111.127 82.7212 110.68 83.2734 110.68H128.703Z" fill="#026995"/>
<path d="M94.5234 111.681V101.117C94.5234 100.565 94.9712 100.117 95.5234 100.117C96.0757 100.117 96.5234 100.565 96.5234 101.117V111.681C96.5234 112.233 96.0757 112.681 95.5234 112.681C94.9712 112.681 94.5234 112.233 94.5234 111.681Z" fill="#026995"/>
<path d="M115.469 111.681V101.117C115.469 100.565 115.916 100.117 116.469 100.117C117.021 100.117 117.469 100.565 117.469 101.117V111.681C117.469 112.233 117.021 112.681 116.469 112.681C115.916 112.681 115.469 112.233 115.469 111.681Z" fill="#026995"/>
</svg>
