<svg width="212" height="173" viewBox="0 0 212 173" fill="none" xmlns="http://www.w3.org/2000/svg">
<path d="M149.717 147.064L148.925 146.426C148.94 146.206 148.947 145.825 148.947 145.282C148.962 144.725 148.969 144.101 148.969 143.412C148.969 142.723 148.969 142.048 148.969 141.388C148.969 140.728 148.969 140.178 148.969 139.738C148.969 139.195 148.962 138.594 148.947 137.934C148.947 137.259 148.947 136.607 148.947 135.976C148.947 135.345 148.94 134.825 148.925 134.414H150.399C150.399 134.634 150.392 134.964 150.377 135.404C150.377 135.829 150.37 136.306 150.355 136.834C150.355 137.362 150.355 137.883 150.355 138.396C150.355 138.895 150.355 139.327 150.355 139.694V145.216C150.971 144.952 151.668 144.615 152.445 144.204C153.237 143.793 154.029 143.353 154.821 142.884C155.613 142.415 156.332 141.967 156.977 141.542C157.622 141.102 158.106 140.721 158.429 140.398C158.429 140.501 158.451 140.669 158.495 140.904C158.554 141.124 158.612 141.337 158.671 141.542C158.744 141.747 158.788 141.879 158.803 141.938C158.422 142.261 157.938 142.613 157.351 142.994C156.764 143.375 156.119 143.771 155.415 144.182C154.726 144.578 154.029 144.967 153.325 145.348C152.621 145.715 151.954 146.052 151.323 146.36C150.707 146.653 150.172 146.888 149.717 147.064ZM140.059 147.988C140.015 147.915 139.927 147.805 139.795 147.658C139.663 147.497 139.524 147.343 139.377 147.196C139.245 147.035 139.135 146.925 139.047 146.866C140.631 146.015 141.841 145.025 142.677 143.896C143.528 142.752 144.063 141.461 144.283 140.024C144.503 138.587 144.481 137.003 144.217 135.272L145.581 135.14C146.036 138.044 145.838 140.545 144.987 142.642C144.151 144.739 142.508 146.521 140.059 147.988Z" fill="#026995"/>
<path d="M126.237 148.89C126.193 148.685 126.134 148.45 126.061 148.186C126.002 147.908 125.929 147.68 125.841 147.504C126.677 147.534 127.315 147.504 127.755 147.416C128.195 147.328 128.496 147.167 128.657 146.932C128.818 146.698 128.892 146.39 128.877 146.008C128.877 145.803 128.862 145.378 128.833 144.732C128.818 144.087 128.796 143.31 128.767 142.4C128.738 141.491 128.708 140.545 128.679 139.562C127.96 140.604 127.095 141.601 126.083 142.554C125.086 143.493 124.015 144.344 122.871 145.106C121.742 145.869 120.612 146.514 119.483 147.042C119.38 146.837 119.248 146.624 119.087 146.404C118.94 146.184 118.786 146.008 118.625 145.876C119.432 145.554 120.268 145.136 121.133 144.622C122.013 144.094 122.871 143.5 123.707 142.84C124.558 142.166 125.342 141.462 126.061 140.728C126.794 139.98 127.41 139.225 127.909 138.462C126.897 138.492 125.907 138.521 124.939 138.55C123.971 138.58 123.091 138.609 122.299 138.638C121.507 138.668 120.862 138.69 120.363 138.704C119.879 138.719 119.608 138.734 119.549 138.748L119.439 137.362C119.762 137.377 120.238 137.384 120.869 137.384C121.5 137.37 122.233 137.355 123.069 137.34C123.905 137.326 124.792 137.311 125.731 137.296C126.684 137.267 127.638 137.238 128.591 137.208L128.415 132.258L129.845 132.236L129.999 137.164C131.216 137.12 132.324 137.076 133.321 137.032C134.333 136.988 135.088 136.952 135.587 136.922L135.565 138.286C135.506 138.272 135.162 138.272 134.531 138.286C133.9 138.301 133.108 138.323 132.155 138.352C131.818 138.352 131.473 138.36 131.121 138.374C130.769 138.374 130.41 138.382 130.043 138.396C130.072 139.232 130.102 140.068 130.131 140.904C130.16 141.74 130.182 142.518 130.197 143.236C130.226 143.955 130.248 144.564 130.263 145.062C130.278 145.561 130.292 145.898 130.307 146.074C130.351 147.145 130.05 147.886 129.405 148.296C128.774 148.692 127.718 148.89 126.237 148.89Z" fill="#026995"/>
<path d="M98.8311 149.55C98.7871 149.448 98.7064 149.308 98.5891 149.132C98.4864 148.956 98.3837 148.788 98.2811 148.626C98.1784 148.465 98.0977 148.362 98.0391 148.318C99.8137 147.614 101.478 146.727 103.033 145.656C104.602 144.571 106.003 143.361 107.235 142.026C106.692 141.645 106.142 141.3 105.585 140.992C105.042 140.67 104.536 140.398 104.067 140.178L104.859 139.1C105.372 139.335 105.908 139.621 106.465 139.958C107.037 140.281 107.594 140.626 108.137 140.992C108.738 140.259 109.281 139.496 109.765 138.704C110.249 137.898 110.674 137.076 111.041 136.24C110.586 136.255 110.044 136.277 109.413 136.306C108.797 136.321 108.174 136.343 107.543 136.372C106.912 136.387 106.34 136.402 105.827 136.416C105.328 136.431 104.976 136.438 104.771 136.438C104.096 137.48 103.326 138.462 102.461 139.386C101.596 140.31 100.642 141.146 99.6011 141.894C99.5424 141.821 99.4397 141.718 99.2931 141.586C99.1611 141.44 99.0291 141.3 98.8971 141.168C98.7651 141.022 98.6624 140.926 98.5891 140.882C99.6451 140.164 100.628 139.32 101.537 138.352C102.446 137.384 103.246 136.343 103.935 135.228C104.624 134.099 105.152 132.962 105.519 131.818L106.883 132.258C106.692 132.757 106.487 133.248 106.267 133.732C106.047 134.216 105.805 134.693 105.541 135.162C106.025 135.162 106.575 135.155 107.191 135.14C107.807 135.126 108.423 135.111 109.039 135.096C109.67 135.067 110.242 135.045 110.755 135.03C111.283 135.001 111.686 134.972 111.965 134.942L112.845 135.448C112.42 136.607 111.906 137.714 111.305 138.77C110.704 139.826 110.036 140.831 109.303 141.784C109.904 142.21 110.469 142.642 110.997 143.082C111.54 143.508 112.002 143.911 112.383 144.292C112.324 144.336 112.222 144.439 112.075 144.6C111.928 144.747 111.789 144.901 111.657 145.062C111.525 145.224 111.43 145.341 111.371 145.414C110.99 145.033 110.535 144.622 110.007 144.182C109.494 143.728 108.951 143.288 108.379 142.862C107.118 144.285 105.68 145.554 104.067 146.668C102.454 147.783 100.708 148.744 98.8311 149.55Z" fill="#026995"/>
<path d="M77.3317 148.032C77.2877 147.959 77.207 147.842 77.0897 147.68C76.987 147.504 76.8697 147.336 76.7377 147.174C76.6204 146.998 76.5177 146.881 76.4297 146.822C77.5737 146.324 78.725 145.693 79.8837 144.93C81.0424 144.153 82.1424 143.288 83.1837 142.334C84.2397 141.366 85.193 140.347 86.0437 139.276C86.8944 138.191 87.5837 137.091 88.1117 135.976C87.481 136.02 86.733 136.072 85.8677 136.13C85.017 136.174 84.137 136.226 83.2277 136.284C82.3184 136.328 81.4677 136.372 80.6757 136.416C79.8984 136.446 79.2677 136.475 78.7837 136.504L78.6077 135.052C78.945 135.052 79.4584 135.045 80.1477 135.03C80.8517 135.001 81.6437 134.972 82.5237 134.942C83.4037 134.898 84.2764 134.854 85.1417 134.81C86.007 134.766 86.7844 134.722 87.4737 134.678C88.163 134.62 88.669 134.568 88.9917 134.524L89.9377 135.118C89.5857 136.101 89.1164 137.076 88.5297 138.044C87.943 139.012 87.2757 139.944 86.5277 140.838C86.997 141.22 87.5104 141.66 88.0677 142.158C88.6397 142.657 89.2044 143.178 89.7617 143.72C90.3337 144.263 90.8617 144.791 91.3457 145.304C91.8297 145.803 92.233 146.25 92.5557 146.646C92.4677 146.705 92.343 146.808 92.1817 146.954C92.035 147.086 91.881 147.226 91.7197 147.372C91.573 147.504 91.463 147.614 91.3897 147.702C91.0964 147.292 90.715 146.83 90.2457 146.316C89.7764 145.803 89.2704 145.275 88.7277 144.732C88.185 144.19 87.6424 143.669 87.0997 143.17C86.557 142.657 86.0657 142.217 85.6257 141.85C84.4084 143.156 83.0737 144.344 81.6217 145.414C80.1844 146.485 78.7544 147.358 77.3317 148.032Z" fill="#026995"/>
<path d="M55.1113 145.766C55.0526 145.692 54.9426 145.582 54.7813 145.436C54.6346 145.289 54.4806 145.142 54.3193 144.996C54.158 144.849 54.0333 144.746 53.9453 144.688C54.8693 144.057 55.7273 143.28 56.5193 142.356C57.326 141.432 58.0226 140.471 58.6093 139.474C59.196 138.462 59.6286 137.523 59.9073 136.658L61.2933 137.164C60.9266 138.205 60.4353 139.254 59.8193 140.31C59.218 141.351 58.5213 142.341 57.7293 143.28C56.9373 144.218 56.0646 145.047 55.1113 145.766ZM70.8633 145.084C70.6286 144.526 70.3133 143.896 69.9173 143.192C69.5213 142.488 69.074 141.776 68.5753 141.058C68.0913 140.339 67.6 139.672 67.1013 139.056C66.6026 138.425 66.1406 137.912 65.7153 137.516L66.8153 136.658C67.2846 137.098 67.776 137.626 68.2893 138.242C68.8173 138.843 69.3306 139.496 69.8293 140.2C70.328 140.889 70.79 141.586 71.2153 142.29C71.6406 142.979 72.0073 143.632 72.3153 144.248C72.242 144.277 72.1026 144.35 71.8973 144.468C71.7066 144.57 71.5086 144.68 71.3033 144.798C71.1126 144.915 70.966 145.01 70.8633 145.084ZM71.9413 135.118C71.736 134.824 71.4646 134.502 71.1273 134.15C70.8046 133.783 70.4673 133.438 70.1153 133.116C69.7633 132.793 69.448 132.529 69.1693 132.324L69.8953 131.686C70.1593 131.876 70.4746 132.148 70.8413 132.5C71.208 132.837 71.56 133.189 71.8973 133.556C72.2493 133.908 72.5206 134.208 72.7113 134.458L71.9413 135.118ZM70.2033 136.724C70.0126 136.416 69.756 136.078 69.4333 135.712C69.1106 135.345 68.7806 134.993 68.4433 134.656C68.106 134.318 67.798 134.047 67.5193 133.842L68.2673 133.226C68.5166 133.416 68.8173 133.695 69.1693 134.062C69.5213 134.414 69.866 134.78 70.2033 135.162C70.5553 135.528 70.8193 135.836 70.9953 136.086L70.2033 136.724Z" fill="#026995"/>
<path d="M202 171V173H10V171H202ZM210 163V10C210 5.58172 206.418 2 202 2H10C5.58172 2 2 5.58172 2 10V163C2 167.418 5.58172 171 10 171V173L9.48535 172.987C4.20167 172.719 0 168.35 0 163V10C0 4.47715 4.47715 8.05322e-08 10 0H202C207.523 0 212 4.47715 212 10V163C212 168.35 207.798 172.719 202.515 172.987L202 173V171C206.418 171 210 167.418 210 163Z" fill="#026995"/>
<path d="M81.6094 53.4531C81.6094 50.2664 83.307 47.4353 85.6855 45.4316C88.064 43.4281 91.2163 42.167 94.3232 42.167C94.8755 42.167 95.3232 42.6147 95.3232 43.167C95.3232 43.7193 94.8755 44.167 94.3232 44.167C91.7336 44.167 89.0289 45.2306 86.9746 46.9609C84.9205 48.6912 83.6094 51.0037 83.6094 53.4531C83.6094 58.6154 87.2064 62.6687 92.2754 62.6689C92.8276 62.6689 93.2753 63.1167 93.2754 63.6689C93.2754 64.2212 92.8277 64.6689 92.2754 64.6689C85.9513 64.6687 81.6094 59.5632 81.6094 53.4531Z" fill="#026995"/>
<path d="M144 47.7344C144 45.676 142.313 44.0001 140.223 44L77.3252 44.2393H77.3213C72.1673 44.2393 68.0002 48.3807 68 53.4551C68 58.5294 72.1666 62.6695 77.3203 62.6699L140.221 62.5723H140.223C142.311 62.5722 144 60.8841 144 58.8379C144 57.7695 143.545 56.3705 142.772 55.2402C141.983 54.0846 141.052 53.4688 140.223 53.4688C139.67 53.4688 139.223 53.021 139.223 52.4688C139.223 51.9512 139.616 51.5259 140.12 51.4746L140.223 51.4688L140.417 51.4639C142.417 51.3637 144 49.7286 144 47.7344ZM146 47.7344C146 49.8454 144.854 51.6765 143.157 52.6719C143.646 53.0958 144.071 53.5954 144.424 54.1113C145.382 55.5138 146 57.2996 146 58.8379C146 62.0051 143.399 64.5712 140.223 64.5713L140.224 64.5723L77.3223 64.6709H77.3213C71.0818 64.6709 66 59.6532 66 53.4551C66.0002 47.2583 71.0796 42.2422 77.3174 42.2402V42.2393L140.219 42H140.223C143.397 42.0001 146 44.5512 146 47.7344Z" fill="#026995"/>
<path d="M140.249 51.4697C140.801 51.4698 141.249 51.9175 141.249 52.4697C141.249 53.022 140.801 53.4697 140.249 53.4697H94.3125C93.7602 53.4697 93.3125 53.022 93.3125 52.4697C93.3125 51.9174 93.7602 51.4697 94.3125 51.4697H140.249Z" fill="#026995"/>
<path d="M81.6094 74.1104C81.6094 70.9232 83.3075 68.095 85.6865 66.0947C88.0652 64.0948 91.2172 62.8379 94.3232 62.8379C94.8755 62.8379 95.3232 63.2856 95.3232 63.8379C95.3232 64.3902 94.8755 64.8379 94.3232 64.8379C91.7326 64.8379 89.0276 65.899 86.9736 67.626C84.92 69.3527 83.6094 71.6613 83.6094 74.1104C83.6095 79.2725 87.2065 83.326 92.2754 83.3262C92.8277 83.3262 93.2754 83.7739 93.2754 84.3262C93.2752 84.8783 92.8276 85.3262 92.2754 85.3262C85.9514 85.3259 81.6095 80.2203 81.6094 74.1104Z" fill="#026995"/>
<path d="M144 68.3906C144 66.3323 142.313 64.6563 140.223 64.6562L77.3252 64.8955H77.3213C72.1673 64.8955 68.0002 69.0369 68 74.1113C68 79.1856 72.1666 83.3258 77.3203 83.3262L140.221 83.2285H140.223C142.311 83.2284 144 81.5404 144 79.4941C144 78.4257 143.545 77.0267 142.772 75.8965C141.983 74.7409 141.052 74.1251 140.223 74.125C139.67 74.125 139.223 73.6773 139.223 73.125C139.223 72.6074 139.616 72.1821 140.12 72.1309L140.223 72.125L140.417 72.1201C142.417 72.02 144 70.3848 144 68.3906ZM146 68.3906C146 70.5016 144.854 72.3327 143.157 73.3281C143.646 73.752 144.071 74.2517 144.424 74.7676C145.382 76.17 146 77.9558 146 79.4941C146 82.6614 143.399 85.2275 140.223 85.2275L140.224 85.2285L77.3223 85.3271H77.3213C71.0818 85.3271 66 80.3094 66 74.1113C66.0002 67.9146 71.0796 62.8985 77.3174 62.8965V62.8955L140.219 62.6562H140.223C143.397 62.6563 146 65.2074 146 68.3906Z" fill="#026995"/>
<path d="M140.249 72.127C140.801 72.127 141.249 72.5747 141.249 73.127C141.249 73.6792 140.801 74.1269 140.249 74.127H94.3125C93.7602 74.127 93.3125 73.6792 93.3125 73.127C93.3125 72.5747 93.7602 72.127 94.3125 72.127H140.249Z" fill="#026995"/>
<path d="M81.6094 94.7842C81.6094 91.597 83.3075 88.7688 85.6865 86.7686C88.0652 84.7686 91.2172 83.5117 94.3232 83.5117C94.8755 83.5117 95.3232 83.9594 95.3232 84.5117C95.3232 85.064 94.8755 85.5117 94.3232 85.5117C91.7326 85.5117 89.0276 86.5728 86.9736 88.2998C84.92 90.0265 83.6094 92.3351 83.6094 94.7842C83.6095 99.9463 87.2065 104 92.2754 104C92.8277 104 93.2754 104.448 93.2754 105C93.2752 105.552 92.8276 106 92.2754 106C85.9514 106 81.6095 100.894 81.6094 94.7842Z" fill="#026995"/>
<path d="M144 89.0615C144 87.0032 142.313 85.3272 140.223 85.3271L77.3252 85.5664H77.3213C72.1673 85.5664 68.0002 89.7078 68 94.7822C68 99.8565 72.1666 103.997 77.3203 103.997L140.221 103.899H140.223C142.311 103.899 144 102.211 144 100.165C144 99.0966 143.545 97.6976 142.772 96.5674C141.983 95.4118 141.052 94.796 140.223 94.7959C139.67 94.7959 139.223 94.3482 139.223 93.7959C139.223 93.2783 139.616 92.853 140.12 92.8018L140.223 92.7959L140.417 92.791C142.417 92.6909 144 91.0557 144 89.0615ZM146 89.0615C146 91.1725 144.854 93.0036 143.157 93.999C143.646 94.4229 144.071 94.9226 144.424 95.4385C145.382 96.8409 146 98.6267 146 100.165C146 103.332 143.399 105.898 140.223 105.898L140.224 105.899L77.3223 105.998H77.3213C71.0818 105.998 66 100.98 66 94.7822C66.0002 88.5855 71.0796 83.5694 77.3174 83.5674V83.5664L140.219 83.3271H140.223C143.397 83.3272 146 85.8783 146 89.0615Z" fill="#026995"/>
<path d="M140.249 92.7969C140.801 92.7969 141.249 93.2446 141.249 93.7969C141.249 94.3491 140.801 94.7968 140.249 94.7969H94.3125C93.7602 94.7969 93.3125 94.3492 93.3125 93.7969C93.3125 93.2446 93.7602 92.7969 94.3125 92.7969H140.249Z" fill="#026995"/>
</svg>
