<svg width="212" height="173" viewBox="0 0 212 173" fill="none" xmlns="http://www.w3.org/2000/svg">
<path d="M171.553 147.064L170.761 146.426C170.775 146.206 170.783 145.825 170.783 145.282C170.797 144.725 170.805 144.101 170.805 143.412C170.805 142.723 170.805 142.048 170.805 141.388C170.805 140.728 170.805 140.178 170.805 139.738C170.805 139.195 170.797 138.594 170.783 137.934C170.783 137.259 170.783 136.607 170.783 135.976C170.783 135.345 170.775 134.825 170.761 134.414H172.235C172.235 134.634 172.227 134.964 172.213 135.404C172.213 135.829 172.205 136.306 172.191 136.834C172.191 137.362 172.191 137.883 172.191 138.396C172.191 138.895 172.191 139.327 172.191 139.694V145.216C172.807 144.952 173.503 144.615 174.281 144.204C175.073 143.793 175.865 143.353 176.657 142.884C177.449 142.415 178.167 141.967 178.813 141.542C179.458 141.102 179.942 140.721 180.265 140.398C180.265 140.501 180.287 140.669 180.331 140.904C180.389 141.124 180.448 141.337 180.507 141.542C180.58 141.747 180.624 141.879 180.639 141.938C180.257 142.261 179.773 142.613 179.187 142.994C178.6 143.375 177.955 143.771 177.251 144.182C176.561 144.578 175.865 144.967 175.161 145.348C174.457 145.715 173.789 146.052 173.159 146.36C172.543 146.653 172.007 146.888 171.553 147.064ZM161.895 147.988C161.851 147.915 161.763 147.805 161.631 147.658C161.499 147.497 161.359 147.343 161.213 147.196C161.081 147.035 160.971 146.925 160.883 146.866C162.467 146.015 163.677 145.025 164.513 143.896C165.363 142.752 165.899 141.461 166.119 140.024C166.339 138.587 166.317 137.003 166.053 135.272L167.417 135.14C167.871 138.044 167.673 140.545 166.823 142.642C165.987 144.739 164.344 146.521 161.895 147.988Z" fill="#026995"/>
<path d="M148.081 148.89C148.037 148.685 147.978 148.45 147.905 148.186C147.846 147.908 147.773 147.68 147.685 147.504C148.521 147.534 149.159 147.504 149.599 147.416C150.039 147.328 150.339 147.167 150.501 146.932C150.662 146.698 150.735 146.39 150.721 146.008C150.721 145.803 150.706 145.378 150.677 144.732C150.662 144.087 150.64 143.31 150.611 142.4C150.581 141.491 150.552 140.545 150.523 139.562C149.804 140.604 148.939 141.601 147.927 142.554C146.929 143.493 145.859 144.344 144.715 145.106C143.585 145.869 142.456 146.514 141.327 147.042C141.224 146.837 141.092 146.624 140.931 146.404C140.784 146.184 140.63 146.008 140.469 145.876C141.275 145.554 142.111 145.136 142.977 144.622C143.857 144.094 144.715 143.5 145.551 142.84C146.401 142.166 147.186 141.462 147.905 140.728C148.638 139.98 149.254 139.225 149.753 138.462C148.741 138.492 147.751 138.521 146.783 138.55C145.815 138.58 144.935 138.609 144.143 138.638C143.351 138.668 142.705 138.69 142.207 138.704C141.723 138.719 141.451 138.734 141.393 138.748L141.283 137.362C141.605 137.377 142.082 137.384 142.713 137.384C143.343 137.37 144.077 137.355 144.913 137.34C145.749 137.326 146.636 137.311 147.575 137.296C148.528 137.267 149.481 137.238 150.435 137.208L150.259 132.258L151.689 132.236L151.843 137.164C153.06 137.12 154.167 137.076 155.165 137.032C156.177 136.988 156.932 136.952 157.431 136.922L157.409 138.286C157.35 138.272 157.005 138.272 156.375 138.286C155.744 138.301 154.952 138.323 153.999 138.352C153.661 138.352 153.317 138.36 152.965 138.374C152.613 138.374 152.253 138.382 151.887 138.396C151.916 139.232 151.945 140.068 151.975 140.904C152.004 141.74 152.026 142.518 152.041 143.236C152.07 143.955 152.092 144.564 152.107 145.062C152.121 145.561 152.136 145.898 152.151 146.074C152.195 147.145 151.894 147.886 151.249 148.296C150.618 148.692 149.562 148.89 148.081 148.89Z" fill="#026995"/>
<path d="M120.667 149.55C120.623 149.448 120.542 149.308 120.425 149.132C120.322 148.956 120.22 148.788 120.117 148.626C120.014 148.465 119.934 148.362 119.875 148.318C121.65 147.614 123.314 146.727 124.869 145.656C126.438 144.571 127.839 143.361 129.071 142.026C128.528 141.645 127.978 141.3 127.421 140.992C126.878 140.67 126.372 140.398 125.903 140.178L126.695 139.1C127.208 139.335 127.744 139.621 128.301 139.958C128.873 140.281 129.43 140.626 129.973 140.992C130.574 140.259 131.117 139.496 131.601 138.704C132.085 137.898 132.51 137.076 132.877 136.24C132.422 136.255 131.88 136.277 131.249 136.306C130.633 136.321 130.01 136.343 129.379 136.372C128.748 136.387 128.176 136.402 127.663 136.416C127.164 136.431 126.812 136.438 126.607 136.438C125.932 137.48 125.162 138.462 124.297 139.386C123.432 140.31 122.478 141.146 121.437 141.894C121.378 141.821 121.276 141.718 121.129 141.586C120.997 141.44 120.865 141.3 120.733 141.168C120.601 141.022 120.498 140.926 120.425 140.882C121.481 140.164 122.464 139.32 123.373 138.352C124.282 137.384 125.082 136.343 125.771 135.228C126.46 134.099 126.988 132.962 127.355 131.818L128.719 132.258C128.528 132.757 128.323 133.248 128.103 133.732C127.883 134.216 127.641 134.693 127.377 135.162C127.861 135.162 128.411 135.155 129.027 135.14C129.643 135.126 130.259 135.111 130.875 135.096C131.506 135.067 132.078 135.045 132.591 135.03C133.119 135.001 133.522 134.972 133.801 134.942L134.681 135.448C134.256 136.607 133.742 137.714 133.141 138.77C132.54 139.826 131.872 140.831 131.139 141.784C131.74 142.21 132.305 142.642 132.833 143.082C133.376 143.508 133.838 143.911 134.219 144.292C134.16 144.336 134.058 144.439 133.911 144.6C133.764 144.747 133.625 144.901 133.493 145.062C133.361 145.224 133.266 145.341 133.207 145.414C132.826 145.033 132.371 144.622 131.843 144.182C131.33 143.728 130.787 143.288 130.215 142.862C128.954 144.285 127.516 145.554 125.903 146.668C124.29 147.783 122.544 148.744 120.667 149.55Z" fill="#026995"/>
<path d="M99.1754 148.032C99.1314 147.959 99.0508 147.842 98.9334 147.68C98.8308 147.504 98.7134 147.336 98.5814 147.174C98.4641 146.998 98.3614 146.881 98.2734 146.822C99.4174 146.324 100.569 145.693 101.727 144.93C102.886 144.153 103.986 143.288 105.027 142.334C106.083 141.366 107.037 140.347 107.887 139.276C108.738 138.191 109.427 137.091 109.955 135.976C109.325 136.02 108.577 136.072 107.711 136.13C106.861 136.174 105.981 136.226 105.071 136.284C104.162 136.328 103.311 136.372 102.519 136.416C101.742 136.446 101.111 136.475 100.627 136.504L100.451 135.052C100.789 135.052 101.302 135.045 101.991 135.03C102.695 135.001 103.487 134.972 104.367 134.942C105.247 134.898 106.12 134.854 106.985 134.81C107.851 134.766 108.628 134.722 109.317 134.678C110.007 134.62 110.513 134.568 110.835 134.524L111.781 135.118C111.429 136.101 110.96 137.076 110.373 138.044C109.787 139.012 109.119 139.944 108.371 140.838C108.841 141.22 109.354 141.66 109.911 142.158C110.483 142.657 111.048 143.178 111.605 143.72C112.177 144.263 112.705 144.791 113.189 145.304C113.673 145.803 114.077 146.25 114.399 146.646C114.311 146.705 114.187 146.808 114.025 146.954C113.879 147.086 113.725 147.226 113.563 147.372C113.417 147.504 113.307 147.614 113.233 147.702C112.94 147.292 112.559 146.83 112.089 146.316C111.62 145.803 111.114 145.275 110.571 144.732C110.029 144.19 109.486 143.669 108.943 143.17C108.401 142.657 107.909 142.217 107.469 141.85C106.252 143.156 104.917 144.344 103.465 145.414C102.028 146.485 100.598 147.358 99.1754 148.032Z" fill="#026995"/>
<path d="M85.469 149.132V138.44C84.2077 139.35 82.895 140.193 81.531 140.97C80.1817 141.733 78.8617 142.4 77.571 142.972C77.4683 142.782 77.329 142.569 77.153 142.334C76.977 142.085 76.801 141.88 76.625 141.718C77.5783 141.366 78.583 140.919 79.639 140.376C80.7097 139.834 81.773 139.225 82.829 138.55C83.885 137.876 84.897 137.164 85.865 136.416C86.8477 135.654 87.735 134.884 88.527 134.106C89.319 133.314 89.979 132.537 90.507 131.774L91.695 132.632C91.0643 133.454 90.3383 134.268 89.517 135.074C88.7103 135.866 87.8377 136.629 86.899 137.362V149.132H85.469Z" fill="#026995"/>
<path d="M57.5078 146.492V145.282C57.6105 145.282 57.9405 145.289 58.4978 145.304C59.0551 145.304 59.7591 145.311 60.6098 145.326C61.4751 145.326 62.4065 145.326 63.4038 145.326V140.288C62.6998 140.288 62.0325 140.295 61.4018 140.31C60.7711 140.31 60.2505 140.31 59.8398 140.31C59.4291 140.31 59.1871 140.317 59.1138 140.332V139.1C59.2018 139.114 59.4805 139.129 59.9498 139.144C60.4191 139.144 61.0058 139.144 61.7098 139.144C62.4285 139.144 63.1911 139.144 63.9978 139.144C64.8045 139.144 65.5598 139.144 66.2638 139.144C66.9825 139.129 67.5765 139.122 68.0458 139.122C68.5151 139.107 68.7865 139.1 68.8598 139.1V140.332C68.7865 140.317 68.5518 140.31 68.1558 140.31C67.7598 140.31 67.2538 140.31 66.6378 140.31C66.0218 140.295 65.3471 140.288 64.6138 140.288V145.326C65.5671 145.311 66.4471 145.304 67.2538 145.304C68.0751 145.304 68.7498 145.304 69.2778 145.304C69.8205 145.289 70.1285 145.282 70.2018 145.282V146.492C70.1138 146.477 69.7691 146.47 69.1678 146.47C68.5811 146.47 67.8331 146.47 66.9238 146.47C66.0145 146.47 65.0245 146.47 63.9538 146.47C63.2058 146.47 62.4651 146.47 61.7318 146.47C60.9985 146.47 60.3238 146.47 59.7078 146.47C59.0918 146.47 58.5858 146.477 58.1898 146.492C57.8085 146.492 57.5811 146.492 57.5078 146.492Z" fill="#026995"/>
<path d="M37.62 148.428C37.5907 148.355 37.5173 148.23 37.4 148.054C37.2973 147.878 37.18 147.702 37.048 147.526C36.916 147.335 36.8133 147.211 36.74 147.152C39.5853 146.155 41.9393 144.725 43.802 142.862C45.6793 140.999 46.9993 138.675 47.762 135.888C47.1753 135.903 46.442 135.925 45.562 135.954C44.6967 135.969 43.7727 135.991 42.79 136.02C41.822 136.049 40.876 136.079 39.952 136.108C39.028 136.123 38.1993 136.137 37.466 136.152C36.7473 136.167 36.212 136.181 35.86 136.196L35.75 134.634C36.0873 134.649 36.586 134.663 37.246 134.678C37.9207 134.693 38.6907 134.7 39.556 134.7C40.4213 134.685 41.3087 134.671 42.218 134.656C43.142 134.641 44.0293 134.627 44.88 134.612C45.7307 134.597 46.4787 134.575 47.124 134.546C47.7693 134.517 48.2313 134.487 48.51 134.458L49.456 134.986C48.7373 138.301 47.3587 141.08 45.32 143.324C43.2813 145.553 40.7147 147.255 37.62 148.428Z" fill="#026995"/>
<path d="M202 171V173H10V171H202ZM210 163V10C210 5.58172 206.418 2 202 2H10C5.58172 2 2 5.58172 2 10V163C2 167.418 5.58172 171 10 171V173L9.48535 172.987C4.20167 172.719 0 168.35 0 163V10C0 4.47715 4.47715 8.05322e-08 10 0H202C207.523 0 212 4.47715 212 10V163C212 168.35 207.798 172.719 202.515 172.987L202 173V171C206.418 171 210 167.418 210 163Z" fill="#026995"/>
<path d="M84.0322 33C87.9211 33.0002 91.078 36.1009 91.168 39.959C91.1814 40.0251 91.1897 40.0927 91.1895 40.1611L90.998 89.0557C90.9969 89.3209 90.8905 89.5749 90.7021 89.7617C90.5137 89.9485 90.2585 90.0531 89.9932 90.0518L80.9717 90.0039V90.0029C78.7186 90 76.8906 88.1726 76.8906 85.9092V40.126C76.8906 36.1911 80.0935 33 84.0322 33ZM78.8906 85.9092C78.8906 87.0718 79.8284 88.0039 80.9775 88.0039H80.9824L89.002 88.0459L89.1885 40.3301C89.1783 40.2719 89.1726 40.2122 89.1729 40.1523C89.186 37.3124 86.8843 35.0002 84.0322 35C81.1933 35 78.8906 37.3004 78.8906 40.126V85.9092Z" fill="#026995"/>
<path d="M90.0156 88.0518C90.5679 88.0535 91.0144 88.5024 91.0127 89.0547L90.9648 103.908C90.9663 105.066 91.9 106 93.0674 106H130.583C131.748 106 132.686 105.052 132.686 103.905V40.1729C132.685 37.3159 130.367 35.0002 127.497 35H84.0625C83.5102 35 83.0625 34.5523 83.0625 34C83.0625 33.4477 83.5102 33 84.0625 33H127.497C131.467 33.0002 134.685 36.2066 134.686 40.1729V103.905C134.686 106.155 132.855 108 130.583 108H93.0674C90.7993 108 88.9648 106.174 88.9648 103.905V103.902L89.0127 89.0479C89.0147 88.4959 89.4637 88.0502 90.0156 88.0518Z" fill="#026995"/>
<path d="M90.0879 88.0566C90.6402 88.0566 91.0879 88.5044 91.0879 89.0566C91.0879 89.6089 90.6402 90.0566 90.0879 90.0566H90.0781C89.5258 90.0566 89.0781 89.6089 89.0781 89.0566C89.0781 88.5044 89.5258 88.0566 90.0781 88.0566H90.0879Z" fill="#026995"/>
<path d="M90.0381 72.8906C90.5902 72.8908 91.0381 73.3385 91.0381 73.8906C91.0381 74.4428 90.5902 74.8904 90.0381 74.8906H77.8984C77.3462 74.8906 76.8984 74.4429 76.8984 73.8906C76.8984 73.3383 77.3462 72.8906 77.8984 72.8906H90.0381Z" fill="#026995"/>
<path d="M90.0215 78.1787C90.5738 78.1787 91.0215 78.6264 91.0215 79.1787C91.0215 79.731 90.5738 80.1787 90.0215 80.1787H77.8984C77.3462 80.1787 76.8984 79.731 76.8984 79.1787C76.8984 78.6264 77.3462 78.1787 77.8984 78.1787H90.0215Z" fill="#026995"/>
<path d="M133.7 91.9023C134.252 91.9023 134.7 92.3501 134.7 92.9023C134.7 93.4546 134.252 93.9023 133.7 93.9023H90.2188C89.6665 93.9023 89.2188 93.4546 89.2188 92.9023C89.2188 92.3501 89.6665 91.9023 90.2188 91.9023H133.7Z" fill="#026995"/>
<path d="M133.605 97.1895C134.158 97.1896 134.605 97.6373 134.605 98.1895C134.605 98.7416 134.158 99.1893 133.605 99.1895H90.2188C89.6665 99.1895 89.2188 98.7417 89.2188 98.1895C89.2188 97.6372 89.6665 97.1895 90.2188 97.1895H133.605Z" fill="#026995"/>
<path d="M142.001 42.6582C142.553 42.6584 143.001 43.106 143.001 43.6582C143.001 44.2104 142.553 44.658 142.001 44.6582H133.68C133.127 44.6582 132.68 44.2105 132.68 43.6582C132.68 43.1059 133.127 42.6582 133.68 42.6582H142.001Z" fill="#026995"/>
<path d="M90.2061 42.6582C90.7581 42.6584 91.2061 43.1061 91.2061 43.6582C91.2061 44.2103 90.7581 44.658 90.2061 44.6582H70C69.4477 44.6582 69 44.2105 69 43.6582C69 43.1059 69.4477 42.6582 70 42.6582H90.2061Z" fill="#026995"/>
</svg>
