<svg width="212" height="173" viewBox="0 0 212 173" fill="none" xmlns="http://www.w3.org/2000/svg">
<path d="M139.812 141.387V139.957C140.326 139.957 141.052 139.964 141.99 139.979C142.929 139.979 143.985 139.986 145.159 140.001C146.332 140.001 147.542 140.001 148.788 140.001C150.035 140.001 151.238 140.001 152.396 140.001C153.555 140.001 154.589 140.001 155.498 140.001C156.408 139.986 157.097 139.972 157.566 139.957V141.387C157.082 141.372 156.386 141.365 155.476 141.365C154.582 141.35 153.562 141.343 152.418 141.343C151.289 141.328 150.108 141.321 148.876 141.321C147.659 141.321 146.464 141.328 145.29 141.343C144.132 141.343 143.076 141.35 142.122 141.365C141.169 141.365 140.399 141.372 139.812 141.387Z" fill="#026995"/>
<path d="M127.47 149.264C127.426 149.059 127.33 148.626 127.184 147.966C127.052 147.291 126.883 146.477 126.678 145.524C126.472 144.556 126.245 143.522 125.996 142.422C125.761 141.307 125.519 140.207 125.27 139.122C123.964 139.371 122.747 139.606 121.618 139.826C120.503 140.031 119.667 140.193 119.11 140.31L118.758 138.836C119.124 138.807 119.623 138.748 120.254 138.66C120.884 138.557 121.603 138.44 122.41 138.308C123.231 138.161 124.089 138.007 124.984 137.846C124.793 136.951 124.61 136.13 124.434 135.382C124.258 134.634 124.104 134.003 123.972 133.49C123.84 132.977 123.744 132.639 123.686 132.478L125.116 132.17C125.13 132.302 125.189 132.625 125.292 133.138C125.409 133.651 125.556 134.297 125.732 135.074C125.908 135.851 126.098 136.702 126.304 137.626C127.257 137.45 128.196 137.274 129.12 137.098C130.058 136.907 130.924 136.731 131.716 136.57C132.522 136.409 133.204 136.269 133.762 136.152C134.319 136.02 134.7 135.917 134.906 135.844L135.786 136.416C135.58 136.856 135.316 137.377 134.994 137.978C134.686 138.565 134.341 139.173 133.96 139.804C133.593 140.42 133.226 141.014 132.86 141.586C132.493 142.143 132.156 142.613 131.848 142.994C131.804 142.95 131.694 142.877 131.518 142.774C131.356 142.657 131.188 142.547 131.012 142.444C130.85 142.341 130.733 142.275 130.66 142.246C130.909 141.953 131.217 141.535 131.584 140.992C131.965 140.449 132.354 139.863 132.75 139.232C133.146 138.601 133.49 138.022 133.784 137.494C132.933 137.655 131.855 137.861 130.55 138.11C129.259 138.359 127.932 138.609 126.568 138.858C126.817 139.958 127.074 141.065 127.338 142.18C127.602 143.295 127.844 144.336 128.064 145.304C128.298 146.257 128.496 147.057 128.658 147.702C128.819 148.333 128.929 148.729 128.988 148.89C128.9 148.89 128.746 148.912 128.526 148.956C128.306 149 128.093 149.051 127.888 149.11C127.682 149.169 127.543 149.22 127.47 149.264Z" fill="#026995"/>
<path d="M106.305 149.131V138.439C105.044 139.349 103.731 140.192 102.367 140.969C101.018 141.732 99.6976 142.399 98.4069 142.971C98.3043 142.781 98.1649 142.568 97.9889 142.333C97.8129 142.084 97.6369 141.879 97.4609 141.717C98.4143 141.365 99.4189 140.918 100.475 140.375C101.546 139.833 102.609 139.224 103.665 138.549C104.721 137.875 105.733 137.163 106.701 136.415C107.684 135.653 108.571 134.883 109.363 134.105C110.155 133.313 110.815 132.536 111.343 131.773L112.531 132.631C111.9 133.453 111.174 134.267 110.353 135.073C109.546 135.865 108.674 136.628 107.735 137.361V149.131H106.305Z" fill="#026995"/>
<path d="M80.2594 149.175C80.2301 149.102 80.1568 148.977 80.0394 148.801C79.9368 148.625 79.8268 148.449 79.7094 148.273C79.6068 148.082 79.5188 147.95 79.4454 147.877C82.2174 147.056 84.4688 145.86 86.1994 144.291C87.9301 142.707 89.1474 140.822 89.8514 138.637C89.2354 138.666 88.4874 138.71 87.6074 138.769C86.7274 138.813 85.7961 138.857 84.8134 138.901C83.8308 138.945 82.8701 138.989 81.9314 139.033C81.0074 139.077 80.1861 139.114 79.4674 139.143C78.7634 139.172 78.2428 139.194 77.9054 139.209L77.7734 137.735C78.0961 137.75 78.6021 137.757 79.2914 137.757C79.9808 137.742 80.7728 137.72 81.6674 137.691C82.5621 137.662 83.4861 137.632 84.4394 137.603C85.4074 137.559 86.3168 137.522 87.1674 137.493C88.0328 137.449 88.7734 137.405 89.3894 137.361C90.0201 137.317 90.4381 137.28 90.6434 137.251L91.4794 137.757C90.8781 140.456 89.6314 142.773 87.7394 144.709C85.8621 146.645 83.3688 148.134 80.2594 149.175ZM79.8414 134.259V132.873C80.5894 132.888 81.3814 132.895 82.2174 132.895C83.0681 132.895 83.8748 132.895 84.6374 132.895C85.3708 132.895 86.1554 132.895 86.9914 132.895C87.8421 132.88 88.7294 132.873 89.6534 132.873V134.259C88.7294 134.244 87.8568 134.237 87.0354 134.237C86.2141 134.237 85.4148 134.237 84.6374 134.237C83.9481 134.237 83.1561 134.237 82.2614 134.237C81.3814 134.237 80.5748 134.244 79.8414 134.259Z" fill="#026995"/>
<path d="M61.4922 149.352V132.302H62.9222V149.352H61.4922ZM69.4122 142.642C68.9869 142.436 68.4809 142.18 67.8942 141.872C67.3075 141.549 66.6989 141.204 66.0682 140.838C65.4375 140.471 64.8435 140.112 64.2862 139.76C63.7435 139.393 63.2962 139.078 62.9442 138.814L63.7582 137.692C64.1249 137.956 64.5795 138.264 65.1222 138.616C65.6649 138.953 66.2442 139.298 66.8602 139.65C67.4909 140.002 68.0995 140.324 68.6862 140.618C69.2875 140.911 69.8155 141.146 70.2702 141.322C70.2115 141.38 70.1162 141.505 69.9842 141.696C69.8669 141.872 69.7495 142.055 69.6322 142.246C69.5295 142.422 69.4562 142.554 69.4122 142.642ZM69.5442 137.142C69.3535 136.834 69.1042 136.496 68.7962 136.13C68.4882 135.748 68.1655 135.389 67.8282 135.052C67.5055 134.7 67.2049 134.414 66.9262 134.194L67.6962 133.6C67.9455 133.805 68.2389 134.091 68.5762 134.458C68.9282 134.824 69.2655 135.198 69.5882 135.58C69.9255 135.961 70.1822 136.276 70.3582 136.526L69.5442 137.142ZM71.3262 135.58C71.1355 135.286 70.8789 134.956 70.5562 134.59C70.2335 134.223 69.8962 133.878 69.5442 133.556C69.2069 133.218 68.8989 132.947 68.6202 132.742L69.3682 132.104C69.6175 132.294 69.9182 132.573 70.2702 132.94C70.6369 133.292 70.9889 133.658 71.3262 134.04C71.6782 134.406 71.9422 134.714 72.1182 134.964L71.3262 135.58Z" fill="#026995"/>
<path d="M126.252 37.1988L72.4473 34.0328C65.6883 33.6329 60 38.9817 60 45.7302V46.3135C60 53.0453 65.705 58.3942 72.4473 58.0109L126.252 54.8449V37.1988Z" stroke="#026995" stroke-width="2" stroke-linecap="round" stroke-linejoin="round"/>
<path d="M66.2969 56.6602V85.4706C66.2969 88.8865 69.0741 91.636 72.4871 91.636C75.4316 91.636 77.9746 89.5697 78.5602 86.687L84.4827 57.2767" stroke="#026995" stroke-width="2" stroke-linecap="round" stroke-linejoin="round"/>
<path d="M82.7234 66.043H87.2071L85.8017 73.3914H81.2344L82.7234 66.043Z" stroke="#026995" stroke-width="2" stroke-linecap="round" stroke-linejoin="round"/>
<path d="M72.4141 91.6367V99.9849C72.4141 102.201 72.9494 104.401 74.154 106.267C74.6225 106.983 75.1913 107.55 75.8605 108C76.9647 108.733 78.3031 109 79.6248 109H83.1549C85.564 109 87.9397 108.566 90.1816 107.717L106.494 101.585C108.735 100.735 111.128 100.302 113.52 100.302C117.101 100.302 120.631 101.268 123.709 103.084L128.946 106.184" stroke="#026995" stroke-width="2" stroke-linecap="round" stroke-linejoin="round"/>
<path d="M126.25 54.8284L135.585 60.0273V32L126.25 37.1989" stroke="#026995" stroke-width="2" stroke-linecap="round" stroke-linejoin="round"/>
<path d="M141.141 41.9147H143.132C144.47 41.9147 145.741 41.2648 146.695 40.115C147.632 38.9653 148.92 38.3154 150.259 38.3154H153.002" stroke="#026995" stroke-width="2" stroke-linecap="round" stroke-linejoin="round"/>
<path d="M141.141 51.5289H143.132C144.47 51.5289 145.741 50.8791 146.695 49.7293C147.632 48.5795 148.92 47.9297 150.259 47.9297H153.002" stroke="#026995" stroke-width="2" stroke-linecap="round" stroke-linejoin="round"/>
<rect x="1" y="1" width="210" height="171" rx="9" stroke="#026995" stroke-width="2"/>
</svg>
