<svg width="212" height="173" viewBox="0 0 212 173" fill="none" xmlns="http://www.w3.org/2000/svg">
<path d="M132.479 147.988L131.709 146.602C132.751 146.309 133.829 145.906 134.943 145.393C136.073 144.879 137.187 144.293 138.287 143.633C139.387 142.973 140.436 142.276 141.433 141.543C142.431 140.795 143.333 140.039 144.139 139.276C144.946 138.514 145.621 137.788 146.163 137.099C146.193 137.172 146.251 137.311 146.339 137.517C146.442 137.722 146.545 137.927 146.647 138.133C146.765 138.323 146.838 138.455 146.867 138.529C146.178 139.379 145.291 140.266 144.205 141.19C143.12 142.114 141.925 143.017 140.619 143.897C139.314 144.762 137.957 145.554 136.549 146.273C135.156 146.977 133.799 147.548 132.479 147.988ZM135.383 138.155C135.237 137.993 134.995 137.773 134.657 137.495C134.32 137.216 133.946 136.922 133.535 136.615C133.125 136.306 132.729 136.028 132.347 135.779C131.981 135.529 131.68 135.353 131.445 135.251L132.369 134.062C132.619 134.195 132.934 134.393 133.315 134.657C133.697 134.921 134.093 135.199 134.503 135.493C134.914 135.786 135.288 136.064 135.625 136.328C135.963 136.592 136.205 136.798 136.351 136.944L135.383 138.155Z" fill="#026995"/>
<path d="M111.188 145.964V135.58H123.156V145.964H111.188ZM112.618 144.622H121.726V136.944H112.618V144.622Z" fill="#026995"/>
<path d="M96.1409 149.131V138.439C94.8795 139.349 93.5669 140.192 92.2029 140.969C90.8535 141.732 89.5335 142.399 88.2429 142.971C88.1402 142.781 88.0009 142.568 87.8249 142.333C87.6489 142.084 87.4729 141.879 87.2969 141.717C88.2502 141.365 89.2549 140.918 90.3109 140.375C91.3815 139.833 92.4449 139.224 93.5009 138.549C94.5569 137.875 95.5689 137.163 96.5369 136.415C97.5195 135.653 98.4069 134.883 99.1989 134.105C99.9909 133.313 100.651 132.536 101.179 131.773L102.367 132.631C101.736 133.453 101.01 134.267 100.189 135.073C99.3822 135.865 98.5095 136.628 97.5709 137.361V149.131H96.1409Z" fill="#026995"/>
<path d="M77.4389 140.728C77.3363 140.567 77.1749 140.391 76.9549 140.2C76.7496 140.01 76.5589 139.863 76.3829 139.76C76.8816 139.423 77.4169 138.983 77.9889 138.44C78.5756 137.883 79.1403 137.296 79.6829 136.68C80.2403 136.05 80.7169 135.456 81.1129 134.898C80.5409 134.913 79.8223 134.935 78.9569 134.964C78.1063 134.979 77.1823 135.008 76.1849 135.052C75.1876 135.082 74.1829 135.111 73.1709 135.14C72.1589 135.17 71.1983 135.199 70.2889 135.228C69.3796 135.258 68.5949 135.287 67.9349 135.316C67.2749 135.331 66.7983 135.346 66.5049 135.36L66.4609 133.864C66.8716 133.879 67.4949 133.886 68.3309 133.886C69.1669 133.886 70.1203 133.879 71.1909 133.864C72.2763 133.85 73.3909 133.828 74.5349 133.798C75.6936 133.769 76.7936 133.74 77.8349 133.71C78.8909 133.681 79.8076 133.652 80.5849 133.622C81.3623 133.578 81.9049 133.534 82.2129 133.49L83.0929 134.194C82.8143 134.722 82.4476 135.294 81.9929 135.91C81.5529 136.512 81.0689 137.12 80.5409 137.736C80.0129 138.338 79.4776 138.902 78.9349 139.43C78.4069 139.944 77.9083 140.376 77.4389 140.728ZM69.2549 149.484C69.1523 149.323 68.9983 149.14 68.7929 148.934C68.6023 148.714 68.4043 148.538 68.1989 148.406C70.1643 147.189 71.5796 145.612 72.4449 143.676C73.3103 141.74 73.7283 139.474 73.6989 136.878H75.1509C75.1509 139.724 74.6669 142.202 73.6989 144.314C72.7456 146.412 71.2643 148.135 69.2549 149.484Z" fill="#026995"/>
<rect x="1" y="1" width="210" height="171" rx="9" stroke="#026995" stroke-width="2"/>
<path d="M156.004 92.7684C156.004 92.7684 132.558 37.1715 78.3259 41.0753L67.0938 83.018L86.6295 92.7684H156.004Z" stroke="#026995" stroke-width="2" stroke-linecap="round" stroke-linejoin="round"/>
<path d="M68.9062 76.207L94.4241 84.781H151.871" stroke="#026995" stroke-width="2" stroke-linecap="round" stroke-linejoin="round"/>
<path d="M86.3973 53.5166C109.719 51.9836 119.808 73.8017 119.808 73.8017H81.9688L86.3973 53.5166Z" stroke="#026995" stroke-width="2" stroke-linecap="round" stroke-linejoin="round"/>
<path d="M73.3214 59.7916C73.3214 59.7916 63.625 56.1196 56 61.4493" stroke="#026995" stroke-width="2" stroke-linecap="round" stroke-linejoin="round"/>
<path d="M104.768 73.8023V69.5064C104.768 68.4725 103.929 67.6348 102.893 67.6348H94.125C93.0893 67.6348 92.25 68.4725 92.25 69.5064V73.8023" stroke="#026995" stroke-width="2" stroke-linecap="round" stroke-linejoin="round"/>
<path d="M156.004 100.879H67.0938" stroke="#026995" stroke-width="2" stroke-linecap="round" stroke-linejoin="round"/>
</svg>
