<svg width="212" height="173" viewBox="0 0 212 173" fill="none" xmlns="http://www.w3.org/2000/svg">
<path d="M128.873 147.064L128.081 146.426C128.096 146.206 128.103 145.825 128.103 145.282C128.118 144.725 128.125 144.101 128.125 143.412C128.125 142.723 128.125 142.048 128.125 141.388C128.125 140.728 128.125 140.178 128.125 139.738C128.125 139.195 128.118 138.594 128.103 137.934C128.103 137.259 128.103 136.607 128.103 135.976C128.103 135.345 128.096 134.825 128.081 134.414H129.555C129.555 134.634 129.548 134.964 129.533 135.404C129.533 135.829 129.526 136.306 129.511 136.834C129.511 137.362 129.511 137.883 129.511 138.396C129.511 138.895 129.511 139.327 129.511 139.694V145.216C130.127 144.952 130.824 144.615 131.601 144.204C132.393 143.793 133.185 143.353 133.977 142.884C134.769 142.415 135.488 141.967 136.133 141.542C136.778 141.102 137.262 140.721 137.585 140.398C137.585 140.501 137.607 140.669 137.651 140.904C137.71 141.124 137.768 141.337 137.827 141.542C137.9 141.747 137.944 141.879 137.959 141.938C137.578 142.261 137.094 142.613 136.507 142.994C135.92 143.375 135.275 143.771 134.571 144.182C133.882 144.578 133.185 144.967 132.481 145.348C131.777 145.715 131.11 146.052 130.479 146.36C129.863 146.653 129.328 146.888 128.873 147.064ZM119.215 147.988C119.171 147.915 119.083 147.805 118.951 147.658C118.819 147.497 118.68 147.343 118.533 147.196C118.401 147.035 118.291 146.925 118.203 146.866C119.787 146.015 120.997 145.025 121.833 143.896C122.684 142.752 123.219 141.461 123.439 140.024C123.659 138.587 123.637 137.003 123.373 135.272L124.737 135.14C125.192 138.044 124.994 140.545 124.143 142.642C123.307 144.739 121.664 146.521 119.215 147.988Z" fill="#026995"/>
<path d="M104.672 149.33V132.28H106.08V149.33H104.672ZM112.592 142.62C112.167 142.43 111.661 142.18 111.074 141.872C110.487 141.55 109.879 141.205 109.248 140.838C108.617 140.472 108.023 140.112 107.466 139.76C106.923 139.394 106.476 139.078 106.124 138.814L106.938 137.692C107.29 137.956 107.737 138.264 108.28 138.616C108.837 138.954 109.424 139.298 110.04 139.65C110.656 139.988 111.265 140.31 111.866 140.618C112.467 140.912 112.995 141.146 113.45 141.322C113.391 141.381 113.296 141.506 113.164 141.696C113.047 141.872 112.929 142.056 112.812 142.246C112.709 142.422 112.636 142.547 112.592 142.62Z" fill="#026995"/>
<path d="M81.7062 149.66C81.6622 149.572 81.5669 149.447 81.4202 149.286C81.2882 149.125 81.1489 148.971 81.0022 148.824C80.8702 148.663 80.7602 148.56 80.6722 148.516C82.6375 147.489 84.0895 146.14 85.0282 144.468C85.9815 142.796 86.4949 140.882 86.5682 138.726H81.4422C80.8849 139.445 80.2835 140.127 79.6382 140.772C78.9929 141.403 78.3035 141.975 77.5702 142.488C77.5262 142.429 77.4309 142.327 77.2842 142.18C77.1375 142.033 76.9909 141.894 76.8442 141.762C76.6975 141.615 76.5802 141.52 76.4922 141.476C77.5629 140.801 78.5455 139.951 79.4402 138.924C80.3495 137.897 81.1269 136.79 81.7722 135.602C82.4322 134.399 82.9089 133.211 83.2022 132.038L84.6102 132.456C84.1115 134.172 83.3782 135.8 82.4102 137.34H93.5862V138.726H87.9982C87.8369 143.654 85.7395 147.299 81.7062 149.66Z" fill="#026995"/>
<path d="M202 171V173H10V171H202ZM210 163V10C210 5.58172 206.418 2 202 2H10C5.58172 2 2 5.58172 2 10V163C2 167.418 5.58172 171 10 171V173L9.48535 172.987C4.20167 172.719 0 168.35 0 163V10C0 4.47715 4.47715 8.05322e-08 10 0H202C207.523 0 212 4.47715 212 10V163C212 168.35 207.798 172.719 202.515 172.987L202 173V171C206.418 171 210 167.418 210 163Z" fill="#026995"/>
<path d="M116.572 44.375C118.66 44.375 120.343 45.9918 120.57 48.0469L120.571 48.0508L125.588 94.8193V94.8203C125.89 97.6705 124.532 100.457 122.097 101.894L122.096 101.893L119.648 103.343C119.173 103.624 118.559 103.466 118.278 102.991C117.997 102.516 118.154 101.902 118.63 101.621L121.08 100.172L121.081 100.171C122.817 99.1471 123.821 97.1303 123.598 95.0312V95.0303L118.583 48.2676L118.551 48.0635C118.349 47.0646 117.513 46.375 116.572 46.375H96.447C95.4551 46.3752 94.5595 47.1632 94.4373 48.2676L89.4207 95.0322C89.2122 96.9998 90.0822 98.8952 91.6218 99.9678L91.9392 100.171L91.9402 100.172L94.3904 101.621C94.8654 101.902 95.0221 102.516 94.741 102.991C94.4597 103.466 93.8469 103.624 93.3718 103.343L90.9226 101.893C88.4878 100.456 87.13 97.6704 87.4324 94.8203V94.8193L92.449 48.0508V48.0469C92.6768 45.9889 94.3769 44.3752 96.447 44.375H116.572Z" fill="#026995"/>
<path d="M119.128 101.482L119.654 101.496C125.065 101.779 129.33 106.403 129.33 112C129.33 112.552 128.882 113 128.33 113H84.7109C84.1587 113 83.7109 112.552 83.7109 112C83.711 106.224 88.2393 101.482 93.9131 101.482H119.128ZM93.4932 103.493C89.4987 103.703 86.2296 106.885 85.7686 111H127.271C126.809 106.886 123.53 103.703 119.546 103.493L119.128 103.482H93.9131L93.4932 103.493Z" fill="#026995"/>
<path d="M139.513 44.3604C140.961 44.3605 142 45.5924 142 46.9414V46.9512C141.794 68.8893 137.347 81.1211 134.618 86.6006C133.418 89.0098 131.021 90.5224 128.371 90.5225H89.04C88.6393 90.5225 88.2772 90.2835 88.12 89.915L70.08 47.627C69.9483 47.3181 69.9808 46.9638 70.1659 46.6836C70.351 46.4034 70.6641 46.2344 70.9999 46.2344H74.9667C76.4148 46.2344 77.7363 47.0219 78.4491 48.2969L91.7343 71.9453C92.0046 72.4267 91.8337 73.0361 91.3525 73.3066C90.8709 73.5771 90.2607 73.4063 89.9901 72.9248L76.705 49.2764L76.704 49.2744C76.3375 48.6179 75.676 48.2344 74.9667 48.2344H72.5136L89.6991 88.5225H128.371C130.241 88.5224 131.957 87.4581 132.828 85.709C135.407 80.5289 139.796 68.6028 140 46.9414C140 46.5632 139.727 46.3605 139.513 46.3604H134.088C133.914 46.3604 133.739 46.462 133.651 46.6494L133.619 46.7354C133.248 48.0229 132.363 50.1107 130.299 51.877C128.219 53.6557 125.036 55.0293 120.219 55.0293C119.667 55.0293 119.219 54.5814 119.219 54.0293C119.219 53.477 119.666 53.0293 120.219 53.0293C124.633 53.0293 127.334 51.7808 128.999 50.3564C130.678 48.9197 131.397 47.2222 131.697 46.1816C132.007 45.1059 132.974 44.3604 134.088 44.3604H139.513Z" fill="#026995"/>
<path d="M106.534 37.4639C109.359 37.4639 111.69 38.1353 113.58 39.4521C115.464 40.7652 116.829 42.6632 117.822 44.9814C118.039 45.4891 117.803 46.0775 117.295 46.2949C116.788 46.512 116.2 46.2761 115.983 45.7686C115.094 43.6943 113.936 42.1371 112.437 41.0928C110.944 40.0523 109.031 39.4639 106.534 39.4639C104.035 39.4639 102.122 40.0493 100.629 41.0879C99.1314 42.1301 97.9728 43.6864 97.0844 45.7676C96.8676 46.2755 96.2799 46.5117 95.7719 46.2949C95.264 46.0781 95.0278 45.4904 95.2446 44.9824C96.2373 42.6566 97.6018 40.7578 99.4868 39.4463C101.377 38.131 103.71 37.4639 106.534 37.4639Z" fill="#026995"/>
<path d="M109.244 29C110.863 29.0003 111.97 30.4876 111.717 32.0088L111.715 32.0176L110.505 38.915C110.41 39.4588 109.891 39.822 109.347 39.7266C108.804 39.631 108.441 39.1131 108.536 38.5693L109.746 31.6719C109.808 31.2658 109.518 31.0003 109.244 31H103.818C103.53 31.0002 103.246 31.2914 103.314 31.6641L103.316 31.6719L104.526 38.5693C104.621 39.113 104.258 39.6309 103.714 39.7266C103.171 39.822 102.652 39.4588 102.556 38.915L101.347 32.0254C101.066 30.4949 102.21 29.0002 103.818 29H109.244Z" fill="#026995"/>
</svg>
